<?xml version="1.0" encoding="UTF-8" standalone="no"?>
<svg
   xmlns:dc="http://purl.org/dc/elements/1.1/"
   xmlns:cc="http://creativecommons.org/ns#"
   xmlns:rdf="http://www.w3.org/1999/02/22-rdf-syntax-ns#"
   xmlns:svg="http://www.w3.org/2000/svg"
   xmlns="http://www.w3.org/2000/svg"
   xmlns:xlink="http://www.w3.org/1999/xlink"
   xmlns:sodipodi="http://sodipodi.sourceforge.net/DTD/sodipodi-0.dtd"
   xmlns:inkscape="http://www.inkscape.org/namespaces/inkscape"
   inkscape:version="1.0 (4035a4fb49, 2020-05-01)"
   sodipodi:docname="convnet_tuebingen.svg"
   id="svg926"
   width="526.64496pt"
   viewBox="0 0 526.64496 225.13372"
   version="1.1"
   height="225.13371pt">
  <metadata
     id="metadata930">
    <rdf:RDF>
      <cc:Work
         rdf:about="">
        <dc:format>image/svg+xml</dc:format>
        <dc:type
           rdf:resource="http://purl.org/dc/dcmitype/StillImage" />
        <dc:title></dc:title>
      </cc:Work>
    </rdf:RDF>
  </metadata>
  <sodipodi:namedview
     inkscape:current-layer="svg926"
     inkscape:window-maximized="1"
     inkscape:window-y="-8"
     inkscape:window-x="-8"
     inkscape:cy="123.71078"
     inkscape:cx="333.08823"
     inkscape:zoom="1.4101383"
     fit-margin-bottom="2"
     fit-margin-right="2"
     fit-margin-left="2"
     fit-margin-top="2"
     lock-margins="true"
     showgrid="false"
     id="namedview928"
     inkscape:window-height="1017"
     inkscape:window-width="1920"
     inkscape:pageshadow="2"
     inkscape:pageopacity="0"
     guidetolerance="10"
     gridtolerance="10"
     objecttolerance="10"
     borderopacity="1"
     bordercolor="#666666"
     pagecolor="#ffffff" />
  <defs
     id="defs4">
    <style
       id="style2"
       type="text/css">
*{stroke-linecap:butt;stroke-linejoin:round;}
  </style>
    <clipPath
       id="clipEmfPath1"
       clipPathUnits="userSpaceOnUse">
      <path
         id="path1969"
         d="M 22.977008,22.977008 H 381.20945 V 58.486929 H 22.977008 Z" />
    </clipPath>
  </defs>
  <g
     transform="translate(-22.231617,-7.433589)"
     id="patch_2">
    <path
       id="path9"
       style="fill:#b2b2b2;stroke:#000000;stroke-linejoin:miter"
       d="m 213.16299,45.669118 h 37.68627 V 33.892157 h -37.68627 z"
       clip-path="url(#p042dd7d610)" />
  </g>
  <g
     transform="translate(-22.231617,-7.433589)"
     id="patch_3">
    <path
       id="path12"
       style="fill:#808080;stroke:#000000;stroke-linejoin:miter"
       d="m 220.22916,52.735294 h 37.68628 v -11.77696 h -37.68628 z"
       clip-path="url(#p042dd7d610)" />
  </g>
  <g
     transform="translate(-22.231617,-7.433589)"
     id="patch_4">
    <path
       id="path15"
       style="stroke:#000000;stroke-linejoin:miter"
       d="m 242.60539,51.557598 c 0.31233,0 0.61191,-0.124089 0.83276,-0.344939 0.22085,-0.22085 0.34494,-0.520428 0.34494,-0.832757 0,-0.312328 -0.12409,-0.611907 -0.34494,-0.832757 -0.22085,-0.220849 -0.52043,-0.344939 -0.83276,-0.344939 -0.31233,0 -0.61191,0.12409 -0.83276,0.344939 -0.22085,0.22085 -0.34494,0.520429 -0.34494,0.832757 0,0.312329 0.12409,0.611907 0.34494,0.832757 0.22085,0.22085 0.52043,0.344939 0.83276,0.344939 z"
       clip-path="url(#p042dd7d610)" />
  </g>
  <g
     transform="translate(-22.231617,-7.433589)"
     id="patch_5">
    <path
       id="path18"
       style="stroke:#000000;stroke-linejoin:miter"
       d="m 249.67157,58.623775 c 0.31233,0 0.6119,-0.12409 0.83275,-0.34494 0.22085,-0.220849 0.34494,-0.520428 0.34494,-0.832756 0,-0.312329 -0.12409,-0.611908 -0.34494,-0.832757 -0.22085,-0.22085 -0.52042,-0.344939 -0.83275,-0.344939 -0.31233,0 -0.61191,0.124089 -0.83276,0.344939 -0.22085,0.220849 -0.34494,0.520428 -0.34494,0.832757 0,0.312328 0.12409,0.611907 0.34494,0.832756 0.22085,0.22085 0.52043,0.34494 0.83276,0.34494 z"
       clip-path="url(#p042dd7d610)" />
  </g>
  <g
     transform="translate(-22.231617,-7.433589)"
     id="patch_6">
    <path
       id="path21"
       style="stroke:#000000;stroke-linejoin:miter"
       d="m 256.73774,65.689951 c 0.31233,0 0.61191,-0.124089 0.83276,-0.344939 0.22085,-0.22085 0.34494,-0.520428 0.34494,-0.832757 0,-0.312329 -0.12409,-0.611907 -0.34494,-0.832757 -0.22085,-0.22085 -0.52043,-0.344939 -0.83276,-0.344939 -0.31233,0 -0.6119,0.124089 -0.83275,0.344939 -0.22085,0.22085 -0.34494,0.520428 -0.34494,0.832757 0,0.312329 0.12409,0.611907 0.34494,0.832757 0.22085,0.22085 0.52042,0.344939 0.83275,0.344939 z"
       clip-path="url(#p042dd7d610)" />
  </g>
  <g
     transform="translate(-22.231617,-7.433589)"
     id="patch_7">
    <path
       id="path24"
       style="stroke:#000000;stroke-linejoin:miter"
       d="m 263.80392,72.756128 c 0.31233,0 0.61191,-0.12409 0.83276,-0.34494 0.22085,-0.220849 0.34494,-0.520428 0.34494,-0.832757 0,-0.312328 -0.12409,-0.611907 -0.34494,-0.832756 -0.22085,-0.22085 -0.52043,-0.34494 -0.83276,-0.34494 -0.31233,0 -0.61191,0.12409 -0.83276,0.34494 -0.22085,0.220849 -0.34494,0.520428 -0.34494,0.832756 0,0.312329 0.12409,0.611908 0.34494,0.832757 0.22085,0.22085 0.52043,0.34494 0.83276,0.34494 z"
       clip-path="url(#p042dd7d610)" />
  </g>
  <g
     transform="translate(-22.231617,-7.433589)"
     id="patch_8">
    <path
       id="path27"
       style="fill:#b2b2b2;stroke:#000000;stroke-linejoin:miter"
       d="m 255.56005,88.066176 h 37.68627 v -11.77696 h -37.68627 z"
       clip-path="url(#p042dd7d610)" />
  </g>
  <g
     transform="translate(-22.231617,-7.433589)"
     id="patch_9">
    <path
       id="path30"
       style="fill:#808080;stroke:#000000;stroke-linejoin:miter"
       d="M 262.62622,95.132353 H 300.3125 V 83.355392 h -37.68628 z"
       clip-path="url(#p042dd7d610)" />
  </g>
  <g
     transform="translate(-22.231617,-7.433589)"
     id="patch_10">
    <path
       id="path33"
       style="fill:#b2b2b2;stroke:#000000;stroke-linejoin:miter"
       d="m 118.9473,45.669118 h 37.68628 V 33.892157 H 118.9473 Z"
       clip-path="url(#p042dd7d610)" />
  </g>
  <g
     transform="translate(-22.231617,-7.433589)"
     id="patch_11">
    <path
       id="path36"
       style="fill:#808080;stroke:#000000;stroke-linejoin:miter"
       d="m 126.01348,52.735294 h 37.68627 v -11.77696 h -37.68627 z"
       clip-path="url(#p042dd7d610)" />
  </g>
  <g
     transform="translate(-22.231617,-7.433589)"
     id="patch_12">
    <path
       id="path39"
       style="stroke:#000000;stroke-linejoin:miter"
       d="m 148.3897,51.557598 c 0.31233,0 0.61191,-0.124089 0.83276,-0.344939 0.22085,-0.22085 0.34494,-0.520428 0.34494,-0.832757 0,-0.312328 -0.12409,-0.611907 -0.34494,-0.832757 -0.22085,-0.220849 -0.52043,-0.344939 -0.83276,-0.344939 -0.31232,0 -0.6119,0.12409 -0.83275,0.344939 -0.22085,0.22085 -0.34494,0.520429 -0.34494,0.832757 0,0.312329 0.12409,0.611907 0.34494,0.832757 0.22085,0.22085 0.52043,0.344939 0.83275,0.344939 z"
       clip-path="url(#p042dd7d610)" />
  </g>
  <g
     transform="translate(-22.231617,-7.433589)"
     id="patch_13">
    <path
       id="path42"
       style="stroke:#000000;stroke-linejoin:miter"
       d="m 155.45588,58.623775 c 0.31233,0 0.61191,-0.12409 0.83276,-0.34494 0.22085,-0.220849 0.34494,-0.520428 0.34494,-0.832756 0,-0.312329 -0.12409,-0.611908 -0.34494,-0.832757 -0.22085,-0.22085 -0.52043,-0.344939 -0.83276,-0.344939 -0.31233,0 -0.61191,0.124089 -0.83276,0.344939 -0.22085,0.220849 -0.34494,0.520428 -0.34494,0.832757 0,0.312328 0.12409,0.611907 0.34494,0.832756 0.22085,0.22085 0.52043,0.34494 0.83276,0.34494 z"
       clip-path="url(#p042dd7d610)" />
  </g>
  <g
     transform="translate(-22.231617,-7.433589)"
     id="patch_14">
    <path
       id="path45"
       style="stroke:#000000;stroke-linejoin:miter"
       d="m 162.52206,65.689951 c 0.31233,0 0.6119,-0.124089 0.83275,-0.344939 0.22085,-0.22085 0.34494,-0.520428 0.34494,-0.832757 0,-0.312329 -0.12409,-0.611907 -0.34494,-0.832757 -0.22085,-0.22085 -0.52042,-0.344939 -0.83275,-0.344939 -0.31233,0 -0.61191,0.124089 -0.83276,0.344939 -0.22085,0.22085 -0.34494,0.520428 -0.34494,0.832757 0,0.312329 0.12409,0.611907 0.34494,0.832757 0.22085,0.22085 0.52043,0.344939 0.83276,0.344939 z"
       clip-path="url(#p042dd7d610)" />
  </g>
  <g
     transform="translate(-22.231617,-7.433589)"
     id="patch_15">
    <path
       id="path48"
       style="stroke:#000000;stroke-linejoin:miter"
       d="m 169.58823,72.756128 c 0.31233,0 0.61191,-0.12409 0.83276,-0.34494 0.22085,-0.220849 0.34494,-0.520428 0.34494,-0.832757 0,-0.312328 -0.12409,-0.611907 -0.34494,-0.832756 -0.22085,-0.22085 -0.52043,-0.34494 -0.83276,-0.34494 -0.31233,0 -0.6119,0.12409 -0.83275,0.34494 -0.22085,0.220849 -0.34494,0.520428 -0.34494,0.832756 0,0.312329 0.12409,0.611908 0.34494,0.832757 0.22085,0.22085 0.52042,0.34494 0.83275,0.34494 z"
       clip-path="url(#p042dd7d610)" />
  </g>
  <g
     transform="translate(-22.231617,-7.433589)"
     id="patch_16">
    <path
       id="path51"
       style="fill:#b2b2b2;stroke:#000000;stroke-linejoin:miter"
       d="m 161.34436,88.066176 h 37.68628 v -11.77696 h -37.68628 z"
       clip-path="url(#p042dd7d610)" />
  </g>
  <g
     transform="translate(-22.231617,-7.433589)"
     id="patch_17">
    <path
       id="path54"
       style="fill:#808080;stroke:#000000;stroke-linejoin:miter"
       d="m 168.41054,95.132353 h 37.68627 V 83.355392 h -37.68627 z"
       clip-path="url(#p042dd7d610)" />
  </g>
  <g
     transform="translate(-22.231617,-7.433589)"
     id="patch_18">
    <path
       id="path57"
       style="fill:#b2b2b2;stroke:#000000;stroke-linejoin:miter"
       d="M 24.731617,45.669118 H 62.417892 V 33.892157 H 24.731617 Z"
       clip-path="url(#p042dd7d610)" />
  </g>
  <g
     transform="translate(-22.231617,-7.433589)"
     id="patch_19">
    <path
       id="path60"
       style="fill:#4c4c4c;stroke:#000000;stroke-linejoin:miter"
       d="M 35.095343,33.892157 H 46.872304 V 45.669118 H 35.095343 Z"
       clip-path="url(#p042dd7d610)" />
  </g>
  <g
     transform="translate(-22.231617,-7.433589)"
     id="patch_20">
    <path
       id="path63"
       style="fill:#4c4c4c;stroke:#000000;stroke-linejoin:miter"
       d="m 186.54706,83.355392 h 11.77696 v 11.776961 h -11.77696 z"
       clip-path="url(#p042dd7d610)" />
  </g>
  <g
     transform="translate(-2.731617,-7.433589)"
     id="patch_21">
    <path
       id="path66"
       style="fill:#b2b2b2;stroke:#000000;stroke-linejoin:miter"
       d="m 307.37867,38.602941 h 4.71079 v -4.710784 h -4.71079 z"
       clip-path="url(#p042dd7d610)" />
  </g>
  <g
     transform="translate(-2.731617,-7.433589)"
     id="patch_22">
    <path
       id="path69"
       style="fill:#808080;stroke:#000000;stroke-linejoin:miter"
       d="m 312.08946,43.313726 h 4.71078 v -4.710785 h -4.71078 z"
       clip-path="url(#p042dd7d610)" />
  </g>
  <g
     transform="translate(-2.731617,-7.433589)"
     id="patch_23">
    <path
       id="path72"
       style="fill:#b2b2b2;stroke:#000000;stroke-linejoin:miter"
       d="m 316.80024,48.02451 h 4.71079 v -4.710784 h -4.71079 z"
       clip-path="url(#p042dd7d610)" />
  </g>
  <g
     transform="translate(-2.731617,-7.433589)"
     id="patch_24">
    <path
       id="path75"
       style="fill:#808080;stroke:#000000;stroke-linejoin:miter"
       d="m 321.51103,52.735294 h 4.71078 V 48.02451 h -4.71078 z"
       clip-path="url(#p042dd7d610)" />
  </g>
  <g
     transform="translate(-2.731617,-7.433589)"
     id="patch_25">
    <path
       id="path78"
       style="fill:#b2b2b2;stroke:#000000;stroke-linejoin:miter"
       d="m 326.22181,57.446079 h 4.71079 v -4.710785 h -4.71079 z"
       clip-path="url(#p042dd7d610)" />
  </g>
  <g
     transform="translate(-2.731617,-7.433589)"
     id="patch_26">
    <path
       id="path81"
       style="fill:#808080;stroke:#000000;stroke-linejoin:miter"
       d="m 330.9326,62.156863 h 4.71078 v -4.710784 h -4.71078 z"
       clip-path="url(#p042dd7d610)" />
  </g>
  <g
     transform="translate(-2.731617,-7.433589)"
     id="patch_27">
    <path
       id="path84"
       style="fill:#b2b2b2;stroke:#000000;stroke-linejoin:miter"
       d="m 335.64338,66.867647 h 4.71078 v -4.710784 h -4.71078 z"
       clip-path="url(#p042dd7d610)" />
  </g>
  <g
     transform="translate(-2.731617,-7.433589)"
     id="patch_28">
    <path
       id="path87"
       style="fill:#808080;stroke:#000000;stroke-linejoin:miter"
       d="m 340.35416,71.578431 h 4.71079 v -4.710784 h -4.71079 z"
       clip-path="url(#p042dd7d610)" />
  </g>
  <g
     transform="translate(-2.731617,-7.433589)"
     id="patch_29">
    <path
       id="path90"
       style="stroke:#000000;stroke-linejoin:miter"
       d="m 347.42034,75.11152 c 0.31233,0 0.61191,-0.12409 0.83276,-0.34494 0.22085,-0.220849 0.34494,-0.520428 0.34494,-0.832756 0,-0.312329 -0.12409,-0.611908 -0.34494,-0.832757 -0.22085,-0.22085 -0.52043,-0.344939 -0.83276,-0.344939 -0.31233,0 -0.61191,0.124089 -0.83276,0.344939 -0.22085,0.220849 -0.34494,0.520428 -0.34494,0.832757 0,0.312328 0.12409,0.611907 0.34494,0.832756 0.22085,0.22085 0.52043,0.34494 0.83276,0.34494 z"
       clip-path="url(#p042dd7d610)" />
  </g>
  <g
     transform="translate(-2.731617,-7.433589)"
     id="patch_30">
    <path
       id="path93"
       style="stroke:#000000;stroke-linejoin:miter"
       d="m 352.13112,79.822304 c 0.31233,0 0.61191,-0.12409 0.83276,-0.344939 0.22085,-0.22085 0.34494,-0.520428 0.34494,-0.832757 0,-0.312329 -0.12409,-0.611907 -0.34494,-0.832757 -0.22085,-0.22085 -0.52043,-0.344939 -0.83276,-0.344939 -0.31232,0 -0.6119,0.124089 -0.83275,0.344939 -0.22085,0.22085 -0.34494,0.520428 -0.34494,0.832757 0,0.312329 0.12409,0.611907 0.34494,0.832757 0.22085,0.220849 0.52043,0.344939 0.83275,0.344939 z"
       clip-path="url(#p042dd7d610)" />
  </g>
  <g
     transform="translate(-2.731617,-7.433589)"
     id="patch_31">
    <path
       id="path96"
       style="stroke:#000000;stroke-linejoin:miter"
       d="m 356.84191,84.533088 c 0.31233,0 0.61191,-0.124089 0.83276,-0.344939 0.22085,-0.22085 0.34494,-0.520428 0.34494,-0.832757 0,-0.312329 -0.12409,-0.611907 -0.34494,-0.832757 -0.22085,-0.220849 -0.52043,-0.344939 -0.83276,-0.344939 -0.31233,0 -0.61191,0.12409 -0.83276,0.344939 -0.22085,0.22085 -0.34494,0.520428 -0.34494,0.832757 0,0.312329 0.12409,0.611907 0.34494,0.832757 0.22085,0.22085 0.52043,0.344939 0.83276,0.344939 z"
       clip-path="url(#p042dd7d610)" />
  </g>
  <g
     transform="translate(-2.731617,-7.433589)"
     id="patch_32">
    <path
       id="path99"
       style="stroke:#000000;stroke-linejoin:miter"
       d="m 361.55269,89.243872 c 0.31233,0 0.61191,-0.124089 0.83276,-0.344939 0.22085,-0.220849 0.34494,-0.520428 0.34494,-0.832757 0,-0.312328 -0.12409,-0.611907 -0.34494,-0.832756 -0.22085,-0.22085 -0.52043,-0.34494 -0.83276,-0.34494 -0.31233,0 -0.6119,0.12409 -0.83275,0.34494 -0.22085,0.220849 -0.34494,0.520428 -0.34494,0.832756 0,0.312329 0.12409,0.611908 0.34494,0.832757 0.22085,0.22085 0.52042,0.344939 0.83275,0.344939 z"
       clip-path="url(#p042dd7d610)" />
  </g>
  <g
     transform="translate(-2.731617,-7.433589)"
     id="patch_33">
    <path
       id="path102"
       style="fill:#b2b2b2;stroke:#000000;stroke-linejoin:miter"
       d="m 363.90809,95.132353 h 4.71078 v -4.710784 h -4.71078 z"
       clip-path="url(#p042dd7d610)" />
  </g>
  <g
     transform="translate(-2.731617,-7.433589)"
     id="patch_34">
    <path
       id="path105"
       style="fill:#808080;stroke:#000000;stroke-linejoin:miter"
       d="m 368.61887,99.843137 h 4.71078 v -4.710784 h -4.71078 z"
       clip-path="url(#p042dd7d610)" />
  </g>
  <g
     transform="translate(-2.731617,-7.433589)"
     id="patch_35">
    <path
       id="path108"
       style="fill:#b2b2b2;stroke:#000000;stroke-linejoin:miter"
       d="m 373.32965,104.55392 h 4.71079 v -4.710783 h -4.71079 z"
       clip-path="url(#p042dd7d610)" />
  </g>
  <g
     transform="translate(-2.731617,-7.433589)"
     id="patch_36">
    <path
       id="path111"
       style="fill:#808080;stroke:#000000;stroke-linejoin:miter"
       d="m 378.04044,109.26471 h 4.71078 v -4.71079 h -4.71078 z"
       clip-path="url(#p042dd7d610)" />
  </g>
  <g
     transform="translate(-2.731617,-7.433589)"
     id="patch_37">
    <path
       id="path114"
       style="fill:#b2b2b2;stroke:#000000;stroke-linejoin:miter"
       d="m 382.75122,113.97549 h 4.71079 v -4.71078 h -4.71079 z"
       clip-path="url(#p042dd7d610)" />
  </g>
  <g
     transform="translate(-2.731617,-7.433589)"
     id="patch_38">
    <path
       id="path117"
       style="fill:#808080;stroke:#000000;stroke-linejoin:miter"
       d="m 387.46201,118.68627 h 4.71078 v -4.71078 h -4.71078 z"
       clip-path="url(#p042dd7d610)" />
  </g>
  <g
     transform="translate(-2.731617,-7.433589)"
     id="patch_39">
    <path
       id="path120"
       style="fill:#b2b2b2;stroke:#000000;stroke-linejoin:miter"
       d="m 392.17279,123.39706 h 4.71079 v -4.71079 h -4.71079 z"
       clip-path="url(#p042dd7d610)" />
  </g>
  <g
     transform="translate(-2.731617,-7.433589)"
     id="patch_40">
    <path
       id="path123"
       style="fill:#808080;stroke:#000000;stroke-linejoin:miter"
       d="m 396.88358,128.10784 h 4.71078 v -4.71078 h -4.71078 z"
       clip-path="url(#p042dd7d610)" />
  </g>
  <g
     transform="translate(-2.731617,-7.433589)"
     id="patch_41">
    <path
       id="path126"
       style="fill:#b2b2b2;stroke:#000000;stroke-linejoin:miter"
       d="m 401.59436,38.602941 h 4.71078 v -4.710784 h -4.71078 z"
       clip-path="url(#p042dd7d610)" />
  </g>
  <g
     transform="translate(-2.731617,-7.433589)"
     id="patch_42">
    <path
       id="path129"
       style="fill:#808080;stroke:#000000;stroke-linejoin:miter"
       d="m 406.30514,43.313726 h 4.71079 v -4.710785 h -4.71079 z"
       clip-path="url(#p042dd7d610)" />
  </g>
  <g
     transform="translate(-2.731617,-7.433589)"
     id="patch_43">
    <path
       id="path132"
       style="fill:#b2b2b2;stroke:#000000;stroke-linejoin:miter"
       d="m 411.01593,48.02451 h 4.71078 v -4.710784 h -4.71078 z"
       clip-path="url(#p042dd7d610)" />
  </g>
  <g
     transform="translate(-2.731617,-7.433589)"
     id="patch_44">
    <path
       id="path135"
       style="fill:#808080;stroke:#000000;stroke-linejoin:miter"
       d="m 415.72671,52.735294 h 4.71079 V 48.02451 h -4.71079 z"
       clip-path="url(#p042dd7d610)" />
  </g>
  <g
     transform="translate(-2.731617,-7.433589)"
     id="patch_45">
    <path
       id="path138"
       style="fill:#b2b2b2;stroke:#000000;stroke-linejoin:miter"
       d="m 420.4375,57.446079 h 4.71078 v -4.710785 h -4.71078 z"
       clip-path="url(#p042dd7d610)" />
  </g>
  <g
     transform="translate(-2.731617,-7.433589)"
     id="patch_46">
    <path
       id="path141"
       style="fill:#808080;stroke:#000000;stroke-linejoin:miter"
       d="m 425.14828,62.156863 h 4.71079 v -4.710784 h -4.71079 z"
       clip-path="url(#p042dd7d610)" />
  </g>
  <g
     transform="translate(-2.731617,-7.433589)"
     id="patch_47">
    <path
       id="path144"
       style="fill:#b2b2b2;stroke:#000000;stroke-linejoin:miter"
       d="m 429.85907,66.867647 h 4.71078 v -4.710784 h -4.71078 z"
       clip-path="url(#p042dd7d610)" />
  </g>
  <g
     transform="translate(-2.731617,-7.433589)"
     id="patch_48">
    <path
       id="path147"
       style="fill:#808080;stroke:#000000;stroke-linejoin:miter"
       d="m 434.56985,71.578431 h 4.71078 v -4.710784 h -4.71078 z"
       clip-path="url(#p042dd7d610)" />
  </g>
  <g
     transform="translate(-2.731617,-7.433589)"
     id="patch_49">
    <path
       id="path150"
       style="stroke:#000000;stroke-linejoin:miter"
       d="m 441.63603,75.11152 c 0.31232,0 0.6119,-0.12409 0.83275,-0.34494 0.22085,-0.220849 0.34494,-0.520428 0.34494,-0.832756 0,-0.312329 -0.12409,-0.611908 -0.34494,-0.832757 -0.22085,-0.22085 -0.52043,-0.344939 -0.83275,-0.344939 -0.31233,0 -0.61191,0.124089 -0.83276,0.344939 -0.22085,0.220849 -0.34494,0.520428 -0.34494,0.832757 0,0.312328 0.12409,0.611907 0.34494,0.832756 0.22085,0.22085 0.52043,0.34494 0.83276,0.34494 z"
       clip-path="url(#p042dd7d610)" />
  </g>
  <g
     transform="translate(-2.731617,-7.433589)"
     id="patch_50">
    <path
       id="path153"
       style="stroke:#000000;stroke-linejoin:miter"
       d="m 446.34681,79.822304 c 0.31233,0 0.61191,-0.12409 0.83276,-0.344939 0.22085,-0.22085 0.34494,-0.520428 0.34494,-0.832757 0,-0.312329 -0.12409,-0.611907 -0.34494,-0.832757 -0.22085,-0.22085 -0.52043,-0.344939 -0.83276,-0.344939 -0.31233,0 -0.61191,0.124089 -0.83276,0.344939 -0.22085,0.22085 -0.34494,0.520428 -0.34494,0.832757 0,0.312329 0.12409,0.611907 0.34494,0.832757 0.22085,0.220849 0.52043,0.344939 0.83276,0.344939 z"
       clip-path="url(#p042dd7d610)" />
  </g>
  <g
     transform="translate(-2.731617,-7.433589)"
     id="patch_51">
    <path
       id="path156"
       style="stroke:#000000;stroke-linejoin:miter"
       d="m 451.05759,84.533088 c 0.31233,0 0.61191,-0.124089 0.83276,-0.344939 0.22085,-0.22085 0.34494,-0.520428 0.34494,-0.832757 0,-0.312329 -0.12409,-0.611907 -0.34494,-0.832757 -0.22085,-0.220849 -0.52043,-0.344939 -0.83276,-0.344939 -0.31232,0 -0.6119,0.12409 -0.83275,0.344939 -0.22085,0.22085 -0.34494,0.520428 -0.34494,0.832757 0,0.312329 0.12409,0.611907 0.34494,0.832757 0.22085,0.22085 0.52043,0.344939 0.83275,0.344939 z"
       clip-path="url(#p042dd7d610)" />
  </g>
  <g
     transform="translate(-2.731617,-7.433589)"
     id="patch_52">
    <path
       id="path159"
       style="stroke:#000000;stroke-linejoin:miter"
       d="m 455.76838,89.243872 c 0.31233,0 0.61191,-0.124089 0.83276,-0.344939 0.22085,-0.220849 0.34493,-0.520428 0.34493,-0.832757 0,-0.312328 -0.12408,-0.611907 -0.34493,-0.832756 -0.22085,-0.22085 -0.52043,-0.34494 -0.83276,-0.34494 -0.31233,0 -0.61191,0.12409 -0.83276,0.34494 -0.22085,0.220849 -0.34494,0.520428 -0.34494,0.832756 0,0.312329 0.12409,0.611908 0.34494,0.832757 0.22085,0.22085 0.52043,0.344939 0.83276,0.344939 z"
       clip-path="url(#p042dd7d610)" />
  </g>
  <g
     transform="translate(-2.731617,-7.433589)"
     id="patch_53">
    <path
       id="path162"
       style="fill:#b2b2b2;stroke:#000000;stroke-linejoin:miter"
       d="m 458.12377,95.132353 h 4.71079 v -4.710784 h -4.71079 z"
       clip-path="url(#p042dd7d610)" />
  </g>
  <g
     transform="translate(-2.731617,-7.433589)"
     id="patch_54">
    <path
       id="path165"
       style="fill:#808080;stroke:#000000;stroke-linejoin:miter"
       d="m 462.83456,99.843137 h 4.71078 v -4.710784 h -4.71078 z"
       clip-path="url(#p042dd7d610)" />
  </g>
  <g
     transform="translate(-2.731617,-7.433589)"
     id="patch_55">
    <path
       id="path168"
       style="fill:#b2b2b2;stroke:#000000;stroke-linejoin:miter"
       d="m 467.54534,104.55392 h 4.71078 v -4.710783 h -4.71078 z"
       clip-path="url(#p042dd7d610)" />
  </g>
  <g
     transform="translate(-2.731617,-7.433589)"
     id="patch_56">
    <path
       id="path171"
       style="fill:#808080;stroke:#000000;stroke-linejoin:miter"
       d="m 472.25612,109.26471 h 4.71079 v -4.71079 h -4.71079 z"
       clip-path="url(#p042dd7d610)" />
  </g>
  <g
     transform="translate(-2.731617,-7.433589)"
     id="patch_57">
    <path
       id="path174"
       style="fill:#b2b2b2;stroke:#000000;stroke-linejoin:miter"
       d="m 476.96691,113.97549 h 4.71078 v -4.71078 h -4.71078 z"
       clip-path="url(#p042dd7d610)" />
  </g>
  <g
     transform="translate(-2.731617,-7.433589)"
     id="patch_58">
    <path
       id="path177"
       style="fill:#808080;stroke:#000000;stroke-linejoin:miter"
       d="m 481.67769,118.68627 h 4.71079 v -4.71078 h -4.71079 z"
       clip-path="url(#p042dd7d610)" />
  </g>
  <g
     transform="translate(-2.731617,-7.433589)"
     id="patch_59">
    <path
       id="path180"
       style="fill:#b2b2b2;stroke:#000000;stroke-linejoin:miter"
       d="m 486.38848,123.39706 h 4.71078 v -4.71079 h -4.71078 z"
       clip-path="url(#p042dd7d610)" />
  </g>
  <g
     transform="translate(-2.731617,-7.433589)"
     id="patch_60">
    <path
       id="path183"
       style="fill:#808080;stroke:#000000;stroke-linejoin:miter"
       d="m 491.09926,128.10784 h 4.71079 v -4.71078 h -4.71079 z"
       clip-path="url(#p042dd7d610)" />
  </g>
  <g
     transform="translate(-2.731617,-7.433589)"
     id="patch_61">
    <path
       id="path186"
       style="fill:#b2b2b2;stroke:#000000;stroke-linejoin:miter"
       d="m 495.81005,38.602941 h 4.71078 v -4.710784 h -4.71078 z"
       clip-path="url(#p042dd7d610)" />
  </g>
  <g
     transform="translate(-2.731617,-7.433589)"
     id="patch_62">
    <path
       id="path189"
       style="fill:#808080;stroke:#000000;stroke-linejoin:miter"
       d="m 500.52083,43.313726 h 4.71078 v -4.710785 h -4.71078 z"
       clip-path="url(#p042dd7d610)" />
  </g>
  <g
     transform="translate(-2.731617,-7.433589)"
     id="patch_63">
    <path
       id="path192"
       style="fill:#b2b2b2;stroke:#000000;stroke-linejoin:miter"
       d="m 505.23161,48.02451 h 4.71079 v -4.710784 h -4.71079 z"
       clip-path="url(#p042dd7d610)" />
  </g>
  <g
     transform="translate(-2.731617,-7.433589)"
     id="patch_64">
    <path
       id="path195"
       style="fill:#808080;stroke:#000000;stroke-linejoin:miter"
       d="m 509.9424,52.735294 h 4.71078 V 48.02451 h -4.71078 z"
       clip-path="url(#p042dd7d610)" />
  </g>
  <g
     transform="translate(-2.731617,-7.433589)"
     id="patch_65">
    <path
       id="path198"
       style="fill:#b2b2b2;stroke:#000000;stroke-linejoin:miter"
       d="m 514.65318,57.446079 h 4.71079 v -4.710785 h -4.71079 z"
       clip-path="url(#p042dd7d610)" />
  </g>
  <g
     transform="translate(-22.231617,-7.433589)"
     id="line2d_1">
    <path
       id="path201"
       style="fill:none;stroke:#262626;stroke-width:1.5;stroke-linecap:square"
       d="M 35.095343,33.892157 179.71642,89.243872"
       clip-path="url(#p042dd7d610)" />
  </g>
  <g
     transform="translate(-22.231617,-7.433589)"
     id="line2d_2">
    <path
       id="path204"
       style="fill:none;stroke:#262626;stroke-width:1.5;stroke-linecap:square"
       d="M 46.872304,33.892157 179.71642,89.243872"
       clip-path="url(#p042dd7d610)" />
  </g>
  <g
     transform="translate(-22.231617,-7.433589)"
     id="line2d_3">
    <path
       id="path207"
       style="fill:none;stroke:#262626;stroke-width:1.5;stroke-linecap:square"
       d="M 35.095343,45.669118 179.71642,89.243872"
       clip-path="url(#p042dd7d610)" />
  </g>
  <g
     transform="translate(-22.231617,-7.433589)"
     id="line2d_4">
    <path
       id="path210"
       style="fill:none;stroke:#262626;stroke-width:1.5;stroke-linecap:square"
       d="M 46.872304,45.669118 179.71642,89.243872"
       clip-path="url(#p042dd7d610)" />
  </g>
  <g
     transform="translate(-22.231617,-7.433589)"
     id="line2d_5">
    <path
       id="path213"
       style="fill:none;stroke:#262626;stroke-width:1.5;stroke-linecap:square"
       d="m 186.54706,83.355392 106.22818,5.88848"
       clip-path="url(#p042dd7d610)" />
  </g>
  <g
     transform="translate(-22.231617,-7.433589)"
     id="line2d_6">
    <path
       id="path216"
       style="fill:none;stroke:#262626;stroke-width:1.5;stroke-linecap:square"
       d="m 198.32402,83.355392 94.45122,5.88848"
       clip-path="url(#p042dd7d610)" />
  </g>
  <g
     transform="translate(-22.231617,-7.433589)"
     id="line2d_7">
    <path
       id="path219"
       style="fill:none;stroke:#262626;stroke-width:1.5;stroke-linecap:square"
       d="M 186.54706,95.132353 292.77524,89.243872"
       clip-path="url(#p042dd7d610)" />
  </g>
  <g
     transform="translate(-22.231617,-7.433589)"
     id="line2d_8">
    <path
       id="path222"
       style="fill:none;stroke:#262626;stroke-width:1.5;stroke-linecap:square"
       d="m 198.32402,95.132353 94.45122,-5.888481"
       clip-path="url(#p042dd7d610)" />
  </g>
  <g
     transform="translate(-22.231617,-7.433589)"
     id="text_1">
    <!-- BN -->
    <defs
       id="defs227">
      <path
         id="DejaVuSans-66"
         d="M 19.671875,34.8125 V 8.109375 H 35.5 q 7.953125,0 11.78125,3.296875 3.84375,3.296875 3.84375,10.078125 0,6.84375 -3.84375,10.078125 -3.828125,3.25 -11.78125,3.25 z m 0,29.984375 V 42.828125 H 34.28125 q 7.21875,0 10.75,2.703125 3.546875,2.71875 3.546875,8.28125 0,5.515625 -3.546875,8.25 -3.53125,2.734375 -10.75,2.734375 z M 9.8125,72.90625 h 25.203125 q 11.28125,0 17.375,-4.6875 Q 58.5,63.53125 58.5,54.890625 58.5,48.1875 55.375,44.234375 52.25,40.28125 46.1875,39.3125 53.46875,37.75 57.5,32.78125 q 4.03125,-4.953125 4.03125,-12.375 0,-9.765625 -6.640625,-15.09375 Q 48.25,0 35.984375,0 H 9.8125 Z" />
      <path
         id="DejaVuSans-78"
         d="M 9.8125,72.90625 H 23.09375 L 55.421875,11.921875 V 72.90625 h 9.5625 V 0 h -13.28125 l -32.3125,60.984375 V 0 H 9.8125 Z" />
    </defs>
    <g
       id="g233"
       transform="matrix(0.08,0,0,-0.08,24.731617,153.97836)">
      <use
         height="100%"
         width="100%"
         y="0"
         x="0"
         id="use229"
         xlink:href="#DejaVuSans-66" />
      <use
         height="100%"
         width="100%"
         y="0"
         id="use231"
         xlink:href="#DejaVuSans-78"
         x="68.603516" />
    </g>
    <!--  -->
    <g
       id="g235"
       transform="matrix(0.08,0,0,-0.08,24.731617,162.93661)" />
    <!--  -->
    <g
       id="g237"
       transform="matrix(0.08,0,0,-0.08,24.731617,171.89486)" />
    <!--  -->
    <g
       id="g239"
       transform="matrix(0.08,0,0,-0.08,24.731617,180.85311)" />
    <!--  -->
    <g
       id="g241"
       transform="matrix(0.08,0,0,-0.08,24.731617,189.81136)" />
    <!--  -->
    <g
       id="g243"
       transform="matrix(0.08,0,0,-0.08,24.731617,198.76961)" />
  </g>
  <g
     transform="translate(-22.231617,-7.433589)"
     id="text_2">
    <!-- Feature Maps -->
    <defs
       id="defs256">
      <path
         id="DejaVuSans-70"
         d="m 9.8125,72.90625 h 41.890625 v -8.3125 H 19.671875 V 43.109375 h 28.90625 V 34.8125 H 19.671875 V 0 H 9.8125 Z" />
      <path
         id="DejaVuSans-101"
         d="m 56.203125,29.59375 v -4.390625 h -41.3125 q 0.59375,-9.28125 5.59375,-14.140625 5,-4.859375 13.9375,-4.859375 5.171875,0 10.03125,1.265625 4.859375,1.265625 9.65625,3.8125 v -8.5 q -4.84375,-2.046875 -9.921875,-3.125 -5.078125,-1.078125 -10.296875,-1.078125 -13.09375,0 -20.734375,7.609375 -7.640625,7.625 -7.640625,20.625 0,13.421875 7.25,21.296875 Q 20.015625,56 32.328125,56 q 11.03125,0 17.453125,-7.109375 6.421875,-7.09375 6.421875,-19.296875 z m -8.984375,2.640625 q -0.09375,7.359375 -4.125,11.75 -4.03125,4.40625 -10.671875,4.40625 -7.515625,0 -12.03125,-4.25 -4.515625,-4.25 -5.203125,-11.96875 z" />
      <path
         id="DejaVuSans-97"
         d="m 34.28125,27.484375 q -10.890625,0 -15.09375,-2.484375 -4.203125,-2.484375 -4.203125,-8.5 0,-4.78125 3.15625,-7.59375 3.15625,-2.796875 8.5625,-2.796875 7.484375,0 12,5.296875 4.515625,5.296875 4.515625,14.078125 v 2 z m 17.921875,3.71875 V 0 H 43.21875 v 8.296875 q -3.078125,-4.96875 -7.671875,-7.34375 -4.59375,-2.375 -11.234375,-2.375 -8.390625,0 -13.359375,4.71875 Q 6,8.015625 6,15.921875 q 0,9.21875 6.171875,13.90625 6.1875,4.6875 18.4375,4.6875 H 43.21875 v 0.890625 q 0,6.203125 -4.078125,9.59375 -4.078125,3.390625 -11.453125,3.390625 -4.6875,0 -9.140625,-1.125 -4.4375,-1.125 -8.53125,-3.375 v 8.3125 q 4.921875,1.90625 9.5625,2.84375 Q 24.21875,56 28.609375,56 q 11.875,0 17.734375,-6.15625 5.859375,-6.140625 5.859375,-18.640625 z" />
      <path
         id="DejaVuSans-116"
         d="M 18.3125,70.21875 V 54.6875 h 18.5 v -6.984375 h -18.5 v -29.6875 q 0,-6.6875 1.828125,-8.59375 1.828125,-1.90625 7.453125,-1.90625 H 36.8125 V 0 H 27.59375 Q 17.1875,0 13.234375,3.875 9.28125,7.765625 9.28125,18.015625 v 29.6875 H 2.6875 V 54.6875 h 6.59375 v 15.53125 z" />
      <path
         id="DejaVuSans-117"
         d="M 8.5,21.578125 V 54.6875 h 8.984375 V 21.921875 q 0,-7.765625 3.015625,-11.65625 3.03125,-3.875 9.09375,-3.875 7.265625,0 11.484375,4.640625 4.234375,4.640625 4.234375,12.65625 v 31 h 8.984375 V 0 H 45.3125 V 8.40625 Q 42.046875,3.421875 37.71875,1 33.40625,-1.421875 27.6875,-1.421875 18.265625,-1.421875 13.375,4.4375 8.5,10.296875 8.5,21.578125 Z M 31.109375,56 Z" />
      <path
         id="DejaVuSans-114"
         d="m 41.109375,46.296875 q -1.515625,0.875 -3.296875,1.28125 Q 36.03125,48 33.890625,48 26.265625,48 22.1875,43.046875 18.109375,38.09375 18.109375,28.8125 V 0 h -9.03125 v 54.6875 h 9.03125 v -8.5 q 2.84375,4.984375 7.375,7.390625 Q 30.03125,56 36.53125,56 q 0.921875,0 2.046875,-0.125 1.125,-0.109375 2.484375,-0.359375 z" />
      <path
         d=""
         id="DejaVuSans-32" />
      <path
         id="DejaVuSans-77"
         d="M 9.8125,72.90625 H 24.515625 L 43.109375,23.296875 61.8125,72.90625 H 76.515625 V 0 h -9.625 v 64.015625 l -18.796875,-50 H 38.1875 l -18.796875,50 V 0 H 9.8125 Z" />
      <path
         id="DejaVuSans-112"
         d="m 18.109375,8.203125 v -29 H 9.078125 V 54.6875 h 9.03125 v -8.296875 q 2.84375,4.875 7.15625,7.234375 Q 29.59375,56 35.59375,56 q 9.96875,0 16.1875,-7.90625 6.234375,-7.90625 6.234375,-20.796875 0,-12.890625 -6.234375,-20.8125 -6.21875,-7.90625 -16.1875,-7.90625 -6,0 -10.328125,2.375 -4.3125,2.375 -7.15625,7.25 z M 48.6875,27.296875 q 0,9.90625 -4.078125,15.546875 -4.078125,5.640625 -11.203125,5.640625 -7.140625,0 -11.21875,-5.640625 -4.078125,-5.640625 -4.078125,-15.546875 0,-9.90625 4.078125,-15.546875 4.078125,-5.640625 11.21875,-5.640625 7.125,0 11.203125,5.640625 4.078125,5.640625 4.078125,15.546875 z" />
      <path
         id="DejaVuSans-115"
         d="m 44.28125,53.078125 v -8.5 Q 40.484375,46.53125 36.375,47.5 q -4.09375,0.984375 -8.5,0.984375 -6.6875,0 -10.03125,-2.046875 Q 14.5,44.390625 14.5,40.28125 q 0,-3.125 2.390625,-4.90625 2.390625,-1.78125 9.625,-3.390625 l 3.078125,-0.6875 Q 39.15625,29.25 43.1875,25.515625 47.21875,21.78125 47.21875,15.09375 q 0,-7.625 -6.03125,-12.078125 -6.03125,-4.4375 -16.578125,-4.4375 -4.390625,0 -9.15625,0.859375 Q 10.6875,0.296875 5.421875,2 v 9.28125 q 4.984375,-2.59375 9.8125,-3.890625 4.828125,-1.28125 9.578125,-1.28125 6.34375,0 9.75,2.171875 3.421875,2.171875 3.421875,6.125 0,3.65625 -2.46875,5.609375 -2.453125,1.953125 -10.8125,3.765625 l -3.125,0.734375 q -8.34375,1.75 -12.0625,5.390625 -3.703125,3.640625 -3.703125,9.984375 0,7.71875 5.46875,11.90625 Q 16.75,56 26.8125,56 q 4.96875,0 9.359375,-0.734375 4.40625,-0.71875 8.109375,-2.1875 z" />
    </defs>
    <g
       id="g282"
       transform="matrix(0.08,0,0,-0.08,213.16299,15.512339)">
      <use
         height="100%"
         width="100%"
         y="0"
         x="0"
         id="use258"
         xlink:href="#DejaVuSans-70" />
      <use
         height="100%"
         width="100%"
         y="0"
         id="use260"
         xlink:href="#DejaVuSans-101"
         x="57.441406" />
      <use
         height="100%"
         width="100%"
         y="0"
         id="use262"
         xlink:href="#DejaVuSans-97"
         x="118.96484" />
      <use
         height="100%"
         width="100%"
         y="0"
         id="use264"
         xlink:href="#DejaVuSans-116"
         x="180.24414" />
      <use
         height="100%"
         width="100%"
         y="0"
         id="use266"
         xlink:href="#DejaVuSans-117"
         x="219.45312" />
      <use
         height="100%"
         width="100%"
         y="0"
         id="use268"
         xlink:href="#DejaVuSans-114"
         x="282.83203" />
      <use
         height="100%"
         width="100%"
         y="0"
         id="use270"
         xlink:href="#DejaVuSans-101"
         x="323.91406" />
      <use
         height="100%"
         width="100%"
         y="0"
         id="use272"
         xlink:href="#DejaVuSans-32"
         x="385.4375" />
      <use
         height="100%"
         width="100%"
         y="0"
         id="use274"
         xlink:href="#DejaVuSans-77"
         x="417.22461" />
      <use
         height="100%"
         width="100%"
         y="0"
         id="use276"
         xlink:href="#DejaVuSans-97"
         x="503.50391" />
      <use
         height="100%"
         width="100%"
         y="0"
         id="use278"
         xlink:href="#DejaVuSans-112"
         x="564.7832" />
      <use
         height="100%"
         width="100%"
         y="0"
         id="use280"
         xlink:href="#DejaVuSans-115"
         x="628.25977" />
    </g>
    <!-- 96 Kanäle -->
    <defs
       id="defs290">
      <path
         id="DejaVuSans-57"
         d="M 10.984375,1.515625 V 10.5 Q 14.703125,8.734375 18.5,7.8125 q 3.8125,-0.921875 7.484375,-0.921875 9.765625,0 14.90625,6.5625 5.15625,6.5625 5.890625,19.953125 -2.828125,-4.203125 -7.1875,-6.453125 -4.34375,-2.25 -9.609375,-2.25 -10.9375,0 -17.3125,6.609375 -6.375,6.625 -6.375,18.109375 0,11.21875 6.640625,18 6.640625,6.796875 17.671875,6.796875 12.65625,0 19.3125,-9.703125 6.671875,-9.6875 6.671875,-28.140625 0,-17.234375 -8.1875,-27.515625 -8.171875,-10.28125 -21.984375,-10.28125 -3.71875,0 -7.53125,0.734375 -3.796875,0.734375 -7.90625,2.203125 z m 19.625,30.90625 q 6.640625,0 10.515625,4.53125 3.890625,4.546875 3.890625,12.46875 0,7.859375 -3.890625,12.421875 -3.875,4.5625 -10.515625,4.5625 -6.640625,0 -10.515625,-4.5625 -3.875,-4.5625 -3.875,-12.421875 0,-7.921875 3.875,-12.46875 3.875,-4.53125 10.515625,-4.53125 z" />
      <path
         id="DejaVuSans-54"
         d="m 33.015625,40.375 q -6.640625,0 -10.53125,-4.546875 -3.875,-4.53125 -3.875,-12.4375 0,-7.859375 3.875,-12.4375 3.890625,-4.5625 10.53125,-4.5625 6.640625,0 10.515625,4.5625 3.875,4.578125 3.875,12.4375 0,7.90625 -3.875,12.4375 Q 39.65625,40.375 33.015625,40.375 Z M 52.59375,71.296875 V 62.3125 q -3.71875,1.75 -7.5,2.671875 -3.78125,0.9375 -7.5,0.9375 -9.765625,0 -14.921875,-6.59375 -5.140625,-6.59375 -5.875,-19.921875 2.875,4.25 7.21875,6.515625 4.359375,2.265625 9.578125,2.265625 10.984375,0 17.359375,-6.671875 6.375,-6.65625 6.375,-18.125 0,-11.234375 -6.640625,-18.03125 -6.640625,-6.78125 -17.671875,-6.78125 -12.65625,0 -19.34375,9.6875 -6.6875,9.703125 -6.6875,28.109375 0,17.28125 8.203125,27.5625 8.203125,10.28125 22.015625,10.28125 3.71875,0 7.5,-0.734375 3.78125,-0.734375 7.890625,-2.1875 z" />
      <path
         id="DejaVuSans-75"
         d="m 9.8125,72.90625 h 9.859375 v -30.8125 l 32.71875,30.8125 H 65.09375 L 28.90625,38.921875 67.671875,0 H 54.6875 L 19.671875,35.109375 V 0 H 9.8125 Z" />
      <path
         id="DejaVuSans-110"
         d="M 54.890625,33.015625 V 0 H 45.90625 v 32.71875 q 0,7.765625 -3.03125,11.609375 -3.03125,3.859375 -9.078125,3.859375 -7.28125,0 -11.484375,-4.640625 -4.203125,-4.625 -4.203125,-12.640625 V 0 h -9.03125 v 54.6875 h 9.03125 v -8.5 q 3.234375,4.9375 7.59375,7.375 4.375,2.4375 10.09375,2.4375 9.421875,0 14.25,-5.828125 4.84375,-5.828125 4.84375,-17.15625 z" />
      <path
         id="DejaVuSans-228"
         d="m 34.28125,27.484375 q -10.890625,0 -15.09375,-2.484375 -4.203125,-2.484375 -4.203125,-8.5 0,-4.78125 3.15625,-7.59375 3.15625,-2.796875 8.5625,-2.796875 7.484375,0 12,5.296875 4.515625,5.296875 4.515625,14.078125 v 2 z m 17.921875,3.71875 V 0 H 43.21875 v 8.296875 q -3.078125,-4.96875 -7.671875,-7.34375 -4.59375,-2.375 -11.234375,-2.375 -8.390625,0 -13.359375,4.71875 Q 6,8.015625 6,15.921875 q 0,9.21875 6.171875,13.90625 6.1875,4.6875 18.4375,4.6875 H 43.21875 v 0.890625 q 0,6.203125 -4.078125,9.59375 -4.078125,3.390625 -11.453125,3.390625 -4.6875,0 -9.140625,-1.125 -4.4375,-1.125 -8.53125,-3.375 v 8.3125 q 4.921875,1.90625 9.5625,2.84375 Q 24.21875,56 28.609375,56 q 11.875,0 17.734375,-6.15625 5.859375,-6.140625 5.859375,-18.640625 z M 33.59375,75.78125 H 43.5 v -9.859375 h -9.90625 z m -19.09375,0 h 9.921875 V 65.921875 H 14.5 Z" />
      <path
         id="DejaVuSans-108"
         d="M 9.421875,75.984375 H 18.40625 V 0 H 9.421875 Z" />
    </defs>
    <g
       id="g310"
       transform="matrix(0.08,0,0,-0.08,213.16299,24.470589)">
      <use
         height="100%"
         width="100%"
         y="0"
         x="0"
         id="use292"
         xlink:href="#DejaVuSans-57" />
      <use
         height="100%"
         width="100%"
         y="0"
         id="use294"
         xlink:href="#DejaVuSans-54"
         x="63.623047" />
      <use
         height="100%"
         width="100%"
         y="0"
         id="use296"
         xlink:href="#DejaVuSans-32"
         x="127.24609" />
      <use
         height="100%"
         width="100%"
         y="0"
         id="use298"
         xlink:href="#DejaVuSans-75"
         x="159.0332" />
      <use
         height="100%"
         width="100%"
         y="0"
         id="use300"
         xlink:href="#DejaVuSans-97"
         x="224.59375" />
      <use
         height="100%"
         width="100%"
         y="0"
         id="use302"
         xlink:href="#DejaVuSans-110"
         x="285.87305" />
      <use
         height="100%"
         width="100%"
         y="0"
         id="use304"
         xlink:href="#DejaVuSans-228"
         x="349.25195" />
      <use
         height="100%"
         width="100%"
         y="0"
         id="use306"
         xlink:href="#DejaVuSans-108"
         x="410.53125" />
      <use
         height="100%"
         width="100%"
         y="0"
         id="use308"
         xlink:href="#DejaVuSans-101"
         x="438.31445" />
    </g>
  </g>
  <g
     transform="translate(-22.231617,-7.433589)"
     id="text_3">
    <!-- Feature Maps -->
    <g
       id="g337"
       transform="matrix(0.08,0,0,-0.08,118.9473,15.512339)">
      <use
         height="100%"
         width="100%"
         y="0"
         x="0"
         id="use313"
         xlink:href="#DejaVuSans-70" />
      <use
         height="100%"
         width="100%"
         y="0"
         id="use315"
         xlink:href="#DejaVuSans-101"
         x="57.441406" />
      <use
         height="100%"
         width="100%"
         y="0"
         id="use317"
         xlink:href="#DejaVuSans-97"
         x="118.96484" />
      <use
         height="100%"
         width="100%"
         y="0"
         id="use319"
         xlink:href="#DejaVuSans-116"
         x="180.24414" />
      <use
         height="100%"
         width="100%"
         y="0"
         id="use321"
         xlink:href="#DejaVuSans-117"
         x="219.45312" />
      <use
         height="100%"
         width="100%"
         y="0"
         id="use323"
         xlink:href="#DejaVuSans-114"
         x="282.83203" />
      <use
         height="100%"
         width="100%"
         y="0"
         id="use325"
         xlink:href="#DejaVuSans-101"
         x="323.91406" />
      <use
         height="100%"
         width="100%"
         y="0"
         id="use327"
         xlink:href="#DejaVuSans-32"
         x="385.4375" />
      <use
         height="100%"
         width="100%"
         y="0"
         id="use329"
         xlink:href="#DejaVuSans-77"
         x="417.22461" />
      <use
         height="100%"
         width="100%"
         y="0"
         id="use331"
         xlink:href="#DejaVuSans-97"
         x="503.50391" />
      <use
         height="100%"
         width="100%"
         y="0"
         id="use333"
         xlink:href="#DejaVuSans-112"
         x="564.7832" />
      <use
         height="100%"
         width="100%"
         y="0"
         id="use335"
         xlink:href="#DejaVuSans-115"
         x="628.25977" />
    </g>
    <!-- 96 Kanäle -->
    <g
       id="g357"
       transform="matrix(0.08,0,0,-0.08,118.9473,24.470589)">
      <use
         height="100%"
         width="100%"
         y="0"
         x="0"
         id="use339"
         xlink:href="#DejaVuSans-57" />
      <use
         height="100%"
         width="100%"
         y="0"
         id="use341"
         xlink:href="#DejaVuSans-54"
         x="63.623047" />
      <use
         height="100%"
         width="100%"
         y="0"
         id="use343"
         xlink:href="#DejaVuSans-32"
         x="127.24609" />
      <use
         height="100%"
         width="100%"
         y="0"
         id="use345"
         xlink:href="#DejaVuSans-75"
         x="159.0332" />
      <use
         height="100%"
         width="100%"
         y="0"
         id="use347"
         xlink:href="#DejaVuSans-97"
         x="224.59375" />
      <use
         height="100%"
         width="100%"
         y="0"
         id="use349"
         xlink:href="#DejaVuSans-110"
         x="285.87305" />
      <use
         height="100%"
         width="100%"
         y="0"
         id="use351"
         xlink:href="#DejaVuSans-228"
         x="349.25195" />
      <use
         height="100%"
         width="100%"
         y="0"
         id="use353"
         xlink:href="#DejaVuSans-108"
         x="410.53125" />
      <use
         height="100%"
         width="100%"
         y="0"
         id="use355"
         xlink:href="#DejaVuSans-101"
         x="438.31445" />
    </g>
  </g>
  <g
     transform="translate(-22.231617,-7.433589)"
     id="text_4">
    <!-- Inputs -->
    <defs
       id="defs361">
      <path
         id="DejaVuSans-73"
         d="m 9.8125,72.90625 h 9.859375 V 0 H 9.8125 Z" />
    </defs>
    <g
       id="g375"
       transform="matrix(0.08,0,0,-0.08,24.731617,15.512339)">
      <use
         height="100%"
         width="100%"
         y="0"
         x="0"
         id="use363"
         xlink:href="#DejaVuSans-73" />
      <use
         height="100%"
         width="100%"
         y="0"
         id="use365"
         xlink:href="#DejaVuSans-110"
         x="29.492188" />
      <use
         height="100%"
         width="100%"
         y="0"
         id="use367"
         xlink:href="#DejaVuSans-112"
         x="92.871094" />
      <use
         height="100%"
         width="100%"
         y="0"
         id="use369"
         xlink:href="#DejaVuSans-117"
         x="156.34766" />
      <use
         height="100%"
         width="100%"
         y="0"
         id="use371"
         xlink:href="#DejaVuSans-116"
         x="219.72656" />
      <use
         height="100%"
         width="100%"
         y="0"
         id="use373"
         xlink:href="#DejaVuSans-115"
         x="258.93555" />
    </g>
    <!-- 1x1920 -->
    <defs
       id="defs381">
      <path
         id="DejaVuSans-49"
         d="m 12.40625,8.296875 h 16.109375 v 55.625 L 10.984375,60.40625 v 8.984375 l 17.4375,3.515625 H 38.28125 V 8.296875 H 54.390625 V 0 H 12.40625 Z" />
      <path
         id="DejaVuSans-120"
         d="M 54.890625,54.6875 35.109375,28.078125 55.90625,0 H 45.3125 L 29.390625,21.484375 13.484375,0 H 2.875 L 24.125,28.609375 4.6875,54.6875 h 10.59375 l 14.5,-19.484375 14.5,19.484375 z" />
      <path
         id="DejaVuSans-50"
         d="M 19.1875,8.296875 H 53.609375 V 0 H 7.328125 v 8.296875 q 5.609375,5.8125 15.296875,15.59375 9.703125,9.796875 12.1875,12.640625 4.734375,5.3125 6.609375,9 1.890625,3.6875 1.890625,7.25 0,5.8125 -4.078125,9.46875 -4.078125,3.671875 -10.625,3.671875 -4.640625,0 -9.796875,-1.609375 -5.140625,-1.609375 -11,-4.890625 v 9.96875 Q 13.765625,71.78125 18.9375,73 q 5.1875,1.21875 9.484375,1.21875 11.328125,0 18.0625,-5.671875 6.734375,-5.65625 6.734375,-15.125 0,-4.5 -1.6875,-8.53125 Q 49.859375,40.875 45.40625,35.40625 44.1875,33.984375 37.640625,27.21875 31.109375,20.453125 19.1875,8.296875 Z" />
      <path
         id="DejaVuSans-48"
         d="m 31.78125,66.40625 q -7.609375,0 -11.453125,-7.5 Q 16.5,51.421875 16.5,36.375 q 0,-14.984375 3.828125,-22.484375 3.84375,-7.5 11.453125,-7.5 7.671875,0 11.5,7.5 3.84375,7.5 3.84375,22.484375 0,15.046875 -3.84375,22.53125 -3.828125,7.5 -11.5,7.5 z m 0,7.8125 q 12.265625,0 18.734375,-9.703125 6.46875,-9.6875 6.46875,-28.140625 0,-18.40625 -6.46875,-28.109375 -6.46875,-9.6875 -18.734375,-9.6875 -12.25,0 -18.71875,9.6875 Q 6.59375,17.96875 6.59375,36.375 q 0,18.453125 6.46875,28.140625 6.46875,9.703125 18.71875,9.703125 z" />
    </defs>
    <g
       id="g395"
       transform="matrix(0.08,0,0,-0.08,24.731617,24.470589)">
      <use
         height="100%"
         width="100%"
         y="0"
         x="0"
         id="use383"
         xlink:href="#DejaVuSans-49" />
      <use
         height="100%"
         width="100%"
         y="0"
         id="use385"
         xlink:href="#DejaVuSans-120"
         x="63.623047" />
      <use
         height="100%"
         width="100%"
         y="0"
         id="use387"
         xlink:href="#DejaVuSans-49"
         x="122.80273" />
      <use
         height="100%"
         width="100%"
         y="0"
         id="use389"
         xlink:href="#DejaVuSans-57"
         x="186.42578" />
      <use
         height="100%"
         width="100%"
         y="0"
         id="use391"
         xlink:href="#DejaVuSans-50"
         x="250.04883" />
      <use
         height="100%"
         width="100%"
         y="0"
         id="use393"
         xlink:href="#DejaVuSans-48"
         x="313.67188" />
    </g>
  </g>
  <g
     transform="translate(-22.231617,-7.433589)"
     id="text_5">
    <!-- Convolution -->
    <defs
       id="defs402">
      <path
         id="DejaVuSans-67"
         d="M 64.40625,67.28125 V 56.890625 q -4.984375,4.640625 -10.625,6.921875 -5.640625,2.296875 -11.984375,2.296875 -12.5,0 -19.140625,-7.640625 -6.640625,-7.640625 -6.640625,-22.09375 0,-14.40625 6.640625,-22.046875 Q 29.296875,6.6875 41.796875,6.6875 q 6.34375,0 11.984375,2.296875 5.640625,2.296875 10.625,6.9375 V 5.609375 Q 59.234375,2.09375 53.4375,0.328125 q -5.78125,-1.75 -12.21875,-1.75 -16.5625,0 -26.09375,10.125 Q 5.609375,18.84375 5.609375,36.375 q 0,17.578125 9.515625,27.703125 9.53125,10.140625 26.09375,10.140625 6.53125,0 12.3125,-1.734375 5.796875,-1.734375 10.875,-5.203125 z" />
      <path
         id="DejaVuSans-111"
         d="m 30.609375,48.390625 q -7.21875,0 -11.421875,-5.640625 -4.203125,-5.640625 -4.203125,-15.453125 0,-9.8125 4.171875,-15.453125 4.1875,-5.640625 11.453125,-5.640625 7.1875,0 11.375,5.65625 4.203125,5.671875 4.203125,15.4375 0,9.71875 -4.203125,15.40625 -4.1875,5.6875 -11.375,5.6875 z m 0,7.609375 q 11.71875,0 18.40625,-7.625 6.703125,-7.609375 6.703125,-21.078125 0,-13.421875 -6.703125,-21.078125 -6.6875,-7.640625 -18.40625,-7.640625 -11.765625,0 -18.4375,7.640625 -6.65625,7.65625 -6.65625,21.078125 0,13.46875 6.65625,21.078125 Q 18.84375,56 30.609375,56 Z" />
      <path
         id="DejaVuSans-118"
         d="M 2.984375,54.6875 H 12.5 L 29.59375,8.796875 46.6875,54.6875 h 9.515625 L 35.6875,0 H 23.484375 Z" />
      <path
         id="DejaVuSans-105"
         d="M 9.421875,54.6875 H 18.40625 V 0 H 9.421875 Z m 0,21.296875 H 18.40625 V 64.59375 H 9.421875 Z" />
    </defs>
    <g
       id="g426"
       transform="matrix(0.08,0,0,-0.08,85.971813,153.97836)">
      <use
         height="100%"
         width="100%"
         y="0"
         x="0"
         id="use404"
         xlink:href="#DejaVuSans-67" />
      <use
         height="100%"
         width="100%"
         y="0"
         id="use406"
         xlink:href="#DejaVuSans-111"
         x="69.824219" />
      <use
         height="100%"
         width="100%"
         y="0"
         id="use408"
         xlink:href="#DejaVuSans-110"
         x="131.00586" />
      <use
         height="100%"
         width="100%"
         y="0"
         id="use410"
         xlink:href="#DejaVuSans-118"
         x="194.38477" />
      <use
         height="100%"
         width="100%"
         y="0"
         id="use412"
         xlink:href="#DejaVuSans-111"
         x="253.56445" />
      <use
         height="100%"
         width="100%"
         y="0"
         id="use414"
         xlink:href="#DejaVuSans-108"
         x="314.74609" />
      <use
         height="100%"
         width="100%"
         y="0"
         id="use416"
         xlink:href="#DejaVuSans-117"
         x="342.5293" />
      <use
         height="100%"
         width="100%"
         y="0"
         id="use418"
         xlink:href="#DejaVuSans-116"
         x="405.9082" />
      <use
         height="100%"
         width="100%"
         y="0"
         id="use420"
         xlink:href="#DejaVuSans-105"
         x="445.11719" />
      <use
         height="100%"
         width="100%"
         y="0"
         id="use422"
         xlink:href="#DejaVuSans-111"
         x="472.90039" />
      <use
         height="100%"
         width="100%"
         y="0"
         id="use424"
         xlink:href="#DejaVuSans-110"
         x="534.08203" />
    </g>
    <!-- 1x5 Filter -->
    <defs
       id="defs429">
      <path
         id="DejaVuSans-53"
         d="m 10.796875,72.90625 h 38.71875 v -8.3125 h -29.6875 V 46.734375 q 2.140625,0.734375 4.28125,1.09375 2.15625,0.359375 4.3125,0.359375 Q 40.625,48.1875 47.75,41.5 54.890625,34.8125 54.890625,23.390625 54.890625,11.625 47.5625,5.09375 40.234375,-1.421875 26.90625,-1.421875 q -4.59375,0 -9.359375,0.78125 -4.75,0.78125 -9.828125,2.34375 V 11.625 q 4.390625,-2.390625 9.078125,-3.5625 4.6875,-1.171875 9.90625,-1.171875 8.453125,0 13.375,4.4375 4.9375,4.4375 4.9375,12.0625 0,7.609375 -4.9375,12.046875 -4.921875,4.453125 -13.375,4.453125 -3.953125,0 -7.890625,-0.875 -3.921875,-0.875 -8.015625,-2.734375 z" />
    </defs>
    <g
       id="g451"
       transform="matrix(0.08,0,0,-0.08,85.971813,162.93661)">
      <use
         height="100%"
         width="100%"
         y="0"
         x="0"
         id="use431"
         xlink:href="#DejaVuSans-49" />
      <use
         height="100%"
         width="100%"
         y="0"
         id="use433"
         xlink:href="#DejaVuSans-120"
         x="63.623047" />
      <use
         height="100%"
         width="100%"
         y="0"
         id="use435"
         xlink:href="#DejaVuSans-53"
         x="122.80273" />
      <use
         height="100%"
         width="100%"
         y="0"
         id="use437"
         xlink:href="#DejaVuSans-32"
         x="186.42578" />
      <use
         height="100%"
         width="100%"
         y="0"
         id="use439"
         xlink:href="#DejaVuSans-70"
         x="218.21289" />
      <use
         height="100%"
         width="100%"
         y="0"
         id="use441"
         xlink:href="#DejaVuSans-105"
         x="275.62305" />
      <use
         height="100%"
         width="100%"
         y="0"
         id="use443"
         xlink:href="#DejaVuSans-108"
         x="303.40625" />
      <use
         height="100%"
         width="100%"
         y="0"
         id="use445"
         xlink:href="#DejaVuSans-116"
         x="331.18945" />
      <use
         height="100%"
         width="100%"
         y="0"
         id="use447"
         xlink:href="#DejaVuSans-101"
         x="370.39844" />
      <use
         height="100%"
         width="100%"
         y="0"
         id="use449"
         xlink:href="#DejaVuSans-114"
         x="431.92188" />
    </g>
    <!-- Stride 1 -->
    <defs
       id="defs455">
      <path
         id="DejaVuSans-83"
         d="m 53.515625,70.515625 v -9.625 q -5.609375,2.6875 -10.59375,4 -4.984375,1.328125 -9.625,1.328125 -8.046875,0 -12.421875,-3.125 -4.375,-3.125 -4.375,-8.890625 0,-4.84375 2.90625,-7.3125 2.90625,-2.453125 11.015625,-3.96875 L 36.375,41.703125 Q 47.40625,39.59375 52.65625,34.296875 57.90625,29 57.90625,20.125 q 0,-10.609375 -7.109375,-16.078125 -7.09375,-5.46875 -20.8125,-5.46875 -5.171875,0 -11.015625,1.171875 Q 13.140625,0.921875 6.890625,3.21875 V 13.375 q 6,-3.359375 11.765625,-5.078125 5.765625,-1.703125 11.328125,-1.703125 8.4375,0 13.03125,3.3125 4.59375,3.328125 4.59375,9.484375 0,5.359375 -3.296875,8.390625 Q 41.015625,30.8125 33.5,32.328125 L 27.484375,33.5 q -11.03125,2.1875 -15.96875,6.875 -4.921875,4.6875 -4.921875,13.046875 0,9.671875 6.8125,15.234375 6.8125,5.5625 18.765625,5.5625 5.140625,0 10.453125,-0.9375 5.328125,-0.921875 10.890625,-2.765625 z" />
      <path
         id="DejaVuSans-100"
         d="m 45.40625,46.390625 v 29.59375 h 8.984375 V 0 H 45.40625 v 8.203125 q -2.828125,-4.875 -7.15625,-7.25 -4.3125,-2.375 -10.375,-2.375 -9.90625,0 -16.140625,7.90625 -6.21875,7.921875 -6.21875,20.8125 0,12.890625 6.21875,20.796875 Q 17.96875,56 27.875,56 q 6.0625,0 10.375,-2.375 4.328125,-2.359375 7.15625,-7.234375 z M 14.796875,27.296875 q 0,-9.90625 4.078125,-15.546875 4.078125,-5.640625 11.203125,-5.640625 7.125,0 11.21875,5.640625 4.109375,5.640625 4.109375,15.546875 0,9.90625 -4.109375,15.546875 -4.09375,5.640625 -11.21875,5.640625 -7.125,0 -11.203125,-5.640625 -4.078125,-5.640625 -4.078125,-15.546875 z" />
    </defs>
    <g
       id="g473"
       transform="matrix(0.08,0,0,-0.08,85.971813,171.89486)">
      <use
         height="100%"
         width="100%"
         y="0"
         x="0"
         id="use457"
         xlink:href="#DejaVuSans-83" />
      <use
         height="100%"
         width="100%"
         y="0"
         id="use459"
         xlink:href="#DejaVuSans-116"
         x="63.476562" />
      <use
         height="100%"
         width="100%"
         y="0"
         id="use461"
         xlink:href="#DejaVuSans-114"
         x="102.68555" />
      <use
         height="100%"
         width="100%"
         y="0"
         id="use463"
         xlink:href="#DejaVuSans-105"
         x="143.79883" />
      <use
         height="100%"
         width="100%"
         y="0"
         id="use465"
         xlink:href="#DejaVuSans-100"
         x="171.58203" />
      <use
         height="100%"
         width="100%"
         y="0"
         id="use467"
         xlink:href="#DejaVuSans-101"
         x="235.05859" />
      <use
         height="100%"
         width="100%"
         y="0"
         id="use469"
         xlink:href="#DejaVuSans-32"
         x="296.58203" />
      <use
         height="100%"
         width="100%"
         y="0"
         id="use471"
         xlink:href="#DejaVuSans-49"
         x="328.36914" />
    </g>
    <!-- + ReLU -->
    <defs
       id="defs479">
      <path
         id="DejaVuSans-43"
         d="M 46,62.703125 V 35.5 H 73.1875 V 27.203125 H 46 V 0 H 37.796875 V 27.203125 H 10.59375 V 35.5 h 27.203125 v 27.203125 z" />
      <path
         id="DejaVuSans-82"
         d="m 44.390625,34.1875 q 3.171875,-1.078125 6.171875,-4.59375 3,-3.515625 6.03125,-9.671875 L 66.609375,0 H 56 l -9.3125,18.703125 q -3.625,7.328125 -7.015625,9.71875 -3.390625,2.390625 -9.25,2.390625 h -10.75 V 0 H 9.8125 v 72.90625 h 22.265625 q 12.5,0 18.65625,-5.234375 6.15625,-5.21875 6.15625,-15.765625 0,-6.890625 -3.203125,-11.4375 -3.203125,-4.53125 -9.296875,-6.28125 z m -24.71875,30.609375 v -25.875 h 12.40625 q 7.125,0 10.765625,3.296875 3.640625,3.296875 3.640625,9.6875 0,6.390625 -3.640625,9.640625 -3.640625,3.25 -10.765625,3.25 z" />
      <path
         id="DejaVuSans-76"
         d="m 9.8125,72.90625 h 9.859375 V 8.296875 h 35.5 V 0 H 9.8125 Z" />
      <path
         id="DejaVuSans-85"
         d="m 8.6875,72.90625 h 9.921875 V 28.609375 q 0,-11.71875 4.234375,-16.875 4.25,-5.140625 13.78125,-5.140625 9.46875,0 13.71875,5.140625 4.25,5.15625 4.25,16.875 V 72.90625 H 64.5 V 27.390625 q 0,-14.25 -7.0625,-21.53125 -7.046875,-7.28125 -20.8125,-7.28125 -13.828125,0 -20.890625,7.28125 Q 8.6875,13.140625 8.6875,27.390625 Z" />
    </defs>
    <g
       id="g493"
       transform="matrix(0.08,0,0,-0.08,85.971813,180.85311)">
      <use
         height="100%"
         width="100%"
         y="0"
         x="0"
         id="use481"
         xlink:href="#DejaVuSans-43" />
      <use
         height="100%"
         width="100%"
         y="0"
         id="use483"
         xlink:href="#DejaVuSans-32"
         x="83.789062" />
      <use
         height="100%"
         width="100%"
         y="0"
         id="use485"
         xlink:href="#DejaVuSans-82"
         x="115.57617" />
      <use
         height="100%"
         width="100%"
         y="0"
         id="use487"
         xlink:href="#DejaVuSans-101"
         x="184.99609" />
      <use
         height="100%"
         width="100%"
         y="0"
         id="use489"
         xlink:href="#DejaVuSans-76"
         x="246.51953" />
      <use
         height="100%"
         width="100%"
         y="0"
         id="use491"
         xlink:href="#DejaVuSans-85"
         x="302.1543" />
    </g>
    <!-- + Batchnorm -->
    <defs
       id="defs498">
      <path
         id="DejaVuSans-99"
         d="M 48.78125,52.59375 V 44.1875 q -3.8125,2.109375 -7.640625,3.15625 -3.828125,1.046875 -7.734375,1.046875 -8.75,0 -13.59375,-5.546875 -4.828125,-5.53125 -4.828125,-15.546875 0,-10.015625 4.828125,-15.5625 4.84375,-5.53125 13.59375,-5.53125 3.90625,0 7.734375,1.046875 3.828125,1.046875 7.640625,3.15625 v -8.3125 q -3.765625,-1.75 -7.796875,-2.625 -4.015625,-0.890625 -8.5625,-0.890625 -12.359375,0 -19.640625,7.765625 -7.265625,7.765625 -7.265625,20.953125 0,13.375 7.34375,21.03125 Q 20.21875,56 33.015625,56 q 4.140625,0 8.09375,-0.859375 3.953125,-0.84375 7.671875,-2.546875 z" />
      <path
         id="DejaVuSans-104"
         d="M 54.890625,33.015625 V 0 H 45.90625 v 32.71875 q 0,7.765625 -3.03125,11.609375 -3.03125,3.859375 -9.078125,3.859375 -7.28125,0 -11.484375,-4.640625 -4.203125,-4.625 -4.203125,-12.640625 V 0 h -9.03125 v 75.984375 h 9.03125 V 46.1875 q 3.234375,4.9375 7.59375,7.375 4.375,2.4375 10.09375,2.4375 9.421875,0 14.25,-5.828125 4.84375,-5.828125 4.84375,-17.15625 z" />
      <path
         id="DejaVuSans-109"
         d="M 52,44.1875 Q 55.375,50.25 60.0625,53.125 64.75,56 71.09375,56 q 8.546875,0 13.1875,-5.984375 4.640625,-5.96875 4.640625,-17 V 0 h -9.03125 v 32.71875 q 0,7.859375 -2.796875,11.65625 -2.78125,3.8125 -8.484375,3.8125 -6.984375,0 -11.046875,-4.640625 -4.046875,-4.625 -4.046875,-12.640625 V 0 h -9.03125 v 32.71875 q 0,7.90625 -2.78125,11.6875 -2.78125,3.78125 -8.59375,3.78125 -6.890625,0 -10.953125,-4.65625 -4.046875,-4.65625 -4.046875,-12.625 V 0 h -9.03125 v 54.6875 h 9.03125 v -8.5 q 3.078125,5.03125 7.375,7.421875 Q 29.78125,56 35.6875,56 41.65625,56 45.828125,52.96875 50,49.953125 52,44.1875 Z" />
    </defs>
    <g
       id="g522"
       transform="matrix(0.08,0,0,-0.08,85.971813,189.81136)">
      <use
         height="100%"
         width="100%"
         y="0"
         x="0"
         id="use500"
         xlink:href="#DejaVuSans-43" />
      <use
         height="100%"
         width="100%"
         y="0"
         id="use502"
         xlink:href="#DejaVuSans-32"
         x="83.789062" />
      <use
         height="100%"
         width="100%"
         y="0"
         id="use504"
         xlink:href="#DejaVuSans-66"
         x="115.57617" />
      <use
         height="100%"
         width="100%"
         y="0"
         id="use506"
         xlink:href="#DejaVuSans-97"
         x="184.17969" />
      <use
         height="100%"
         width="100%"
         y="0"
         id="use508"
         xlink:href="#DejaVuSans-116"
         x="245.45898" />
      <use
         height="100%"
         width="100%"
         y="0"
         id="use510"
         xlink:href="#DejaVuSans-99"
         x="284.66797" />
      <use
         height="100%"
         width="100%"
         y="0"
         id="use512"
         xlink:href="#DejaVuSans-104"
         x="339.64844" />
      <use
         height="100%"
         width="100%"
         y="0"
         id="use514"
         xlink:href="#DejaVuSans-110"
         x="403.02734" />
      <use
         height="100%"
         width="100%"
         y="0"
         id="use516"
         xlink:href="#DejaVuSans-111"
         x="466.40625" />
      <use
         height="100%"
         width="100%"
         y="0"
         id="use518"
         xlink:href="#DejaVuSans-114"
         x="527.58789" />
      <use
         height="100%"
         width="100%"
         y="0"
         id="use520"
         xlink:href="#DejaVuSans-109"
         x="568.68555" />
    </g>
    <!--  -->
    <g
       id="g524"
       transform="matrix(0.08,0,0,-0.08,85.971813,198.76961)" />
  </g>
  <g
     transform="translate(-10.231617,-7.433589)"
     id="text_6">
    <!-- Convolution -->
    <g
       id="g549"
       transform="matrix(0.08,0,0,-0.08,180.1875,153.97836)">
      <use
         height="100%"
         width="100%"
         y="0"
         x="0"
         id="use527"
         xlink:href="#DejaVuSans-67" />
      <use
         height="100%"
         width="100%"
         y="0"
         id="use529"
         xlink:href="#DejaVuSans-111"
         x="69.824219" />
      <use
         height="100%"
         width="100%"
         y="0"
         id="use531"
         xlink:href="#DejaVuSans-110"
         x="131.00586" />
      <use
         height="100%"
         width="100%"
         y="0"
         id="use533"
         xlink:href="#DejaVuSans-118"
         x="194.38477" />
      <use
         height="100%"
         width="100%"
         y="0"
         id="use535"
         xlink:href="#DejaVuSans-111"
         x="253.56445" />
      <use
         height="100%"
         width="100%"
         y="0"
         id="use537"
         xlink:href="#DejaVuSans-108"
         x="314.74609" />
      <use
         height="100%"
         width="100%"
         y="0"
         id="use539"
         xlink:href="#DejaVuSans-117"
         x="342.5293" />
      <use
         height="100%"
         width="100%"
         y="0"
         id="use541"
         xlink:href="#DejaVuSans-116"
         x="405.9082" />
      <use
         height="100%"
         width="100%"
         y="0"
         id="use543"
         xlink:href="#DejaVuSans-105"
         x="445.11719" />
      <use
         height="100%"
         width="100%"
         y="0"
         id="use545"
         xlink:href="#DejaVuSans-111"
         x="472.90039" />
      <use
         height="100%"
         width="100%"
         y="0"
         id="use547"
         xlink:href="#DejaVuSans-110"
         x="534.08203" />
    </g>
    <!-- 1x5 Filter -->
    <g
       id="g571"
       transform="matrix(0.08,0,0,-0.08,180.1875,162.93661)">
      <use
         height="100%"
         width="100%"
         y="0"
         x="0"
         id="use551"
         xlink:href="#DejaVuSans-49" />
      <use
         height="100%"
         width="100%"
         y="0"
         id="use553"
         xlink:href="#DejaVuSans-120"
         x="63.623047" />
      <use
         height="100%"
         width="100%"
         y="0"
         id="use555"
         xlink:href="#DejaVuSans-53"
         x="122.80273" />
      <use
         height="100%"
         width="100%"
         y="0"
         id="use557"
         xlink:href="#DejaVuSans-32"
         x="186.42578" />
      <use
         height="100%"
         width="100%"
         y="0"
         id="use559"
         xlink:href="#DejaVuSans-70"
         x="218.21289" />
      <use
         height="100%"
         width="100%"
         y="0"
         id="use561"
         xlink:href="#DejaVuSans-105"
         x="275.62305" />
      <use
         height="100%"
         width="100%"
         y="0"
         id="use563"
         xlink:href="#DejaVuSans-108"
         x="303.40625" />
      <use
         height="100%"
         width="100%"
         y="0"
         id="use565"
         xlink:href="#DejaVuSans-116"
         x="331.18945" />
      <use
         height="100%"
         width="100%"
         y="0"
         id="use567"
         xlink:href="#DejaVuSans-101"
         x="370.39844" />
      <use
         height="100%"
         width="100%"
         y="0"
         id="use569"
         xlink:href="#DejaVuSans-114"
         x="431.92188" />
    </g>
    <!-- Stride 2 -->
    <g
       id="g589"
       transform="matrix(0.08,0,0,-0.08,180.1875,171.89486)">
      <use
         height="100%"
         width="100%"
         y="0"
         x="0"
         id="use573"
         xlink:href="#DejaVuSans-83" />
      <use
         height="100%"
         width="100%"
         y="0"
         id="use575"
         xlink:href="#DejaVuSans-116"
         x="63.476562" />
      <use
         height="100%"
         width="100%"
         y="0"
         id="use577"
         xlink:href="#DejaVuSans-114"
         x="102.68555" />
      <use
         height="100%"
         width="100%"
         y="0"
         id="use579"
         xlink:href="#DejaVuSans-105"
         x="143.79883" />
      <use
         height="100%"
         width="100%"
         y="0"
         id="use581"
         xlink:href="#DejaVuSans-100"
         x="171.58203" />
      <use
         height="100%"
         width="100%"
         y="0"
         id="use583"
         xlink:href="#DejaVuSans-101"
         x="235.05859" />
      <use
         height="100%"
         width="100%"
         y="0"
         id="use585"
         xlink:href="#DejaVuSans-32"
         x="296.58203" />
      <use
         height="100%"
         width="100%"
         y="0"
         id="use587"
         xlink:href="#DejaVuSans-50"
         x="328.36914" />
    </g>
    <!-- + ReLU -->
    <g
       id="g603"
       transform="matrix(0.08,0,0,-0.08,180.1875,180.85311)">
      <use
         height="100%"
         width="100%"
         y="0"
         x="0"
         id="use591"
         xlink:href="#DejaVuSans-43" />
      <use
         height="100%"
         width="100%"
         y="0"
         id="use593"
         xlink:href="#DejaVuSans-32"
         x="83.789062" />
      <use
         height="100%"
         width="100%"
         y="0"
         id="use595"
         xlink:href="#DejaVuSans-82"
         x="115.57617" />
      <use
         height="100%"
         width="100%"
         y="0"
         id="use597"
         xlink:href="#DejaVuSans-101"
         x="184.99609" />
      <use
         height="100%"
         width="100%"
         y="0"
         id="use599"
         xlink:href="#DejaVuSans-76"
         x="246.51953" />
      <use
         height="100%"
         width="100%"
         y="0"
         id="use601"
         xlink:href="#DejaVuSans-85"
         x="302.1543" />
    </g>
    <!-- + Batchnorm -->
    <g
       id="g627"
       transform="matrix(0.08,0,0,-0.08,180.1875,189.81136)">
      <use
         height="100%"
         width="100%"
         y="0"
         x="0"
         id="use605"
         xlink:href="#DejaVuSans-43" />
      <use
         height="100%"
         width="100%"
         y="0"
         id="use607"
         xlink:href="#DejaVuSans-32"
         x="83.789062" />
      <use
         height="100%"
         width="100%"
         y="0"
         id="use609"
         xlink:href="#DejaVuSans-66"
         x="115.57617" />
      <use
         height="100%"
         width="100%"
         y="0"
         id="use611"
         xlink:href="#DejaVuSans-97"
         x="184.17969" />
      <use
         height="100%"
         width="100%"
         y="0"
         id="use613"
         xlink:href="#DejaVuSans-116"
         x="245.45898" />
      <use
         height="100%"
         width="100%"
         y="0"
         id="use615"
         xlink:href="#DejaVuSans-99"
         x="284.66797" />
      <use
         height="100%"
         width="100%"
         y="0"
         id="use617"
         xlink:href="#DejaVuSans-104"
         x="339.64844" />
      <use
         height="100%"
         width="100%"
         y="0"
         id="use619"
         xlink:href="#DejaVuSans-110"
         x="403.02734" />
      <use
         height="100%"
         width="100%"
         y="0"
         id="use621"
         xlink:href="#DejaVuSans-111"
         x="466.40625" />
      <use
         height="100%"
         width="100%"
         y="0"
         id="use623"
         xlink:href="#DejaVuSans-114"
         x="527.58789" />
      <use
         height="100%"
         width="100%"
         y="0"
         id="use625"
         xlink:href="#DejaVuSans-109"
         x="568.68555" />
    </g>
    <!-- + Dropout -->
    <defs
       id="defs630">
      <path
         id="DejaVuSans-68"
         d="M 19.671875,64.796875 V 8.109375 H 31.59375 q 15.09375,0 22.09375,6.828125 7,6.84375 7,21.59375 0,14.640625 -7,21.453125 -7,6.8125 -22.09375,6.8125 z M 9.8125,72.90625 h 20.265625 q 21.1875,0 31.09375,-8.8125 9.921875,-8.8125 9.921875,-27.5625 0,-18.859375 -9.96875,-27.703125 Q 51.171875,0 30.078125,0 H 9.8125 Z" />
    </defs>
    <g
       id="g650"
       transform="matrix(0.08,0,0,-0.08,180.1875,198.76961)">
      <use
         height="100%"
         width="100%"
         y="0"
         x="0"
         id="use632"
         xlink:href="#DejaVuSans-43" />
      <use
         height="100%"
         width="100%"
         y="0"
         id="use634"
         xlink:href="#DejaVuSans-32"
         x="83.789062" />
      <use
         height="100%"
         width="100%"
         y="0"
         id="use636"
         xlink:href="#DejaVuSans-68"
         x="115.57617" />
      <use
         height="100%"
         width="100%"
         y="0"
         id="use638"
         xlink:href="#DejaVuSans-114"
         x="192.57812" />
      <use
         height="100%"
         width="100%"
         y="0"
         id="use640"
         xlink:href="#DejaVuSans-111"
         x="233.66016" />
      <use
         height="100%"
         width="100%"
         y="0"
         id="use642"
         xlink:href="#DejaVuSans-112"
         x="294.8418" />
      <use
         height="100%"
         width="100%"
         y="0"
         id="use644"
         xlink:href="#DejaVuSans-111"
         x="358.31836" />
      <use
         height="100%"
         width="100%"
         y="0"
         id="use646"
         xlink:href="#DejaVuSans-117"
         x="419.5" />
      <use
         height="100%"
         width="100%"
         y="0"
         id="use648"
         xlink:href="#DejaVuSans-116"
         x="482.87891" />
    </g>
  </g>
  <g
     transform="translate(-2.731617,-7.433589)"
     id="text_7">
    <!-- Hidden Units -->
    <defs
       id="defs654">
      <path
         id="DejaVuSans-72"
         d="m 9.8125,72.90625 h 9.859375 V 43.015625 h 35.84375 V 72.90625 H 65.375 V 0 H 55.515625 V 34.71875 H 19.671875 V 0 H 9.8125 Z" />
    </defs>
    <g
       id="g680"
       transform="matrix(0.08,0,0,-0.08,307.37867,15.512339)">
      <use
         height="100%"
         width="100%"
         y="0"
         x="0"
         id="use656"
         xlink:href="#DejaVuSans-72" />
      <use
         height="100%"
         width="100%"
         y="0"
         id="use658"
         xlink:href="#DejaVuSans-105"
         x="75.195312" />
      <use
         height="100%"
         width="100%"
         y="0"
         id="use660"
         xlink:href="#DejaVuSans-100"
         x="102.97852" />
      <use
         height="100%"
         width="100%"
         y="0"
         id="use662"
         xlink:href="#DejaVuSans-100"
         x="166.45508" />
      <use
         height="100%"
         width="100%"
         y="0"
         id="use664"
         xlink:href="#DejaVuSans-101"
         x="229.93164" />
      <use
         height="100%"
         width="100%"
         y="0"
         id="use666"
         xlink:href="#DejaVuSans-110"
         x="291.45508" />
      <use
         height="100%"
         width="100%"
         y="0"
         id="use668"
         xlink:href="#DejaVuSans-32"
         x="354.83398" />
      <use
         height="100%"
         width="100%"
         y="0"
         id="use670"
         xlink:href="#DejaVuSans-85"
         x="386.62109" />
      <use
         height="100%"
         width="100%"
         y="0"
         id="use672"
         xlink:href="#DejaVuSans-110"
         x="459.81445" />
      <use
         height="100%"
         width="100%"
         y="0"
         id="use674"
         xlink:href="#DejaVuSans-105"
         x="523.19336" />
      <use
         height="100%"
         width="100%"
         y="0"
         id="use676"
         xlink:href="#DejaVuSans-116"
         x="550.97656" />
      <use
         height="100%"
         width="100%"
         y="0"
         id="use678"
         xlink:href="#DejaVuSans-115"
         x="590.18555" />
    </g>
    <!-- 113 -->
    <defs
       id="defs683">
      <path
         id="DejaVuSans-51"
         d="M 40.578125,39.3125 Q 47.65625,37.796875 51.625,33 q 3.984375,-4.78125 3.984375,-11.8125 0,-10.78125 -7.421875,-16.703125 -7.421875,-5.90625 -21.09375,-5.90625 -4.578125,0 -9.4375,0.90625 -4.859375,0.90625 -10.03125,2.71875 v 9.515625 q 4.09375,-2.390625 8.96875,-3.609375 4.890625,-1.21875 10.21875,-1.21875 9.265625,0 14.125,3.65625 4.859375,3.65625 4.859375,10.640625 0,6.453125 -4.515625,10.078125 -4.515625,3.640625 -12.5625,3.640625 h -8.5 v 8.109375 h 8.890625 q 7.265625,0 11.125,2.90625 3.859375,2.90625 3.859375,8.375 0,5.609375 -3.984375,8.609375 -3.96875,3.015625 -11.390625,3.015625 -4.0625,0 -8.703125,-0.890625 Q 15.375,64.15625 9.8125,62.3125 v 8.78125 q 5.625,1.5625 10.53125,2.34375 4.90625,0.78125 9.25,0.78125 11.234375,0 17.765625,-5.109375 6.546875,-5.09375 6.546875,-13.78125 0,-6.0625 -3.46875,-10.234375 -3.46875,-4.171875 -9.859375,-5.78125 z" />
    </defs>
    <g
       id="g691"
       transform="matrix(0.08,0,0,-0.08,307.37867,24.470589)">
      <use
         height="100%"
         width="100%"
         y="0"
         x="0"
         id="use685"
         xlink:href="#DejaVuSans-49" />
      <use
         height="100%"
         width="100%"
         y="0"
         id="use687"
         xlink:href="#DejaVuSans-49"
         x="63.623047" />
      <use
         height="100%"
         width="100%"
         y="0"
         id="use689"
         xlink:href="#DejaVuSans-51"
         x="127.24609" />
    </g>
  </g>
  <g
     transform="translate(-2.731617,-7.433589)"
     id="text_8">
    <!-- Hidden Units -->
    <g
       id="g718"
       transform="matrix(0.08,0,0,-0.08,401.59436,15.512339)">
      <use
         height="100%"
         width="100%"
         y="0"
         x="0"
         id="use694"
         xlink:href="#DejaVuSans-72" />
      <use
         height="100%"
         width="100%"
         y="0"
         id="use696"
         xlink:href="#DejaVuSans-105"
         x="75.195312" />
      <use
         height="100%"
         width="100%"
         y="0"
         id="use698"
         xlink:href="#DejaVuSans-100"
         x="102.97852" />
      <use
         height="100%"
         width="100%"
         y="0"
         id="use700"
         xlink:href="#DejaVuSans-100"
         x="166.45508" />
      <use
         height="100%"
         width="100%"
         y="0"
         id="use702"
         xlink:href="#DejaVuSans-101"
         x="229.93164" />
      <use
         height="100%"
         width="100%"
         y="0"
         id="use704"
         xlink:href="#DejaVuSans-110"
         x="291.45508" />
      <use
         height="100%"
         width="100%"
         y="0"
         id="use706"
         xlink:href="#DejaVuSans-32"
         x="354.83398" />
      <use
         height="100%"
         width="100%"
         y="0"
         id="use708"
         xlink:href="#DejaVuSans-85"
         x="386.62109" />
      <use
         height="100%"
         width="100%"
         y="0"
         id="use710"
         xlink:href="#DejaVuSans-110"
         x="459.81445" />
      <use
         height="100%"
         width="100%"
         y="0"
         id="use712"
         xlink:href="#DejaVuSans-105"
         x="523.19336" />
      <use
         height="100%"
         width="100%"
         y="0"
         id="use714"
         xlink:href="#DejaVuSans-116"
         x="550.97656" />
      <use
         height="100%"
         width="100%"
         y="0"
         id="use716"
         xlink:href="#DejaVuSans-115"
         x="590.18555" />
    </g>
    <!-- 80 -->
    <defs
       id="defs721">
      <path
         id="DejaVuSans-56"
         d="m 31.78125,34.625 q -7.03125,0 -11.0625,-3.765625 -4.015625,-3.765625 -4.015625,-10.34375 0,-6.59375 4.015625,-10.359375 4.03125,-3.765625 11.0625,-3.765625 7.03125,0 11.078125,3.78125 4.0625,3.796875 4.0625,10.34375 0,6.578125 -4.03125,10.34375 Q 38.875,34.625 31.78125,34.625 Z m -9.859375,4.1875 Q 15.578125,40.375 12.03125,44.71875 8.5,49.078125 8.5,55.328125 q 0,8.734375 6.21875,13.8125 6.234375,5.078125 17.0625,5.078125 10.890625,0 17.09375,-5.078125 6.203125,-5.078125 6.203125,-13.8125 0,-6.25 -3.546875,-10.609375 Q 48,40.375 41.703125,38.8125 q 7.125,-1.65625 11.09375,-6.5 3.984375,-4.828125 3.984375,-11.796875 0,-10.609375 -6.46875,-16.28125 -6.46875,-5.65625 -18.53125,-5.65625 -12.046875,0 -18.53125,5.65625 -6.46875,5.671875 -6.46875,16.28125 0,6.96875 4,11.796875 4.015625,4.84375 11.140625,6.5 z M 18.3125,54.390625 q 0,-5.65625 3.53125,-8.828125 3.546875,-3.171875 9.9375,-3.171875 6.359375,0 9.9375,3.171875 3.59375,3.171875 3.59375,8.828125 0,5.671875 -3.59375,8.84375 -3.578125,3.171875 -9.9375,3.171875 -6.390625,0 -9.9375,-3.171875 Q 18.3125,60.0625 18.3125,54.390625 Z" />
    </defs>
    <g
       id="g727"
       transform="matrix(0.08,0,0,-0.08,401.59436,24.470589)">
      <use
         height="100%"
         width="100%"
         y="0"
         x="0"
         id="use723"
         xlink:href="#DejaVuSans-56" />
      <use
         height="100%"
         width="100%"
         y="0"
         id="use725"
         xlink:href="#DejaVuSans-48"
         x="63.623047" />
    </g>
  </g>
  <g
     transform="translate(-2.731617,-7.433589)"
     id="text_9">
    <!-- Outputs -->
    <defs
       id="defs731">
      <path
         id="DejaVuSans-79"
         d="m 39.40625,66.21875 q -10.75,0 -17.078125,-8.015625 -6.3125,-8 -6.3125,-21.828125 0,-13.765625 6.3125,-21.78125 6.328125,-8 17.078125,-8 10.734375,0 17.015625,8 6.28125,8.015625 6.28125,21.78125 0,13.828125 -6.28125,21.828125 -6.28125,8.015625 -17.015625,8.015625 z m 0,8 q 15.328125,0 24.5,-10.28125 9.1875,-10.28125 9.1875,-27.5625 0,-17.234375 -9.1875,-27.515625 -9.171875,-10.28125 -24.5,-10.28125 -15.375,0 -24.59375,10.25 Q 5.609375,19.09375 5.609375,36.375 q 0,17.28125 9.203125,27.5625 9.21875,10.28125 24.59375,10.28125 z" />
    </defs>
    <g
       id="g747"
       transform="matrix(0.08,0,0,-0.08,495.81005,15.512339)">
      <use
         height="100%"
         width="100%"
         y="0"
         x="0"
         id="use733"
         xlink:href="#DejaVuSans-79" />
      <use
         height="100%"
         width="100%"
         y="0"
         id="use735"
         xlink:href="#DejaVuSans-117"
         x="78.710938" />
      <use
         height="100%"
         width="100%"
         y="0"
         id="use737"
         xlink:href="#DejaVuSans-116"
         x="142.08984" />
      <use
         height="100%"
         width="100%"
         y="0"
         id="use739"
         xlink:href="#DejaVuSans-112"
         x="181.29883" />
      <use
         height="100%"
         width="100%"
         y="0"
         id="use741"
         xlink:href="#DejaVuSans-117"
         x="244.77539" />
      <use
         height="100%"
         width="100%"
         y="0"
         id="use743"
         xlink:href="#DejaVuSans-116"
         x="308.1543" />
      <use
         height="100%"
         width="100%"
         y="0"
         id="use745"
         xlink:href="#DejaVuSans-115"
         x="347.36328" />
    </g>
    <!-- 5 -->
    <g
       id="g751"
       transform="matrix(0.08,0,0,-0.08,495.81005,24.470589)">
      <use
         height="100%"
         width="100%"
         y="0"
         x="0"
         id="use749"
         xlink:href="#DejaVuSans-53" />
    </g>
  </g>
  <g
     transform="translate(-2.731617,-7.433589)"
     id="text_10">
    <!-- Flatten -->
    <g
       id="g768"
       transform="matrix(0.08,0,0,-0.08,283.82475,153.97836)">
      <use
         height="100%"
         width="100%"
         y="0"
         x="0"
         id="use754"
         xlink:href="#DejaVuSans-70" />
      <use
         height="100%"
         width="100%"
         y="0"
         id="use756"
         xlink:href="#DejaVuSans-108"
         x="57.519531" />
      <use
         height="100%"
         width="100%"
         y="0"
         id="use758"
         xlink:href="#DejaVuSans-97"
         x="85.302734" />
      <use
         height="100%"
         width="100%"
         y="0"
         id="use760"
         xlink:href="#DejaVuSans-116"
         x="146.58203" />
      <use
         height="100%"
         width="100%"
         y="0"
         id="use762"
         xlink:href="#DejaVuSans-116"
         x="185.79102" />
      <use
         height="100%"
         width="100%"
         y="0"
         id="use764"
         xlink:href="#DejaVuSans-101"
         x="225" />
      <use
         height="100%"
         width="100%"
         y="0"
         id="use766"
         xlink:href="#DejaVuSans-110"
         x="286.52344" />
    </g>
    <!-- + Dropout -->
    <g
       id="g788"
       transform="matrix(0.08,0,0,-0.08,283.82475,162.93661)">
      <use
         height="100%"
         width="100%"
         y="0"
         x="0"
         id="use770"
         xlink:href="#DejaVuSans-43" />
      <use
         height="100%"
         width="100%"
         y="0"
         id="use772"
         xlink:href="#DejaVuSans-32"
         x="83.789062" />
      <use
         height="100%"
         width="100%"
         y="0"
         id="use774"
         xlink:href="#DejaVuSans-68"
         x="115.57617" />
      <use
         height="100%"
         width="100%"
         y="0"
         id="use776"
         xlink:href="#DejaVuSans-114"
         x="192.57812" />
      <use
         height="100%"
         width="100%"
         y="0"
         id="use778"
         xlink:href="#DejaVuSans-111"
         x="233.66016" />
      <use
         height="100%"
         width="100%"
         y="0"
         id="use780"
         xlink:href="#DejaVuSans-112"
         x="294.8418" />
      <use
         height="100%"
         width="100%"
         y="0"
         id="use782"
         xlink:href="#DejaVuSans-111"
         x="358.31836" />
      <use
         height="100%"
         width="100%"
         y="0"
         id="use784"
         xlink:href="#DejaVuSans-117"
         x="419.5" />
      <use
         height="100%"
         width="100%"
         y="0"
         id="use786"
         xlink:href="#DejaVuSans-116"
         x="482.87891" />
    </g>
    <!--  -->
    <g
       id="g790"
       transform="matrix(0.08,0,0,-0.08,283.82475,171.89486)" />
    <!--  -->
    <g
       id="g792"
       transform="matrix(0.08,0,0,-0.08,283.82475,180.85311)" />
    <!--  -->
    <g
       id="g794"
       transform="matrix(0.08,0,0,-0.08,283.82475,189.81136)" />
    <!--  -->
    <g
       id="g796"
       transform="matrix(0.08,0,0,-0.08,283.82475,198.76961)" />
  </g>
  <g
     transform="translate(-2.731617,-7.433589)"
     id="text_11">
    <!-- Fully- -->
    <defs
       id="defs801">
      <path
         id="DejaVuSans-121"
         d="M 32.171875,-5.078125 Q 28.375,-14.84375 24.75,-17.8125 q -3.609375,-2.984375 -9.65625,-2.984375 h -7.1875 v 7.515625 h 5.28125 q 3.703125,0 5.75,1.765625 2.0625,1.75 4.546875,8.296875 L 25.09375,0.875 2.984375,54.6875 H 12.5 L 29.59375,11.921875 46.6875,54.6875 h 9.515625 z" />
      <path
         id="DejaVuSans-45"
         d="m 4.890625,31.390625 h 26.3125 v -8 h -26.3125 z" />
    </defs>
    <g
       id="g815"
       transform="matrix(0.08,0,0,-0.08,378.04044,153.97836)">
      <use
         height="100%"
         width="100%"
         y="0"
         x="0"
         id="use803"
         xlink:href="#DejaVuSans-70" />
      <use
         height="100%"
         width="100%"
         y="0"
         id="use805"
         xlink:href="#DejaVuSans-117"
         x="57.441406" />
      <use
         height="100%"
         width="100%"
         y="0"
         id="use807"
         xlink:href="#DejaVuSans-108"
         x="120.82031" />
      <use
         height="100%"
         width="100%"
         y="0"
         id="use809"
         xlink:href="#DejaVuSans-108"
         x="148.60352" />
      <use
         height="100%"
         width="100%"
         y="0"
         id="use811"
         xlink:href="#DejaVuSans-121"
         x="176.38672" />
      <use
         height="100%"
         width="100%"
         y="0"
         id="use813"
         xlink:href="#DejaVuSans-45"
         x="235.55078" />
    </g>
    <!-- connected -->
    <g
       id="g835"
       transform="matrix(0.08,0,0,-0.08,378.04044,162.93661)">
      <use
         height="100%"
         width="100%"
         y="0"
         x="0"
         id="use817"
         xlink:href="#DejaVuSans-99" />
      <use
         height="100%"
         width="100%"
         y="0"
         id="use819"
         xlink:href="#DejaVuSans-111"
         x="54.980469" />
      <use
         height="100%"
         width="100%"
         y="0"
         id="use821"
         xlink:href="#DejaVuSans-110"
         x="116.16211" />
      <use
         height="100%"
         width="100%"
         y="0"
         id="use823"
         xlink:href="#DejaVuSans-110"
         x="179.54102" />
      <use
         height="100%"
         width="100%"
         y="0"
         id="use825"
         xlink:href="#DejaVuSans-101"
         x="242.91992" />
      <use
         height="100%"
         width="100%"
         y="0"
         id="use827"
         xlink:href="#DejaVuSans-99"
         x="304.44336" />
      <use
         height="100%"
         width="100%"
         y="0"
         id="use829"
         xlink:href="#DejaVuSans-116"
         x="359.42383" />
      <use
         height="100%"
         width="100%"
         y="0"
         id="use831"
         xlink:href="#DejaVuSans-101"
         x="398.63281" />
      <use
         height="100%"
         width="100%"
         y="0"
         id="use833"
         xlink:href="#DejaVuSans-100"
         x="460.15625" />
    </g>
    <!-- + ReLU -->
    <g
       id="g849"
       transform="matrix(0.08,0,0,-0.08,378.04044,171.89486)">
      <use
         height="100%"
         width="100%"
         y="0"
         x="0"
         id="use837"
         xlink:href="#DejaVuSans-43" />
      <use
         height="100%"
         width="100%"
         y="0"
         id="use839"
         xlink:href="#DejaVuSans-32"
         x="83.789062" />
      <use
         height="100%"
         width="100%"
         y="0"
         id="use841"
         xlink:href="#DejaVuSans-82"
         x="115.57617" />
      <use
         height="100%"
         width="100%"
         y="0"
         id="use843"
         xlink:href="#DejaVuSans-101"
         x="184.99609" />
      <use
         height="100%"
         width="100%"
         y="0"
         id="use845"
         xlink:href="#DejaVuSans-76"
         x="246.51953" />
      <use
         height="100%"
         width="100%"
         y="0"
         id="use847"
         xlink:href="#DejaVuSans-85"
         x="302.1543" />
    </g>
    <!-- + Dropout -->
    <g
       id="g869"
       transform="matrix(0.08,0,0,-0.08,378.04044,180.85311)">
      <use
         height="100%"
         width="100%"
         y="0"
         x="0"
         id="use851"
         xlink:href="#DejaVuSans-43" />
      <use
         height="100%"
         width="100%"
         y="0"
         id="use853"
         xlink:href="#DejaVuSans-32"
         x="83.789062" />
      <use
         height="100%"
         width="100%"
         y="0"
         id="use855"
         xlink:href="#DejaVuSans-68"
         x="115.57617" />
      <use
         height="100%"
         width="100%"
         y="0"
         id="use857"
         xlink:href="#DejaVuSans-114"
         x="192.57812" />
      <use
         height="100%"
         width="100%"
         y="0"
         id="use859"
         xlink:href="#DejaVuSans-111"
         x="233.66016" />
      <use
         height="100%"
         width="100%"
         y="0"
         id="use861"
         xlink:href="#DejaVuSans-112"
         x="294.8418" />
      <use
         height="100%"
         width="100%"
         y="0"
         id="use863"
         xlink:href="#DejaVuSans-111"
         x="358.31836" />
      <use
         height="100%"
         width="100%"
         y="0"
         id="use865"
         xlink:href="#DejaVuSans-117"
         x="419.5" />
      <use
         height="100%"
         width="100%"
         y="0"
         id="use867"
         xlink:href="#DejaVuSans-116"
         x="482.87891" />
    </g>
    <!--  -->
    <g
       id="g871"
       transform="matrix(0.08,0,0,-0.08,378.04044,189.81136)" />
    <!--  -->
    <g
       id="g873"
       transform="matrix(0.08,0,0,-0.08,378.04044,198.76961)" />
  </g>
  <g
     transform="translate(-2.731617,-7.433589)"
     id="text_12">
    <!-- Fully- -->
    <g
       id="g888"
       transform="matrix(0.08,0,0,-0.08,472.25612,153.97836)">
      <use
         height="100%"
         width="100%"
         y="0"
         x="0"
         id="use876"
         xlink:href="#DejaVuSans-70" />
      <use
         height="100%"
         width="100%"
         y="0"
         id="use878"
         xlink:href="#DejaVuSans-117"
         x="57.441406" />
      <use
         height="100%"
         width="100%"
         y="0"
         id="use880"
         xlink:href="#DejaVuSans-108"
         x="120.82031" />
      <use
         height="100%"
         width="100%"
         y="0"
         id="use882"
         xlink:href="#DejaVuSans-108"
         x="148.60352" />
      <use
         height="100%"
         width="100%"
         y="0"
         id="use884"
         xlink:href="#DejaVuSans-121"
         x="176.38672" />
      <use
         height="100%"
         width="100%"
         y="0"
         id="use886"
         xlink:href="#DejaVuSans-45"
         x="235.55078" />
    </g>
    <!-- connected -->
    <g
       id="g908"
       transform="matrix(0.08,0,0,-0.08,472.25612,162.93661)">
      <use
         height="100%"
         width="100%"
         y="0"
         x="0"
         id="use890"
         xlink:href="#DejaVuSans-99" />
      <use
         height="100%"
         width="100%"
         y="0"
         id="use892"
         xlink:href="#DejaVuSans-111"
         x="54.980469" />
      <use
         height="100%"
         width="100%"
         y="0"
         id="use894"
         xlink:href="#DejaVuSans-110"
         x="116.16211" />
      <use
         height="100%"
         width="100%"
         y="0"
         id="use896"
         xlink:href="#DejaVuSans-110"
         x="179.54102" />
      <use
         height="100%"
         width="100%"
         y="0"
         id="use898"
         xlink:href="#DejaVuSans-101"
         x="242.91992" />
      <use
         height="100%"
         width="100%"
         y="0"
         id="use900"
         xlink:href="#DejaVuSans-99"
         x="304.44336" />
      <use
         height="100%"
         width="100%"
         y="0"
         id="use902"
         xlink:href="#DejaVuSans-116"
         x="359.42383" />
      <use
         height="100%"
         width="100%"
         y="0"
         id="use904"
         xlink:href="#DejaVuSans-101"
         x="398.63281" />
      <use
         height="100%"
         width="100%"
         y="0"
         id="use906"
         xlink:href="#DejaVuSans-100"
         x="460.15625" />
    </g>
    <!--  -->
    <g
       id="g910"
       transform="matrix(0.08,0,0,-0.08,472.25612,171.89486)" />
    <!--  -->
    <g
       id="g912"
       transform="matrix(0.08,0,0,-0.08,472.25612,180.85311)" />
    <!--  -->
    <g
       id="g914"
       transform="matrix(0.08,0,0,-0.08,472.25612,189.81136)" />
    <!--  -->
    <g
       id="g916"
       transform="matrix(0.08,0,0,-0.08,472.25612,198.76961)" />
  </g>
  <defs
     id="defs924">
    <clipPath
       id="p042dd7d610">
      <rect
         id="rect921"
         y="0"
         x="0"
         width="544.09558"
         height="162" />
    </clipPath>
  </defs>
  <path
     id="path1975"
     d="m 380.16504,22.977008 c 0,8.420551 -6.46228,15.143937 -14.49118,15.143937 H 216.12748 c -8.0289,0 -14.55646,6.788661 -14.55646,15.143937 0,-8.355276 -6.46228,-15.143937 -14.49118,-15.143937 H 37.533465 c -8.028898,0 -14.556457,-6.723386 -14.556457,-15.143937"
     clip-path="url(#clipEmfPath1)"
     style="fill:none;stroke:#000000;stroke-width:1.04441px;stroke-linecap:butt;stroke-linejoin:miter;stroke-miterlimit:8;stroke-dasharray:none;stroke-opacity:1"
     transform="matrix(0.56179447,0,0,0.74999998,35.108153,173.44771)" />
  <g
     transform="translate(-47.066295,239.69438)"
     id="g561"
     style="stroke-linecap:butt;stroke-linejoin:round">
    <path
       style="stroke-width:0.0800033;stroke-linecap:butt;stroke-linejoin:round"
       d="m 193.51774,-21.705876 -1.99257,3.113877 h 1.99257 z m -0.2075,-0.687535 h 0.99254 v 3.801412 h 0.83254 v 0.656281 h -0.83254 v 1.375057 h -0.78504 v -1.375057 h -2.6326 v -0.761285 z"
       id="use747-4" />
    <path
       style="stroke-width:0.08"
       id="use745-6"
       d="m 200.15887,-20.935661 -1.5825,2.12875 1.66375,2.24625 h -0.8475 l -1.27375,-1.71875 -1.2725,1.71875 h -0.84875 l 1.7,-2.28875 -1.555,-2.08625 h 0.8475 l 1.16,1.55875 1.16,-1.55875 z" />
  </g>
</svg>
