<?xml version="1.0" encoding="utf-8" standalone="no"?>
<!DOCTYPE svg PUBLIC "-//W3C//DTD SVG 1.1//EN"
  "http://www.w3.org/Graphics/SVG/1.1/DTD/svg11.dtd">
<!-- Created with matplotlib (https://matplotlib.org/) -->
<svg height="409.032pt" version="1.1" viewBox="0 0 840.713377 409.032" width="840.713377pt" xmlns="http://www.w3.org/2000/svg" xmlns:xlink="http://www.w3.org/1999/xlink">
 <defs>
  <style type="text/css">
*{stroke-linecap:butt;stroke-linejoin:round;}
  </style>
 </defs>
 <g id="figure_1">
  <g id="patch_1">
   <path d="M 0 409.032 
L 840.713377 409.032 
L 840.713377 0 
L 0 0 
z
" style="fill:#ffffff;"/>
  </g>
  <g id="axes_1">
   <g id="patch_2">
    <path clip-path="url(#p3960e35fef)" d="M 329.370392 149.924222 
L 387.601622 149.924222 
L 387.601622 131.726963 
L 329.370392 131.726963 
z
" style="fill:#b2b2b2;stroke:#000000;stroke-linejoin:miter;"/>
   </g>
   <g id="patch_3">
    <path clip-path="url(#p3960e35fef)" d="M 340.288748 160.842578 
L 398.519977 160.842578 
L 398.519977 142.645319 
L 340.288748 142.645319 
z
" style="fill:#808080;stroke:#000000;stroke-linejoin:miter;"/>
   </g>
   <g id="patch_4">
    <path clip-path="url(#p3960e35fef)" d="M 374.86354 159.022852 
C 375.346137 159.022852 375.809033 158.831114 376.150281 158.489867 
C 376.491528 158.148619 376.683266 157.685723 376.683266 157.203126 
C 376.683266 156.720529 376.491528 156.257633 376.150281 155.916385 
C 375.809033 155.575138 375.346137 155.3834 374.86354 155.3834 
C 374.380943 155.3834 373.918047 155.575138 373.5768 155.916385 
C 373.235552 156.257633 373.043814 156.720529 373.043814 157.203126 
C 373.043814 157.685723 373.235552 158.148619 373.5768 158.489867 
C 373.918047 158.831114 374.380943 159.022852 374.86354 159.022852 
z
" style="stroke:#000000;stroke-linejoin:miter;"/>
   </g>
   <g id="patch_5">
    <path clip-path="url(#p3960e35fef)" d="M 385.781896 169.941207 
C 386.264493 169.941207 386.727389 169.74947 387.068636 169.408222 
C 387.409884 169.066974 387.601622 168.604078 387.601622 168.121482 
C 387.601622 167.638885 387.409884 167.175989 387.068636 166.834741 
C 386.727389 166.493493 386.264493 166.301756 385.781896 166.301756 
C 385.299299 166.301756 384.836403 166.493493 384.495155 166.834741 
C 384.153908 167.175989 383.96217 167.638885 383.96217 168.121482 
C 383.96217 168.604078 384.153908 169.066974 384.495155 169.408222 
C 384.836403 169.74947 385.299299 169.941207 385.781896 169.941207 
z
" style="stroke:#000000;stroke-linejoin:miter;"/>
   </g>
   <g id="patch_6">
    <path clip-path="url(#p3960e35fef)" d="M 396.700251 180.859563 
C 397.182848 180.859563 397.645744 180.667825 397.986992 180.326578 
C 398.328239 179.98533 398.519977 179.522434 398.519977 179.039837 
C 398.519977 178.55724 398.328239 178.094344 397.986992 177.753097 
C 397.645744 177.411849 397.182848 177.220111 396.700251 177.220111 
C 396.217654 177.220111 395.754758 177.411849 395.413511 177.753097 
C 395.072263 178.094344 394.880525 178.55724 394.880525 179.039837 
C 394.880525 179.522434 395.072263 179.98533 395.413511 180.326578 
C 395.754758 180.667825 396.217654 180.859563 396.700251 180.859563 
z
" style="stroke:#000000;stroke-linejoin:miter;"/>
   </g>
   <g id="patch_7">
    <path clip-path="url(#p3960e35fef)" d="M 407.618607 191.777919 
C 408.101204 191.777919 408.5641 191.586181 408.905347 191.244933 
C 409.246595 190.903686 409.438333 190.44079 409.438333 189.958193 
C 409.438333 189.475596 409.246595 189.0127 408.905347 188.671452 
C 408.5641 188.330204 408.101204 188.138467 407.618607 188.138467 
C 407.13601 188.138467 406.673114 188.330204 406.331866 188.671452 
C 405.990619 189.0127 405.798881 189.475596 405.798881 189.958193 
C 405.798881 190.44079 405.990619 190.903686 406.331866 191.244933 
C 406.673114 191.586181 407.13601 191.777919 407.618607 191.777919 
z
" style="stroke:#000000;stroke-linejoin:miter;"/>
   </g>
   <g id="patch_8">
    <path clip-path="url(#p3960e35fef)" d="M 394.880525 215.434356 
L 453.111755 215.434356 
L 453.111755 197.237096 
L 394.880525 197.237096 
z
" style="fill:#b2b2b2;stroke:#000000;stroke-linejoin:miter;"/>
   </g>
   <g id="patch_9">
    <path clip-path="url(#p3960e35fef)" d="M 405.798881 226.352711 
L 464.03011 226.352711 
L 464.03011 208.155452 
L 405.798881 208.155452 
z
" style="fill:#808080;stroke:#000000;stroke-linejoin:miter;"/>
   </g>
   <g id="patch_10">
    <path clip-path="url(#p3960e35fef)" d="M 183.792318 149.924222 
L 242.023548 149.924222 
L 242.023548 131.726963 
L 183.792318 131.726963 
z
" style="fill:#b2b2b2;stroke:#000000;stroke-linejoin:miter;"/>
   </g>
   <g id="patch_11">
    <path clip-path="url(#p3960e35fef)" d="M 194.710674 160.842578 
L 252.941903 160.842578 
L 252.941903 142.645319 
L 194.710674 142.645319 
z
" style="fill:#808080;stroke:#000000;stroke-linejoin:miter;"/>
   </g>
   <g id="patch_12">
    <path clip-path="url(#p3960e35fef)" d="M 229.285466 159.022852 
C 229.768063 159.022852 230.230959 158.831114 230.572207 158.489867 
C 230.913454 158.148619 231.105192 157.685723 231.105192 157.203126 
C 231.105192 156.720529 230.913454 156.257633 230.572207 155.916385 
C 230.230959 155.575138 229.768063 155.3834 229.285466 155.3834 
C 228.802869 155.3834 228.339973 155.575138 227.998726 155.916385 
C 227.657478 156.257633 227.46574 156.720529 227.46574 157.203126 
C 227.46574 157.685723 227.657478 158.148619 227.998726 158.489867 
C 228.339973 158.831114 228.802869 159.022852 229.285466 159.022852 
z
" style="stroke:#000000;stroke-linejoin:miter;"/>
   </g>
   <g id="patch_13">
    <path clip-path="url(#p3960e35fef)" d="M 240.203822 169.941207 
C 240.686419 169.941207 241.149315 169.74947 241.490562 169.408222 
C 241.83181 169.066974 242.023548 168.604078 242.023548 168.121482 
C 242.023548 167.638885 241.83181 167.175989 241.490562 166.834741 
C 241.149315 166.493493 240.686419 166.301756 240.203822 166.301756 
C 239.721225 166.301756 239.258329 166.493493 238.917081 166.834741 
C 238.575834 167.175989 238.384096 167.638885 238.384096 168.121482 
C 238.384096 168.604078 238.575834 169.066974 238.917081 169.408222 
C 239.258329 169.74947 239.721225 169.941207 240.203822 169.941207 
z
" style="stroke:#000000;stroke-linejoin:miter;"/>
   </g>
   <g id="patch_14">
    <path clip-path="url(#p3960e35fef)" d="M 251.122177 180.859563 
C 251.604774 180.859563 252.06767 180.667825 252.408918 180.326578 
C 252.750166 179.98533 252.941903 179.522434 252.941903 179.039837 
C 252.941903 178.55724 252.750166 178.094344 252.408918 177.753097 
C 252.06767 177.411849 251.604774 177.220111 251.122177 177.220111 
C 250.63958 177.220111 250.176684 177.411849 249.835437 177.753097 
C 249.494189 178.094344 249.302452 178.55724 249.302452 179.039837 
C 249.302452 179.522434 249.494189 179.98533 249.835437 180.326578 
C 250.176684 180.667825 250.63958 180.859563 251.122177 180.859563 
z
" style="stroke:#000000;stroke-linejoin:miter;"/>
   </g>
   <g id="patch_15">
    <path clip-path="url(#p3960e35fef)" d="M 262.040533 191.777919 
C 262.52313 191.777919 262.986026 191.586181 263.327274 191.244933 
C 263.668521 190.903686 263.860259 190.44079 263.860259 189.958193 
C 263.860259 189.475596 263.668521 189.0127 263.327274 188.671452 
C 262.986026 188.330204 262.52313 188.138467 262.040533 188.138467 
C 261.557936 188.138467 261.09504 188.330204 260.753792 188.671452 
C 260.412545 189.0127 260.220807 189.475596 260.220807 189.958193 
C 260.220807 190.44079 260.412545 190.903686 260.753792 191.244933 
C 261.09504 191.586181 261.557936 191.777919 262.040533 191.777919 
z
" style="stroke:#000000;stroke-linejoin:miter;"/>
   </g>
   <g id="patch_16">
    <path clip-path="url(#p3960e35fef)" d="M 249.302452 215.434356 
L 307.533681 215.434356 
L 307.533681 197.237096 
L 249.302452 197.237096 
z
" style="fill:#b2b2b2;stroke:#000000;stroke-linejoin:miter;"/>
   </g>
   <g id="patch_17">
    <path clip-path="url(#p3960e35fef)" d="M 260.220807 226.352711 
L 318.452037 226.352711 
L 318.452037 208.155452 
L 260.220807 208.155452 
z
" style="fill:#808080;stroke:#000000;stroke-linejoin:miter;"/>
   </g>
   <g id="patch_18">
    <path clip-path="url(#p3960e35fef)" d="M 38.214244 149.924222 
L 96.445474 149.924222 
L 96.445474 131.726963 
L 38.214244 131.726963 
z
" style="fill:#b2b2b2;stroke:#000000;stroke-linejoin:miter;"/>
   </g>
   <g id="patch_19">
    <path clip-path="url(#p3960e35fef)" d="M 54.227833 131.726963 
L 72.425092 131.726963 
L 72.425092 149.924222 
L 54.227833 149.924222 
z
" style="fill:#4c4c4c;stroke:#000000;stroke-linejoin:miter;"/>
   </g>
   <g id="patch_20">
    <path clip-path="url(#p3960e35fef)" d="M 288.244586 208.155452 
L 306.441846 208.155452 
L 306.441846 226.352711 
L 288.244586 226.352711 
z
" style="fill:#4c4c4c;stroke:#000000;stroke-linejoin:miter;"/>
   </g>
   <g id="patch_21">
    <path clip-path="url(#p3960e35fef)" d="M 474.948466 139.005867 
L 482.22737 139.005867 
L 482.22737 131.726963 
L 474.948466 131.726963 
z
" style="fill:#b2b2b2;stroke:#000000;stroke-linejoin:miter;"/>
   </g>
   <g id="patch_22">
    <path clip-path="url(#p3960e35fef)" d="M 482.22737 146.28477 
L 489.506273 146.28477 
L 489.506273 139.005867 
L 482.22737 139.005867 
z
" style="fill:#808080;stroke:#000000;stroke-linejoin:miter;"/>
   </g>
   <g id="patch_23">
    <path clip-path="url(#p3960e35fef)" d="M 489.506273 153.563674 
L 496.785177 153.563674 
L 496.785177 146.28477 
L 489.506273 146.28477 
z
" style="fill:#b2b2b2;stroke:#000000;stroke-linejoin:miter;"/>
   </g>
   <g id="patch_24">
    <path clip-path="url(#p3960e35fef)" d="M 496.785177 160.842578 
L 504.064081 160.842578 
L 504.064081 153.563674 
L 496.785177 153.563674 
z
" style="fill:#808080;stroke:#000000;stroke-linejoin:miter;"/>
   </g>
   <g id="patch_25">
    <path clip-path="url(#p3960e35fef)" d="M 504.064081 168.121482 
L 511.342984 168.121482 
L 511.342984 160.842578 
L 504.064081 160.842578 
z
" style="fill:#b2b2b2;stroke:#000000;stroke-linejoin:miter;"/>
   </g>
   <g id="patch_26">
    <path clip-path="url(#p3960e35fef)" d="M 511.342984 175.400385 
L 518.621888 175.400385 
L 518.621888 168.121482 
L 511.342984 168.121482 
z
" style="fill:#808080;stroke:#000000;stroke-linejoin:miter;"/>
   </g>
   <g id="patch_27">
    <path clip-path="url(#p3960e35fef)" d="M 518.621888 182.679289 
L 525.900792 182.679289 
L 525.900792 175.400385 
L 518.621888 175.400385 
z
" style="fill:#b2b2b2;stroke:#000000;stroke-linejoin:miter;"/>
   </g>
   <g id="patch_28">
    <path clip-path="url(#p3960e35fef)" d="M 525.900792 189.958193 
L 533.179696 189.958193 
L 533.179696 182.679289 
L 525.900792 182.679289 
z
" style="fill:#808080;stroke:#000000;stroke-linejoin:miter;"/>
   </g>
   <g id="patch_29">
    <path clip-path="url(#p3960e35fef)" d="M 536.819147 195.41737 
C 537.301744 195.41737 537.76464 195.225633 538.105888 194.884385 
C 538.447136 194.543137 538.638873 194.080241 538.638873 193.597644 
C 538.638873 193.115048 538.447136 192.652151 538.105888 192.310904 
C 537.76464 191.969656 537.301744 191.777919 536.819147 191.777919 
C 536.33655 191.777919 535.873654 191.969656 535.532407 192.310904 
C 535.191159 192.652151 534.999421 193.115048 534.999421 193.597644 
C 534.999421 194.080241 535.191159 194.543137 535.532407 194.884385 
C 535.873654 195.225633 536.33655 195.41737 536.819147 195.41737 
z
" style="stroke:#000000;stroke-linejoin:miter;"/>
   </g>
   <g id="patch_30">
    <path clip-path="url(#p3960e35fef)" d="M 544.098051 202.696274 
C 544.580648 202.696274 545.043544 202.504536 545.384792 202.163289 
C 545.726039 201.822041 545.917777 201.359145 545.917777 200.876548 
C 545.917777 200.393951 545.726039 199.931055 545.384792 199.589808 
C 545.043544 199.24856 544.580648 199.056822 544.098051 199.056822 
C 543.615454 199.056822 543.152558 199.24856 542.811311 199.589808 
C 542.470063 199.931055 542.278325 200.393951 542.278325 200.876548 
C 542.278325 201.359145 542.470063 201.822041 542.811311 202.163289 
C 543.152558 202.504536 543.615454 202.696274 544.098051 202.696274 
z
" style="stroke:#000000;stroke-linejoin:miter;"/>
   </g>
   <g id="patch_31">
    <path clip-path="url(#p3960e35fef)" d="M 551.376955 209.975178 
C 551.859552 209.975178 552.322448 209.78344 552.663695 209.442192 
C 553.004943 209.100945 553.196681 208.638049 553.196681 208.155452 
C 553.196681 207.672855 553.004943 207.209959 552.663695 206.868711 
C 552.322448 206.527464 551.859552 206.335726 551.376955 206.335726 
C 550.894358 206.335726 550.431462 206.527464 550.090214 206.868711 
C 549.748967 207.209959 549.557229 207.672855 549.557229 208.155452 
C 549.557229 208.638049 549.748967 209.100945 550.090214 209.442192 
C 550.431462 209.78344 550.894358 209.975178 551.376955 209.975178 
z
" style="stroke:#000000;stroke-linejoin:miter;"/>
   </g>
   <g id="patch_32">
    <path clip-path="url(#p3960e35fef)" d="M 558.655858 217.254081 
C 559.138455 217.254081 559.601351 217.062344 559.942599 216.721096 
C 560.283847 216.379849 560.475584 215.916952 560.475584 215.434356 
C 560.475584 214.951759 560.283847 214.488863 559.942599 214.147615 
C 559.601351 213.806367 559.138455 213.61463 558.655858 213.61463 
C 558.173262 213.61463 557.710366 213.806367 557.369118 214.147615 
C 557.02787 214.488863 556.836133 214.951759 556.836133 215.434356 
C 556.836133 215.916952 557.02787 216.379849 557.369118 216.721096 
C 557.710366 217.062344 558.173262 217.254081 558.655858 217.254081 
z
" style="stroke:#000000;stroke-linejoin:miter;"/>
   </g>
   <g id="patch_33">
    <path clip-path="url(#p3960e35fef)" d="M 562.29531 226.352711 
L 569.574214 226.352711 
L 569.574214 219.073807 
L 562.29531 219.073807 
z
" style="fill:#b2b2b2;stroke:#000000;stroke-linejoin:miter;"/>
   </g>
   <g id="patch_34">
    <path clip-path="url(#p3960e35fef)" d="M 569.574214 233.631615 
L 576.853118 233.631615 
L 576.853118 226.352711 
L 569.574214 226.352711 
z
" style="fill:#808080;stroke:#000000;stroke-linejoin:miter;"/>
   </g>
   <g id="patch_35">
    <path clip-path="url(#p3960e35fef)" d="M 576.853118 240.910518 
L 584.132021 240.910518 
L 584.132021 233.631615 
L 576.853118 233.631615 
z
" style="fill:#b2b2b2;stroke:#000000;stroke-linejoin:miter;"/>
   </g>
   <g id="patch_36">
    <path clip-path="url(#p3960e35fef)" d="M 584.132021 248.189422 
L 591.410925 248.189422 
L 591.410925 240.910518 
L 584.132021 240.910518 
z
" style="fill:#808080;stroke:#000000;stroke-linejoin:miter;"/>
   </g>
   <g id="patch_37">
    <path clip-path="url(#p3960e35fef)" d="M 591.410925 255.468326 
L 598.689829 255.468326 
L 598.689829 248.189422 
L 591.410925 248.189422 
z
" style="fill:#b2b2b2;stroke:#000000;stroke-linejoin:miter;"/>
   </g>
   <g id="patch_38">
    <path clip-path="url(#p3960e35fef)" d="M 598.689829 262.74723 
L 605.968733 262.74723 
L 605.968733 255.468326 
L 598.689829 255.468326 
z
" style="fill:#808080;stroke:#000000;stroke-linejoin:miter;"/>
   </g>
   <g id="patch_39">
    <path clip-path="url(#p3960e35fef)" d="M 605.968733 270.026133 
L 613.247636 270.026133 
L 613.247636 262.74723 
L 605.968733 262.74723 
z
" style="fill:#b2b2b2;stroke:#000000;stroke-linejoin:miter;"/>
   </g>
   <g id="patch_40">
    <path clip-path="url(#p3960e35fef)" d="M 613.247636 277.305037 
L 620.52654 277.305037 
L 620.52654 270.026133 
L 613.247636 270.026133 
z
" style="fill:#808080;stroke:#000000;stroke-linejoin:miter;"/>
   </g>
   <g id="patch_41">
    <path clip-path="url(#p3960e35fef)" d="M 620.52654 139.005867 
L 627.805444 139.005867 
L 627.805444 131.726963 
L 620.52654 131.726963 
z
" style="fill:#b2b2b2;stroke:#000000;stroke-linejoin:miter;"/>
   </g>
   <g id="patch_42">
    <path clip-path="url(#p3960e35fef)" d="M 627.805444 146.28477 
L 635.084347 146.28477 
L 635.084347 139.005867 
L 627.805444 139.005867 
z
" style="fill:#808080;stroke:#000000;stroke-linejoin:miter;"/>
   </g>
   <g id="patch_43">
    <path clip-path="url(#p3960e35fef)" d="M 635.084347 153.563674 
L 642.363251 153.563674 
L 642.363251 146.28477 
L 635.084347 146.28477 
z
" style="fill:#b2b2b2;stroke:#000000;stroke-linejoin:miter;"/>
   </g>
   <g id="patch_44">
    <path clip-path="url(#p3960e35fef)" d="M 642.363251 160.842578 
L 649.642155 160.842578 
L 649.642155 153.563674 
L 642.363251 153.563674 
z
" style="fill:#808080;stroke:#000000;stroke-linejoin:miter;"/>
   </g>
   <g id="patch_45">
    <path clip-path="url(#p3960e35fef)" d="M 649.642155 168.121482 
L 656.921058 168.121482 
L 656.921058 160.842578 
L 649.642155 160.842578 
z
" style="fill:#b2b2b2;stroke:#000000;stroke-linejoin:miter;"/>
   </g>
   <g id="patch_46">
    <path clip-path="url(#p3960e35fef)" d="M 656.921058 175.400385 
L 664.199962 175.400385 
L 664.199962 168.121482 
L 656.921058 168.121482 
z
" style="fill:#808080;stroke:#000000;stroke-linejoin:miter;"/>
   </g>
   <g id="patch_47">
    <path clip-path="url(#p3960e35fef)" d="M 664.199962 182.679289 
L 671.478866 182.679289 
L 671.478866 175.400385 
L 664.199962 175.400385 
z
" style="fill:#b2b2b2;stroke:#000000;stroke-linejoin:miter;"/>
   </g>
   <g id="patch_48">
    <path clip-path="url(#p3960e35fef)" d="M 671.478866 189.958193 
L 678.757769 189.958193 
L 678.757769 182.679289 
L 671.478866 182.679289 
z
" style="fill:#808080;stroke:#000000;stroke-linejoin:miter;"/>
   </g>
   <g id="patch_49">
    <path clip-path="url(#p3960e35fef)" d="M 682.397221 195.41737 
C 682.879818 195.41737 683.342714 195.225633 683.683962 194.884385 
C 684.025209 194.543137 684.216947 194.080241 684.216947 193.597644 
C 684.216947 193.115048 684.025209 192.652151 683.683962 192.310904 
C 683.342714 191.969656 682.879818 191.777919 682.397221 191.777919 
C 681.914624 191.777919 681.451728 191.969656 681.110481 192.310904 
C 680.769233 192.652151 680.577495 193.115048 680.577495 193.597644 
C 680.577495 194.080241 680.769233 194.543137 681.110481 194.884385 
C 681.451728 195.225633 681.914624 195.41737 682.397221 195.41737 
z
" style="stroke:#000000;stroke-linejoin:miter;"/>
   </g>
   <g id="patch_50">
    <path clip-path="url(#p3960e35fef)" d="M 689.676125 202.696274 
C 690.158722 202.696274 690.621618 202.504536 690.962866 202.163289 
C 691.304113 201.822041 691.495851 201.359145 691.495851 200.876548 
C 691.495851 200.393951 691.304113 199.931055 690.962866 199.589808 
C 690.621618 199.24856 690.158722 199.056822 689.676125 199.056822 
C 689.193528 199.056822 688.730632 199.24856 688.389384 199.589808 
C 688.048137 199.931055 687.856399 200.393951 687.856399 200.876548 
C 687.856399 201.359145 688.048137 201.822041 688.389384 202.163289 
C 688.730632 202.504536 689.193528 202.696274 689.676125 202.696274 
z
" style="stroke:#000000;stroke-linejoin:miter;"/>
   </g>
   <g id="patch_51">
    <path clip-path="url(#p3960e35fef)" d="M 696.955029 209.975178 
C 697.437626 209.975178 697.900522 209.78344 698.241769 209.442192 
C 698.583017 209.100945 698.774755 208.638049 698.774755 208.155452 
C 698.774755 207.672855 698.583017 207.209959 698.241769 206.868711 
C 697.900522 206.527464 697.437626 206.335726 696.955029 206.335726 
C 696.472432 206.335726 696.009536 206.527464 695.668288 206.868711 
C 695.327041 207.209959 695.135303 207.672855 695.135303 208.155452 
C 695.135303 208.638049 695.327041 209.100945 695.668288 209.442192 
C 696.009536 209.78344 696.472432 209.975178 696.955029 209.975178 
z
" style="stroke:#000000;stroke-linejoin:miter;"/>
   </g>
   <g id="patch_52">
    <path clip-path="url(#p3960e35fef)" d="M 704.233932 217.254081 
C 704.716529 217.254081 705.179425 217.062344 705.520673 216.721096 
C 705.86192 216.379849 706.053658 215.916952 706.053658 215.434356 
C 706.053658 214.951759 705.86192 214.488863 705.520673 214.147615 
C 705.179425 213.806367 704.716529 213.61463 704.233932 213.61463 
C 703.751335 213.61463 703.288439 213.806367 702.947192 214.147615 
C 702.605944 214.488863 702.414206 214.951759 702.414206 215.434356 
C 702.414206 215.916952 702.605944 216.379849 702.947192 216.721096 
C 703.288439 217.062344 703.751335 217.254081 704.233932 217.254081 
z
" style="stroke:#000000;stroke-linejoin:miter;"/>
   </g>
   <g id="patch_53">
    <path clip-path="url(#p3960e35fef)" d="M 707.873384 226.352711 
L 715.152288 226.352711 
L 715.152288 219.073807 
L 707.873384 219.073807 
z
" style="fill:#b2b2b2;stroke:#000000;stroke-linejoin:miter;"/>
   </g>
   <g id="patch_54">
    <path clip-path="url(#p3960e35fef)" d="M 715.152288 233.631615 
L 722.431192 233.631615 
L 722.431192 226.352711 
L 715.152288 226.352711 
z
" style="fill:#808080;stroke:#000000;stroke-linejoin:miter;"/>
   </g>
   <g id="patch_55">
    <path clip-path="url(#p3960e35fef)" d="M 722.431192 240.910518 
L 729.710095 240.910518 
L 729.710095 233.631615 
L 722.431192 233.631615 
z
" style="fill:#b2b2b2;stroke:#000000;stroke-linejoin:miter;"/>
   </g>
   <g id="patch_56">
    <path clip-path="url(#p3960e35fef)" d="M 729.710095 248.189422 
L 736.988999 248.189422 
L 736.988999 240.910518 
L 729.710095 240.910518 
z
" style="fill:#808080;stroke:#000000;stroke-linejoin:miter;"/>
   </g>
   <g id="patch_57">
    <path clip-path="url(#p3960e35fef)" d="M 736.988999 255.468326 
L 744.267903 255.468326 
L 744.267903 248.189422 
L 736.988999 248.189422 
z
" style="fill:#b2b2b2;stroke:#000000;stroke-linejoin:miter;"/>
   </g>
   <g id="patch_58">
    <path clip-path="url(#p3960e35fef)" d="M 744.267903 262.74723 
L 751.546806 262.74723 
L 751.546806 255.468326 
L 744.267903 255.468326 
z
" style="fill:#808080;stroke:#000000;stroke-linejoin:miter;"/>
   </g>
   <g id="patch_59">
    <path clip-path="url(#p3960e35fef)" d="M 751.546806 270.026133 
L 758.82571 270.026133 
L 758.82571 262.74723 
L 751.546806 262.74723 
z
" style="fill:#b2b2b2;stroke:#000000;stroke-linejoin:miter;"/>
   </g>
   <g id="patch_60">
    <path clip-path="url(#p3960e35fef)" d="M 758.82571 277.305037 
L 766.104614 277.305037 
L 766.104614 270.026133 
L 758.82571 270.026133 
z
" style="fill:#808080;stroke:#000000;stroke-linejoin:miter;"/>
   </g>
   <g id="patch_61">
    <path clip-path="url(#p3960e35fef)" d="M 766.104614 139.005867 
L 773.383517 139.005867 
L 773.383517 131.726963 
L 766.104614 131.726963 
z
" style="fill:#b2b2b2;stroke:#000000;stroke-linejoin:miter;"/>
   </g>
   <g id="patch_62">
    <path clip-path="url(#p3960e35fef)" d="M 773.383517 146.28477 
L 780.662421 146.28477 
L 780.662421 139.005867 
L 773.383517 139.005867 
z
" style="fill:#808080;stroke:#000000;stroke-linejoin:miter;"/>
   </g>
   <g id="patch_63">
    <path clip-path="url(#p3960e35fef)" d="M 780.662421 153.563674 
L 787.941325 153.563674 
L 787.941325 146.28477 
L 780.662421 146.28477 
z
" style="fill:#b2b2b2;stroke:#000000;stroke-linejoin:miter;"/>
   </g>
   <g id="patch_64">
    <path clip-path="url(#p3960e35fef)" d="M 787.941325 160.842578 
L 795.220229 160.842578 
L 795.220229 153.563674 
L 787.941325 153.563674 
z
" style="fill:#808080;stroke:#000000;stroke-linejoin:miter;"/>
   </g>
   <g id="patch_65">
    <path clip-path="url(#p3960e35fef)" d="M 795.220229 168.121482 
L 802.499132 168.121482 
L 802.499132 160.842578 
L 795.220229 160.842578 
z
" style="fill:#b2b2b2;stroke:#000000;stroke-linejoin:miter;"/>
   </g>
   <g id="line2d_1">
    <path clip-path="url(#p3960e35fef)" d="M 54.227833 131.726963 
L 277.690176 217.254081 
" style="fill:none;stroke:#262626;stroke-linecap:square;stroke-width:1.5;"/>
   </g>
   <g id="line2d_2">
    <path clip-path="url(#p3960e35fef)" d="M 72.425092 131.726963 
L 277.690176 217.254081 
" style="fill:none;stroke:#262626;stroke-linecap:square;stroke-width:1.5;"/>
   </g>
   <g id="line2d_3">
    <path clip-path="url(#p3960e35fef)" d="M 54.227833 149.924222 
L 277.690176 217.254081 
" style="fill:none;stroke:#262626;stroke-linecap:square;stroke-width:1.5;"/>
   </g>
   <g id="line2d_4">
    <path clip-path="url(#p3960e35fef)" d="M 72.425092 149.924222 
L 277.690176 217.254081 
" style="fill:none;stroke:#262626;stroke-linecap:square;stroke-width:1.5;"/>
   </g>
   <g id="line2d_5">
    <path clip-path="url(#p3960e35fef)" d="M 288.244586 208.155452 
L 452.383865 217.254081 
" style="fill:none;stroke:#262626;stroke-linecap:square;stroke-width:1.5;"/>
   </g>
   <g id="line2d_6">
    <path clip-path="url(#p3960e35fef)" d="M 306.441846 208.155452 
L 452.383865 217.254081 
" style="fill:none;stroke:#262626;stroke-linecap:square;stroke-width:1.5;"/>
   </g>
   <g id="line2d_7">
    <path clip-path="url(#p3960e35fef)" d="M 288.244586 226.352711 
L 452.383865 217.254081 
" style="fill:none;stroke:#262626;stroke-linecap:square;stroke-width:1.5;"/>
   </g>
   <g id="line2d_8">
    <path clip-path="url(#p3960e35fef)" d="M 306.441846 226.352711 
L 452.383865 217.254081 
" style="fill:none;stroke:#262626;stroke-linecap:square;stroke-width:1.5;"/>
   </g>
   <g id="text_1">
    <!-- batchnorm -->
    <defs>
     <path d="M 48.6875 27.296875 
Q 48.6875 37.203125 44.609375 42.84375 
Q 40.53125 48.484375 33.40625 48.484375 
Q 26.265625 48.484375 22.1875 42.84375 
Q 18.109375 37.203125 18.109375 27.296875 
Q 18.109375 17.390625 22.1875 11.75 
Q 26.265625 6.109375 33.40625 6.109375 
Q 40.53125 6.109375 44.609375 11.75 
Q 48.6875 17.390625 48.6875 27.296875 
z
M 18.109375 46.390625 
Q 20.953125 51.265625 25.265625 53.625 
Q 29.59375 56 35.59375 56 
Q 45.5625 56 51.78125 48.09375 
Q 58.015625 40.1875 58.015625 27.296875 
Q 58.015625 14.40625 51.78125 6.484375 
Q 45.5625 -1.421875 35.59375 -1.421875 
Q 29.59375 -1.421875 25.265625 0.953125 
Q 20.953125 3.328125 18.109375 8.203125 
L 18.109375 0 
L 9.078125 0 
L 9.078125 75.984375 
L 18.109375 75.984375 
z
" id="DejaVuSans-98"/>
     <path d="M 34.28125 27.484375 
Q 23.390625 27.484375 19.1875 25 
Q 14.984375 22.515625 14.984375 16.5 
Q 14.984375 11.71875 18.140625 8.90625 
Q 21.296875 6.109375 26.703125 6.109375 
Q 34.1875 6.109375 38.703125 11.40625 
Q 43.21875 16.703125 43.21875 25.484375 
L 43.21875 27.484375 
z
M 52.203125 31.203125 
L 52.203125 0 
L 43.21875 0 
L 43.21875 8.296875 
Q 40.140625 3.328125 35.546875 0.953125 
Q 30.953125 -1.421875 24.3125 -1.421875 
Q 15.921875 -1.421875 10.953125 3.296875 
Q 6 8.015625 6 15.921875 
Q 6 25.140625 12.171875 29.828125 
Q 18.359375 34.515625 30.609375 34.515625 
L 43.21875 34.515625 
L 43.21875 35.40625 
Q 43.21875 41.609375 39.140625 45 
Q 35.0625 48.390625 27.6875 48.390625 
Q 23 48.390625 18.546875 47.265625 
Q 14.109375 46.140625 10.015625 43.890625 
L 10.015625 52.203125 
Q 14.9375 54.109375 19.578125 55.046875 
Q 24.21875 56 28.609375 56 
Q 40.484375 56 46.34375 49.84375 
Q 52.203125 43.703125 52.203125 31.203125 
z
" id="DejaVuSans-97"/>
     <path d="M 18.3125 70.21875 
L 18.3125 54.6875 
L 36.8125 54.6875 
L 36.8125 47.703125 
L 18.3125 47.703125 
L 18.3125 18.015625 
Q 18.3125 11.328125 20.140625 9.421875 
Q 21.96875 7.515625 27.59375 7.515625 
L 36.8125 7.515625 
L 36.8125 0 
L 27.59375 0 
Q 17.1875 0 13.234375 3.875 
Q 9.28125 7.765625 9.28125 18.015625 
L 9.28125 47.703125 
L 2.6875 47.703125 
L 2.6875 54.6875 
L 9.28125 54.6875 
L 9.28125 70.21875 
z
" id="DejaVuSans-116"/>
     <path d="M 48.78125 52.59375 
L 48.78125 44.1875 
Q 44.96875 46.296875 41.140625 47.34375 
Q 37.3125 48.390625 33.40625 48.390625 
Q 24.65625 48.390625 19.8125 42.84375 
Q 14.984375 37.3125 14.984375 27.296875 
Q 14.984375 17.28125 19.8125 11.734375 
Q 24.65625 6.203125 33.40625 6.203125 
Q 37.3125 6.203125 41.140625 7.25 
Q 44.96875 8.296875 48.78125 10.40625 
L 48.78125 2.09375 
Q 45.015625 0.34375 40.984375 -0.53125 
Q 36.96875 -1.421875 32.421875 -1.421875 
Q 20.0625 -1.421875 12.78125 6.34375 
Q 5.515625 14.109375 5.515625 27.296875 
Q 5.515625 40.671875 12.859375 48.328125 
Q 20.21875 56 33.015625 56 
Q 37.15625 56 41.109375 55.140625 
Q 45.0625 54.296875 48.78125 52.59375 
z
" id="DejaVuSans-99"/>
     <path d="M 54.890625 33.015625 
L 54.890625 0 
L 45.90625 0 
L 45.90625 32.71875 
Q 45.90625 40.484375 42.875 44.328125 
Q 39.84375 48.1875 33.796875 48.1875 
Q 26.515625 48.1875 22.3125 43.546875 
Q 18.109375 38.921875 18.109375 30.90625 
L 18.109375 0 
L 9.078125 0 
L 9.078125 75.984375 
L 18.109375 75.984375 
L 18.109375 46.1875 
Q 21.34375 51.125 25.703125 53.5625 
Q 30.078125 56 35.796875 56 
Q 45.21875 56 50.046875 50.171875 
Q 54.890625 44.34375 54.890625 33.015625 
z
" id="DejaVuSans-104"/>
     <path d="M 54.890625 33.015625 
L 54.890625 0 
L 45.90625 0 
L 45.90625 32.71875 
Q 45.90625 40.484375 42.875 44.328125 
Q 39.84375 48.1875 33.796875 48.1875 
Q 26.515625 48.1875 22.3125 43.546875 
Q 18.109375 38.921875 18.109375 30.90625 
L 18.109375 0 
L 9.078125 0 
L 9.078125 54.6875 
L 18.109375 54.6875 
L 18.109375 46.1875 
Q 21.34375 51.125 25.703125 53.5625 
Q 30.078125 56 35.796875 56 
Q 45.21875 56 50.046875 50.171875 
Q 54.890625 44.34375 54.890625 33.015625 
z
" id="DejaVuSans-110"/>
     <path d="M 30.609375 48.390625 
Q 23.390625 48.390625 19.1875 42.75 
Q 14.984375 37.109375 14.984375 27.296875 
Q 14.984375 17.484375 19.15625 11.84375 
Q 23.34375 6.203125 30.609375 6.203125 
Q 37.796875 6.203125 41.984375 11.859375 
Q 46.1875 17.53125 46.1875 27.296875 
Q 46.1875 37.015625 41.984375 42.703125 
Q 37.796875 48.390625 30.609375 48.390625 
z
M 30.609375 56 
Q 42.328125 56 49.015625 48.375 
Q 55.71875 40.765625 55.71875 27.296875 
Q 55.71875 13.875 49.015625 6.21875 
Q 42.328125 -1.421875 30.609375 -1.421875 
Q 18.84375 -1.421875 12.171875 6.21875 
Q 5.515625 13.875 5.515625 27.296875 
Q 5.515625 40.765625 12.171875 48.375 
Q 18.84375 56 30.609375 56 
z
" id="DejaVuSans-111"/>
     <path d="M 41.109375 46.296875 
Q 39.59375 47.171875 37.8125 47.578125 
Q 36.03125 48 33.890625 48 
Q 26.265625 48 22.1875 43.046875 
Q 18.109375 38.09375 18.109375 28.8125 
L 18.109375 0 
L 9.078125 0 
L 9.078125 54.6875 
L 18.109375 54.6875 
L 18.109375 46.1875 
Q 20.953125 51.171875 25.484375 53.578125 
Q 30.03125 56 36.53125 56 
Q 37.453125 56 38.578125 55.875 
Q 39.703125 55.765625 41.0625 55.515625 
z
" id="DejaVuSans-114"/>
     <path d="M 52 44.1875 
Q 55.375 50.25 60.0625 53.125 
Q 64.75 56 71.09375 56 
Q 79.640625 56 84.28125 50.015625 
Q 88.921875 44.046875 88.921875 33.015625 
L 88.921875 0 
L 79.890625 0 
L 79.890625 32.71875 
Q 79.890625 40.578125 77.09375 44.375 
Q 74.3125 48.1875 68.609375 48.1875 
Q 61.625 48.1875 57.5625 43.546875 
Q 53.515625 38.921875 53.515625 30.90625 
L 53.515625 0 
L 44.484375 0 
L 44.484375 32.71875 
Q 44.484375 40.625 41.703125 44.40625 
Q 38.921875 48.1875 33.109375 48.1875 
Q 26.21875 48.1875 22.15625 43.53125 
Q 18.109375 38.875 18.109375 30.90625 
L 18.109375 0 
L 9.078125 0 
L 9.078125 54.6875 
L 18.109375 54.6875 
L 18.109375 46.1875 
Q 21.1875 51.21875 25.484375 53.609375 
Q 29.78125 56 35.6875 56 
Q 41.65625 56 45.828125 52.96875 
Q 50 49.953125 52 44.1875 
z
" id="DejaVuSans-109"/>
    </defs>
    <g transform="translate(1.819726 315.103352)scale(0.16 -0.16)">
     <use xlink:href="#DejaVuSans-98"/>
     <use x="63.476562" xlink:href="#DejaVuSans-97"/>
     <use x="124.755859" xlink:href="#DejaVuSans-116"/>
     <use x="163.964844" xlink:href="#DejaVuSans-99"/>
     <use x="218.945312" xlink:href="#DejaVuSans-104"/>
     <use x="282.324219" xlink:href="#DejaVuSans-110"/>
     <use x="345.703125" xlink:href="#DejaVuSans-111"/>
     <use x="406.884766" xlink:href="#DejaVuSans-114"/>
     <use x="447.982422" xlink:href="#DejaVuSans-109"/>
    </g>
    <!--  -->
    <g transform="translate(1.819726 333.019852)scale(0.16 -0.16)"/>
    <!--  -->
    <g transform="translate(1.819726 350.936352)scale(0.16 -0.16)"/>
    <!--  -->
    <g transform="translate(1.819726 368.852852)scale(0.16 -0.16)"/>
    <!--  -->
    <g transform="translate(1.819726 386.769352)scale(0.16 -0.16)"/>
    <!--  -->
    <g transform="translate(1.819726 404.685852)scale(0.16 -0.16)"/>
   </g>
   <g id="text_2">
    <!-- activation -->
    <defs>
     <path d="M 9.421875 54.6875 
L 18.40625 54.6875 
L 18.40625 0 
L 9.421875 0 
z
M 9.421875 75.984375 
L 18.40625 75.984375 
L 18.40625 64.59375 
L 9.421875 64.59375 
z
" id="DejaVuSans-105"/>
     <path d="M 2.984375 54.6875 
L 12.5 54.6875 
L 29.59375 8.796875 
L 46.6875 54.6875 
L 56.203125 54.6875 
L 35.6875 0 
L 23.484375 0 
z
" id="DejaVuSans-118"/>
    </defs>
    <g transform="translate(329.370392 81.336156)scale(0.16 -0.16)">
     <use xlink:href="#DejaVuSans-97"/>
     <use x="61.279297" xlink:href="#DejaVuSans-99"/>
     <use x="116.259766" xlink:href="#DejaVuSans-116"/>
     <use x="155.46875" xlink:href="#DejaVuSans-105"/>
     <use x="183.251953" xlink:href="#DejaVuSans-118"/>
     <use x="242.431641" xlink:href="#DejaVuSans-97"/>
     <use x="303.710938" xlink:href="#DejaVuSans-116"/>
     <use x="342.919922" xlink:href="#DejaVuSans-105"/>
     <use x="370.703125" xlink:href="#DejaVuSans-111"/>
     <use x="431.884766" xlink:href="#DejaVuSans-110"/>
    </g>
    <!-- maps -->
    <defs>
     <path d="M 18.109375 8.203125 
L 18.109375 -20.796875 
L 9.078125 -20.796875 
L 9.078125 54.6875 
L 18.109375 54.6875 
L 18.109375 46.390625 
Q 20.953125 51.265625 25.265625 53.625 
Q 29.59375 56 35.59375 56 
Q 45.5625 56 51.78125 48.09375 
Q 58.015625 40.1875 58.015625 27.296875 
Q 58.015625 14.40625 51.78125 6.484375 
Q 45.5625 -1.421875 35.59375 -1.421875 
Q 29.59375 -1.421875 25.265625 0.953125 
Q 20.953125 3.328125 18.109375 8.203125 
z
M 48.6875 27.296875 
Q 48.6875 37.203125 44.609375 42.84375 
Q 40.53125 48.484375 33.40625 48.484375 
Q 26.265625 48.484375 22.1875 42.84375 
Q 18.109375 37.203125 18.109375 27.296875 
Q 18.109375 17.390625 22.1875 11.75 
Q 26.265625 6.109375 33.40625 6.109375 
Q 40.53125 6.109375 44.609375 11.75 
Q 48.6875 17.390625 48.6875 27.296875 
z
" id="DejaVuSans-112"/>
     <path d="M 44.28125 53.078125 
L 44.28125 44.578125 
Q 40.484375 46.53125 36.375 47.5 
Q 32.28125 48.484375 27.875 48.484375 
Q 21.1875 48.484375 17.84375 46.4375 
Q 14.5 44.390625 14.5 40.28125 
Q 14.5 37.15625 16.890625 35.375 
Q 19.28125 33.59375 26.515625 31.984375 
L 29.59375 31.296875 
Q 39.15625 29.25 43.1875 25.515625 
Q 47.21875 21.78125 47.21875 15.09375 
Q 47.21875 7.46875 41.1875 3.015625 
Q 35.15625 -1.421875 24.609375 -1.421875 
Q 20.21875 -1.421875 15.453125 -0.5625 
Q 10.6875 0.296875 5.421875 2 
L 5.421875 11.28125 
Q 10.40625 8.6875 15.234375 7.390625 
Q 20.0625 6.109375 24.8125 6.109375 
Q 31.15625 6.109375 34.5625 8.28125 
Q 37.984375 10.453125 37.984375 14.40625 
Q 37.984375 18.0625 35.515625 20.015625 
Q 33.0625 21.96875 24.703125 23.78125 
L 21.578125 24.515625 
Q 13.234375 26.265625 9.515625 29.90625 
Q 5.8125 33.546875 5.8125 39.890625 
Q 5.8125 47.609375 11.28125 51.796875 
Q 16.75 56 26.8125 56 
Q 31.78125 56 36.171875 55.265625 
Q 40.578125 54.546875 44.28125 53.078125 
z
" id="DejaVuSans-115"/>
    </defs>
    <g transform="translate(329.370392 99.252656)scale(0.16 -0.16)">
     <use xlink:href="#DejaVuSans-109"/>
     <use x="97.412109" xlink:href="#DejaVuSans-97"/>
     <use x="158.691406" xlink:href="#DejaVuSans-112"/>
     <use x="222.167969" xlink:href="#DejaVuSans-115"/>
    </g>
    <!-- 96 channels -->
    <defs>
     <path d="M 10.984375 1.515625 
L 10.984375 10.5 
Q 14.703125 8.734375 18.5 7.8125 
Q 22.3125 6.890625 25.984375 6.890625 
Q 35.75 6.890625 40.890625 13.453125 
Q 46.046875 20.015625 46.78125 33.40625 
Q 43.953125 29.203125 39.59375 26.953125 
Q 35.25 24.703125 29.984375 24.703125 
Q 19.046875 24.703125 12.671875 31.3125 
Q 6.296875 37.9375 6.296875 49.421875 
Q 6.296875 60.640625 12.9375 67.421875 
Q 19.578125 74.21875 30.609375 74.21875 
Q 43.265625 74.21875 49.921875 64.515625 
Q 56.59375 54.828125 56.59375 36.375 
Q 56.59375 19.140625 48.40625 8.859375 
Q 40.234375 -1.421875 26.421875 -1.421875 
Q 22.703125 -1.421875 18.890625 -0.6875 
Q 15.09375 0.046875 10.984375 1.515625 
z
M 30.609375 32.421875 
Q 37.25 32.421875 41.125 36.953125 
Q 45.015625 41.5 45.015625 49.421875 
Q 45.015625 57.28125 41.125 61.84375 
Q 37.25 66.40625 30.609375 66.40625 
Q 23.96875 66.40625 20.09375 61.84375 
Q 16.21875 57.28125 16.21875 49.421875 
Q 16.21875 41.5 20.09375 36.953125 
Q 23.96875 32.421875 30.609375 32.421875 
z
" id="DejaVuSans-57"/>
     <path d="M 33.015625 40.375 
Q 26.375 40.375 22.484375 35.828125 
Q 18.609375 31.296875 18.609375 23.390625 
Q 18.609375 15.53125 22.484375 10.953125 
Q 26.375 6.390625 33.015625 6.390625 
Q 39.65625 6.390625 43.53125 10.953125 
Q 47.40625 15.53125 47.40625 23.390625 
Q 47.40625 31.296875 43.53125 35.828125 
Q 39.65625 40.375 33.015625 40.375 
z
M 52.59375 71.296875 
L 52.59375 62.3125 
Q 48.875 64.0625 45.09375 64.984375 
Q 41.3125 65.921875 37.59375 65.921875 
Q 27.828125 65.921875 22.671875 59.328125 
Q 17.53125 52.734375 16.796875 39.40625 
Q 19.671875 43.65625 24.015625 45.921875 
Q 28.375 48.1875 33.59375 48.1875 
Q 44.578125 48.1875 50.953125 41.515625 
Q 57.328125 34.859375 57.328125 23.390625 
Q 57.328125 12.15625 50.6875 5.359375 
Q 44.046875 -1.421875 33.015625 -1.421875 
Q 20.359375 -1.421875 13.671875 8.265625 
Q 6.984375 17.96875 6.984375 36.375 
Q 6.984375 53.65625 15.1875 63.9375 
Q 23.390625 74.21875 37.203125 74.21875 
Q 40.921875 74.21875 44.703125 73.484375 
Q 48.484375 72.75 52.59375 71.296875 
z
" id="DejaVuSans-54"/>
     <path id="DejaVuSans-32"/>
     <path d="M 56.203125 29.59375 
L 56.203125 25.203125 
L 14.890625 25.203125 
Q 15.484375 15.921875 20.484375 11.0625 
Q 25.484375 6.203125 34.421875 6.203125 
Q 39.59375 6.203125 44.453125 7.46875 
Q 49.3125 8.734375 54.109375 11.28125 
L 54.109375 2.78125 
Q 49.265625 0.734375 44.1875 -0.34375 
Q 39.109375 -1.421875 33.890625 -1.421875 
Q 20.796875 -1.421875 13.15625 6.1875 
Q 5.515625 13.8125 5.515625 26.8125 
Q 5.515625 40.234375 12.765625 48.109375 
Q 20.015625 56 32.328125 56 
Q 43.359375 56 49.78125 48.890625 
Q 56.203125 41.796875 56.203125 29.59375 
z
M 47.21875 32.234375 
Q 47.125 39.59375 43.09375 43.984375 
Q 39.0625 48.390625 32.421875 48.390625 
Q 24.90625 48.390625 20.390625 44.140625 
Q 15.875 39.890625 15.1875 32.171875 
z
" id="DejaVuSans-101"/>
     <path d="M 9.421875 75.984375 
L 18.40625 75.984375 
L 18.40625 0 
L 9.421875 0 
z
" id="DejaVuSans-108"/>
    </defs>
    <g transform="translate(329.370392 117.169156)scale(0.16 -0.16)">
     <use xlink:href="#DejaVuSans-57"/>
     <use x="63.623047" xlink:href="#DejaVuSans-54"/>
     <use x="127.246094" xlink:href="#DejaVuSans-32"/>
     <use x="159.033203" xlink:href="#DejaVuSans-99"/>
     <use x="214.013672" xlink:href="#DejaVuSans-104"/>
     <use x="277.392578" xlink:href="#DejaVuSans-97"/>
     <use x="338.671875" xlink:href="#DejaVuSans-110"/>
     <use x="402.050781" xlink:href="#DejaVuSans-110"/>
     <use x="465.429688" xlink:href="#DejaVuSans-101"/>
     <use x="526.953125" xlink:href="#DejaVuSans-108"/>
     <use x="554.736328" xlink:href="#DejaVuSans-115"/>
    </g>
   </g>
   <g id="text_3">
    <!-- activation -->
    <g transform="translate(183.792318 81.336156)scale(0.16 -0.16)">
     <use xlink:href="#DejaVuSans-97"/>
     <use x="61.279297" xlink:href="#DejaVuSans-99"/>
     <use x="116.259766" xlink:href="#DejaVuSans-116"/>
     <use x="155.46875" xlink:href="#DejaVuSans-105"/>
     <use x="183.251953" xlink:href="#DejaVuSans-118"/>
     <use x="242.431641" xlink:href="#DejaVuSans-97"/>
     <use x="303.710938" xlink:href="#DejaVuSans-116"/>
     <use x="342.919922" xlink:href="#DejaVuSans-105"/>
     <use x="370.703125" xlink:href="#DejaVuSans-111"/>
     <use x="431.884766" xlink:href="#DejaVuSans-110"/>
    </g>
    <!-- maps -->
    <g transform="translate(183.792318 99.252656)scale(0.16 -0.16)">
     <use xlink:href="#DejaVuSans-109"/>
     <use x="97.412109" xlink:href="#DejaVuSans-97"/>
     <use x="158.691406" xlink:href="#DejaVuSans-112"/>
     <use x="222.167969" xlink:href="#DejaVuSans-115"/>
    </g>
    <!-- 96 channels -->
    <g transform="translate(183.792318 117.169156)scale(0.16 -0.16)">
     <use xlink:href="#DejaVuSans-57"/>
     <use x="63.623047" xlink:href="#DejaVuSans-54"/>
     <use x="127.246094" xlink:href="#DejaVuSans-32"/>
     <use x="159.033203" xlink:href="#DejaVuSans-99"/>
     <use x="214.013672" xlink:href="#DejaVuSans-104"/>
     <use x="277.392578" xlink:href="#DejaVuSans-97"/>
     <use x="338.671875" xlink:href="#DejaVuSans-110"/>
     <use x="402.050781" xlink:href="#DejaVuSans-110"/>
     <use x="465.429688" xlink:href="#DejaVuSans-101"/>
     <use x="526.953125" xlink:href="#DejaVuSans-108"/>
     <use x="554.736328" xlink:href="#DejaVuSans-115"/>
    </g>
   </g>
   <g id="text_4">
    <!-- inputs -->
    <defs>
     <path d="M 8.5 21.578125 
L 8.5 54.6875 
L 17.484375 54.6875 
L 17.484375 21.921875 
Q 17.484375 14.15625 20.5 10.265625 
Q 23.53125 6.390625 29.59375 6.390625 
Q 36.859375 6.390625 41.078125 11.03125 
Q 45.3125 15.671875 45.3125 23.6875 
L 45.3125 54.6875 
L 54.296875 54.6875 
L 54.296875 0 
L 45.3125 0 
L 45.3125 8.40625 
Q 42.046875 3.421875 37.71875 1 
Q 33.40625 -1.421875 27.6875 -1.421875 
Q 18.265625 -1.421875 13.375 4.4375 
Q 8.5 10.296875 8.5 21.578125 
z
M 31.109375 56 
z
" id="DejaVuSans-117"/>
    </defs>
    <g transform="translate(38.214244 81.336156)scale(0.16 -0.16)">
     <use xlink:href="#DejaVuSans-105"/>
     <use x="27.783203" xlink:href="#DejaVuSans-110"/>
     <use x="91.162109" xlink:href="#DejaVuSans-112"/>
     <use x="154.638672" xlink:href="#DejaVuSans-117"/>
     <use x="218.017578" xlink:href="#DejaVuSans-116"/>
     <use x="257.226562" xlink:href="#DejaVuSans-115"/>
    </g>
    <!--  -->
    <g transform="translate(38.214244 99.252656)scale(0.16 -0.16)"/>
    <!-- 1x1920 -->
    <defs>
     <path d="M 12.40625 8.296875 
L 28.515625 8.296875 
L 28.515625 63.921875 
L 10.984375 60.40625 
L 10.984375 69.390625 
L 28.421875 72.90625 
L 38.28125 72.90625 
L 38.28125 8.296875 
L 54.390625 8.296875 
L 54.390625 0 
L 12.40625 0 
z
" id="DejaVuSans-49"/>
     <path d="M 54.890625 54.6875 
L 35.109375 28.078125 
L 55.90625 0 
L 45.3125 0 
L 29.390625 21.484375 
L 13.484375 0 
L 2.875 0 
L 24.125 28.609375 
L 4.6875 54.6875 
L 15.28125 54.6875 
L 29.78125 35.203125 
L 44.28125 54.6875 
z
" id="DejaVuSans-120"/>
     <path d="M 19.1875 8.296875 
L 53.609375 8.296875 
L 53.609375 0 
L 7.328125 0 
L 7.328125 8.296875 
Q 12.9375 14.109375 22.625 23.890625 
Q 32.328125 33.6875 34.8125 36.53125 
Q 39.546875 41.84375 41.421875 45.53125 
Q 43.3125 49.21875 43.3125 52.78125 
Q 43.3125 58.59375 39.234375 62.25 
Q 35.15625 65.921875 28.609375 65.921875 
Q 23.96875 65.921875 18.8125 64.3125 
Q 13.671875 62.703125 7.8125 59.421875 
L 7.8125 69.390625 
Q 13.765625 71.78125 18.9375 73 
Q 24.125 74.21875 28.421875 74.21875 
Q 39.75 74.21875 46.484375 68.546875 
Q 53.21875 62.890625 53.21875 53.421875 
Q 53.21875 48.921875 51.53125 44.890625 
Q 49.859375 40.875 45.40625 35.40625 
Q 44.1875 33.984375 37.640625 27.21875 
Q 31.109375 20.453125 19.1875 8.296875 
z
" id="DejaVuSans-50"/>
     <path d="M 31.78125 66.40625 
Q 24.171875 66.40625 20.328125 58.90625 
Q 16.5 51.421875 16.5 36.375 
Q 16.5 21.390625 20.328125 13.890625 
Q 24.171875 6.390625 31.78125 6.390625 
Q 39.453125 6.390625 43.28125 13.890625 
Q 47.125 21.390625 47.125 36.375 
Q 47.125 51.421875 43.28125 58.90625 
Q 39.453125 66.40625 31.78125 66.40625 
z
M 31.78125 74.21875 
Q 44.046875 74.21875 50.515625 64.515625 
Q 56.984375 54.828125 56.984375 36.375 
Q 56.984375 17.96875 50.515625 8.265625 
Q 44.046875 -1.421875 31.78125 -1.421875 
Q 19.53125 -1.421875 13.0625 8.265625 
Q 6.59375 17.96875 6.59375 36.375 
Q 6.59375 54.828125 13.0625 64.515625 
Q 19.53125 74.21875 31.78125 74.21875 
z
" id="DejaVuSans-48"/>
    </defs>
    <g transform="translate(38.214244 117.169156)scale(0.16 -0.16)">
     <use xlink:href="#DejaVuSans-49"/>
     <use x="63.623047" xlink:href="#DejaVuSans-120"/>
     <use x="122.802734" xlink:href="#DejaVuSans-49"/>
     <use x="186.425781" xlink:href="#DejaVuSans-57"/>
     <use x="250.048828" xlink:href="#DejaVuSans-50"/>
     <use x="313.671875" xlink:href="#DejaVuSans-48"/>
    </g>
   </g>
   <g id="text_5">
    <!-- convolution -->
    <g transform="translate(132.839992 315.103352)scale(0.16 -0.16)">
     <use xlink:href="#DejaVuSans-99"/>
     <use x="54.980469" xlink:href="#DejaVuSans-111"/>
     <use x="116.162109" xlink:href="#DejaVuSans-110"/>
     <use x="179.541016" xlink:href="#DejaVuSans-118"/>
     <use x="238.720703" xlink:href="#DejaVuSans-111"/>
     <use x="299.902344" xlink:href="#DejaVuSans-108"/>
     <use x="327.685547" xlink:href="#DejaVuSans-117"/>
     <use x="391.064453" xlink:href="#DejaVuSans-116"/>
     <use x="430.273438" xlink:href="#DejaVuSans-105"/>
     <use x="458.056641" xlink:href="#DejaVuSans-111"/>
     <use x="519.238281" xlink:href="#DejaVuSans-110"/>
    </g>
    <!-- 1x5 filters -->
    <defs>
     <path d="M 10.796875 72.90625 
L 49.515625 72.90625 
L 49.515625 64.59375 
L 19.828125 64.59375 
L 19.828125 46.734375 
Q 21.96875 47.46875 24.109375 47.828125 
Q 26.265625 48.1875 28.421875 48.1875 
Q 40.625 48.1875 47.75 41.5 
Q 54.890625 34.8125 54.890625 23.390625 
Q 54.890625 11.625 47.5625 5.09375 
Q 40.234375 -1.421875 26.90625 -1.421875 
Q 22.3125 -1.421875 17.546875 -0.640625 
Q 12.796875 0.140625 7.71875 1.703125 
L 7.71875 11.625 
Q 12.109375 9.234375 16.796875 8.0625 
Q 21.484375 6.890625 26.703125 6.890625 
Q 35.15625 6.890625 40.078125 11.328125 
Q 45.015625 15.765625 45.015625 23.390625 
Q 45.015625 31 40.078125 35.4375 
Q 35.15625 39.890625 26.703125 39.890625 
Q 22.75 39.890625 18.8125 39.015625 
Q 14.890625 38.140625 10.796875 36.28125 
z
" id="DejaVuSans-53"/>
     <path d="M 37.109375 75.984375 
L 37.109375 68.5 
L 28.515625 68.5 
Q 23.6875 68.5 21.796875 66.546875 
Q 19.921875 64.59375 19.921875 59.515625 
L 19.921875 54.6875 
L 34.71875 54.6875 
L 34.71875 47.703125 
L 19.921875 47.703125 
L 19.921875 0 
L 10.890625 0 
L 10.890625 47.703125 
L 2.296875 47.703125 
L 2.296875 54.6875 
L 10.890625 54.6875 
L 10.890625 58.5 
Q 10.890625 67.625 15.140625 71.796875 
Q 19.390625 75.984375 28.609375 75.984375 
z
" id="DejaVuSans-102"/>
    </defs>
    <g transform="translate(132.839992 333.019852)scale(0.16 -0.16)">
     <use xlink:href="#DejaVuSans-49"/>
     <use x="63.623047" xlink:href="#DejaVuSans-120"/>
     <use x="122.802734" xlink:href="#DejaVuSans-53"/>
     <use x="186.425781" xlink:href="#DejaVuSans-32"/>
     <use x="218.212891" xlink:href="#DejaVuSans-102"/>
     <use x="253.417969" xlink:href="#DejaVuSans-105"/>
     <use x="281.201172" xlink:href="#DejaVuSans-108"/>
     <use x="308.984375" xlink:href="#DejaVuSans-116"/>
     <use x="348.193359" xlink:href="#DejaVuSans-101"/>
     <use x="409.716797" xlink:href="#DejaVuSans-114"/>
     <use x="450.830078" xlink:href="#DejaVuSans-115"/>
    </g>
    <!-- stride 1 -->
    <defs>
     <path d="M 45.40625 46.390625 
L 45.40625 75.984375 
L 54.390625 75.984375 
L 54.390625 0 
L 45.40625 0 
L 45.40625 8.203125 
Q 42.578125 3.328125 38.25 0.953125 
Q 33.9375 -1.421875 27.875 -1.421875 
Q 17.96875 -1.421875 11.734375 6.484375 
Q 5.515625 14.40625 5.515625 27.296875 
Q 5.515625 40.1875 11.734375 48.09375 
Q 17.96875 56 27.875 56 
Q 33.9375 56 38.25 53.625 
Q 42.578125 51.265625 45.40625 46.390625 
z
M 14.796875 27.296875 
Q 14.796875 17.390625 18.875 11.75 
Q 22.953125 6.109375 30.078125 6.109375 
Q 37.203125 6.109375 41.296875 11.75 
Q 45.40625 17.390625 45.40625 27.296875 
Q 45.40625 37.203125 41.296875 42.84375 
Q 37.203125 48.484375 30.078125 48.484375 
Q 22.953125 48.484375 18.875 42.84375 
Q 14.796875 37.203125 14.796875 27.296875 
z
" id="DejaVuSans-100"/>
    </defs>
    <g transform="translate(132.839992 350.936352)scale(0.16 -0.16)">
     <use xlink:href="#DejaVuSans-115"/>
     <use x="52.099609" xlink:href="#DejaVuSans-116"/>
     <use x="91.308594" xlink:href="#DejaVuSans-114"/>
     <use x="132.421875" xlink:href="#DejaVuSans-105"/>
     <use x="160.205078" xlink:href="#DejaVuSans-100"/>
     <use x="223.681641" xlink:href="#DejaVuSans-101"/>
     <use x="285.205078" xlink:href="#DejaVuSans-32"/>
     <use x="316.992188" xlink:href="#DejaVuSans-49"/>
    </g>
    <!-- + ReLU -->
    <defs>
     <path d="M 46 62.703125 
L 46 35.5 
L 73.1875 35.5 
L 73.1875 27.203125 
L 46 27.203125 
L 46 0 
L 37.796875 0 
L 37.796875 27.203125 
L 10.59375 27.203125 
L 10.59375 35.5 
L 37.796875 35.5 
L 37.796875 62.703125 
z
" id="DejaVuSans-43"/>
     <path d="M 44.390625 34.1875 
Q 47.5625 33.109375 50.5625 29.59375 
Q 53.5625 26.078125 56.59375 19.921875 
L 66.609375 0 
L 56 0 
L 46.6875 18.703125 
Q 43.0625 26.03125 39.671875 28.421875 
Q 36.28125 30.8125 30.421875 30.8125 
L 19.671875 30.8125 
L 19.671875 0 
L 9.8125 0 
L 9.8125 72.90625 
L 32.078125 72.90625 
Q 44.578125 72.90625 50.734375 67.671875 
Q 56.890625 62.453125 56.890625 51.90625 
Q 56.890625 45.015625 53.6875 40.46875 
Q 50.484375 35.9375 44.390625 34.1875 
z
M 19.671875 64.796875 
L 19.671875 38.921875 
L 32.078125 38.921875 
Q 39.203125 38.921875 42.84375 42.21875 
Q 46.484375 45.515625 46.484375 51.90625 
Q 46.484375 58.296875 42.84375 61.546875 
Q 39.203125 64.796875 32.078125 64.796875 
z
" id="DejaVuSans-82"/>
     <path d="M 9.8125 72.90625 
L 19.671875 72.90625 
L 19.671875 8.296875 
L 55.171875 8.296875 
L 55.171875 0 
L 9.8125 0 
z
" id="DejaVuSans-76"/>
     <path d="M 8.6875 72.90625 
L 18.609375 72.90625 
L 18.609375 28.609375 
Q 18.609375 16.890625 22.84375 11.734375 
Q 27.09375 6.59375 36.625 6.59375 
Q 46.09375 6.59375 50.34375 11.734375 
Q 54.59375 16.890625 54.59375 28.609375 
L 54.59375 72.90625 
L 64.5 72.90625 
L 64.5 27.390625 
Q 64.5 13.140625 57.4375 5.859375 
Q 50.390625 -1.421875 36.625 -1.421875 
Q 22.796875 -1.421875 15.734375 5.859375 
Q 8.6875 13.140625 8.6875 27.390625 
z
" id="DejaVuSans-85"/>
    </defs>
    <g transform="translate(132.839992 368.852852)scale(0.16 -0.16)">
     <use xlink:href="#DejaVuSans-43"/>
     <use x="83.789062" xlink:href="#DejaVuSans-32"/>
     <use x="115.576172" xlink:href="#DejaVuSans-82"/>
     <use x="184.996094" xlink:href="#DejaVuSans-101"/>
     <use x="246.519531" xlink:href="#DejaVuSans-76"/>
     <use x="302.154297" xlink:href="#DejaVuSans-85"/>
    </g>
    <!-- + batchnorm -->
    <g transform="translate(132.839992 386.769352)scale(0.16 -0.16)">
     <use xlink:href="#DejaVuSans-43"/>
     <use x="83.789062" xlink:href="#DejaVuSans-32"/>
     <use x="115.576172" xlink:href="#DejaVuSans-98"/>
     <use x="179.052734" xlink:href="#DejaVuSans-97"/>
     <use x="240.332031" xlink:href="#DejaVuSans-116"/>
     <use x="279.541016" xlink:href="#DejaVuSans-99"/>
     <use x="334.521484" xlink:href="#DejaVuSans-104"/>
     <use x="397.900391" xlink:href="#DejaVuSans-110"/>
     <use x="461.279297" xlink:href="#DejaVuSans-111"/>
     <use x="522.460938" xlink:href="#DejaVuSans-114"/>
     <use x="563.558594" xlink:href="#DejaVuSans-109"/>
    </g>
    <!--  -->
    <g transform="translate(132.839992 404.685852)scale(0.16 -0.16)"/>
   </g>
   <g id="text_6">
    <!-- convolution -->
    <g transform="translate(278.418066 315.103352)scale(0.16 -0.16)">
     <use xlink:href="#DejaVuSans-99"/>
     <use x="54.980469" xlink:href="#DejaVuSans-111"/>
     <use x="116.162109" xlink:href="#DejaVuSans-110"/>
     <use x="179.541016" xlink:href="#DejaVuSans-118"/>
     <use x="238.720703" xlink:href="#DejaVuSans-111"/>
     <use x="299.902344" xlink:href="#DejaVuSans-108"/>
     <use x="327.685547" xlink:href="#DejaVuSans-117"/>
     <use x="391.064453" xlink:href="#DejaVuSans-116"/>
     <use x="430.273438" xlink:href="#DejaVuSans-105"/>
     <use x="458.056641" xlink:href="#DejaVuSans-111"/>
     <use x="519.238281" xlink:href="#DejaVuSans-110"/>
    </g>
    <!-- 1x5 filters -->
    <g transform="translate(278.418066 333.019852)scale(0.16 -0.16)">
     <use xlink:href="#DejaVuSans-49"/>
     <use x="63.623047" xlink:href="#DejaVuSans-120"/>
     <use x="122.802734" xlink:href="#DejaVuSans-53"/>
     <use x="186.425781" xlink:href="#DejaVuSans-32"/>
     <use x="218.212891" xlink:href="#DejaVuSans-102"/>
     <use x="253.417969" xlink:href="#DejaVuSans-105"/>
     <use x="281.201172" xlink:href="#DejaVuSans-108"/>
     <use x="308.984375" xlink:href="#DejaVuSans-116"/>
     <use x="348.193359" xlink:href="#DejaVuSans-101"/>
     <use x="409.716797" xlink:href="#DejaVuSans-114"/>
     <use x="450.830078" xlink:href="#DejaVuSans-115"/>
    </g>
    <!-- stride 2 -->
    <g transform="translate(278.418066 350.936352)scale(0.16 -0.16)">
     <use xlink:href="#DejaVuSans-115"/>
     <use x="52.099609" xlink:href="#DejaVuSans-116"/>
     <use x="91.308594" xlink:href="#DejaVuSans-114"/>
     <use x="132.421875" xlink:href="#DejaVuSans-105"/>
     <use x="160.205078" xlink:href="#DejaVuSans-100"/>
     <use x="223.681641" xlink:href="#DejaVuSans-101"/>
     <use x="285.205078" xlink:href="#DejaVuSans-32"/>
     <use x="316.992188" xlink:href="#DejaVuSans-50"/>
    </g>
    <!-- + ReLU -->
    <g transform="translate(278.418066 368.852852)scale(0.16 -0.16)">
     <use xlink:href="#DejaVuSans-43"/>
     <use x="83.789062" xlink:href="#DejaVuSans-32"/>
     <use x="115.576172" xlink:href="#DejaVuSans-82"/>
     <use x="184.996094" xlink:href="#DejaVuSans-101"/>
     <use x="246.519531" xlink:href="#DejaVuSans-76"/>
     <use x="302.154297" xlink:href="#DejaVuSans-85"/>
    </g>
    <!-- + batchnorm -->
    <g transform="translate(278.418066 386.769352)scale(0.16 -0.16)">
     <use xlink:href="#DejaVuSans-43"/>
     <use x="83.789062" xlink:href="#DejaVuSans-32"/>
     <use x="115.576172" xlink:href="#DejaVuSans-98"/>
     <use x="179.052734" xlink:href="#DejaVuSans-97"/>
     <use x="240.332031" xlink:href="#DejaVuSans-116"/>
     <use x="279.541016" xlink:href="#DejaVuSans-99"/>
     <use x="334.521484" xlink:href="#DejaVuSans-104"/>
     <use x="397.900391" xlink:href="#DejaVuSans-110"/>
     <use x="461.279297" xlink:href="#DejaVuSans-111"/>
     <use x="522.460938" xlink:href="#DejaVuSans-114"/>
     <use x="563.558594" xlink:href="#DejaVuSans-109"/>
    </g>
    <!-- + dropout -->
    <g transform="translate(278.418066 404.685852)scale(0.16 -0.16)">
     <use xlink:href="#DejaVuSans-43"/>
     <use x="83.789062" xlink:href="#DejaVuSans-32"/>
     <use x="115.576172" xlink:href="#DejaVuSans-100"/>
     <use x="179.052734" xlink:href="#DejaVuSans-114"/>
     <use x="220.134766" xlink:href="#DejaVuSans-111"/>
     <use x="281.316406" xlink:href="#DejaVuSans-112"/>
     <use x="344.792969" xlink:href="#DejaVuSans-111"/>
     <use x="405.974609" xlink:href="#DejaVuSans-117"/>
     <use x="469.353516" xlink:href="#DejaVuSans-116"/>
    </g>
   </g>
   <g id="text_7">
    <!-- hidden -->
    <g transform="translate(474.948466 81.336156)scale(0.16 -0.16)">
     <use xlink:href="#DejaVuSans-104"/>
     <use x="63.378906" xlink:href="#DejaVuSans-105"/>
     <use x="91.162109" xlink:href="#DejaVuSans-100"/>
     <use x="154.638672" xlink:href="#DejaVuSans-100"/>
     <use x="218.115234" xlink:href="#DejaVuSans-101"/>
     <use x="279.638672" xlink:href="#DejaVuSans-110"/>
    </g>
    <!-- units -->
    <g transform="translate(474.948466 99.252656)scale(0.16 -0.16)">
     <use xlink:href="#DejaVuSans-117"/>
     <use x="63.378906" xlink:href="#DejaVuSans-110"/>
     <use x="126.757812" xlink:href="#DejaVuSans-105"/>
     <use x="154.541016" xlink:href="#DejaVuSans-116"/>
     <use x="193.75" xlink:href="#DejaVuSans-115"/>
    </g>
    <!-- 113 -->
    <defs>
     <path d="M 40.578125 39.3125 
Q 47.65625 37.796875 51.625 33 
Q 55.609375 28.21875 55.609375 21.1875 
Q 55.609375 10.40625 48.1875 4.484375 
Q 40.765625 -1.421875 27.09375 -1.421875 
Q 22.515625 -1.421875 17.65625 -0.515625 
Q 12.796875 0.390625 7.625 2.203125 
L 7.625 11.71875 
Q 11.71875 9.328125 16.59375 8.109375 
Q 21.484375 6.890625 26.8125 6.890625 
Q 36.078125 6.890625 40.9375 10.546875 
Q 45.796875 14.203125 45.796875 21.1875 
Q 45.796875 27.640625 41.28125 31.265625 
Q 36.765625 34.90625 28.71875 34.90625 
L 20.21875 34.90625 
L 20.21875 43.015625 
L 29.109375 43.015625 
Q 36.375 43.015625 40.234375 45.921875 
Q 44.09375 48.828125 44.09375 54.296875 
Q 44.09375 59.90625 40.109375 62.90625 
Q 36.140625 65.921875 28.71875 65.921875 
Q 24.65625 65.921875 20.015625 65.03125 
Q 15.375 64.15625 9.8125 62.3125 
L 9.8125 71.09375 
Q 15.4375 72.65625 20.34375 73.4375 
Q 25.25 74.21875 29.59375 74.21875 
Q 40.828125 74.21875 47.359375 69.109375 
Q 53.90625 64.015625 53.90625 55.328125 
Q 53.90625 49.265625 50.4375 45.09375 
Q 46.96875 40.921875 40.578125 39.3125 
z
" id="DejaVuSans-51"/>
    </defs>
    <g transform="translate(474.948466 117.169156)scale(0.16 -0.16)">
     <use xlink:href="#DejaVuSans-49"/>
     <use x="63.623047" xlink:href="#DejaVuSans-49"/>
     <use x="127.246094" xlink:href="#DejaVuSans-51"/>
    </g>
   </g>
   <g id="text_8">
    <!-- hidden -->
    <g transform="translate(620.52654 81.336156)scale(0.16 -0.16)">
     <use xlink:href="#DejaVuSans-104"/>
     <use x="63.378906" xlink:href="#DejaVuSans-105"/>
     <use x="91.162109" xlink:href="#DejaVuSans-100"/>
     <use x="154.638672" xlink:href="#DejaVuSans-100"/>
     <use x="218.115234" xlink:href="#DejaVuSans-101"/>
     <use x="279.638672" xlink:href="#DejaVuSans-110"/>
    </g>
    <!-- units -->
    <g transform="translate(620.52654 99.252656)scale(0.16 -0.16)">
     <use xlink:href="#DejaVuSans-117"/>
     <use x="63.378906" xlink:href="#DejaVuSans-110"/>
     <use x="126.757812" xlink:href="#DejaVuSans-105"/>
     <use x="154.541016" xlink:href="#DejaVuSans-116"/>
     <use x="193.75" xlink:href="#DejaVuSans-115"/>
    </g>
    <!-- 80 -->
    <defs>
     <path d="M 31.78125 34.625 
Q 24.75 34.625 20.71875 30.859375 
Q 16.703125 27.09375 16.703125 20.515625 
Q 16.703125 13.921875 20.71875 10.15625 
Q 24.75 6.390625 31.78125 6.390625 
Q 38.8125 6.390625 42.859375 10.171875 
Q 46.921875 13.96875 46.921875 20.515625 
Q 46.921875 27.09375 42.890625 30.859375 
Q 38.875 34.625 31.78125 34.625 
z
M 21.921875 38.8125 
Q 15.578125 40.375 12.03125 44.71875 
Q 8.5 49.078125 8.5 55.328125 
Q 8.5 64.0625 14.71875 69.140625 
Q 20.953125 74.21875 31.78125 74.21875 
Q 42.671875 74.21875 48.875 69.140625 
Q 55.078125 64.0625 55.078125 55.328125 
Q 55.078125 49.078125 51.53125 44.71875 
Q 48 40.375 41.703125 38.8125 
Q 48.828125 37.15625 52.796875 32.3125 
Q 56.78125 27.484375 56.78125 20.515625 
Q 56.78125 9.90625 50.3125 4.234375 
Q 43.84375 -1.421875 31.78125 -1.421875 
Q 19.734375 -1.421875 13.25 4.234375 
Q 6.78125 9.90625 6.78125 20.515625 
Q 6.78125 27.484375 10.78125 32.3125 
Q 14.796875 37.15625 21.921875 38.8125 
z
M 18.3125 54.390625 
Q 18.3125 48.734375 21.84375 45.5625 
Q 25.390625 42.390625 31.78125 42.390625 
Q 38.140625 42.390625 41.71875 45.5625 
Q 45.3125 48.734375 45.3125 54.390625 
Q 45.3125 60.0625 41.71875 63.234375 
Q 38.140625 66.40625 31.78125 66.40625 
Q 25.390625 66.40625 21.84375 63.234375 
Q 18.3125 60.0625 18.3125 54.390625 
z
" id="DejaVuSans-56"/>
    </defs>
    <g transform="translate(620.52654 117.169156)scale(0.16 -0.16)">
     <use xlink:href="#DejaVuSans-56"/>
     <use x="63.623047" xlink:href="#DejaVuSans-48"/>
    </g>
   </g>
   <g id="text_9">
    <!-- outputs -->
    <g transform="translate(766.104614 81.336156)scale(0.16 -0.16)">
     <use xlink:href="#DejaVuSans-111"/>
     <use x="61.181641" xlink:href="#DejaVuSans-117"/>
     <use x="124.560547" xlink:href="#DejaVuSans-116"/>
     <use x="163.769531" xlink:href="#DejaVuSans-112"/>
     <use x="227.246094" xlink:href="#DejaVuSans-117"/>
     <use x="290.625" xlink:href="#DejaVuSans-116"/>
     <use x="329.833984" xlink:href="#DejaVuSans-115"/>
    </g>
    <!--  -->
    <g transform="translate(766.104614 99.252656)scale(0.16 -0.16)"/>
    <!-- 5 -->
    <g transform="translate(766.104614 117.169156)scale(0.16 -0.16)">
     <use xlink:href="#DejaVuSans-53"/>
    </g>
   </g>
   <g id="text_10">
    <!-- flatten -->
    <g transform="translate(438.553948 315.103352)scale(0.16 -0.16)">
     <use xlink:href="#DejaVuSans-102"/>
     <use x="35.205078" xlink:href="#DejaVuSans-108"/>
     <use x="62.988281" xlink:href="#DejaVuSans-97"/>
     <use x="124.267578" xlink:href="#DejaVuSans-116"/>
     <use x="163.476562" xlink:href="#DejaVuSans-116"/>
     <use x="202.685547" xlink:href="#DejaVuSans-101"/>
     <use x="264.208984" xlink:href="#DejaVuSans-110"/>
    </g>
    <!-- + dropout -->
    <g transform="translate(438.553948 333.019852)scale(0.16 -0.16)">
     <use xlink:href="#DejaVuSans-43"/>
     <use x="83.789062" xlink:href="#DejaVuSans-32"/>
     <use x="115.576172" xlink:href="#DejaVuSans-100"/>
     <use x="179.052734" xlink:href="#DejaVuSans-114"/>
     <use x="220.134766" xlink:href="#DejaVuSans-111"/>
     <use x="281.316406" xlink:href="#DejaVuSans-112"/>
     <use x="344.792969" xlink:href="#DejaVuSans-111"/>
     <use x="405.974609" xlink:href="#DejaVuSans-117"/>
     <use x="469.353516" xlink:href="#DejaVuSans-116"/>
    </g>
    <!--  -->
    <g transform="translate(438.553948 350.936352)scale(0.16 -0.16)"/>
    <!--  -->
    <g transform="translate(438.553948 368.852852)scale(0.16 -0.16)"/>
    <!--  -->
    <g transform="translate(438.553948 386.769352)scale(0.16 -0.16)"/>
    <!--  -->
    <g transform="translate(438.553948 404.685852)scale(0.16 -0.16)"/>
   </g>
   <g id="text_11">
    <!-- fully- -->
    <defs>
     <path d="M 32.171875 -5.078125 
Q 28.375 -14.84375 24.75 -17.8125 
Q 21.140625 -20.796875 15.09375 -20.796875 
L 7.90625 -20.796875 
L 7.90625 -13.28125 
L 13.1875 -13.28125 
Q 16.890625 -13.28125 18.9375 -11.515625 
Q 21 -9.765625 23.484375 -3.21875 
L 25.09375 0.875 
L 2.984375 54.6875 
L 12.5 54.6875 
L 29.59375 11.921875 
L 46.6875 54.6875 
L 56.203125 54.6875 
z
" id="DejaVuSans-121"/>
     <path d="M 4.890625 31.390625 
L 31.203125 31.390625 
L 31.203125 23.390625 
L 4.890625 23.390625 
z
" id="DejaVuSans-45"/>
    </defs>
    <g transform="translate(584.132021 315.103352)scale(0.16 -0.16)">
     <use xlink:href="#DejaVuSans-102"/>
     <use x="35.205078" xlink:href="#DejaVuSans-117"/>
     <use x="98.583984" xlink:href="#DejaVuSans-108"/>
     <use x="126.367188" xlink:href="#DejaVuSans-108"/>
     <use x="154.150391" xlink:href="#DejaVuSans-121"/>
     <use x="213.314453" xlink:href="#DejaVuSans-45"/>
    </g>
    <!-- connected -->
    <g transform="translate(584.132021 333.019852)scale(0.16 -0.16)">
     <use xlink:href="#DejaVuSans-99"/>
     <use x="54.980469" xlink:href="#DejaVuSans-111"/>
     <use x="116.162109" xlink:href="#DejaVuSans-110"/>
     <use x="179.541016" xlink:href="#DejaVuSans-110"/>
     <use x="242.919922" xlink:href="#DejaVuSans-101"/>
     <use x="304.443359" xlink:href="#DejaVuSans-99"/>
     <use x="359.423828" xlink:href="#DejaVuSans-116"/>
     <use x="398.632812" xlink:href="#DejaVuSans-101"/>
     <use x="460.15625" xlink:href="#DejaVuSans-100"/>
    </g>
    <!-- + ReLU -->
    <g transform="translate(584.132021 350.936352)scale(0.16 -0.16)">
     <use xlink:href="#DejaVuSans-43"/>
     <use x="83.789062" xlink:href="#DejaVuSans-32"/>
     <use x="115.576172" xlink:href="#DejaVuSans-82"/>
     <use x="184.996094" xlink:href="#DejaVuSans-101"/>
     <use x="246.519531" xlink:href="#DejaVuSans-76"/>
     <use x="302.154297" xlink:href="#DejaVuSans-85"/>
    </g>
    <!-- + dropout -->
    <g transform="translate(584.132021 368.852852)scale(0.16 -0.16)">
     <use xlink:href="#DejaVuSans-43"/>
     <use x="83.789062" xlink:href="#DejaVuSans-32"/>
     <use x="115.576172" xlink:href="#DejaVuSans-100"/>
     <use x="179.052734" xlink:href="#DejaVuSans-114"/>
     <use x="220.134766" xlink:href="#DejaVuSans-111"/>
     <use x="281.316406" xlink:href="#DejaVuSans-112"/>
     <use x="344.792969" xlink:href="#DejaVuSans-111"/>
     <use x="405.974609" xlink:href="#DejaVuSans-117"/>
     <use x="469.353516" xlink:href="#DejaVuSans-116"/>
    </g>
    <!--  -->
    <g transform="translate(584.132021 386.769352)scale(0.16 -0.16)"/>
    <!--  -->
    <g transform="translate(584.132021 404.685852)scale(0.16 -0.16)"/>
   </g>
   <g id="text_12">
    <!-- fully- -->
    <g transform="translate(729.710095 315.103352)scale(0.16 -0.16)">
     <use xlink:href="#DejaVuSans-102"/>
     <use x="35.205078" xlink:href="#DejaVuSans-117"/>
     <use x="98.583984" xlink:href="#DejaVuSans-108"/>
     <use x="126.367188" xlink:href="#DejaVuSans-108"/>
     <use x="154.150391" xlink:href="#DejaVuSans-121"/>
     <use x="213.314453" xlink:href="#DejaVuSans-45"/>
    </g>
    <!-- connected -->
    <g transform="translate(729.710095 333.019852)scale(0.16 -0.16)">
     <use xlink:href="#DejaVuSans-99"/>
     <use x="54.980469" xlink:href="#DejaVuSans-111"/>
     <use x="116.162109" xlink:href="#DejaVuSans-110"/>
     <use x="179.541016" xlink:href="#DejaVuSans-110"/>
     <use x="242.919922" xlink:href="#DejaVuSans-101"/>
     <use x="304.443359" xlink:href="#DejaVuSans-99"/>
     <use x="359.423828" xlink:href="#DejaVuSans-116"/>
     <use x="398.632812" xlink:href="#DejaVuSans-101"/>
     <use x="460.15625" xlink:href="#DejaVuSans-100"/>
    </g>
    <!--  -->
    <g transform="translate(729.710095 350.936352)scale(0.16 -0.16)"/>
    <!--  -->
    <g transform="translate(729.710095 368.852852)scale(0.16 -0.16)"/>
    <!--  -->
    <g transform="translate(729.710095 386.769352)scale(0.16 -0.16)"/>
    <!--  -->
    <g transform="translate(729.710095 404.685852)scale(0.16 -0.16)"/>
   </g>
  </g>
 </g>
 <defs>
  <clipPath id="p3960e35fef">
   <rect height="409.032" width="840.713377" x="0" y="0"/>
  </clipPath>
 </defs>
</svg>
