<?xml version="1.0" encoding="utf-8" standalone="no"?>
<!DOCTYPE svg PUBLIC "-//W3C//DTD SVG 1.1//EN"
  "http://www.w3.org/Graphics/SVG/1.1/DTD/svg11.dtd">
<!-- Created with matplotlib (https://matplotlib.org/) -->
<svg height="576pt" version="1.1" viewBox="0 0 576 576" width="576pt" xmlns="http://www.w3.org/2000/svg" xmlns:xlink="http://www.w3.org/1999/xlink">
 <defs>
  <style type="text/css">
*{stroke-linecap:butt;stroke-linejoin:round;}
  </style>
 </defs>
 <g id="figure_1">
  <g id="patch_1">
   <path d="M 0 576 
L 576 576 
L 576 0 
L 0 0 
z
" style="fill:#ffffff;"/>
  </g>
  <g id="axes_1">
   <g id="patch_2">
    <path d="M 53.84 256.32 
L 300.0475 256.32 
L 300.0475 17.28 
L 53.84 17.28 
z
" style="fill:#ffffff;"/>
   </g>
   <g id="matplotlib.axis_1">
    <g id="xtick_1">
     <g id="line2d_1">
      <path clip-path="url(#pdde01d1773)" d="M 53.84 256.32 
L 53.84 17.28 
" style="fill:none;stroke:#b0b0b0;stroke-linecap:square;stroke-width:0.8;"/>
     </g>
     <g id="line2d_2">
      <defs>
       <path d="M 0 0 
L 0 3.5 
" id="m9a7112bcfe" style="stroke:#000000;stroke-width:0.8;"/>
      </defs>
      <g>
       <use style="stroke:#000000;stroke-width:0.8;" x="53.84" xlink:href="#m9a7112bcfe" y="256.32"/>
      </g>
     </g>
     <g id="text_1">
      <!-- 0 -->
      <defs>
       <path d="M 31.78125 66.40625 
Q 24.171875 66.40625 20.328125 58.90625 
Q 16.5 51.421875 16.5 36.375 
Q 16.5 21.390625 20.328125 13.890625 
Q 24.171875 6.390625 31.78125 6.390625 
Q 39.453125 6.390625 43.28125 13.890625 
Q 47.125 21.390625 47.125 36.375 
Q 47.125 51.421875 43.28125 58.90625 
Q 39.453125 66.40625 31.78125 66.40625 
z
M 31.78125 74.21875 
Q 44.046875 74.21875 50.515625 64.515625 
Q 56.984375 54.828125 56.984375 36.375 
Q 56.984375 17.96875 50.515625 8.265625 
Q 44.046875 -1.421875 31.78125 -1.421875 
Q 19.53125 -1.421875 13.0625 8.265625 
Q 6.59375 17.96875 6.59375 36.375 
Q 6.59375 54.828125 13.0625 64.515625 
Q 19.53125 74.21875 31.78125 74.21875 
z
" id="DejaVuSans-48"/>
      </defs>
      <g transform="translate(50.0225 272.438125)scale(0.12 -0.12)">
       <use xlink:href="#DejaVuSans-48"/>
      </g>
     </g>
    </g>
    <g id="xtick_2">
     <g id="line2d_3">
      <path clip-path="url(#pdde01d1773)" d="M 122.230972 256.32 
L 122.230972 17.28 
" style="fill:none;stroke:#b0b0b0;stroke-linecap:square;stroke-width:0.8;"/>
     </g>
     <g id="line2d_4">
      <g>
       <use style="stroke:#000000;stroke-width:0.8;" x="122.230972" xlink:href="#m9a7112bcfe" y="256.32"/>
      </g>
     </g>
     <g id="text_2">
      <!-- 10 -->
      <defs>
       <path d="M 12.40625 8.296875 
L 28.515625 8.296875 
L 28.515625 63.921875 
L 10.984375 60.40625 
L 10.984375 69.390625 
L 28.421875 72.90625 
L 38.28125 72.90625 
L 38.28125 8.296875 
L 54.390625 8.296875 
L 54.390625 0 
L 12.40625 0 
z
" id="DejaVuSans-49"/>
      </defs>
      <g transform="translate(114.595972 272.438125)scale(0.12 -0.12)">
       <use xlink:href="#DejaVuSans-49"/>
       <use x="63.623047" xlink:href="#DejaVuSans-48"/>
      </g>
     </g>
    </g>
    <g id="xtick_3">
     <g id="line2d_5">
      <path clip-path="url(#pdde01d1773)" d="M 190.621944 256.32 
L 190.621944 17.28 
" style="fill:none;stroke:#b0b0b0;stroke-linecap:square;stroke-width:0.8;"/>
     </g>
     <g id="line2d_6">
      <g>
       <use style="stroke:#000000;stroke-width:0.8;" x="190.621944" xlink:href="#m9a7112bcfe" y="256.32"/>
      </g>
     </g>
     <g id="text_3">
      <!-- 20 -->
      <defs>
       <path d="M 19.1875 8.296875 
L 53.609375 8.296875 
L 53.609375 0 
L 7.328125 0 
L 7.328125 8.296875 
Q 12.9375 14.109375 22.625 23.890625 
Q 32.328125 33.6875 34.8125 36.53125 
Q 39.546875 41.84375 41.421875 45.53125 
Q 43.3125 49.21875 43.3125 52.78125 
Q 43.3125 58.59375 39.234375 62.25 
Q 35.15625 65.921875 28.609375 65.921875 
Q 23.96875 65.921875 18.8125 64.3125 
Q 13.671875 62.703125 7.8125 59.421875 
L 7.8125 69.390625 
Q 13.765625 71.78125 18.9375 73 
Q 24.125 74.21875 28.421875 74.21875 
Q 39.75 74.21875 46.484375 68.546875 
Q 53.21875 62.890625 53.21875 53.421875 
Q 53.21875 48.921875 51.53125 44.890625 
Q 49.859375 40.875 45.40625 35.40625 
Q 44.1875 33.984375 37.640625 27.21875 
Q 31.109375 20.453125 19.1875 8.296875 
z
" id="DejaVuSans-50"/>
      </defs>
      <g transform="translate(182.986944 272.438125)scale(0.12 -0.12)">
       <use xlink:href="#DejaVuSans-50"/>
       <use x="63.623047" xlink:href="#DejaVuSans-48"/>
      </g>
     </g>
    </g>
    <g id="xtick_4">
     <g id="line2d_7">
      <path clip-path="url(#pdde01d1773)" d="M 259.012917 256.32 
L 259.012917 17.28 
" style="fill:none;stroke:#b0b0b0;stroke-linecap:square;stroke-width:0.8;"/>
     </g>
     <g id="line2d_8">
      <g>
       <use style="stroke:#000000;stroke-width:0.8;" x="259.012917" xlink:href="#m9a7112bcfe" y="256.32"/>
      </g>
     </g>
     <g id="text_4">
      <!-- 30 -->
      <defs>
       <path d="M 40.578125 39.3125 
Q 47.65625 37.796875 51.625 33 
Q 55.609375 28.21875 55.609375 21.1875 
Q 55.609375 10.40625 48.1875 4.484375 
Q 40.765625 -1.421875 27.09375 -1.421875 
Q 22.515625 -1.421875 17.65625 -0.515625 
Q 12.796875 0.390625 7.625 2.203125 
L 7.625 11.71875 
Q 11.71875 9.328125 16.59375 8.109375 
Q 21.484375 6.890625 26.8125 6.890625 
Q 36.078125 6.890625 40.9375 10.546875 
Q 45.796875 14.203125 45.796875 21.1875 
Q 45.796875 27.640625 41.28125 31.265625 
Q 36.765625 34.90625 28.71875 34.90625 
L 20.21875 34.90625 
L 20.21875 43.015625 
L 29.109375 43.015625 
Q 36.375 43.015625 40.234375 45.921875 
Q 44.09375 48.828125 44.09375 54.296875 
Q 44.09375 59.90625 40.109375 62.90625 
Q 36.140625 65.921875 28.71875 65.921875 
Q 24.65625 65.921875 20.015625 65.03125 
Q 15.375 64.15625 9.8125 62.3125 
L 9.8125 71.09375 
Q 15.4375 72.65625 20.34375 73.4375 
Q 25.25 74.21875 29.59375 74.21875 
Q 40.828125 74.21875 47.359375 69.109375 
Q 53.90625 64.015625 53.90625 55.328125 
Q 53.90625 49.265625 50.4375 45.09375 
Q 46.96875 40.921875 40.578125 39.3125 
z
" id="DejaVuSans-51"/>
      </defs>
      <g transform="translate(251.377917 272.438125)scale(0.12 -0.12)">
       <use xlink:href="#DejaVuSans-51"/>
       <use x="63.623047" xlink:href="#DejaVuSans-48"/>
      </g>
     </g>
    </g>
   </g>
   <g id="matplotlib.axis_2">
    <g id="ytick_1">
     <g id="line2d_9">
      <path clip-path="url(#pdde01d1773)" d="M 53.84 256.32 
L 300.0475 256.32 
" style="fill:none;stroke:#b0b0b0;stroke-linecap:square;stroke-width:0.8;"/>
     </g>
     <g id="line2d_10">
      <defs>
       <path d="M 0 0 
L -3.5 0 
" id="mdc8a09831a" style="stroke:#000000;stroke-width:0.8;"/>
      </defs>
      <g>
       <use style="stroke:#000000;stroke-width:0.8;" x="53.84" xlink:href="#mdc8a09831a" y="256.32"/>
      </g>
     </g>
     <g id="text_5">
      <!-- 0.0 -->
      <defs>
       <path d="M 10.6875 12.40625 
L 21 12.40625 
L 21 0 
L 10.6875 0 
z
" id="DejaVuSans-46"/>
      </defs>
      <g transform="translate(27.75625 260.879062)scale(0.12 -0.12)">
       <use xlink:href="#DejaVuSans-48"/>
       <use x="63.623047" xlink:href="#DejaVuSans-46"/>
       <use x="95.410156" xlink:href="#DejaVuSans-48"/>
      </g>
     </g>
    </g>
    <g id="ytick_2">
     <g id="line2d_11">
      <path clip-path="url(#pdde01d1773)" d="M 53.84 208.512 
L 300.0475 208.512 
" style="fill:none;stroke:#b0b0b0;stroke-linecap:square;stroke-width:0.8;"/>
     </g>
     <g id="line2d_12">
      <g>
       <use style="stroke:#000000;stroke-width:0.8;" x="53.84" xlink:href="#mdc8a09831a" y="208.512"/>
      </g>
     </g>
     <g id="text_6">
      <!-- 0.2 -->
      <g transform="translate(27.75625 213.071062)scale(0.12 -0.12)">
       <use xlink:href="#DejaVuSans-48"/>
       <use x="63.623047" xlink:href="#DejaVuSans-46"/>
       <use x="95.410156" xlink:href="#DejaVuSans-50"/>
      </g>
     </g>
    </g>
    <g id="ytick_3">
     <g id="line2d_13">
      <path clip-path="url(#pdde01d1773)" d="M 53.84 160.704 
L 300.0475 160.704 
" style="fill:none;stroke:#b0b0b0;stroke-linecap:square;stroke-width:0.8;"/>
     </g>
     <g id="line2d_14">
      <g>
       <use style="stroke:#000000;stroke-width:0.8;" x="53.84" xlink:href="#mdc8a09831a" y="160.704"/>
      </g>
     </g>
     <g id="text_7">
      <!-- 0.4 -->
      <defs>
       <path d="M 37.796875 64.3125 
L 12.890625 25.390625 
L 37.796875 25.390625 
z
M 35.203125 72.90625 
L 47.609375 72.90625 
L 47.609375 25.390625 
L 58.015625 25.390625 
L 58.015625 17.1875 
L 47.609375 17.1875 
L 47.609375 0 
L 37.796875 0 
L 37.796875 17.1875 
L 4.890625 17.1875 
L 4.890625 26.703125 
z
" id="DejaVuSans-52"/>
      </defs>
      <g transform="translate(27.75625 165.263062)scale(0.12 -0.12)">
       <use xlink:href="#DejaVuSans-48"/>
       <use x="63.623047" xlink:href="#DejaVuSans-46"/>
       <use x="95.410156" xlink:href="#DejaVuSans-52"/>
      </g>
     </g>
    </g>
    <g id="ytick_4">
     <g id="line2d_15">
      <path clip-path="url(#pdde01d1773)" d="M 53.84 112.896 
L 300.0475 112.896 
" style="fill:none;stroke:#b0b0b0;stroke-linecap:square;stroke-width:0.8;"/>
     </g>
     <g id="line2d_16">
      <g>
       <use style="stroke:#000000;stroke-width:0.8;" x="53.84" xlink:href="#mdc8a09831a" y="112.896"/>
      </g>
     </g>
     <g id="text_8">
      <!-- 0.6 -->
      <defs>
       <path d="M 33.015625 40.375 
Q 26.375 40.375 22.484375 35.828125 
Q 18.609375 31.296875 18.609375 23.390625 
Q 18.609375 15.53125 22.484375 10.953125 
Q 26.375 6.390625 33.015625 6.390625 
Q 39.65625 6.390625 43.53125 10.953125 
Q 47.40625 15.53125 47.40625 23.390625 
Q 47.40625 31.296875 43.53125 35.828125 
Q 39.65625 40.375 33.015625 40.375 
z
M 52.59375 71.296875 
L 52.59375 62.3125 
Q 48.875 64.0625 45.09375 64.984375 
Q 41.3125 65.921875 37.59375 65.921875 
Q 27.828125 65.921875 22.671875 59.328125 
Q 17.53125 52.734375 16.796875 39.40625 
Q 19.671875 43.65625 24.015625 45.921875 
Q 28.375 48.1875 33.59375 48.1875 
Q 44.578125 48.1875 50.953125 41.515625 
Q 57.328125 34.859375 57.328125 23.390625 
Q 57.328125 12.15625 50.6875 5.359375 
Q 44.046875 -1.421875 33.015625 -1.421875 
Q 20.359375 -1.421875 13.671875 8.265625 
Q 6.984375 17.96875 6.984375 36.375 
Q 6.984375 53.65625 15.1875 63.9375 
Q 23.390625 74.21875 37.203125 74.21875 
Q 40.921875 74.21875 44.703125 73.484375 
Q 48.484375 72.75 52.59375 71.296875 
z
" id="DejaVuSans-54"/>
      </defs>
      <g transform="translate(27.75625 117.455062)scale(0.12 -0.12)">
       <use xlink:href="#DejaVuSans-48"/>
       <use x="63.623047" xlink:href="#DejaVuSans-46"/>
       <use x="95.410156" xlink:href="#DejaVuSans-54"/>
      </g>
     </g>
    </g>
    <g id="ytick_5">
     <g id="line2d_17">
      <path clip-path="url(#pdde01d1773)" d="M 53.84 65.088 
L 300.0475 65.088 
" style="fill:none;stroke:#b0b0b0;stroke-linecap:square;stroke-width:0.8;"/>
     </g>
     <g id="line2d_18">
      <g>
       <use style="stroke:#000000;stroke-width:0.8;" x="53.84" xlink:href="#mdc8a09831a" y="65.088"/>
      </g>
     </g>
     <g id="text_9">
      <!-- 0.8 -->
      <defs>
       <path d="M 31.78125 34.625 
Q 24.75 34.625 20.71875 30.859375 
Q 16.703125 27.09375 16.703125 20.515625 
Q 16.703125 13.921875 20.71875 10.15625 
Q 24.75 6.390625 31.78125 6.390625 
Q 38.8125 6.390625 42.859375 10.171875 
Q 46.921875 13.96875 46.921875 20.515625 
Q 46.921875 27.09375 42.890625 30.859375 
Q 38.875 34.625 31.78125 34.625 
z
M 21.921875 38.8125 
Q 15.578125 40.375 12.03125 44.71875 
Q 8.5 49.078125 8.5 55.328125 
Q 8.5 64.0625 14.71875 69.140625 
Q 20.953125 74.21875 31.78125 74.21875 
Q 42.671875 74.21875 48.875 69.140625 
Q 55.078125 64.0625 55.078125 55.328125 
Q 55.078125 49.078125 51.53125 44.71875 
Q 48 40.375 41.703125 38.8125 
Q 48.828125 37.15625 52.796875 32.3125 
Q 56.78125 27.484375 56.78125 20.515625 
Q 56.78125 9.90625 50.3125 4.234375 
Q 43.84375 -1.421875 31.78125 -1.421875 
Q 19.734375 -1.421875 13.25 4.234375 
Q 6.78125 9.90625 6.78125 20.515625 
Q 6.78125 27.484375 10.78125 32.3125 
Q 14.796875 37.15625 21.921875 38.8125 
z
M 18.3125 54.390625 
Q 18.3125 48.734375 21.84375 45.5625 
Q 25.390625 42.390625 31.78125 42.390625 
Q 38.140625 42.390625 41.71875 45.5625 
Q 45.3125 48.734375 45.3125 54.390625 
Q 45.3125 60.0625 41.71875 63.234375 
Q 38.140625 66.40625 31.78125 66.40625 
Q 25.390625 66.40625 21.84375 63.234375 
Q 18.3125 60.0625 18.3125 54.390625 
z
" id="DejaVuSans-56"/>
      </defs>
      <g transform="translate(27.75625 69.647062)scale(0.12 -0.12)">
       <use xlink:href="#DejaVuSans-48"/>
       <use x="63.623047" xlink:href="#DejaVuSans-46"/>
       <use x="95.410156" xlink:href="#DejaVuSans-56"/>
      </g>
     </g>
    </g>
    <g id="ytick_6">
     <g id="line2d_19">
      <path clip-path="url(#pdde01d1773)" d="M 53.84 17.28 
L 300.0475 17.28 
" style="fill:none;stroke:#b0b0b0;stroke-linecap:square;stroke-width:0.8;"/>
     </g>
     <g id="line2d_20">
      <g>
       <use style="stroke:#000000;stroke-width:0.8;" x="53.84" xlink:href="#mdc8a09831a" y="17.28"/>
      </g>
     </g>
     <g id="text_10">
      <!-- 1.0 -->
      <g transform="translate(27.75625 21.839062)scale(0.12 -0.12)">
       <use xlink:href="#DejaVuSans-49"/>
       <use x="63.623047" xlink:href="#DejaVuSans-46"/>
       <use x="95.410156" xlink:href="#DejaVuSans-48"/>
      </g>
     </g>
    </g>
    <g id="text_11">
     <!-- F1 score -->
     <defs>
      <path d="M 9.8125 72.90625 
L 51.703125 72.90625 
L 51.703125 64.59375 
L 19.671875 64.59375 
L 19.671875 43.109375 
L 48.578125 43.109375 
L 48.578125 34.8125 
L 19.671875 34.8125 
L 19.671875 0 
L 9.8125 0 
z
" id="DejaVuSans-70"/>
      <path id="DejaVuSans-32"/>
      <path d="M 44.28125 53.078125 
L 44.28125 44.578125 
Q 40.484375 46.53125 36.375 47.5 
Q 32.28125 48.484375 27.875 48.484375 
Q 21.1875 48.484375 17.84375 46.4375 
Q 14.5 44.390625 14.5 40.28125 
Q 14.5 37.15625 16.890625 35.375 
Q 19.28125 33.59375 26.515625 31.984375 
L 29.59375 31.296875 
Q 39.15625 29.25 43.1875 25.515625 
Q 47.21875 21.78125 47.21875 15.09375 
Q 47.21875 7.46875 41.1875 3.015625 
Q 35.15625 -1.421875 24.609375 -1.421875 
Q 20.21875 -1.421875 15.453125 -0.5625 
Q 10.6875 0.296875 5.421875 2 
L 5.421875 11.28125 
Q 10.40625 8.6875 15.234375 7.390625 
Q 20.0625 6.109375 24.8125 6.109375 
Q 31.15625 6.109375 34.5625 8.28125 
Q 37.984375 10.453125 37.984375 14.40625 
Q 37.984375 18.0625 35.515625 20.015625 
Q 33.0625 21.96875 24.703125 23.78125 
L 21.578125 24.515625 
Q 13.234375 26.265625 9.515625 29.90625 
Q 5.8125 33.546875 5.8125 39.890625 
Q 5.8125 47.609375 11.28125 51.796875 
Q 16.75 56 26.8125 56 
Q 31.78125 56 36.171875 55.265625 
Q 40.578125 54.546875 44.28125 53.078125 
z
" id="DejaVuSans-115"/>
      <path d="M 48.78125 52.59375 
L 48.78125 44.1875 
Q 44.96875 46.296875 41.140625 47.34375 
Q 37.3125 48.390625 33.40625 48.390625 
Q 24.65625 48.390625 19.8125 42.84375 
Q 14.984375 37.3125 14.984375 27.296875 
Q 14.984375 17.28125 19.8125 11.734375 
Q 24.65625 6.203125 33.40625 6.203125 
Q 37.3125 6.203125 41.140625 7.25 
Q 44.96875 8.296875 48.78125 10.40625 
L 48.78125 2.09375 
Q 45.015625 0.34375 40.984375 -0.53125 
Q 36.96875 -1.421875 32.421875 -1.421875 
Q 20.0625 -1.421875 12.78125 6.34375 
Q 5.515625 14.109375 5.515625 27.296875 
Q 5.515625 40.671875 12.859375 48.328125 
Q 20.21875 56 33.015625 56 
Q 37.15625 56 41.109375 55.140625 
Q 45.0625 54.296875 48.78125 52.59375 
z
" id="DejaVuSans-99"/>
      <path d="M 30.609375 48.390625 
Q 23.390625 48.390625 19.1875 42.75 
Q 14.984375 37.109375 14.984375 27.296875 
Q 14.984375 17.484375 19.15625 11.84375 
Q 23.34375 6.203125 30.609375 6.203125 
Q 37.796875 6.203125 41.984375 11.859375 
Q 46.1875 17.53125 46.1875 27.296875 
Q 46.1875 37.015625 41.984375 42.703125 
Q 37.796875 48.390625 30.609375 48.390625 
z
M 30.609375 56 
Q 42.328125 56 49.015625 48.375 
Q 55.71875 40.765625 55.71875 27.296875 
Q 55.71875 13.875 49.015625 6.21875 
Q 42.328125 -1.421875 30.609375 -1.421875 
Q 18.84375 -1.421875 12.171875 6.21875 
Q 5.515625 13.875 5.515625 27.296875 
Q 5.515625 40.765625 12.171875 48.375 
Q 18.84375 56 30.609375 56 
z
" id="DejaVuSans-111"/>
      <path d="M 41.109375 46.296875 
Q 39.59375 47.171875 37.8125 47.578125 
Q 36.03125 48 33.890625 48 
Q 26.265625 48 22.1875 43.046875 
Q 18.109375 38.09375 18.109375 28.8125 
L 18.109375 0 
L 9.078125 0 
L 9.078125 54.6875 
L 18.109375 54.6875 
L 18.109375 46.1875 
Q 20.953125 51.171875 25.484375 53.578125 
Q 30.03125 56 36.53125 56 
Q 37.453125 56 38.578125 55.875 
Q 39.703125 55.765625 41.0625 55.515625 
z
" id="DejaVuSans-114"/>
      <path d="M 56.203125 29.59375 
L 56.203125 25.203125 
L 14.890625 25.203125 
Q 15.484375 15.921875 20.484375 11.0625 
Q 25.484375 6.203125 34.421875 6.203125 
Q 39.59375 6.203125 44.453125 7.46875 
Q 49.3125 8.734375 54.109375 11.28125 
L 54.109375 2.78125 
Q 49.265625 0.734375 44.1875 -0.34375 
Q 39.109375 -1.421875 33.890625 -1.421875 
Q 20.796875 -1.421875 13.15625 6.1875 
Q 5.515625 13.8125 5.515625 26.8125 
Q 5.515625 40.234375 12.765625 48.109375 
Q 20.015625 56 32.328125 56 
Q 43.359375 56 49.78125 48.890625 
Q 56.203125 41.796875 56.203125 29.59375 
z
M 47.21875 32.234375 
Q 47.125 39.59375 43.09375 43.984375 
Q 39.0625 48.390625 32.421875 48.390625 
Q 24.90625 48.390625 20.390625 44.140625 
Q 15.875 39.890625 15.1875 32.171875 
z
" id="DejaVuSans-101"/>
     </defs>
     <g transform="translate(21.260625 162.227812)rotate(-90)scale(0.12 -0.12)">
      <use xlink:href="#DejaVuSans-70"/>
      <use x="57.519531" xlink:href="#DejaVuSans-49"/>
      <use x="121.142578" xlink:href="#DejaVuSans-32"/>
      <use x="152.929688" xlink:href="#DejaVuSans-115"/>
      <use x="205.029297" xlink:href="#DejaVuSans-99"/>
      <use x="260.009766" xlink:href="#DejaVuSans-111"/>
      <use x="321.191406" xlink:href="#DejaVuSans-114"/>
      <use x="362.273438" xlink:href="#DejaVuSans-101"/>
     </g>
    </g>
   </g>
   <g id="line2d_21">
    <path clip-path="url(#pdde01d1773)" d="M 60.679097 146.770493 
L 67.518194 142.615881 
L 74.357292 115.865948 
L 81.196389 72.152612 
L 88.035486 46.528457 
L 94.874583 38.80695 
L 101.713681 35.770346 
L 108.552778 32.794355 
L 115.391875 30.060288 
L 122.230972 28.40987 
L 129.070069 27.491647 
L 135.909167 26.177523 
L 142.748264 25.125947 
L 149.587361 24.821145 
L 156.426458 24.067398 
L 163.265556 23.687884 
L 170.104653 23.454353 
L 176.94375 23.24949 
L 183.782847 22.928904 
L 190.621944 22.624022 
L 197.461042 22.56195 
L 204.300139 22.479163 
L 211.139236 22.287539 
L 217.978333 21.962633 
L 224.817431 21.995874 
L 231.656528 21.7496 
L 238.495625 21.705923 
" style="fill:none;stroke:#1f77b4;stroke-linecap:square;stroke-width:1.5;"/>
   </g>
   <g id="line2d_22">
    <path clip-path="url(#pdde01d1773)" d="M 60.679097 205.499816 
L 67.518194 171.76006 
L 74.357292 134.325642 
L 81.196389 87.81258 
L 88.035486 69.756976 
L 94.874583 61.945201 
L 101.713681 55.658268 
L 108.552778 49.921472 
L 115.391875 44.575455 
L 122.230972 41.423431 
L 129.070069 37.341699 
L 135.909167 33.551057 
L 142.748264 29.88597 
L 149.587361 27.439781 
L 156.426458 25.65855 
L 163.265556 24.229586 
L 170.104653 23.093552 
L 176.94375 22.342765 
L 183.782847 21.878246 
L 190.621944 21.256342 
L 197.461042 20.90297 
L 204.300139 20.680902 
L 211.139236 20.380891 
L 217.978333 20.282924 
L 224.817431 20.008288 
L 231.656528 19.757314 
L 238.495625 19.523454 
" style="fill:none;stroke:#ff7f0e;stroke-linecap:square;stroke-width:1.5;"/>
   </g>
   <g id="line2d_23">
    <path clip-path="url(#pdde01d1773)" d="M 60.679097 175.002449 
L 67.518194 142.723242 
L 74.357292 127.851948 
L 81.196389 104.75733 
L 88.035486 81.74072 
L 94.874583 70.841029 
L 101.713681 62.899071 
L 108.552778 56.201472 
L 115.391875 52.123154 
L 122.230972 49.20739 
L 129.070069 45.660277 
L 135.909167 42.190126 
L 142.748264 38.436336 
L 149.587361 36.275772 
L 156.426458 33.805788 
L 163.265556 31.910259 
L 170.104653 31.162486 
L 176.94375 30.332085 
L 183.782847 29.12554 
L 190.621944 28.325409 
L 197.461042 27.99663 
L 204.300139 27.525292 
L 211.139236 26.947319 
L 217.978333 26.326937 
L 224.817431 26.158761 
L 231.656528 25.780471 
L 238.495625 25.454391 
" style="fill:none;stroke:#2ca02c;stroke-linecap:square;stroke-width:1.5;"/>
   </g>
   <g id="line2d_24">
    <path clip-path="url(#pdde01d1773)" d="M 60.679097 208.845164 
L 67.518194 211.273442 
L 74.357292 217.69268 
L 81.196389 179.497241 
L 88.035486 136.720091 
L 94.874583 113.59392 
L 101.713681 103.719677 
L 108.552778 94.320408 
L 115.391875 85.292696 
L 122.230972 78.064299 
L 129.070069 66.815909 
L 135.909167 58.229488 
L 142.748264 48.836812 
L 149.587361 42.896989 
L 156.426458 38.139798 
L 163.265556 34.357599 
L 170.104653 32.287371 
L 176.94375 30.82502 
L 183.782847 28.829027 
L 190.621944 27.539676 
L 197.461042 26.881362 
L 204.300139 26.14659 
L 211.139236 25.218701 
L 217.978333 24.843659 
L 224.817431 24.052192 
L 231.656528 23.833182 
L 238.495625 23.266116 
" style="fill:none;stroke:#d62728;stroke-linecap:square;stroke-width:1.5;"/>
   </g>
   <g id="line2d_25">
    <path clip-path="url(#pdde01d1773)" d="M 60.679097 131.317235 
L 67.518194 104.808057 
L 74.357292 99.250384 
L 81.196389 102.02909 
L 88.035486 97.08324 
L 94.874583 86.44087 
L 101.713681 59.906786 
L 108.552778 35.071668 
L 115.391875 25.607809 
L 122.230972 22.708364 
L 129.070069 21.054865 
L 135.909167 20.079954 
L 142.748264 19.549499 
L 149.587361 19.10009 
L 156.426458 18.766596 
L 163.265556 18.525315 
L 170.104653 18.414014 
L 176.94375 18.267644 
L 183.782847 18.170162 
L 190.621944 18.09382 
L 197.461042 18.031062 
L 204.300139 18.047063 
L 211.139236 17.940383 
L 217.978333 17.933388 
L 224.817431 17.791704 
L 231.656528 17.81257 
L 238.495625 17.805547 
" style="fill:none;stroke:#9467bd;stroke-linecap:square;stroke-width:1.5;"/>
   </g>
   <g id="patch_3">
    <path d="M 53.84 256.32 
L 53.84 17.28 
" style="fill:none;stroke:#000000;stroke-linecap:square;stroke-linejoin:miter;stroke-width:0.8;"/>
   </g>
   <g id="patch_4">
    <path d="M 300.0475 256.32 
L 300.0475 17.28 
" style="fill:none;stroke:#000000;stroke-linecap:square;stroke-linejoin:miter;stroke-width:0.8;"/>
   </g>
   <g id="patch_5">
    <path d="M 53.84 256.32 
L 300.0475 256.32 
" style="fill:none;stroke:#000000;stroke-linecap:square;stroke-linejoin:miter;stroke-width:0.8;"/>
   </g>
   <g id="patch_6">
    <path d="M 53.84 17.28 
L 300.0475 17.28 
" style="fill:none;stroke:#000000;stroke-linecap:square;stroke-linejoin:miter;stroke-width:0.8;"/>
   </g>
  </g>
  <g id="axes_2">
   <g id="patch_7">
    <path d="M 316.8325 256.32 
L 563.04 256.32 
L 563.04 17.28 
L 316.8325 17.28 
z
" style="fill:#ffffff;"/>
   </g>
   <g id="matplotlib.axis_3">
    <g id="xtick_5">
     <g id="line2d_26">
      <path clip-path="url(#p7aa5e8505a)" d="M 316.8325 256.32 
L 316.8325 17.28 
" style="fill:none;stroke:#b0b0b0;stroke-linecap:square;stroke-width:0.8;"/>
     </g>
     <g id="line2d_27">
      <g>
       <use style="stroke:#000000;stroke-width:0.8;" x="316.8325" xlink:href="#m9a7112bcfe" y="256.32"/>
      </g>
     </g>
     <g id="text_12">
      <!-- 0 -->
      <g transform="translate(313.015 272.438125)scale(0.12 -0.12)">
       <use xlink:href="#DejaVuSans-48"/>
      </g>
     </g>
    </g>
    <g id="xtick_6">
     <g id="line2d_28">
      <path clip-path="url(#p7aa5e8505a)" d="M 385.223472 256.32 
L 385.223472 17.28 
" style="fill:none;stroke:#b0b0b0;stroke-linecap:square;stroke-width:0.8;"/>
     </g>
     <g id="line2d_29">
      <g>
       <use style="stroke:#000000;stroke-width:0.8;" x="385.223472" xlink:href="#m9a7112bcfe" y="256.32"/>
      </g>
     </g>
     <g id="text_13">
      <!-- 10 -->
      <g transform="translate(377.588472 272.438125)scale(0.12 -0.12)">
       <use xlink:href="#DejaVuSans-49"/>
       <use x="63.623047" xlink:href="#DejaVuSans-48"/>
      </g>
     </g>
    </g>
    <g id="xtick_7">
     <g id="line2d_30">
      <path clip-path="url(#p7aa5e8505a)" d="M 453.614444 256.32 
L 453.614444 17.28 
" style="fill:none;stroke:#b0b0b0;stroke-linecap:square;stroke-width:0.8;"/>
     </g>
     <g id="line2d_31">
      <g>
       <use style="stroke:#000000;stroke-width:0.8;" x="453.614444" xlink:href="#m9a7112bcfe" y="256.32"/>
      </g>
     </g>
     <g id="text_14">
      <!-- 20 -->
      <g transform="translate(445.979444 272.438125)scale(0.12 -0.12)">
       <use xlink:href="#DejaVuSans-50"/>
       <use x="63.623047" xlink:href="#DejaVuSans-48"/>
      </g>
     </g>
    </g>
    <g id="xtick_8">
     <g id="line2d_32">
      <path clip-path="url(#p7aa5e8505a)" d="M 522.005417 256.32 
L 522.005417 17.28 
" style="fill:none;stroke:#b0b0b0;stroke-linecap:square;stroke-width:0.8;"/>
     </g>
     <g id="line2d_33">
      <g>
       <use style="stroke:#000000;stroke-width:0.8;" x="522.005417" xlink:href="#m9a7112bcfe" y="256.32"/>
      </g>
     </g>
     <g id="text_15">
      <!-- 30 -->
      <g transform="translate(514.370417 272.438125)scale(0.12 -0.12)">
       <use xlink:href="#DejaVuSans-51"/>
       <use x="63.623047" xlink:href="#DejaVuSans-48"/>
      </g>
     </g>
    </g>
   </g>
   <g id="matplotlib.axis_4">
    <g id="ytick_7">
     <g id="line2d_34">
      <path clip-path="url(#p7aa5e8505a)" d="M 316.8325 256.32 
L 563.04 256.32 
" style="fill:none;stroke:#b0b0b0;stroke-linecap:square;stroke-width:0.8;"/>
     </g>
     <g id="line2d_35">
      <g>
       <use style="stroke:#000000;stroke-width:0.8;" x="316.8325" xlink:href="#mdc8a09831a" y="256.32"/>
      </g>
     </g>
    </g>
    <g id="ytick_8">
     <g id="line2d_36">
      <path clip-path="url(#p7aa5e8505a)" d="M 316.8325 208.512 
L 563.04 208.512 
" style="fill:none;stroke:#b0b0b0;stroke-linecap:square;stroke-width:0.8;"/>
     </g>
     <g id="line2d_37">
      <g>
       <use style="stroke:#000000;stroke-width:0.8;" x="316.8325" xlink:href="#mdc8a09831a" y="208.512"/>
      </g>
     </g>
    </g>
    <g id="ytick_9">
     <g id="line2d_38">
      <path clip-path="url(#p7aa5e8505a)" d="M 316.8325 160.704 
L 563.04 160.704 
" style="fill:none;stroke:#b0b0b0;stroke-linecap:square;stroke-width:0.8;"/>
     </g>
     <g id="line2d_39">
      <g>
       <use style="stroke:#000000;stroke-width:0.8;" x="316.8325" xlink:href="#mdc8a09831a" y="160.704"/>
      </g>
     </g>
    </g>
    <g id="ytick_10">
     <g id="line2d_40">
      <path clip-path="url(#p7aa5e8505a)" d="M 316.8325 112.896 
L 563.04 112.896 
" style="fill:none;stroke:#b0b0b0;stroke-linecap:square;stroke-width:0.8;"/>
     </g>
     <g id="line2d_41">
      <g>
       <use style="stroke:#000000;stroke-width:0.8;" x="316.8325" xlink:href="#mdc8a09831a" y="112.896"/>
      </g>
     </g>
    </g>
    <g id="ytick_11">
     <g id="line2d_42">
      <path clip-path="url(#p7aa5e8505a)" d="M 316.8325 65.088 
L 563.04 65.088 
" style="fill:none;stroke:#b0b0b0;stroke-linecap:square;stroke-width:0.8;"/>
     </g>
     <g id="line2d_43">
      <g>
       <use style="stroke:#000000;stroke-width:0.8;" x="316.8325" xlink:href="#mdc8a09831a" y="65.088"/>
      </g>
     </g>
    </g>
    <g id="ytick_12">
     <g id="line2d_44">
      <path clip-path="url(#p7aa5e8505a)" d="M 316.8325 17.28 
L 563.04 17.28 
" style="fill:none;stroke:#b0b0b0;stroke-linecap:square;stroke-width:0.8;"/>
     </g>
     <g id="line2d_45">
      <g>
       <use style="stroke:#000000;stroke-width:0.8;" x="316.8325" xlink:href="#mdc8a09831a" y="17.28"/>
      </g>
     </g>
    </g>
   </g>
   <g id="line2d_46">
    <path clip-path="url(#p7aa5e8505a)" d="M 323.671597 146.598731 
L 330.510694 111.293128 
L 337.349792 100.581115 
L 344.188889 76.285912 
L 351.027986 50.726894 
L 357.867083 42.93406 
L 364.706181 37.268091 
L 371.545278 33.500663 
L 378.384375 30.332811 
L 385.223472 29.056776 
L 392.062569 27.573775 
L 398.901667 26.622919 
L 405.740764 25.806952 
L 412.579861 25.097393 
L 419.418958 24.823495 
L 426.258056 24.393349 
L 433.097153 24.179902 
L 439.93625 24.09701 
L 446.775347 23.750811 
L 453.614444 23.707085 
L 460.453542 23.558441 
L 467.292639 23.281227 
L 474.131736 23.255402 
L 480.970833 23.107328 
L 487.809931 23.251193 
L 494.649028 23.031387 
L 501.488125 23.169857 
L 508.327222 22.920815 
L 515.166319 22.815832 
L 522.005417 22.955362 
L 528.844514 22.795865 
L 535.683611 22.763571 
L 542.522708 22.735053 
L 549.361806 22.501539 
L 556.200903 22.622562 
" style="fill:none;stroke:#1f77b4;stroke-linecap:square;stroke-width:1.5;"/>
   </g>
   <g id="line2d_47">
    <path clip-path="url(#p7aa5e8505a)" d="M 323.671597 176.285563 
L 330.510694 124.004632 
L 337.349792 111.377967 
L 344.188889 89.500382 
L 351.027986 69.970907 
L 357.867083 62.26761 
L 364.706181 57.657332 
L 371.545278 53.629035 
L 378.384375 50.032723 
L 385.223472 46.129624 
L 392.062569 43.778085 
L 398.901667 41.954471 
L 405.740764 40.283605 
L 412.579861 38.984035 
L 419.418958 38.296211 
L 426.258056 37.412951 
L 433.097153 36.746083 
L 439.93625 36.17825 
L 446.775347 35.682036 
L 453.614444 34.936613 
L 460.453542 34.580103 
L 467.292639 33.8746 
L 474.131736 33.575568 
L 480.970833 32.749185 
L 487.809931 32.530183 
L 494.649028 31.944773 
L 501.488125 31.565317 
L 508.327222 30.988884 
L 515.166319 30.454455 
L 522.005417 30.222743 
L 528.844514 29.769287 
L 535.683611 29.439091 
L 542.522708 28.975066 
L 549.361806 28.449787 
L 556.200903 27.957398 
" style="fill:none;stroke:#ff7f0e;stroke-linecap:square;stroke-width:1.5;"/>
   </g>
   <g id="line2d_48">
    <path clip-path="url(#p7aa5e8505a)" d="M 323.671597 167.829259 
L 330.510694 139.426736 
L 337.349792 126.381209 
L 344.188889 106.418272 
L 351.027986 84.587615 
L 357.867083 73.703938 
L 364.706181 67.495111 
L 371.545278 58.882492 
L 378.384375 53.437135 
L 385.223472 50.551126 
L 392.062569 48.315289 
L 398.901667 47.009897 
L 405.740764 45.316998 
L 412.579861 44.541569 
L 419.418958 43.569839 
L 426.258056 43.25395 
L 433.097153 42.807334 
L 439.93625 42.20907 
L 446.775347 41.469836 
L 453.614444 41.377438 
L 460.453542 40.931376 
L 467.292639 40.48266 
L 474.131736 40.151754 
L 480.970833 39.498474 
L 487.809931 39.301922 
L 494.649028 38.977751 
L 501.488125 38.751724 
L 508.327222 37.911778 
L 515.166319 37.305526 
L 522.005417 36.839793 
L 528.844514 36.160549 
L 535.683611 35.604273 
L 542.522708 35.411778 
L 549.361806 34.914255 
L 556.200903 34.425442 
" style="fill:none;stroke:#2ca02c;stroke-linecap:square;stroke-width:1.5;"/>
   </g>
   <g id="line2d_49">
    <path clip-path="url(#p7aa5e8505a)" d="M 323.671597 204.076652 
L 330.510694 188.552958 
L 337.349792 202.304951 
L 344.188889 176.086202 
L 351.027986 135.024194 
L 357.867083 114.422674 
L 364.706181 106.622316 
L 371.545278 101.086674 
L 378.384375 94.167129 
L 385.223472 87.43656 
L 392.062569 82.601363 
L 398.901667 79.256958 
L 405.740764 76.48185 
L 412.579861 74.676658 
L 419.418958 72.286115 
L 426.258056 71.705317 
L 433.097153 70.19433 
L 439.93625 68.305596 
L 446.775347 67.364503 
L 453.614444 66.218554 
L 460.453542 64.937633 
L 467.292639 63.723562 
L 474.131736 62.780031 
L 480.970833 60.722397 
L 487.809931 59.535298 
L 494.649028 58.349108 
L 501.488125 56.890499 
L 508.327222 55.014802 
L 515.166319 53.300681 
L 522.005417 51.991095 
L 528.844514 50.403246 
L 535.683611 48.992913 
L 542.522708 48.277034 
L 549.361806 46.937728 
L 556.200903 45.305728 
" style="fill:none;stroke:#d62728;stroke-linecap:square;stroke-width:1.5;"/>
   </g>
   <g id="line2d_50">
    <path clip-path="url(#p7aa5e8505a)" d="M 323.671597 130.41634 
L 330.510694 111.749553 
L 337.349792 107.082221 
L 344.188889 105.28665 
L 351.027986 97.647645 
L 357.867083 89.696416 
L 364.706181 81.894113 
L 371.545278 63.808386 
L 378.384375 46.424629 
L 385.223472 36.05515 
L 392.062569 30.02662 
L 398.901667 26.819847 
L 405.740764 24.106681 
L 412.579861 22.510538 
L 419.418958 21.457129 
L 426.258056 20.537206 
L 433.097153 20.181482 
L 439.93625 19.781325 
L 446.775347 19.517659 
L 453.614444 19.301558 
L 460.453542 19.306706 
L 467.292639 19.031523 
L 474.131736 18.908837 
L 480.970833 18.809496 
L 487.809931 18.809318 
L 494.649028 18.763279 
L 501.488125 18.728277 
L 508.327222 18.62592 
L 515.166319 18.598662 
L 522.005417 18.526221 
L 528.844514 18.568644 
L 535.683611 18.43642 
L 542.522708 18.313558 
L 549.361806 18.362407 
L 556.200903 18.408248 
" style="fill:none;stroke:#9467bd;stroke-linecap:square;stroke-width:1.5;"/>
   </g>
   <g id="patch_8">
    <path d="M 316.8325 256.32 
L 316.8325 17.28 
" style="fill:none;stroke:#000000;stroke-linecap:square;stroke-linejoin:miter;stroke-width:0.8;"/>
   </g>
   <g id="patch_9">
    <path d="M 563.04 256.32 
L 563.04 17.28 
" style="fill:none;stroke:#000000;stroke-linecap:square;stroke-linejoin:miter;stroke-width:0.8;"/>
   </g>
   <g id="patch_10">
    <path d="M 316.8325 256.32 
L 563.04 256.32 
" style="fill:none;stroke:#000000;stroke-linecap:square;stroke-linejoin:miter;stroke-width:0.8;"/>
   </g>
   <g id="patch_11">
    <path d="M 316.8325 17.28 
L 563.04 17.28 
" style="fill:none;stroke:#000000;stroke-linecap:square;stroke-linejoin:miter;stroke-width:0.8;"/>
   </g>
  </g>
  <g id="axes_3">
   <g id="patch_12">
    <path d="M 53.84 530.44 
L 300.0475 530.44 
L 300.0475 291.4 
L 53.84 291.4 
z
" style="fill:#ffffff;"/>
   </g>
   <g id="matplotlib.axis_5">
    <g id="xtick_9">
     <g id="line2d_51">
      <path clip-path="url(#p2592d8e6a2)" d="M 53.84 530.44 
L 53.84 291.4 
" style="fill:none;stroke:#b0b0b0;stroke-linecap:square;stroke-width:0.8;"/>
     </g>
     <g id="line2d_52">
      <g>
       <use style="stroke:#000000;stroke-width:0.8;" x="53.84" xlink:href="#m9a7112bcfe" y="530.44"/>
      </g>
     </g>
     <g id="text_16">
      <!-- 0 -->
      <g transform="translate(50.0225 546.558125)scale(0.12 -0.12)">
       <use xlink:href="#DejaVuSans-48"/>
      </g>
     </g>
    </g>
    <g id="xtick_10">
     <g id="line2d_53">
      <path clip-path="url(#p2592d8e6a2)" d="M 122.230972 530.44 
L 122.230972 291.4 
" style="fill:none;stroke:#b0b0b0;stroke-linecap:square;stroke-width:0.8;"/>
     </g>
     <g id="line2d_54">
      <g>
       <use style="stroke:#000000;stroke-width:0.8;" x="122.230972" xlink:href="#m9a7112bcfe" y="530.44"/>
      </g>
     </g>
     <g id="text_17">
      <!-- 10 -->
      <g transform="translate(114.595972 546.558125)scale(0.12 -0.12)">
       <use xlink:href="#DejaVuSans-49"/>
       <use x="63.623047" xlink:href="#DejaVuSans-48"/>
      </g>
     </g>
    </g>
    <g id="xtick_11">
     <g id="line2d_55">
      <path clip-path="url(#p2592d8e6a2)" d="M 190.621944 530.44 
L 190.621944 291.4 
" style="fill:none;stroke:#b0b0b0;stroke-linecap:square;stroke-width:0.8;"/>
     </g>
     <g id="line2d_56">
      <g>
       <use style="stroke:#000000;stroke-width:0.8;" x="190.621944" xlink:href="#m9a7112bcfe" y="530.44"/>
      </g>
     </g>
     <g id="text_18">
      <!-- 20 -->
      <g transform="translate(182.986944 546.558125)scale(0.12 -0.12)">
       <use xlink:href="#DejaVuSans-50"/>
       <use x="63.623047" xlink:href="#DejaVuSans-48"/>
      </g>
     </g>
    </g>
    <g id="xtick_12">
     <g id="line2d_57">
      <path clip-path="url(#p2592d8e6a2)" d="M 259.012917 530.44 
L 259.012917 291.4 
" style="fill:none;stroke:#b0b0b0;stroke-linecap:square;stroke-width:0.8;"/>
     </g>
     <g id="line2d_58">
      <g>
       <use style="stroke:#000000;stroke-width:0.8;" x="259.012917" xlink:href="#m9a7112bcfe" y="530.44"/>
      </g>
     </g>
     <g id="text_19">
      <!-- 30 -->
      <g transform="translate(251.377917 546.558125)scale(0.12 -0.12)">
       <use xlink:href="#DejaVuSans-51"/>
       <use x="63.623047" xlink:href="#DejaVuSans-48"/>
      </g>
     </g>
    </g>
    <g id="text_20">
     <!-- epochs -->
     <defs>
      <path d="M 18.109375 8.203125 
L 18.109375 -20.796875 
L 9.078125 -20.796875 
L 9.078125 54.6875 
L 18.109375 54.6875 
L 18.109375 46.390625 
Q 20.953125 51.265625 25.265625 53.625 
Q 29.59375 56 35.59375 56 
Q 45.5625 56 51.78125 48.09375 
Q 58.015625 40.1875 58.015625 27.296875 
Q 58.015625 14.40625 51.78125 6.484375 
Q 45.5625 -1.421875 35.59375 -1.421875 
Q 29.59375 -1.421875 25.265625 0.953125 
Q 20.953125 3.328125 18.109375 8.203125 
z
M 48.6875 27.296875 
Q 48.6875 37.203125 44.609375 42.84375 
Q 40.53125 48.484375 33.40625 48.484375 
Q 26.265625 48.484375 22.1875 42.84375 
Q 18.109375 37.203125 18.109375 27.296875 
Q 18.109375 17.390625 22.1875 11.75 
Q 26.265625 6.109375 33.40625 6.109375 
Q 40.53125 6.109375 44.609375 11.75 
Q 48.6875 17.390625 48.6875 27.296875 
z
" id="DejaVuSans-112"/>
      <path d="M 54.890625 33.015625 
L 54.890625 0 
L 45.90625 0 
L 45.90625 32.71875 
Q 45.90625 40.484375 42.875 44.328125 
Q 39.84375 48.1875 33.796875 48.1875 
Q 26.515625 48.1875 22.3125 43.546875 
Q 18.109375 38.921875 18.109375 30.90625 
L 18.109375 0 
L 9.078125 0 
L 9.078125 75.984375 
L 18.109375 75.984375 
L 18.109375 46.1875 
Q 21.34375 51.125 25.703125 53.5625 
Q 30.078125 56 35.796875 56 
Q 45.21875 56 50.046875 50.171875 
Q 54.890625 44.34375 54.890625 33.015625 
z
" id="DejaVuSans-104"/>
     </defs>
     <g transform="translate(155.544375 562.171875)scale(0.12 -0.12)">
      <use xlink:href="#DejaVuSans-101"/>
      <use x="61.523438" xlink:href="#DejaVuSans-112"/>
      <use x="125" xlink:href="#DejaVuSans-111"/>
      <use x="186.181641" xlink:href="#DejaVuSans-99"/>
      <use x="241.162109" xlink:href="#DejaVuSans-104"/>
      <use x="304.541016" xlink:href="#DejaVuSans-115"/>
     </g>
    </g>
   </g>
   <g id="matplotlib.axis_6">
    <g id="ytick_13">
     <g id="line2d_59">
      <path clip-path="url(#p2592d8e6a2)" d="M 53.84 530.44 
L 300.0475 530.44 
" style="fill:none;stroke:#b0b0b0;stroke-linecap:square;stroke-width:0.8;"/>
     </g>
     <g id="line2d_60">
      <g>
       <use style="stroke:#000000;stroke-width:0.8;" x="53.84" xlink:href="#mdc8a09831a" y="530.44"/>
      </g>
     </g>
     <g id="text_21">
      <!-- 0.0 -->
      <g transform="translate(27.75625 534.999063)scale(0.12 -0.12)">
       <use xlink:href="#DejaVuSans-48"/>
       <use x="63.623047" xlink:href="#DejaVuSans-46"/>
       <use x="95.410156" xlink:href="#DejaVuSans-48"/>
      </g>
     </g>
    </g>
    <g id="ytick_14">
     <g id="line2d_61">
      <path clip-path="url(#p2592d8e6a2)" d="M 53.84 482.632 
L 300.0475 482.632 
" style="fill:none;stroke:#b0b0b0;stroke-linecap:square;stroke-width:0.8;"/>
     </g>
     <g id="line2d_62">
      <g>
       <use style="stroke:#000000;stroke-width:0.8;" x="53.84" xlink:href="#mdc8a09831a" y="482.632"/>
      </g>
     </g>
     <g id="text_22">
      <!-- 0.2 -->
      <g transform="translate(27.75625 487.191062)scale(0.12 -0.12)">
       <use xlink:href="#DejaVuSans-48"/>
       <use x="63.623047" xlink:href="#DejaVuSans-46"/>
       <use x="95.410156" xlink:href="#DejaVuSans-50"/>
      </g>
     </g>
    </g>
    <g id="ytick_15">
     <g id="line2d_63">
      <path clip-path="url(#p2592d8e6a2)" d="M 53.84 434.824 
L 300.0475 434.824 
" style="fill:none;stroke:#b0b0b0;stroke-linecap:square;stroke-width:0.8;"/>
     </g>
     <g id="line2d_64">
      <g>
       <use style="stroke:#000000;stroke-width:0.8;" x="53.84" xlink:href="#mdc8a09831a" y="434.824"/>
      </g>
     </g>
     <g id="text_23">
      <!-- 0.4 -->
      <g transform="translate(27.75625 439.383062)scale(0.12 -0.12)">
       <use xlink:href="#DejaVuSans-48"/>
       <use x="63.623047" xlink:href="#DejaVuSans-46"/>
       <use x="95.410156" xlink:href="#DejaVuSans-52"/>
      </g>
     </g>
    </g>
    <g id="ytick_16">
     <g id="line2d_65">
      <path clip-path="url(#p2592d8e6a2)" d="M 53.84 387.016 
L 300.0475 387.016 
" style="fill:none;stroke:#b0b0b0;stroke-linecap:square;stroke-width:0.8;"/>
     </g>
     <g id="line2d_66">
      <g>
       <use style="stroke:#000000;stroke-width:0.8;" x="53.84" xlink:href="#mdc8a09831a" y="387.016"/>
      </g>
     </g>
     <g id="text_24">
      <!-- 0.6 -->
      <g transform="translate(27.75625 391.575063)scale(0.12 -0.12)">
       <use xlink:href="#DejaVuSans-48"/>
       <use x="63.623047" xlink:href="#DejaVuSans-46"/>
       <use x="95.410156" xlink:href="#DejaVuSans-54"/>
      </g>
     </g>
    </g>
    <g id="ytick_17">
     <g id="line2d_67">
      <path clip-path="url(#p2592d8e6a2)" d="M 53.84 339.208 
L 300.0475 339.208 
" style="fill:none;stroke:#b0b0b0;stroke-linecap:square;stroke-width:0.8;"/>
     </g>
     <g id="line2d_68">
      <g>
       <use style="stroke:#000000;stroke-width:0.8;" x="53.84" xlink:href="#mdc8a09831a" y="339.208"/>
      </g>
     </g>
     <g id="text_25">
      <!-- 0.8 -->
      <g transform="translate(27.75625 343.767063)scale(0.12 -0.12)">
       <use xlink:href="#DejaVuSans-48"/>
       <use x="63.623047" xlink:href="#DejaVuSans-46"/>
       <use x="95.410156" xlink:href="#DejaVuSans-56"/>
      </g>
     </g>
    </g>
    <g id="ytick_18">
     <g id="line2d_69">
      <path clip-path="url(#p2592d8e6a2)" d="M 53.84 291.4 
L 300.0475 291.4 
" style="fill:none;stroke:#b0b0b0;stroke-linecap:square;stroke-width:0.8;"/>
     </g>
     <g id="line2d_70">
      <g>
       <use style="stroke:#000000;stroke-width:0.8;" x="53.84" xlink:href="#mdc8a09831a" y="291.4"/>
      </g>
     </g>
     <g id="text_26">
      <!-- 1.0 -->
      <g transform="translate(27.75625 295.959063)scale(0.12 -0.12)">
       <use xlink:href="#DejaVuSans-49"/>
       <use x="63.623047" xlink:href="#DejaVuSans-46"/>
       <use x="95.410156" xlink:href="#DejaVuSans-48"/>
      </g>
     </g>
    </g>
    <g id="text_27">
     <!-- F1 score -->
     <g transform="translate(21.260625 436.347813)rotate(-90)scale(0.12 -0.12)">
      <use xlink:href="#DejaVuSans-70"/>
      <use x="57.519531" xlink:href="#DejaVuSans-49"/>
      <use x="121.142578" xlink:href="#DejaVuSans-32"/>
      <use x="152.929688" xlink:href="#DejaVuSans-115"/>
      <use x="205.029297" xlink:href="#DejaVuSans-99"/>
      <use x="260.009766" xlink:href="#DejaVuSans-111"/>
      <use x="321.191406" xlink:href="#DejaVuSans-114"/>
      <use x="362.273438" xlink:href="#DejaVuSans-101"/>
     </g>
    </g>
   </g>
   <g id="line2d_71">
    <path clip-path="url(#p2592d8e6a2)" d="M 60.679097 373.293745 
L 67.518194 420.214379 
L 74.357292 328.713582 
L 81.196389 325.984209 
L 88.035486 318.681387 
L 94.874583 311.978524 
L 101.713681 307.641401 
L 108.552778 304.215467 
L 115.391875 301.675994 
L 122.230972 301.070758 
L 129.070069 299.215553 
L 135.909167 300.130259 
L 142.748264 298.279608 
L 149.587361 298.70194 
L 156.426458 298.481378 
L 163.265556 297.86643 
L 170.104653 297.689184 
L 176.94375 297.268136 
L 183.782847 297.449677 
L 190.621944 297.435981 
L 197.461042 296.783252 
L 204.300139 296.856031 
L 211.139236 297.135881 
L 217.978333 296.985913 
L 224.817431 296.900868 
L 231.656528 296.607347 
L 238.495625 296.544551 
" style="fill:none;stroke:#1f77b4;stroke-linecap:square;stroke-width:1.5;"/>
   </g>
   <g id="line2d_72">
    <path clip-path="url(#p2592d8e6a2)" d="M 60.679097 500.51689 
L 67.518194 503.56902 
L 74.357292 468.551598 
L 81.196389 427.76597 
L 88.035486 360.768751 
L 94.874583 332.933674 
L 101.713681 335.392983 
L 108.552778 330.030962 
L 115.391875 325.963603 
L 122.230972 319.970161 
L 129.070069 322.602222 
L 135.909167 317.349187 
L 142.748264 319.689585 
L 149.587361 317.467007 
L 156.426458 320.05221 
L 163.265556 316.535404 
L 170.104653 316.581313 
L 176.94375 316.425848 
L 183.782847 314.802839 
L 190.621944 314.84794 
L 197.461042 315.253444 
L 204.300139 314.964705 
L 211.139236 316.557325 
L 217.978333 314.804458 
L 224.817431 314.662129 
L 231.656528 314.579912 
L 238.495625 312.963006 
" style="fill:none;stroke:#ff7f0e;stroke-linecap:square;stroke-width:1.5;"/>
   </g>
   <g id="line2d_73">
    <path clip-path="url(#p2592d8e6a2)" d="M 60.679097 484.458431 
L 67.518194 518.261546 
L 74.357292 404.661788 
L 81.196389 398.31896 
L 88.035486 360.07786 
L 94.874583 347.707396 
L 101.713681 320.91377 
L 108.552778 316.326423 
L 115.391875 312.566156 
L 122.230972 311.699714 
L 129.070069 310.280068 
L 135.909167 307.152388 
L 142.748264 305.448848 
L 149.587361 305.025439 
L 156.426458 304.882299 
L 163.265556 304.221315 
L 170.104653 303.183152 
L 176.94375 304.398026 
L 183.782847 303.237162 
L 190.621944 302.997973 
L 197.461042 302.788639 
L 204.300139 302.390762 
L 211.139236 302.855203 
L 217.978333 302.022387 
L 224.817431 303.143065 
L 231.656528 302.331818 
L 238.495625 301.955734 
" style="fill:none;stroke:#2ca02c;stroke-linecap:square;stroke-width:1.5;"/>
   </g>
   <g id="line2d_74">
    <path clip-path="url(#p2592d8e6a2)" d="M 60.679097 524.434626 
L 67.518194 530.44 
L 74.357292 529.080531 
L 81.196389 516.177825 
L 88.035486 472.093677 
L 94.874583 474.791852 
L 101.713681 459.484088 
L 108.552778 442.364188 
L 115.391875 446.731569 
L 122.230972 444.887059 
L 129.070069 440.125481 
L 135.909167 424.759158 
L 142.748264 420.716721 
L 149.587361 421.052717 
L 156.426458 422.274985 
L 163.265556 412.395556 
L 170.104653 415.878253 
L 176.94375 422.002114 
L 183.782847 412.644178 
L 190.621944 412.623373 
L 197.461042 414.652953 
L 204.300139 411.469517 
L 211.139236 411.333564 
L 217.978333 408.015776 
L 224.817431 417.408827 
L 231.656528 414.882387 
L 238.495625 411.99289 
" style="fill:none;stroke:#d62728;stroke-linecap:square;stroke-width:1.5;"/>
   </g>
   <g id="line2d_75">
    <path clip-path="url(#p2592d8e6a2)" d="M 60.679097 501.241589 
L 67.518194 456.417604 
L 74.357292 454.682948 
L 81.196389 456.991543 
L 88.035486 487.43207 
L 94.874583 466.687448 
L 101.713681 463.951171 
L 108.552778 435.965566 
L 115.391875 415.96 
L 122.230972 422.081183 
L 129.070069 390.102266 
L 135.909167 410.555239 
L 142.748264 377.031203 
L 149.587361 390.648827 
L 156.426458 383.550763 
L 163.265556 369.29745 
L 170.104653 368.415927 
L 176.94375 368.120119 
L 183.782847 362.042812 
L 190.621944 369.079173 
L 197.461042 360.87468 
L 204.300139 354.721854 
L 211.139236 358.751661 
L 217.978333 361.750986 
L 224.817431 353.490888 
L 231.656528 353.758261 
L 238.495625 359.170073 
" style="fill:none;stroke:#9467bd;stroke-linecap:square;stroke-width:1.5;"/>
   </g>
   <g id="patch_13">
    <path d="M 53.84 530.44 
L 53.84 291.4 
" style="fill:none;stroke:#000000;stroke-linecap:square;stroke-linejoin:miter;stroke-width:0.8;"/>
   </g>
   <g id="patch_14">
    <path d="M 300.0475 530.44 
L 300.0475 291.4 
" style="fill:none;stroke:#000000;stroke-linecap:square;stroke-linejoin:miter;stroke-width:0.8;"/>
   </g>
   <g id="patch_15">
    <path d="M 53.84 530.44 
L 300.0475 530.44 
" style="fill:none;stroke:#000000;stroke-linecap:square;stroke-linejoin:miter;stroke-width:0.8;"/>
   </g>
   <g id="patch_16">
    <path d="M 53.84 291.4 
L 300.0475 291.4 
" style="fill:none;stroke:#000000;stroke-linecap:square;stroke-linejoin:miter;stroke-width:0.8;"/>
   </g>
  </g>
  <g id="axes_4">
   <g id="patch_17">
    <path d="M 316.8325 530.44 
L 563.04 530.44 
L 563.04 291.4 
L 316.8325 291.4 
z
" style="fill:#ffffff;"/>
   </g>
   <g id="matplotlib.axis_7">
    <g id="xtick_13">
     <g id="line2d_76">
      <path clip-path="url(#p81ffdbaf14)" d="M 316.8325 530.44 
L 316.8325 291.4 
" style="fill:none;stroke:#b0b0b0;stroke-linecap:square;stroke-width:0.8;"/>
     </g>
     <g id="line2d_77">
      <g>
       <use style="stroke:#000000;stroke-width:0.8;" x="316.8325" xlink:href="#m9a7112bcfe" y="530.44"/>
      </g>
     </g>
     <g id="text_28">
      <!-- 0 -->
      <g transform="translate(313.015 546.558125)scale(0.12 -0.12)">
       <use xlink:href="#DejaVuSans-48"/>
      </g>
     </g>
    </g>
    <g id="xtick_14">
     <g id="line2d_78">
      <path clip-path="url(#p81ffdbaf14)" d="M 385.223472 530.44 
L 385.223472 291.4 
" style="fill:none;stroke:#b0b0b0;stroke-linecap:square;stroke-width:0.8;"/>
     </g>
     <g id="line2d_79">
      <g>
       <use style="stroke:#000000;stroke-width:0.8;" x="385.223472" xlink:href="#m9a7112bcfe" y="530.44"/>
      </g>
     </g>
     <g id="text_29">
      <!-- 10 -->
      <g transform="translate(377.588472 546.558125)scale(0.12 -0.12)">
       <use xlink:href="#DejaVuSans-49"/>
       <use x="63.623047" xlink:href="#DejaVuSans-48"/>
      </g>
     </g>
    </g>
    <g id="xtick_15">
     <g id="line2d_80">
      <path clip-path="url(#p81ffdbaf14)" d="M 453.614444 530.44 
L 453.614444 291.4 
" style="fill:none;stroke:#b0b0b0;stroke-linecap:square;stroke-width:0.8;"/>
     </g>
     <g id="line2d_81">
      <g>
       <use style="stroke:#000000;stroke-width:0.8;" x="453.614444" xlink:href="#m9a7112bcfe" y="530.44"/>
      </g>
     </g>
     <g id="text_30">
      <!-- 20 -->
      <g transform="translate(445.979444 546.558125)scale(0.12 -0.12)">
       <use xlink:href="#DejaVuSans-50"/>
       <use x="63.623047" xlink:href="#DejaVuSans-48"/>
      </g>
     </g>
    </g>
    <g id="xtick_16">
     <g id="line2d_82">
      <path clip-path="url(#p81ffdbaf14)" d="M 522.005417 530.44 
L 522.005417 291.4 
" style="fill:none;stroke:#b0b0b0;stroke-linecap:square;stroke-width:0.8;"/>
     </g>
     <g id="line2d_83">
      <g>
       <use style="stroke:#000000;stroke-width:0.8;" x="522.005417" xlink:href="#m9a7112bcfe" y="530.44"/>
      </g>
     </g>
     <g id="text_31">
      <!-- 30 -->
      <g transform="translate(514.370417 546.558125)scale(0.12 -0.12)">
       <use xlink:href="#DejaVuSans-51"/>
       <use x="63.623047" xlink:href="#DejaVuSans-48"/>
      </g>
     </g>
    </g>
    <g id="text_32">
     <!-- epochs -->
     <g transform="translate(418.536875 562.171875)scale(0.12 -0.12)">
      <use xlink:href="#DejaVuSans-101"/>
      <use x="61.523438" xlink:href="#DejaVuSans-112"/>
      <use x="125" xlink:href="#DejaVuSans-111"/>
      <use x="186.181641" xlink:href="#DejaVuSans-99"/>
      <use x="241.162109" xlink:href="#DejaVuSans-104"/>
      <use x="304.541016" xlink:href="#DejaVuSans-115"/>
     </g>
    </g>
   </g>
   <g id="matplotlib.axis_8">
    <g id="ytick_19">
     <g id="line2d_84">
      <path clip-path="url(#p81ffdbaf14)" d="M 316.8325 530.44 
L 563.04 530.44 
" style="fill:none;stroke:#b0b0b0;stroke-linecap:square;stroke-width:0.8;"/>
     </g>
     <g id="line2d_85">
      <g>
       <use style="stroke:#000000;stroke-width:0.8;" x="316.8325" xlink:href="#mdc8a09831a" y="530.44"/>
      </g>
     </g>
    </g>
    <g id="ytick_20">
     <g id="line2d_86">
      <path clip-path="url(#p81ffdbaf14)" d="M 316.8325 482.632 
L 563.04 482.632 
" style="fill:none;stroke:#b0b0b0;stroke-linecap:square;stroke-width:0.8;"/>
     </g>
     <g id="line2d_87">
      <g>
       <use style="stroke:#000000;stroke-width:0.8;" x="316.8325" xlink:href="#mdc8a09831a" y="482.632"/>
      </g>
     </g>
    </g>
    <g id="ytick_21">
     <g id="line2d_88">
      <path clip-path="url(#p81ffdbaf14)" d="M 316.8325 434.824 
L 563.04 434.824 
" style="fill:none;stroke:#b0b0b0;stroke-linecap:square;stroke-width:0.8;"/>
     </g>
     <g id="line2d_89">
      <g>
       <use style="stroke:#000000;stroke-width:0.8;" x="316.8325" xlink:href="#mdc8a09831a" y="434.824"/>
      </g>
     </g>
    </g>
    <g id="ytick_22">
     <g id="line2d_90">
      <path clip-path="url(#p81ffdbaf14)" d="M 316.8325 387.016 
L 563.04 387.016 
" style="fill:none;stroke:#b0b0b0;stroke-linecap:square;stroke-width:0.8;"/>
     </g>
     <g id="line2d_91">
      <g>
       <use style="stroke:#000000;stroke-width:0.8;" x="316.8325" xlink:href="#mdc8a09831a" y="387.016"/>
      </g>
     </g>
    </g>
    <g id="ytick_23">
     <g id="line2d_92">
      <path clip-path="url(#p81ffdbaf14)" d="M 316.8325 339.208 
L 563.04 339.208 
" style="fill:none;stroke:#b0b0b0;stroke-linecap:square;stroke-width:0.8;"/>
     </g>
     <g id="line2d_93">
      <g>
       <use style="stroke:#000000;stroke-width:0.8;" x="316.8325" xlink:href="#mdc8a09831a" y="339.208"/>
      </g>
     </g>
    </g>
    <g id="ytick_24">
     <g id="line2d_94">
      <path clip-path="url(#p81ffdbaf14)" d="M 316.8325 291.4 
L 563.04 291.4 
" style="fill:none;stroke:#b0b0b0;stroke-linecap:square;stroke-width:0.8;"/>
     </g>
     <g id="line2d_95">
      <g>
       <use style="stroke:#000000;stroke-width:0.8;" x="316.8325" xlink:href="#mdc8a09831a" y="291.4"/>
      </g>
     </g>
    </g>
   </g>
   <g id="line2d_96">
    <path clip-path="url(#p81ffdbaf14)" d="M 323.671597 339.539534 
L 330.510694 359.945087 
L 337.349792 358.318142 
L 344.188889 328.235648 
L 351.027986 322.58349 
L 357.867083 309.578227 
L 364.706181 304.267648 
L 371.545278 302.911625 
L 378.384375 301.171003 
L 385.223472 299.702678 
L 392.062569 299.31158 
L 398.901667 300.690102 
L 405.740764 298.686506 
L 412.579861 298.343812 
L 419.418958 298.574641 
L 426.258056 297.416426 
L 433.097153 298.350925 
L 439.93625 297.939346 
L 446.775347 298.047793 
L 453.614444 297.249515 
L 460.453542 296.844659 
L 467.292639 296.944283 
L 474.131736 297.124501 
L 480.970833 296.810214 
L 487.809931 296.830224 
L 494.649028 296.838302 
L 501.488125 296.575814 
L 508.327222 296.942224 
L 515.166319 296.555607 
L 522.005417 296.586239 
L 528.844514 296.720082 
L 535.683611 296.722514 
L 542.522708 296.430684 
L 549.361806 296.429925 
L 556.200903 296.639325 
" style="fill:none;stroke:#1f77b4;stroke-linecap:square;stroke-width:1.5;"/>
   </g>
   <g id="line2d_97">
    <path clip-path="url(#p81ffdbaf14)" d="M 323.671597 400.093525 
L 330.510694 374.906536 
L 337.349792 365.611405 
L 344.188889 334.738441 
L 351.027986 329.988444 
L 357.867083 326.400434 
L 364.706181 327.151118 
L 371.545278 322.893001 
L 378.384375 318.872607 
L 385.223472 319.608552 
L 392.062569 319.191019 
L 398.901667 321.297169 
L 405.740764 326.351477 
L 412.579861 316.076312 
L 419.418958 315.826415 
L 426.258056 317.289139 
L 433.097153 316.289299 
L 439.93625 317.581667 
L 446.775347 319.201688 
L 453.614444 323.224054 
L 460.453542 316.667417 
L 467.292639 318.728074 
L 474.131736 316.557183 
L 480.970833 316.882827 
L 487.809931 315.79374 
L 494.649028 315.39811 
L 501.488125 315.583035 
L 508.327222 315.336409 
L 515.166319 315.585865 
L 522.005417 315.546898 
L 528.844514 315.895909 
L 535.683611 315.670345 
L 542.522708 316.02669 
L 549.361806 314.907597 
L 556.200903 316.471524 
" style="fill:none;stroke:#ff7f0e;stroke-linecap:square;stroke-width:1.5;"/>
   </g>
   <g id="line2d_98">
    <path clip-path="url(#p81ffdbaf14)" d="M 323.671597 413.513033 
L 330.510694 517.525174 
L 337.349792 499.240921 
L 344.188889 390.075819 
L 351.027986 365.324827 
L 357.867083 331.904424 
L 364.706181 314.223753 
L 371.545278 309.816772 
L 378.384375 306.462182 
L 385.223472 306.496544 
L 392.062569 307.360173 
L 398.901667 307.934759 
L 405.740764 305.49527 
L 412.579861 306.265672 
L 419.418958 307.611912 
L 426.258056 306.194574 
L 433.097153 305.639627 
L 439.93625 305.607024 
L 446.775347 304.872782 
L 453.614444 305.302334 
L 460.453542 304.771963 
L 467.292639 304.434534 
L 474.131736 305.071652 
L 480.970833 303.571829 
L 487.809931 304.504575 
L 494.649028 303.230396 
L 501.488125 305.220485 
L 508.327222 305.412989 
L 515.166319 306.060856 
L 522.005417 302.475518 
L 528.844514 306.293535 
L 535.683611 305.141752 
L 542.522708 307.603679 
L 549.361806 302.91912 
L 556.200903 304.010767 
" style="fill:none;stroke:#2ca02c;stroke-linecap:square;stroke-width:1.5;"/>
   </g>
   <g id="line2d_99">
    <path clip-path="url(#p81ffdbaf14)" d="M 323.671597 502.819496 
L 330.510694 520.135383 
L 337.349792 525.77011 
L 344.188889 482.909148 
L 351.027986 461.093313 
L 357.867083 455.877064 
L 364.706181 433.417882 
L 371.545278 420.445313 
L 378.384375 409.136119 
L 385.223472 414.438632 
L 392.062569 422.173024 
L 398.901667 422.259849 
L 405.740764 424.311879 
L 412.579861 420.023967 
L 419.418958 423.485181 
L 426.258056 425.369741 
L 433.097153 413.604636 
L 439.93625 417.698746 
L 446.775347 420.240603 
L 453.614444 421.794401 
L 460.453542 420.337989 
L 467.292639 418.832474 
L 474.131736 416.447867 
L 480.970833 414.252342 
L 487.809931 419.748475 
L 494.649028 414.250617 
L 501.488125 424.354804 
L 508.327222 423.21672 
L 515.166319 432.515204 
L 522.005417 405.650581 
L 528.844514 434.746672 
L 535.683611 423.451172 
L 542.522708 439.377143 
L 549.361806 415.413233 
L 556.200903 420.760222 
" style="fill:none;stroke:#d62728;stroke-linecap:square;stroke-width:1.5;"/>
   </g>
   <g id="line2d_100">
    <path clip-path="url(#p81ffdbaf14)" d="M 323.671597 484.366635 
L 330.510694 471.244615 
L 337.349792 453.716875 
L 344.188889 412.820015 
L 351.027986 465.346728 
L 357.867083 450.133028 
L 364.706181 448.978537 
L 371.545278 436.030035 
L 378.384375 436.136376 
L 385.223472 419.146998 
L 392.062569 418.487374 
L 398.901667 432.437512 
L 405.740764 383.960602 
L 412.579861 411.990328 
L 419.418958 421.08382 
L 426.258056 392.840753 
L 433.097153 394.702349 
L 439.93625 397.774822 
L 446.775347 396.468011 
L 453.614444 374.076696 
L 460.453542 377.801869 
L 467.292639 366.74212 
L 474.131736 383.545582 
L 480.970833 378.193338 
L 487.809931 381.933927 
L 494.649028 368.165589 
L 501.488125 362.934933 
L 508.327222 377.492243 
L 515.166319 374.46599 
L 522.005417 369.606543 
L 528.844514 370.750062 
L 535.683611 365.057674 
L 542.522708 364.497739 
L 549.361806 366.110834 
L 556.200903 372.067769 
" style="fill:none;stroke:#9467bd;stroke-linecap:square;stroke-width:1.5;"/>
   </g>
   <g id="patch_18">
    <path d="M 316.8325 530.44 
L 316.8325 291.4 
" style="fill:none;stroke:#000000;stroke-linecap:square;stroke-linejoin:miter;stroke-width:0.8;"/>
   </g>
   <g id="patch_19">
    <path d="M 563.04 530.44 
L 563.04 291.4 
" style="fill:none;stroke:#000000;stroke-linecap:square;stroke-linejoin:miter;stroke-width:0.8;"/>
   </g>
   <g id="patch_20">
    <path d="M 316.8325 530.44 
L 563.04 530.44 
" style="fill:none;stroke:#000000;stroke-linecap:square;stroke-linejoin:miter;stroke-width:0.8;"/>
   </g>
   <g id="patch_21">
    <path d="M 316.8325 291.4 
L 563.04 291.4 
" style="fill:none;stroke:#000000;stroke-linecap:square;stroke-linejoin:miter;stroke-width:0.8;"/>
   </g>
   <g id="legend_1">
    <g id="patch_22">
     <path d="M 393.729687 524.44 
L 486.142812 524.44 
Q 488.542812 524.44 488.542812 522.04 
L 488.542812 435.17125 
Q 488.542812 432.77125 486.142812 432.77125 
L 393.729687 432.77125 
Q 391.329687 432.77125 391.329687 435.17125 
L 391.329687 522.04 
Q 391.329687 524.44 393.729687 524.44 
z
" style="fill:#ffffff;opacity:0.8;stroke:#cccccc;stroke-linejoin:miter;"/>
    </g>
    <g id="line2d_101">
     <path d="M 396.129687 442.489375 
L 420.129687 442.489375 
" style="fill:none;stroke:#1f77b4;stroke-linecap:square;stroke-width:1.5;"/>
    </g>
    <g id="line2d_102"/>
    <g id="text_33">
     <!-- Wake -->
     <defs>
      <path d="M 3.328125 72.90625 
L 13.28125 72.90625 
L 28.609375 11.28125 
L 43.890625 72.90625 
L 54.984375 72.90625 
L 70.3125 11.28125 
L 85.59375 72.90625 
L 95.609375 72.90625 
L 77.296875 0 
L 64.890625 0 
L 49.515625 63.28125 
L 33.984375 0 
L 21.578125 0 
z
" id="DejaVuSans-87"/>
      <path d="M 34.28125 27.484375 
Q 23.390625 27.484375 19.1875 25 
Q 14.984375 22.515625 14.984375 16.5 
Q 14.984375 11.71875 18.140625 8.90625 
Q 21.296875 6.109375 26.703125 6.109375 
Q 34.1875 6.109375 38.703125 11.40625 
Q 43.21875 16.703125 43.21875 25.484375 
L 43.21875 27.484375 
z
M 52.203125 31.203125 
L 52.203125 0 
L 43.21875 0 
L 43.21875 8.296875 
Q 40.140625 3.328125 35.546875 0.953125 
Q 30.953125 -1.421875 24.3125 -1.421875 
Q 15.921875 -1.421875 10.953125 3.296875 
Q 6 8.015625 6 15.921875 
Q 6 25.140625 12.171875 29.828125 
Q 18.359375 34.515625 30.609375 34.515625 
L 43.21875 34.515625 
L 43.21875 35.40625 
Q 43.21875 41.609375 39.140625 45 
Q 35.0625 48.390625 27.6875 48.390625 
Q 23 48.390625 18.546875 47.265625 
Q 14.109375 46.140625 10.015625 43.890625 
L 10.015625 52.203125 
Q 14.9375 54.109375 19.578125 55.046875 
Q 24.21875 56 28.609375 56 
Q 40.484375 56 46.34375 49.84375 
Q 52.203125 43.703125 52.203125 31.203125 
z
" id="DejaVuSans-97"/>
      <path d="M 9.078125 75.984375 
L 18.109375 75.984375 
L 18.109375 31.109375 
L 44.921875 54.6875 
L 56.390625 54.6875 
L 27.390625 29.109375 
L 57.625 0 
L 45.90625 0 
L 18.109375 26.703125 
L 18.109375 0 
L 9.078125 0 
z
" id="DejaVuSans-107"/>
     </defs>
     <g transform="translate(429.729688 446.689375)scale(0.12 -0.12)">
      <use xlink:href="#DejaVuSans-87"/>
      <use x="98.783203" xlink:href="#DejaVuSans-97"/>
      <use x="160.0625" xlink:href="#DejaVuSans-107"/>
      <use x="217.925781" xlink:href="#DejaVuSans-101"/>
     </g>
    </g>
    <g id="line2d_103">
     <path d="M 396.129687 460.103125 
L 420.129687 460.103125 
" style="fill:none;stroke:#ff7f0e;stroke-linecap:square;stroke-width:1.5;"/>
    </g>
    <g id="line2d_104"/>
    <g id="text_34">
     <!-- REM -->
     <defs>
      <path d="M 44.390625 34.1875 
Q 47.5625 33.109375 50.5625 29.59375 
Q 53.5625 26.078125 56.59375 19.921875 
L 66.609375 0 
L 56 0 
L 46.6875 18.703125 
Q 43.0625 26.03125 39.671875 28.421875 
Q 36.28125 30.8125 30.421875 30.8125 
L 19.671875 30.8125 
L 19.671875 0 
L 9.8125 0 
L 9.8125 72.90625 
L 32.078125 72.90625 
Q 44.578125 72.90625 50.734375 67.671875 
Q 56.890625 62.453125 56.890625 51.90625 
Q 56.890625 45.015625 53.6875 40.46875 
Q 50.484375 35.9375 44.390625 34.1875 
z
M 19.671875 64.796875 
L 19.671875 38.921875 
L 32.078125 38.921875 
Q 39.203125 38.921875 42.84375 42.21875 
Q 46.484375 45.515625 46.484375 51.90625 
Q 46.484375 58.296875 42.84375 61.546875 
Q 39.203125 64.796875 32.078125 64.796875 
z
" id="DejaVuSans-82"/>
      <path d="M 9.8125 72.90625 
L 55.90625 72.90625 
L 55.90625 64.59375 
L 19.671875 64.59375 
L 19.671875 43.015625 
L 54.390625 43.015625 
L 54.390625 34.71875 
L 19.671875 34.71875 
L 19.671875 8.296875 
L 56.78125 8.296875 
L 56.78125 0 
L 9.8125 0 
z
" id="DejaVuSans-69"/>
      <path d="M 9.8125 72.90625 
L 24.515625 72.90625 
L 43.109375 23.296875 
L 61.8125 72.90625 
L 76.515625 72.90625 
L 76.515625 0 
L 66.890625 0 
L 66.890625 64.015625 
L 48.09375 14.015625 
L 38.1875 14.015625 
L 19.390625 64.015625 
L 19.390625 0 
L 9.8125 0 
z
" id="DejaVuSans-77"/>
     </defs>
     <g transform="translate(429.729688 464.303125)scale(0.12 -0.12)">
      <use xlink:href="#DejaVuSans-82"/>
      <use x="69.482422" xlink:href="#DejaVuSans-69"/>
      <use x="132.666016" xlink:href="#DejaVuSans-77"/>
     </g>
    </g>
    <g id="line2d_105">
     <path d="M 396.129687 477.716875 
L 420.129687 477.716875 
" style="fill:none;stroke:#2ca02c;stroke-linecap:square;stroke-width:1.5;"/>
    </g>
    <g id="line2d_106"/>
    <g id="text_35">
     <!-- Non REM -->
     <defs>
      <path d="M 9.8125 72.90625 
L 23.09375 72.90625 
L 55.421875 11.921875 
L 55.421875 72.90625 
L 64.984375 72.90625 
L 64.984375 0 
L 51.703125 0 
L 19.390625 60.984375 
L 19.390625 0 
L 9.8125 0 
z
" id="DejaVuSans-78"/>
      <path d="M 54.890625 33.015625 
L 54.890625 0 
L 45.90625 0 
L 45.90625 32.71875 
Q 45.90625 40.484375 42.875 44.328125 
Q 39.84375 48.1875 33.796875 48.1875 
Q 26.515625 48.1875 22.3125 43.546875 
Q 18.109375 38.921875 18.109375 30.90625 
L 18.109375 0 
L 9.078125 0 
L 9.078125 54.6875 
L 18.109375 54.6875 
L 18.109375 46.1875 
Q 21.34375 51.125 25.703125 53.5625 
Q 30.078125 56 35.796875 56 
Q 45.21875 56 50.046875 50.171875 
Q 54.890625 44.34375 54.890625 33.015625 
z
" id="DejaVuSans-110"/>
     </defs>
     <g transform="translate(429.729688 481.916875)scale(0.12 -0.12)">
      <use xlink:href="#DejaVuSans-78"/>
      <use x="74.804688" xlink:href="#DejaVuSans-111"/>
      <use x="135.986328" xlink:href="#DejaVuSans-110"/>
      <use x="199.365234" xlink:href="#DejaVuSans-32"/>
      <use x="231.152344" xlink:href="#DejaVuSans-82"/>
      <use x="300.634766" xlink:href="#DejaVuSans-69"/>
      <use x="363.818359" xlink:href="#DejaVuSans-77"/>
     </g>
    </g>
    <g id="line2d_107">
     <path d="M 396.129687 495.330625 
L 420.129687 495.330625 
" style="fill:none;stroke:#d62728;stroke-linecap:square;stroke-width:1.5;"/>
    </g>
    <g id="line2d_108"/>
    <g id="text_36">
     <!-- pre-REM -->
     <defs>
      <path d="M 4.890625 31.390625 
L 31.203125 31.390625 
L 31.203125 23.390625 
L 4.890625 23.390625 
z
" id="DejaVuSans-45"/>
     </defs>
     <g transform="translate(429.729688 499.530625)scale(0.12 -0.12)">
      <use xlink:href="#DejaVuSans-112"/>
      <use x="63.476562" xlink:href="#DejaVuSans-114"/>
      <use x="104.558594" xlink:href="#DejaVuSans-101"/>
      <use x="166.082031" xlink:href="#DejaVuSans-45"/>
      <use x="202.166016" xlink:href="#DejaVuSans-82"/>
      <use x="271.648438" xlink:href="#DejaVuSans-69"/>
      <use x="334.832031" xlink:href="#DejaVuSans-77"/>
     </g>
    </g>
    <g id="line2d_109">
     <path d="M 396.129687 512.944375 
L 420.129687 512.944375 
" style="fill:none;stroke:#9467bd;stroke-linecap:square;stroke-width:1.5;"/>
    </g>
    <g id="line2d_110"/>
    <g id="text_37">
     <!-- Artifact -->
     <defs>
      <path d="M 34.1875 63.1875 
L 20.796875 26.90625 
L 47.609375 26.90625 
z
M 28.609375 72.90625 
L 39.796875 72.90625 
L 67.578125 0 
L 57.328125 0 
L 50.6875 18.703125 
L 17.828125 18.703125 
L 11.1875 0 
L 0.78125 0 
z
" id="DejaVuSans-65"/>
      <path d="M 18.3125 70.21875 
L 18.3125 54.6875 
L 36.8125 54.6875 
L 36.8125 47.703125 
L 18.3125 47.703125 
L 18.3125 18.015625 
Q 18.3125 11.328125 20.140625 9.421875 
Q 21.96875 7.515625 27.59375 7.515625 
L 36.8125 7.515625 
L 36.8125 0 
L 27.59375 0 
Q 17.1875 0 13.234375 3.875 
Q 9.28125 7.765625 9.28125 18.015625 
L 9.28125 47.703125 
L 2.6875 47.703125 
L 2.6875 54.6875 
L 9.28125 54.6875 
L 9.28125 70.21875 
z
" id="DejaVuSans-116"/>
      <path d="M 9.421875 54.6875 
L 18.40625 54.6875 
L 18.40625 0 
L 9.421875 0 
z
M 9.421875 75.984375 
L 18.40625 75.984375 
L 18.40625 64.59375 
L 9.421875 64.59375 
z
" id="DejaVuSans-105"/>
      <path d="M 37.109375 75.984375 
L 37.109375 68.5 
L 28.515625 68.5 
Q 23.6875 68.5 21.796875 66.546875 
Q 19.921875 64.59375 19.921875 59.515625 
L 19.921875 54.6875 
L 34.71875 54.6875 
L 34.71875 47.703125 
L 19.921875 47.703125 
L 19.921875 0 
L 10.890625 0 
L 10.890625 47.703125 
L 2.296875 47.703125 
L 2.296875 54.6875 
L 10.890625 54.6875 
L 10.890625 58.5 
Q 10.890625 67.625 15.140625 71.796875 
Q 19.390625 75.984375 28.609375 75.984375 
z
" id="DejaVuSans-102"/>
     </defs>
     <g transform="translate(429.729688 517.144375)scale(0.12 -0.12)">
      <use xlink:href="#DejaVuSans-65"/>
      <use x="68.408203" xlink:href="#DejaVuSans-114"/>
      <use x="109.521484" xlink:href="#DejaVuSans-116"/>
      <use x="148.730469" xlink:href="#DejaVuSans-105"/>
      <use x="176.513672" xlink:href="#DejaVuSans-102"/>
      <use x="211.71875" xlink:href="#DejaVuSans-97"/>
      <use x="272.998047" xlink:href="#DejaVuSans-99"/>
      <use x="327.978516" xlink:href="#DejaVuSans-116"/>
     </g>
    </g>
   </g>
  </g>
 </g>
 <defs>
  <clipPath id="pdde01d1773">
   <rect height="239.04" width="246.2075" x="53.84" y="17.28"/>
  </clipPath>
  <clipPath id="p7aa5e8505a">
   <rect height="239.04" width="246.2075" x="316.8325" y="17.28"/>
  </clipPath>
  <clipPath id="p2592d8e6a2">
   <rect height="239.04" width="246.2075" x="53.84" y="291.4"/>
  </clipPath>
  <clipPath id="p81ffdbaf14">
   <rect height="239.04" width="246.2075" x="316.8325" y="291.4"/>
  </clipPath>
 </defs>
</svg>
