<?xml version="1.0" encoding="utf-8" standalone="no"?>
<!DOCTYPE svg PUBLIC "-//W3C//DTD SVG 1.1//EN"
  "http://www.w3.org/Graphics/SVG/1.1/DTD/svg11.dtd">
<!-- Created with matplotlib (https://matplotlib.org/) -->
<svg height="432pt" version="1.1" viewBox="0 0 648 432" width="648pt" xmlns="http://www.w3.org/2000/svg" xmlns:xlink="http://www.w3.org/1999/xlink">
 <defs>
  <style type="text/css">
*{stroke-linecap:butt;stroke-linejoin:round;}
  </style>
 </defs>
 <g id="figure_1">
  <g id="patch_1">
   <path d="M 0 432 
L 648 432 
L 648 0 
L 0 0 
z
" style="fill:#ffffff;"/>
  </g>
  <g id="axes_1">
   <g id="patch_2">
    <path d="M 53.84 189.98 
L 236.383333 189.98 
L 236.383333 29.63252 
L 53.84 29.63252 
z
" style="fill:#ffffff;"/>
   </g>
   <g id="matplotlib.axis_1">
    <g id="xtick_1">
     <g id="line2d_1">
      <path clip-path="url(#p476d0cead1)" d="M 53.84 189.98 
L 53.84 29.63252 
" style="fill:none;stroke:#b0b0b0;stroke-linecap:square;stroke-width:0.8;"/>
     </g>
     <g id="line2d_2">
      <defs>
       <path d="M 0 0 
L 0 3.5 
" id="m16ae64c618" style="stroke:#000000;stroke-width:0.8;"/>
      </defs>
      <g>
       <use style="stroke:#000000;stroke-width:0.8;" x="53.84" xlink:href="#m16ae64c618" y="189.98"/>
      </g>
     </g>
    </g>
    <g id="xtick_2">
     <g id="line2d_3">
      <path clip-path="url(#p476d0cead1)" d="M 125.425621 189.98 
L 125.425621 29.63252 
" style="fill:none;stroke:#b0b0b0;stroke-linecap:square;stroke-width:0.8;"/>
     </g>
     <g id="line2d_4">
      <g>
       <use style="stroke:#000000;stroke-width:0.8;" x="125.425621" xlink:href="#m16ae64c618" y="189.98"/>
      </g>
     </g>
    </g>
    <g id="xtick_3">
     <g id="line2d_5">
      <path clip-path="url(#p476d0cead1)" d="M 197.011242 189.98 
L 197.011242 29.63252 
" style="fill:none;stroke:#b0b0b0;stroke-linecap:square;stroke-width:0.8;"/>
     </g>
     <g id="line2d_6">
      <g>
       <use style="stroke:#000000;stroke-width:0.8;" x="197.011242" xlink:href="#m16ae64c618" y="189.98"/>
      </g>
     </g>
    </g>
   </g>
   <g id="matplotlib.axis_2">
    <g id="ytick_1">
     <g id="line2d_7">
      <path clip-path="url(#p476d0cead1)" d="M 53.84 189.98 
L 236.383333 189.98 
" style="fill:none;stroke:#b0b0b0;stroke-linecap:square;stroke-width:0.8;"/>
     </g>
     <g id="line2d_8">
      <defs>
       <path d="M 0 0 
L -3.5 0 
" id="mbce8422c83" style="stroke:#000000;stroke-width:0.8;"/>
      </defs>
      <g>
       <use style="stroke:#000000;stroke-width:0.8;" x="53.84" xlink:href="#mbce8422c83" y="189.98"/>
      </g>
     </g>
     <g id="text_1">
      <!-- 0.0 -->
      <defs>
       <path d="M 31.78125 66.40625 
Q 24.171875 66.40625 20.328125 58.90625 
Q 16.5 51.421875 16.5 36.375 
Q 16.5 21.390625 20.328125 13.890625 
Q 24.171875 6.390625 31.78125 6.390625 
Q 39.453125 6.390625 43.28125 13.890625 
Q 47.125 21.390625 47.125 36.375 
Q 47.125 51.421875 43.28125 58.90625 
Q 39.453125 66.40625 31.78125 66.40625 
z
M 31.78125 74.21875 
Q 44.046875 74.21875 50.515625 64.515625 
Q 56.984375 54.828125 56.984375 36.375 
Q 56.984375 17.96875 50.515625 8.265625 
Q 44.046875 -1.421875 31.78125 -1.421875 
Q 19.53125 -1.421875 13.0625 8.265625 
Q 6.59375 17.96875 6.59375 36.375 
Q 6.59375 54.828125 13.0625 64.515625 
Q 19.53125 74.21875 31.78125 74.21875 
z
" id="DejaVuSans-48"/>
       <path d="M 10.6875 12.40625 
L 21 12.40625 
L 21 0 
L 10.6875 0 
z
" id="DejaVuSans-46"/>
      </defs>
      <g transform="translate(27.75625 194.539063)scale(0.12 -0.12)">
       <use xlink:href="#DejaVuSans-48"/>
       <use x="63.623047" xlink:href="#DejaVuSans-46"/>
       <use x="95.410156" xlink:href="#DejaVuSans-48"/>
      </g>
     </g>
    </g>
    <g id="ytick_2">
     <g id="line2d_9">
      <path clip-path="url(#p476d0cead1)" d="M 53.84 157.910504 
L 236.383333 157.910504 
" style="fill:none;stroke:#b0b0b0;stroke-linecap:square;stroke-width:0.8;"/>
     </g>
     <g id="line2d_10">
      <g>
       <use style="stroke:#000000;stroke-width:0.8;" x="53.84" xlink:href="#mbce8422c83" y="157.910504"/>
      </g>
     </g>
     <g id="text_2">
      <!-- 0.2 -->
      <defs>
       <path d="M 19.1875 8.296875 
L 53.609375 8.296875 
L 53.609375 0 
L 7.328125 0 
L 7.328125 8.296875 
Q 12.9375 14.109375 22.625 23.890625 
Q 32.328125 33.6875 34.8125 36.53125 
Q 39.546875 41.84375 41.421875 45.53125 
Q 43.3125 49.21875 43.3125 52.78125 
Q 43.3125 58.59375 39.234375 62.25 
Q 35.15625 65.921875 28.609375 65.921875 
Q 23.96875 65.921875 18.8125 64.3125 
Q 13.671875 62.703125 7.8125 59.421875 
L 7.8125 69.390625 
Q 13.765625 71.78125 18.9375 73 
Q 24.125 74.21875 28.421875 74.21875 
Q 39.75 74.21875 46.484375 68.546875 
Q 53.21875 62.890625 53.21875 53.421875 
Q 53.21875 48.921875 51.53125 44.890625 
Q 49.859375 40.875 45.40625 35.40625 
Q 44.1875 33.984375 37.640625 27.21875 
Q 31.109375 20.453125 19.1875 8.296875 
z
" id="DejaVuSans-50"/>
      </defs>
      <g transform="translate(27.75625 162.469567)scale(0.12 -0.12)">
       <use xlink:href="#DejaVuSans-48"/>
       <use x="63.623047" xlink:href="#DejaVuSans-46"/>
       <use x="95.410156" xlink:href="#DejaVuSans-50"/>
      </g>
     </g>
    </g>
    <g id="ytick_3">
     <g id="line2d_11">
      <path clip-path="url(#p476d0cead1)" d="M 53.84 125.841008 
L 236.383333 125.841008 
" style="fill:none;stroke:#b0b0b0;stroke-linecap:square;stroke-width:0.8;"/>
     </g>
     <g id="line2d_12">
      <g>
       <use style="stroke:#000000;stroke-width:0.8;" x="53.84" xlink:href="#mbce8422c83" y="125.841008"/>
      </g>
     </g>
     <g id="text_3">
      <!-- 0.4 -->
      <defs>
       <path d="M 37.796875 64.3125 
L 12.890625 25.390625 
L 37.796875 25.390625 
z
M 35.203125 72.90625 
L 47.609375 72.90625 
L 47.609375 25.390625 
L 58.015625 25.390625 
L 58.015625 17.1875 
L 47.609375 17.1875 
L 47.609375 0 
L 37.796875 0 
L 37.796875 17.1875 
L 4.890625 17.1875 
L 4.890625 26.703125 
z
" id="DejaVuSans-52"/>
      </defs>
      <g transform="translate(27.75625 130.400071)scale(0.12 -0.12)">
       <use xlink:href="#DejaVuSans-48"/>
       <use x="63.623047" xlink:href="#DejaVuSans-46"/>
       <use x="95.410156" xlink:href="#DejaVuSans-52"/>
      </g>
     </g>
    </g>
    <g id="ytick_4">
     <g id="line2d_13">
      <path clip-path="url(#p476d0cead1)" d="M 53.84 93.771512 
L 236.383333 93.771512 
" style="fill:none;stroke:#b0b0b0;stroke-linecap:square;stroke-width:0.8;"/>
     </g>
     <g id="line2d_14">
      <g>
       <use style="stroke:#000000;stroke-width:0.8;" x="53.84" xlink:href="#mbce8422c83" y="93.771512"/>
      </g>
     </g>
     <g id="text_4">
      <!-- 0.6 -->
      <defs>
       <path d="M 33.015625 40.375 
Q 26.375 40.375 22.484375 35.828125 
Q 18.609375 31.296875 18.609375 23.390625 
Q 18.609375 15.53125 22.484375 10.953125 
Q 26.375 6.390625 33.015625 6.390625 
Q 39.65625 6.390625 43.53125 10.953125 
Q 47.40625 15.53125 47.40625 23.390625 
Q 47.40625 31.296875 43.53125 35.828125 
Q 39.65625 40.375 33.015625 40.375 
z
M 52.59375 71.296875 
L 52.59375 62.3125 
Q 48.875 64.0625 45.09375 64.984375 
Q 41.3125 65.921875 37.59375 65.921875 
Q 27.828125 65.921875 22.671875 59.328125 
Q 17.53125 52.734375 16.796875 39.40625 
Q 19.671875 43.65625 24.015625 45.921875 
Q 28.375 48.1875 33.59375 48.1875 
Q 44.578125 48.1875 50.953125 41.515625 
Q 57.328125 34.859375 57.328125 23.390625 
Q 57.328125 12.15625 50.6875 5.359375 
Q 44.046875 -1.421875 33.015625 -1.421875 
Q 20.359375 -1.421875 13.671875 8.265625 
Q 6.984375 17.96875 6.984375 36.375 
Q 6.984375 53.65625 15.1875 63.9375 
Q 23.390625 74.21875 37.203125 74.21875 
Q 40.921875 74.21875 44.703125 73.484375 
Q 48.484375 72.75 52.59375 71.296875 
z
" id="DejaVuSans-54"/>
      </defs>
      <g transform="translate(27.75625 98.330575)scale(0.12 -0.12)">
       <use xlink:href="#DejaVuSans-48"/>
       <use x="63.623047" xlink:href="#DejaVuSans-46"/>
       <use x="95.410156" xlink:href="#DejaVuSans-54"/>
      </g>
     </g>
    </g>
    <g id="ytick_5">
     <g id="line2d_15">
      <path clip-path="url(#p476d0cead1)" d="M 53.84 61.702016 
L 236.383333 61.702016 
" style="fill:none;stroke:#b0b0b0;stroke-linecap:square;stroke-width:0.8;"/>
     </g>
     <g id="line2d_16">
      <g>
       <use style="stroke:#000000;stroke-width:0.8;" x="53.84" xlink:href="#mbce8422c83" y="61.702016"/>
      </g>
     </g>
     <g id="text_5">
      <!-- 0.8 -->
      <defs>
       <path d="M 31.78125 34.625 
Q 24.75 34.625 20.71875 30.859375 
Q 16.703125 27.09375 16.703125 20.515625 
Q 16.703125 13.921875 20.71875 10.15625 
Q 24.75 6.390625 31.78125 6.390625 
Q 38.8125 6.390625 42.859375 10.171875 
Q 46.921875 13.96875 46.921875 20.515625 
Q 46.921875 27.09375 42.890625 30.859375 
Q 38.875 34.625 31.78125 34.625 
z
M 21.921875 38.8125 
Q 15.578125 40.375 12.03125 44.71875 
Q 8.5 49.078125 8.5 55.328125 
Q 8.5 64.0625 14.71875 69.140625 
Q 20.953125 74.21875 31.78125 74.21875 
Q 42.671875 74.21875 48.875 69.140625 
Q 55.078125 64.0625 55.078125 55.328125 
Q 55.078125 49.078125 51.53125 44.71875 
Q 48 40.375 41.703125 38.8125 
Q 48.828125 37.15625 52.796875 32.3125 
Q 56.78125 27.484375 56.78125 20.515625 
Q 56.78125 9.90625 50.3125 4.234375 
Q 43.84375 -1.421875 31.78125 -1.421875 
Q 19.734375 -1.421875 13.25 4.234375 
Q 6.78125 9.90625 6.78125 20.515625 
Q 6.78125 27.484375 10.78125 32.3125 
Q 14.796875 37.15625 21.921875 38.8125 
z
M 18.3125 54.390625 
Q 18.3125 48.734375 21.84375 45.5625 
Q 25.390625 42.390625 31.78125 42.390625 
Q 38.140625 42.390625 41.71875 45.5625 
Q 45.3125 48.734375 45.3125 54.390625 
Q 45.3125 60.0625 41.71875 63.234375 
Q 38.140625 66.40625 31.78125 66.40625 
Q 25.390625 66.40625 21.84375 63.234375 
Q 18.3125 60.0625 18.3125 54.390625 
z
" id="DejaVuSans-56"/>
      </defs>
      <g transform="translate(27.75625 66.261079)scale(0.12 -0.12)">
       <use xlink:href="#DejaVuSans-48"/>
       <use x="63.623047" xlink:href="#DejaVuSans-46"/>
       <use x="95.410156" xlink:href="#DejaVuSans-56"/>
      </g>
     </g>
    </g>
    <g id="ytick_6">
     <g id="line2d_17">
      <path clip-path="url(#p476d0cead1)" d="M 53.84 29.63252 
L 236.383333 29.63252 
" style="fill:none;stroke:#b0b0b0;stroke-linecap:square;stroke-width:0.8;"/>
     </g>
     <g id="line2d_18">
      <g>
       <use style="stroke:#000000;stroke-width:0.8;" x="53.84" xlink:href="#mbce8422c83" y="29.63252"/>
      </g>
     </g>
     <g id="text_6">
      <!-- 1.0 -->
      <defs>
       <path d="M 12.40625 8.296875 
L 28.515625 8.296875 
L 28.515625 63.921875 
L 10.984375 60.40625 
L 10.984375 69.390625 
L 28.421875 72.90625 
L 38.28125 72.90625 
L 38.28125 8.296875 
L 54.390625 8.296875 
L 54.390625 0 
L 12.40625 0 
z
" id="DejaVuSans-49"/>
      </defs>
      <g transform="translate(27.75625 34.191583)scale(0.12 -0.12)">
       <use xlink:href="#DejaVuSans-49"/>
       <use x="63.623047" xlink:href="#DejaVuSans-46"/>
       <use x="95.410156" xlink:href="#DejaVuSans-48"/>
      </g>
     </g>
    </g>
    <g id="text_7">
     <!-- F1 score -->
     <defs>
      <path d="M 9.8125 72.90625 
L 51.703125 72.90625 
L 51.703125 64.59375 
L 19.671875 64.59375 
L 19.671875 43.109375 
L 48.578125 43.109375 
L 48.578125 34.8125 
L 19.671875 34.8125 
L 19.671875 0 
L 9.8125 0 
z
" id="DejaVuSans-70"/>
      <path id="DejaVuSans-32"/>
      <path d="M 44.28125 53.078125 
L 44.28125 44.578125 
Q 40.484375 46.53125 36.375 47.5 
Q 32.28125 48.484375 27.875 48.484375 
Q 21.1875 48.484375 17.84375 46.4375 
Q 14.5 44.390625 14.5 40.28125 
Q 14.5 37.15625 16.890625 35.375 
Q 19.28125 33.59375 26.515625 31.984375 
L 29.59375 31.296875 
Q 39.15625 29.25 43.1875 25.515625 
Q 47.21875 21.78125 47.21875 15.09375 
Q 47.21875 7.46875 41.1875 3.015625 
Q 35.15625 -1.421875 24.609375 -1.421875 
Q 20.21875 -1.421875 15.453125 -0.5625 
Q 10.6875 0.296875 5.421875 2 
L 5.421875 11.28125 
Q 10.40625 8.6875 15.234375 7.390625 
Q 20.0625 6.109375 24.8125 6.109375 
Q 31.15625 6.109375 34.5625 8.28125 
Q 37.984375 10.453125 37.984375 14.40625 
Q 37.984375 18.0625 35.515625 20.015625 
Q 33.0625 21.96875 24.703125 23.78125 
L 21.578125 24.515625 
Q 13.234375 26.265625 9.515625 29.90625 
Q 5.8125 33.546875 5.8125 39.890625 
Q 5.8125 47.609375 11.28125 51.796875 
Q 16.75 56 26.8125 56 
Q 31.78125 56 36.171875 55.265625 
Q 40.578125 54.546875 44.28125 53.078125 
z
" id="DejaVuSans-115"/>
      <path d="M 48.78125 52.59375 
L 48.78125 44.1875 
Q 44.96875 46.296875 41.140625 47.34375 
Q 37.3125 48.390625 33.40625 48.390625 
Q 24.65625 48.390625 19.8125 42.84375 
Q 14.984375 37.3125 14.984375 27.296875 
Q 14.984375 17.28125 19.8125 11.734375 
Q 24.65625 6.203125 33.40625 6.203125 
Q 37.3125 6.203125 41.140625 7.25 
Q 44.96875 8.296875 48.78125 10.40625 
L 48.78125 2.09375 
Q 45.015625 0.34375 40.984375 -0.53125 
Q 36.96875 -1.421875 32.421875 -1.421875 
Q 20.0625 -1.421875 12.78125 6.34375 
Q 5.515625 14.109375 5.515625 27.296875 
Q 5.515625 40.671875 12.859375 48.328125 
Q 20.21875 56 33.015625 56 
Q 37.15625 56 41.109375 55.140625 
Q 45.0625 54.296875 48.78125 52.59375 
z
" id="DejaVuSans-99"/>
      <path d="M 30.609375 48.390625 
Q 23.390625 48.390625 19.1875 42.75 
Q 14.984375 37.109375 14.984375 27.296875 
Q 14.984375 17.484375 19.15625 11.84375 
Q 23.34375 6.203125 30.609375 6.203125 
Q 37.796875 6.203125 41.984375 11.859375 
Q 46.1875 17.53125 46.1875 27.296875 
Q 46.1875 37.015625 41.984375 42.703125 
Q 37.796875 48.390625 30.609375 48.390625 
z
M 30.609375 56 
Q 42.328125 56 49.015625 48.375 
Q 55.71875 40.765625 55.71875 27.296875 
Q 55.71875 13.875 49.015625 6.21875 
Q 42.328125 -1.421875 30.609375 -1.421875 
Q 18.84375 -1.421875 12.171875 6.21875 
Q 5.515625 13.875 5.515625 27.296875 
Q 5.515625 40.765625 12.171875 48.375 
Q 18.84375 56 30.609375 56 
z
" id="DejaVuSans-111"/>
      <path d="M 41.109375 46.296875 
Q 39.59375 47.171875 37.8125 47.578125 
Q 36.03125 48 33.890625 48 
Q 26.265625 48 22.1875 43.046875 
Q 18.109375 38.09375 18.109375 28.8125 
L 18.109375 0 
L 9.078125 0 
L 9.078125 54.6875 
L 18.109375 54.6875 
L 18.109375 46.1875 
Q 20.953125 51.171875 25.484375 53.578125 
Q 30.03125 56 36.53125 56 
Q 37.453125 56 38.578125 55.875 
Q 39.703125 55.765625 41.0625 55.515625 
z
" id="DejaVuSans-114"/>
      <path d="M 56.203125 29.59375 
L 56.203125 25.203125 
L 14.890625 25.203125 
Q 15.484375 15.921875 20.484375 11.0625 
Q 25.484375 6.203125 34.421875 6.203125 
Q 39.59375 6.203125 44.453125 7.46875 
Q 49.3125 8.734375 54.109375 11.28125 
L 54.109375 2.78125 
Q 49.265625 0.734375 44.1875 -0.34375 
Q 39.109375 -1.421875 33.890625 -1.421875 
Q 20.796875 -1.421875 13.15625 6.1875 
Q 5.515625 13.8125 5.515625 26.8125 
Q 5.515625 40.234375 12.765625 48.109375 
Q 20.015625 56 32.328125 56 
Q 43.359375 56 49.78125 48.890625 
Q 56.203125 41.796875 56.203125 29.59375 
z
M 47.21875 32.234375 
Q 47.125 39.59375 43.09375 43.984375 
Q 39.0625 48.390625 32.421875 48.390625 
Q 24.90625 48.390625 20.390625 44.140625 
Q 15.875 39.890625 15.1875 32.171875 
z
" id="DejaVuSans-101"/>
     </defs>
     <g transform="translate(21.260625 135.234073)rotate(-90)scale(0.12 -0.12)">
      <use xlink:href="#DejaVuSans-70"/>
      <use x="57.519531" xlink:href="#DejaVuSans-49"/>
      <use x="121.142578" xlink:href="#DejaVuSans-32"/>
      <use x="152.929688" xlink:href="#DejaVuSans-115"/>
      <use x="205.029297" xlink:href="#DejaVuSans-99"/>
      <use x="260.009766" xlink:href="#DejaVuSans-111"/>
      <use x="321.191406" xlink:href="#DejaVuSans-114"/>
      <use x="362.273438" xlink:href="#DejaVuSans-101"/>
     </g>
    </g>
   </g>
   <g id="line2d_19">
    <path clip-path="url(#p476d0cead1)" d="M 57.419281 76.582083 
L 60.998562 54.513014 
L 64.577843 48.292325 
L 68.157124 43.475712 
L 71.736405 40.355464 
L 75.315686 38.609398 
L 78.894967 37.599407 
L 82.474248 36.393095 
L 86.053529 35.542784 
L 89.63281 34.904293 
L 93.212092 34.470415 
L 96.791373 34.175247 
L 100.370654 33.893959 
L 103.949935 33.607228 
L 107.529216 33.367167 
L 111.108497 33.246919 
L 114.687778 32.970009 
L 118.267059 32.726445 
L 121.84634 32.570329 
L 125.425621 32.422617 
L 129.004902 32.303871 
L 132.584183 32.189496 
L 136.163464 32.086088 
L 139.742745 31.929523 
L 143.322026 31.832982 
L 146.901307 31.70413 
L 150.480588 31.595377 
L 154.059869 31.456259 
L 157.63915 31.359359 
L 161.218431 31.29003 
L 164.797712 31.19292 
L 168.376993 31.108369 
L 171.956275 31.023733 
L 175.535556 30.999844 
L 179.114837 30.910913 
L 182.694118 30.867908 
L 186.273399 30.804685 
L 189.85268 30.761132 
L 193.431961 30.714681 
L 197.011242 30.678296 
L 200.590523 30.605276 
L 204.169804 30.587243 
L 207.749085 30.594475 
L 211.328366 30.527885 
L 214.907647 30.523973 
L 218.486928 30.493326 
L 222.066209 30.478047 
L 225.64549 30.437076 
L 229.224771 30.420145 
L 232.804052 30.390168 
" style="fill:none;stroke:#1f77b4;stroke-linecap:square;stroke-width:1.5;"/>
   </g>
   <g id="line2d_20">
    <path clip-path="url(#p476d0cead1)" d="M 57.419281 177.170509 
L 60.998562 121.985094 
L 64.577843 94.433129 
L 68.157124 84.183632 
L 71.736405 72.474286 
L 75.315686 65.718584 
L 78.894967 60.339909 
L 82.474248 56.487598 
L 86.053529 54.196949 
L 89.63281 52.129759 
L 93.212092 50.84687 
L 96.791373 49.481423 
L 100.370654 48.422758 
L 103.949935 47.234087 
L 107.529216 46.545492 
L 111.108497 45.860865 
L 114.687778 44.523936 
L 118.267059 43.497493 
L 121.84634 43.115814 
L 125.425621 42.2737 
L 129.004902 41.967606 
L 132.584183 41.568244 
L 136.163464 40.604231 
L 139.742745 40.344157 
L 143.322026 39.832807 
L 146.901307 39.16795 
L 150.480588 39.040433 
L 154.059869 38.264828 
L 157.63915 38.044219 
L 161.218431 37.673341 
L 164.797712 37.031057 
L 168.376993 36.737232 
L 171.956275 36.212226 
L 175.535556 36.07363 
L 179.114837 35.740544 
L 182.694118 35.541942 
L 186.273399 35.257462 
L 189.85268 34.861991 
L 193.431961 34.616479 
L 197.011242 34.635703 
L 200.590523 34.261613 
L 204.169804 34.273161 
L 207.749085 34.140315 
L 211.328366 33.975318 
L 214.907647 33.610426 
L 218.486928 33.504358 
L 222.066209 33.692985 
L 225.64549 33.325413 
L 229.224771 33.192732 
L 232.804052 33.186607 
" style="fill:none;stroke:#ff7f0e;stroke-linecap:square;stroke-width:1.5;"/>
   </g>
   <g id="line2d_21">
    <path clip-path="url(#p476d0cead1)" d="M 57.419281 99.881655 
L 60.998562 57.028224 
L 64.577843 56.069163 
L 68.157124 51.180646 
L 71.736405 47.103101 
L 75.315686 44.311887 
L 78.894967 43.456308 
L 82.474248 42.013371 
L 86.053529 40.911649 
L 89.63281 39.999421 
L 93.212092 39.393504 
L 96.791373 38.863081 
L 100.370654 38.439443 
L 103.949935 38.029532 
L 107.529216 37.672426 
L 111.108497 37.491575 
L 114.687778 37.074386 
L 118.267059 36.797871 
L 121.84634 36.513847 
L 125.425621 36.210129 
L 129.004902 35.988519 
L 132.584183 35.773091 
L 136.163464 35.545728 
L 139.742745 35.259432 
L 143.322026 35.069203 
L 146.901307 34.753863 
L 150.480588 34.546963 
L 154.059869 34.241041 
L 157.63915 34.054764 
L 161.218431 33.880951 
L 164.797712 33.64198 
L 168.376993 33.471186 
L 171.956275 33.265875 
L 175.535556 33.148748 
L 179.114837 33.025435 
L 182.694118 32.908542 
L 186.273399 32.792053 
L 189.85268 32.652984 
L 193.431961 32.559891 
L 197.011242 32.427953 
L 200.590523 32.257315 
L 204.169804 32.231068 
L 207.749085 32.166027 
L 211.328366 32.123835 
L 214.907647 32.034931 
L 218.486928 31.960922 
L 222.066209 31.940444 
L 225.64549 31.856815 
L 229.224771 31.801876 
L 232.804052 31.714514 
" style="fill:none;stroke:#2ca02c;stroke-linecap:square;stroke-width:1.5;"/>
   </g>
   <g id="line2d_22">
    <path clip-path="url(#p476d0cead1)" d="M 57.419281 182.555949 
L 60.998562 172.976004 
L 64.577843 168.944001 
L 68.157124 167.849967 
L 71.736405 154.313384 
L 75.315686 143.189627 
L 78.894967 136.250512 
L 82.474248 132.253045 
L 86.053529 131.120421 
L 89.63281 128.846003 
L 93.212092 126.652365 
L 96.791373 123.765179 
L 100.370654 122.191061 
L 103.949935 119.989589 
L 107.529216 118.291541 
L 111.108497 117.810068 
L 114.687778 113.303655 
L 118.267059 111.845634 
L 121.84634 108.402095 
L 125.425621 104.14082 
L 129.004902 102.486107 
L 132.584183 99.277595 
L 136.163464 96.084722 
L 139.742745 94.708693 
L 143.322026 91.679516 
L 146.901307 89.054571 
L 150.480588 87.242084 
L 154.059869 83.798431 
L 157.63915 82.062144 
L 161.218431 80.440334 
L 164.797712 77.335454 
L 168.376993 74.788133 
L 171.956275 73.182302 
L 175.535556 70.922276 
L 179.114837 70.33697 
L 182.694118 69.016544 
L 186.273399 67.440613 
L 189.85268 65.885955 
L 193.431961 64.253835 
L 197.011242 63.513218 
L 200.590523 61.434161 
L 204.169804 61.494039 
L 207.749085 59.934501 
L 211.328366 59.904539 
L 214.907647 57.634289 
L 218.486928 57.564639 
L 222.066209 57.287727 
L 225.64549 56.442762 
L 229.224771 55.004409 
L 232.804052 54.881461 
" style="fill:none;stroke:#d62728;stroke-linecap:square;stroke-width:1.5;"/>
   </g>
   <g id="line2d_23">
    <path clip-path="url(#p476d0cead1)" d="M 57.419281 189.394902 
L 60.998562 186.749793 
L 64.577843 182.814387 
L 68.157124 178.799467 
L 71.736405 178.633251 
L 75.315686 175.443618 
L 78.894967 186.755134 
L 82.474248 189.496297 
L 86.053529 189.98 
L 89.63281 188.97626 
L 93.212092 189.98 
L 96.791373 189.471767 
L 100.370654 189.48889 
L 103.949935 189.98 
L 107.529216 189.476554 
L 111.108497 187.978783 
L 114.687778 182.229064 
L 118.267059 160.476064 
L 121.84634 149.793659 
L 125.425621 135.656671 
L 129.004902 133.009484 
L 132.584183 129.596563 
L 136.163464 122.561173 
L 139.742745 119.645764 
L 143.322026 113.640656 
L 146.901307 105.261652 
L 150.480588 105.732567 
L 154.059869 97.876141 
L 157.63915 96.875012 
L 161.218431 91.607313 
L 164.797712 86.405499 
L 168.376993 80.867809 
L 171.956275 76.811984 
L 175.535556 75.860195 
L 179.114837 70.821304 
L 182.694118 71.685916 
L 186.273399 69.218785 
L 189.85268 66.977774 
L 193.431961 61.702016 
L 197.011242 61.29162 
L 200.590523 59.770824 
L 204.169804 61.171454 
L 207.749085 60.237655 
L 211.328366 59.54265 
L 214.907647 56.501557 
L 218.486928 57.606811 
L 222.066209 53.355944 
L 225.64549 53.225497 
L 229.224771 54.389941 
L 232.804052 52.539303 
" style="fill:none;stroke:#9467bd;stroke-linecap:square;stroke-width:1.5;"/>
   </g>
   <g id="patch_3">
    <path d="M 53.84 189.98 
L 53.84 29.63252 
" style="fill:none;stroke:#000000;stroke-linecap:square;stroke-linejoin:miter;stroke-width:0.8;"/>
   </g>
   <g id="patch_4">
    <path d="M 236.383333 189.98 
L 236.383333 29.63252 
" style="fill:none;stroke:#000000;stroke-linecap:square;stroke-linejoin:miter;stroke-width:0.8;"/>
   </g>
   <g id="patch_5">
    <path d="M 53.84 189.98 
L 236.383333 189.98 
" style="fill:none;stroke:#000000;stroke-linecap:square;stroke-linejoin:miter;stroke-width:0.8;"/>
   </g>
   <g id="patch_6">
    <path d="M 53.84 29.63252 
L 236.383333 29.63252 
" style="fill:none;stroke:#000000;stroke-linecap:square;stroke-linejoin:miter;stroke-width:0.8;"/>
   </g>
   <g id="text_8">
    <!-- a) -->
    <defs>
     <path d="M 34.28125 27.484375 
Q 23.390625 27.484375 19.1875 25 
Q 14.984375 22.515625 14.984375 16.5 
Q 14.984375 11.71875 18.140625 8.90625 
Q 21.296875 6.109375 26.703125 6.109375 
Q 34.1875 6.109375 38.703125 11.40625 
Q 43.21875 16.703125 43.21875 25.484375 
L 43.21875 27.484375 
z
M 52.203125 31.203125 
L 52.203125 0 
L 43.21875 0 
L 43.21875 8.296875 
Q 40.140625 3.328125 35.546875 0.953125 
Q 30.953125 -1.421875 24.3125 -1.421875 
Q 15.921875 -1.421875 10.953125 3.296875 
Q 6 8.015625 6 15.921875 
Q 6 25.140625 12.171875 29.828125 
Q 18.359375 34.515625 30.609375 34.515625 
L 43.21875 34.515625 
L 43.21875 35.40625 
Q 43.21875 41.609375 39.140625 45 
Q 35.0625 48.390625 27.6875 48.390625 
Q 23 48.390625 18.546875 47.265625 
Q 14.109375 46.140625 10.015625 43.890625 
L 10.015625 52.203125 
Q 14.9375 54.109375 19.578125 55.046875 
Q 24.21875 56 28.609375 56 
Q 40.484375 56 46.34375 49.84375 
Q 52.203125 43.703125 52.203125 31.203125 
z
" id="DejaVuSans-97"/>
     <path d="M 8.015625 75.875 
L 15.828125 75.875 
Q 23.140625 64.359375 26.78125 53.3125 
Q 30.421875 42.28125 30.421875 31.390625 
Q 30.421875 20.453125 26.78125 9.375 
Q 23.140625 -1.703125 15.828125 -13.1875 
L 8.015625 -13.1875 
Q 14.5 -2 17.703125 9.0625 
Q 20.90625 20.125 20.90625 31.390625 
Q 20.90625 42.671875 17.703125 53.65625 
Q 14.5 64.65625 8.015625 75.875 
z
" id="DejaVuSans-41"/>
    </defs>
    <g transform="translate(139.093854 21.719446)scale(0.12 -0.12)">
     <use xlink:href="#DejaVuSans-97"/>
     <use x="61.279297" xlink:href="#DejaVuSans-41"/>
    </g>
   </g>
  </g>
  <g id="axes_2">
   <g id="patch_7">
    <path d="M 253.168333 189.98 
L 435.711667 189.98 
L 435.711667 29.63252 
L 253.168333 29.63252 
z
" style="fill:#ffffff;"/>
   </g>
   <g id="matplotlib.axis_3">
    <g id="xtick_4">
     <g id="line2d_24">
      <path clip-path="url(#p700da3484f)" d="M 253.168333 189.98 
L 253.168333 29.63252 
" style="fill:none;stroke:#b0b0b0;stroke-linecap:square;stroke-width:0.8;"/>
     </g>
     <g id="line2d_25">
      <g>
       <use style="stroke:#000000;stroke-width:0.8;" x="253.168333" xlink:href="#m16ae64c618" y="189.98"/>
      </g>
     </g>
    </g>
    <g id="xtick_5">
     <g id="line2d_26">
      <path clip-path="url(#p700da3484f)" d="M 324.753954 189.98 
L 324.753954 29.63252 
" style="fill:none;stroke:#b0b0b0;stroke-linecap:square;stroke-width:0.8;"/>
     </g>
     <g id="line2d_27">
      <g>
       <use style="stroke:#000000;stroke-width:0.8;" x="324.753954" xlink:href="#m16ae64c618" y="189.98"/>
      </g>
     </g>
    </g>
    <g id="xtick_6">
     <g id="line2d_28">
      <path clip-path="url(#p700da3484f)" d="M 396.339575 189.98 
L 396.339575 29.63252 
" style="fill:none;stroke:#b0b0b0;stroke-linecap:square;stroke-width:0.8;"/>
     </g>
     <g id="line2d_29">
      <g>
       <use style="stroke:#000000;stroke-width:0.8;" x="396.339575" xlink:href="#m16ae64c618" y="189.98"/>
      </g>
     </g>
    </g>
   </g>
   <g id="matplotlib.axis_4">
    <g id="ytick_7">
     <g id="line2d_30">
      <path clip-path="url(#p700da3484f)" d="M 253.168333 189.98 
L 435.711667 189.98 
" style="fill:none;stroke:#b0b0b0;stroke-linecap:square;stroke-width:0.8;"/>
     </g>
     <g id="line2d_31">
      <g>
       <use style="stroke:#000000;stroke-width:0.8;" x="253.168333" xlink:href="#mbce8422c83" y="189.98"/>
      </g>
     </g>
    </g>
    <g id="ytick_8">
     <g id="line2d_32">
      <path clip-path="url(#p700da3484f)" d="M 253.168333 157.910504 
L 435.711667 157.910504 
" style="fill:none;stroke:#b0b0b0;stroke-linecap:square;stroke-width:0.8;"/>
     </g>
     <g id="line2d_33">
      <g>
       <use style="stroke:#000000;stroke-width:0.8;" x="253.168333" xlink:href="#mbce8422c83" y="157.910504"/>
      </g>
     </g>
    </g>
    <g id="ytick_9">
     <g id="line2d_34">
      <path clip-path="url(#p700da3484f)" d="M 253.168333 125.841008 
L 435.711667 125.841008 
" style="fill:none;stroke:#b0b0b0;stroke-linecap:square;stroke-width:0.8;"/>
     </g>
     <g id="line2d_35">
      <g>
       <use style="stroke:#000000;stroke-width:0.8;" x="253.168333" xlink:href="#mbce8422c83" y="125.841008"/>
      </g>
     </g>
    </g>
    <g id="ytick_10">
     <g id="line2d_36">
      <path clip-path="url(#p700da3484f)" d="M 253.168333 93.771512 
L 435.711667 93.771512 
" style="fill:none;stroke:#b0b0b0;stroke-linecap:square;stroke-width:0.8;"/>
     </g>
     <g id="line2d_37">
      <g>
       <use style="stroke:#000000;stroke-width:0.8;" x="253.168333" xlink:href="#mbce8422c83" y="93.771512"/>
      </g>
     </g>
    </g>
    <g id="ytick_11">
     <g id="line2d_38">
      <path clip-path="url(#p700da3484f)" d="M 253.168333 61.702016 
L 435.711667 61.702016 
" style="fill:none;stroke:#b0b0b0;stroke-linecap:square;stroke-width:0.8;"/>
     </g>
     <g id="line2d_39">
      <g>
       <use style="stroke:#000000;stroke-width:0.8;" x="253.168333" xlink:href="#mbce8422c83" y="61.702016"/>
      </g>
     </g>
    </g>
    <g id="ytick_12">
     <g id="line2d_40">
      <path clip-path="url(#p700da3484f)" d="M 253.168333 29.63252 
L 435.711667 29.63252 
" style="fill:none;stroke:#b0b0b0;stroke-linecap:square;stroke-width:0.8;"/>
     </g>
     <g id="line2d_41">
      <g>
       <use style="stroke:#000000;stroke-width:0.8;" x="253.168333" xlink:href="#mbce8422c83" y="29.63252"/>
      </g>
     </g>
    </g>
   </g>
   <g id="line2d_42">
    <path clip-path="url(#p700da3484f)" d="M 256.747614 116.494444 
L 260.326895 113.70754 
L 263.906176 95.763746 
L 267.485458 66.440942 
L 271.064739 49.252317 
L 274.64402 44.072749 
L 278.223301 42.035801 
L 281.802582 40.039514 
L 285.381863 38.205508 
L 288.961144 37.098411 
L 292.540425 36.482469 
L 296.119706 35.600958 
L 299.698987 34.895563 
L 303.278268 34.691103 
L 306.857549 34.185491 
L 310.43683 33.930914 
L 314.016111 33.774262 
L 317.595392 33.63684 
L 321.174673 33.421792 
L 324.753954 33.217278 
L 328.333235 33.17564 
L 331.912516 33.120107 
L 335.491797 32.991566 
L 339.071078 32.773619 
L 342.650359 32.795917 
L 346.229641 32.630717 
L 349.808922 32.601419 
" style="fill:none;stroke:#1f77b4;stroke-linecap:square;stroke-width:1.5;"/>
   </g>
   <g id="line2d_43">
    <path clip-path="url(#p700da3484f)" d="M 256.747614 155.889938 
L 260.326895 133.257388 
L 263.906176 108.146467 
L 267.485458 76.945612 
L 271.064739 64.833954 
L 274.64402 59.593834 
L 278.223301 55.376574 
L 281.802582 51.528344 
L 285.381863 47.942248 
L 288.961144 45.827878 
L 292.540425 43.089862 
L 296.119706 40.547107 
L 299.698987 38.088576 
L 303.278268 36.447678 
L 306.857549 35.252832 
L 310.43683 34.294286 
L 314.016111 33.532237 
L 317.595392 33.028611 
L 321.174673 32.717013 
L 324.753954 32.299841 
L 328.333235 32.0628 
L 331.912516 31.913837 
L 335.491797 31.712591 
L 339.071078 31.646875 
L 342.650359 31.462649 
L 346.229641 31.294297 
L 349.808922 31.137424 
" style="fill:none;stroke:#ff7f0e;stroke-linecap:square;stroke-width:1.5;"/>
   </g>
   <g id="line2d_44">
    <path clip-path="url(#p700da3484f)" d="M 256.747614 135.432375 
L 260.326895 113.779557 
L 263.906176 103.803927 
L 267.485458 88.312111 
L 271.064739 72.872622 
L 274.64402 65.561134 
L 278.223301 60.233687 
L 281.802582 55.740954 
L 285.381863 53.005227 
L 288.961144 51.04934 
L 292.540425 48.669944 
L 296.119706 46.342175 
L 299.698987 43.824141 
L 303.278268 42.37484 
L 306.857549 40.717981 
L 310.43683 39.446464 
L 314.016111 38.94486 
L 317.595392 38.387828 
L 321.174673 37.578481 
L 324.753954 37.041755 
L 328.333235 36.82121 
L 331.912516 36.505038 
L 335.491797 36.117335 
L 339.071078 35.701184 
L 342.650359 35.588372 
L 346.229641 35.334616 
L 349.808922 35.115883 
" style="fill:none;stroke:#2ca02c;stroke-linecap:square;stroke-width:1.5;"/>
   </g>
   <g id="line2d_45">
    <path clip-path="url(#p700da3484f)" d="M 256.747614 158.133989 
L 260.326895 159.762873 
L 263.906176 164.068883 
L 267.485458 138.44747 
L 271.064739 109.752657 
L 274.64402 94.239675 
L 278.223301 87.616055 
L 281.802582 81.311048 
L 285.381863 75.25528 
L 288.961144 70.406487 
L 292.540425 62.861093 
L 296.119706 57.101342 
L 299.698987 50.800757 
L 303.278268 46.816337 
L 306.857549 43.625224 
L 310.43683 41.088134 
L 314.016111 39.69943 
L 317.595392 38.718488 
L 321.174673 37.379581 
L 324.753954 36.514687 
L 328.333235 36.073091 
L 331.912516 35.580208 
L 335.491797 34.957782 
L 339.071078 34.706205 
L 342.650359 34.175291 
L 346.229641 34.02838 
L 349.808922 33.647993 
" style="fill:none;stroke:#d62728;stroke-linecap:square;stroke-width:1.5;"/>
   </g>
   <g id="line2d_46">
    <path clip-path="url(#p700da3484f)" d="M 256.747614 106.128434 
L 260.326895 88.346138 
L 263.906176 84.618064 
L 267.485458 86.482014 
L 271.064739 83.164349 
L 274.64402 76.025472 
L 278.223301 58.22647 
L 281.802582 41.56713 
L 285.381863 35.218795 
L 288.961144 33.273854 
L 292.540425 32.16469 
L 296.119706 31.510723 
L 299.698987 31.154895 
L 303.278268 30.853432 
L 306.857549 30.629725 
L 310.43683 30.467874 
L 314.016111 30.393214 
L 317.595392 30.295029 
L 321.174673 30.229639 
L 324.753954 30.178429 
L 328.333235 30.136331 
L 331.912516 30.147064 
L 335.491797 30.075503 
L 339.071078 30.070811 
L 342.650359 29.97577 
L 346.229641 29.989766 
L 349.808922 29.985055 
" style="fill:none;stroke:#9467bd;stroke-linecap:square;stroke-width:1.5;"/>
   </g>
   <g id="patch_8">
    <path d="M 253.168333 189.98 
L 253.168333 29.63252 
" style="fill:none;stroke:#000000;stroke-linecap:square;stroke-linejoin:miter;stroke-width:0.8;"/>
   </g>
   <g id="patch_9">
    <path d="M 435.711667 189.98 
L 435.711667 29.63252 
" style="fill:none;stroke:#000000;stroke-linecap:square;stroke-linejoin:miter;stroke-width:0.8;"/>
   </g>
   <g id="patch_10">
    <path d="M 253.168333 189.98 
L 435.711667 189.98 
" style="fill:none;stroke:#000000;stroke-linecap:square;stroke-linejoin:miter;stroke-width:0.8;"/>
   </g>
   <g id="patch_11">
    <path d="M 253.168333 29.63252 
L 435.711667 29.63252 
" style="fill:none;stroke:#000000;stroke-linecap:square;stroke-linejoin:miter;stroke-width:0.8;"/>
   </g>
   <g id="text_9">
    <!-- b) -->
    <defs>
     <path d="M 48.6875 27.296875 
Q 48.6875 37.203125 44.609375 42.84375 
Q 40.53125 48.484375 33.40625 48.484375 
Q 26.265625 48.484375 22.1875 42.84375 
Q 18.109375 37.203125 18.109375 27.296875 
Q 18.109375 17.390625 22.1875 11.75 
Q 26.265625 6.109375 33.40625 6.109375 
Q 40.53125 6.109375 44.609375 11.75 
Q 48.6875 17.390625 48.6875 27.296875 
z
M 18.109375 46.390625 
Q 20.953125 51.265625 25.265625 53.625 
Q 29.59375 56 35.59375 56 
Q 45.5625 56 51.78125 48.09375 
Q 58.015625 40.1875 58.015625 27.296875 
Q 58.015625 14.40625 51.78125 6.484375 
Q 45.5625 -1.421875 35.59375 -1.421875 
Q 29.59375 -1.421875 25.265625 0.953125 
Q 20.953125 3.328125 18.109375 8.203125 
L 18.109375 0 
L 9.078125 0 
L 9.078125 75.984375 
L 18.109375 75.984375 
z
" id="DejaVuSans-98"/>
    </defs>
    <g transform="translate(338.29 21.719446)scale(0.12 -0.12)">
     <use xlink:href="#DejaVuSans-98"/>
     <use x="63.476562" xlink:href="#DejaVuSans-41"/>
    </g>
   </g>
  </g>
  <g id="axes_3">
   <g id="patch_12">
    <path d="M 452.496667 189.98 
L 635.04 189.98 
L 635.04 29.63252 
L 452.496667 29.63252 
z
" style="fill:#ffffff;"/>
   </g>
   <g id="matplotlib.axis_5">
    <g id="xtick_7">
     <g id="line2d_47">
      <path clip-path="url(#p305de7ca3e)" d="M 452.496667 189.98 
L 452.496667 29.63252 
" style="fill:none;stroke:#b0b0b0;stroke-linecap:square;stroke-width:0.8;"/>
     </g>
     <g id="line2d_48">
      <g>
       <use style="stroke:#000000;stroke-width:0.8;" x="452.496667" xlink:href="#m16ae64c618" y="189.98"/>
      </g>
     </g>
    </g>
    <g id="xtick_8">
     <g id="line2d_49">
      <path clip-path="url(#p305de7ca3e)" d="M 524.082288 189.98 
L 524.082288 29.63252 
" style="fill:none;stroke:#b0b0b0;stroke-linecap:square;stroke-width:0.8;"/>
     </g>
     <g id="line2d_50">
      <g>
       <use style="stroke:#000000;stroke-width:0.8;" x="524.082288" xlink:href="#m16ae64c618" y="189.98"/>
      </g>
     </g>
    </g>
    <g id="xtick_9">
     <g id="line2d_51">
      <path clip-path="url(#p305de7ca3e)" d="M 595.667908 189.98 
L 595.667908 29.63252 
" style="fill:none;stroke:#b0b0b0;stroke-linecap:square;stroke-width:0.8;"/>
     </g>
     <g id="line2d_52">
      <g>
       <use style="stroke:#000000;stroke-width:0.8;" x="595.667908" xlink:href="#m16ae64c618" y="189.98"/>
      </g>
     </g>
    </g>
   </g>
   <g id="matplotlib.axis_6">
    <g id="ytick_13">
     <g id="line2d_53">
      <path clip-path="url(#p305de7ca3e)" d="M 452.496667 189.98 
L 635.04 189.98 
" style="fill:none;stroke:#b0b0b0;stroke-linecap:square;stroke-width:0.8;"/>
     </g>
     <g id="line2d_54">
      <g>
       <use style="stroke:#000000;stroke-width:0.8;" x="452.496667" xlink:href="#mbce8422c83" y="189.98"/>
      </g>
     </g>
    </g>
    <g id="ytick_14">
     <g id="line2d_55">
      <path clip-path="url(#p305de7ca3e)" d="M 452.496667 157.910504 
L 635.04 157.910504 
" style="fill:none;stroke:#b0b0b0;stroke-linecap:square;stroke-width:0.8;"/>
     </g>
     <g id="line2d_56">
      <g>
       <use style="stroke:#000000;stroke-width:0.8;" x="452.496667" xlink:href="#mbce8422c83" y="157.910504"/>
      </g>
     </g>
    </g>
    <g id="ytick_15">
     <g id="line2d_57">
      <path clip-path="url(#p305de7ca3e)" d="M 452.496667 125.841008 
L 635.04 125.841008 
" style="fill:none;stroke:#b0b0b0;stroke-linecap:square;stroke-width:0.8;"/>
     </g>
     <g id="line2d_58">
      <g>
       <use style="stroke:#000000;stroke-width:0.8;" x="452.496667" xlink:href="#mbce8422c83" y="125.841008"/>
      </g>
     </g>
    </g>
    <g id="ytick_16">
     <g id="line2d_59">
      <path clip-path="url(#p305de7ca3e)" d="M 452.496667 93.771512 
L 635.04 93.771512 
" style="fill:none;stroke:#b0b0b0;stroke-linecap:square;stroke-width:0.8;"/>
     </g>
     <g id="line2d_60">
      <g>
       <use style="stroke:#000000;stroke-width:0.8;" x="452.496667" xlink:href="#mbce8422c83" y="93.771512"/>
      </g>
     </g>
    </g>
    <g id="ytick_17">
     <g id="line2d_61">
      <path clip-path="url(#p305de7ca3e)" d="M 452.496667 61.702016 
L 635.04 61.702016 
" style="fill:none;stroke:#b0b0b0;stroke-linecap:square;stroke-width:0.8;"/>
     </g>
     <g id="line2d_62">
      <g>
       <use style="stroke:#000000;stroke-width:0.8;" x="452.496667" xlink:href="#mbce8422c83" y="61.702016"/>
      </g>
     </g>
    </g>
    <g id="ytick_18">
     <g id="line2d_63">
      <path clip-path="url(#p305de7ca3e)" d="M 452.496667 29.63252 
L 635.04 29.63252 
" style="fill:none;stroke:#b0b0b0;stroke-linecap:square;stroke-width:0.8;"/>
     </g>
     <g id="line2d_64">
      <g>
       <use style="stroke:#000000;stroke-width:0.8;" x="452.496667" xlink:href="#mbce8422c83" y="29.63252"/>
      </g>
     </g>
    </g>
   </g>
   <g id="line2d_65">
    <path clip-path="url(#p305de7ca3e)" d="M 456.075948 116.379226 
L 459.655229 92.696309 
L 463.23451 85.510716 
L 466.813791 69.21355 
L 470.393072 52.06862 
L 473.972353 46.841204 
L 477.551634 43.040485 
L 481.130915 40.513303 
L 484.710196 38.388315 
L 488.289477 37.532354 
L 491.868758 36.53756 
L 495.448039 35.899729 
L 499.02732 35.352379 
L 502.606601 34.876409 
L 506.185882 34.692679 
L 509.765163 34.404138 
L 513.344444 34.260958 
L 516.923725 34.205355 
L 520.503007 33.973125 
L 524.082288 33.943794 
L 527.661569 33.844084 
L 531.24085 33.658129 
L 534.820131 33.640806 
L 538.399412 33.541478 
L 541.978693 33.637983 
L 545.557974 33.490537 
L 549.137255 33.583423 
L 552.716536 33.416366 
L 556.295817 33.345944 
L 559.875098 33.43954 
L 563.454379 33.332549 
L 567.03366 33.310886 
L 570.612941 33.291757 
L 574.192222 33.135116 
L 577.771503 33.216298 
" style="fill:none;stroke:#1f77b4;stroke-linecap:square;stroke-width:1.5;"/>
   </g>
   <g id="line2d_66">
    <path clip-path="url(#p305de7ca3e)" d="M 456.075948 136.293084 
L 459.655229 101.223157 
L 463.23451 92.753219 
L 466.813791 78.077785 
L 470.393072 64.977458 
L 473.972353 59.810105 
L 477.551634 56.717541 
L 481.130915 54.015369 
L 484.710196 51.602971 
L 488.289477 48.984781 
L 491.868758 47.407374 
L 495.448039 46.184098 
L 499.02732 45.063285 
L 502.606601 44.191537 
L 506.185882 43.730146 
L 509.765163 43.137657 
L 513.344444 42.690324 
L 516.923725 42.309423 
L 520.503007 41.976563 
L 524.082288 41.476535 
L 527.661569 41.237389 
L 531.24085 40.764139 
L 534.820131 40.563549 
L 538.399412 40.009214 
L 541.978693 39.862307 
L 545.557974 39.469616 
L 549.137255 39.215078 
L 552.716536 38.828408 
L 556.295817 38.469914 
L 559.875098 38.314482 
L 563.454379 38.010305 
L 567.03366 37.78881 
L 570.612941 37.477543 
L 574.192222 37.125187 
L 577.771503 36.794894 
" style="fill:none;stroke:#ff7f0e;stroke-linecap:square;stroke-width:1.5;"/>
   </g>
   <g id="line2d_67">
    <path clip-path="url(#p305de7ca3e)" d="M 456.075948 130.620615 
L 459.655229 111.568269 
L 463.23451 102.817359 
L 466.813791 89.426267 
L 470.393072 74.782312 
L 473.972353 67.481568 
L 477.551634 63.316701 
L 481.130915 57.539375 
L 484.710196 53.886642 
L 488.289477 51.950714 
L 491.868758 50.45092 
L 495.448039 49.575267 
L 499.02732 48.439674 
L 502.606601 47.919518 
L 506.185882 47.267684 
L 509.765163 47.055786 
L 513.344444 46.756197 
L 516.923725 46.354882 
L 520.503007 45.859006 
L 524.082288 45.797026 
L 527.661569 45.497809 
L 531.24085 45.196811 
L 534.820131 44.97484 
L 538.399412 44.536621 
L 541.978693 44.404774 
L 545.557974 44.187321 
L 549.137255 44.035703 
L 552.716536 43.472269 
L 556.295817 43.065596 
L 559.875098 42.753184 
L 563.454379 42.297549 
L 567.03366 41.9244 
L 570.612941 41.795275 
L 574.192222 41.461537 
L 577.771503 41.133643 
" style="fill:none;stroke:#2ca02c;stroke-linecap:square;stroke-width:1.5;"/>
   </g>
   <g id="line2d_68">
    <path clip-path="url(#p305de7ca3e)" d="M 456.075948 154.935283 
L 459.655229 144.522025 
L 463.23451 153.74683 
L 466.813791 136.159353 
L 470.393072 108.615053 
L 473.972353 94.795601 
L 477.551634 89.563139 
L 481.130915 85.849843 
L 484.710196 81.208228 
L 488.289477 76.693379 
L 491.868758 73.449939 
L 495.448039 71.206521 
L 499.02732 69.344984 
L 502.606601 68.134066 
L 506.185882 66.530495 
L 509.765163 66.140897 
L 513.344444 65.12733 
L 516.923725 63.860372 
L 520.503007 63.229089 
L 524.082288 62.460389 
L 527.661569 61.60115 
L 531.24085 60.786754 
L 534.820131 60.153836 
L 538.399412 58.77358 
L 541.978693 57.977276 
L 545.557974 57.181583 
L 549.137255 56.203151 
L 552.716536 54.944938 
L 556.295817 53.79511 
L 559.875098 52.916643 
L 563.454379 51.851517 
L 567.03366 50.905469 
L 570.612941 50.425259 
L 574.192222 49.526856 
L 577.771503 48.432114 
" style="fill:none;stroke:#d62728;stroke-linecap:square;stroke-width:1.5;"/>
   </g>
   <g id="line2d_69">
    <path clip-path="url(#p305de7ca3e)" d="M 456.075948 105.524116 
L 459.655229 93.002478 
L 463.23451 89.871642 
L 466.813791 88.667178 
L 470.393072 83.542951 
L 473.972353 78.209285 
L 477.551634 72.975518 
L 481.130915 60.843654 
L 484.710196 49.18267 
L 488.289477 42.226848 
L 491.868758 38.182923 
L 495.448039 36.031828 
L 499.02732 34.211842 
L 502.606601 33.141153 
L 506.185882 32.434528 
L 509.765163 31.817446 
L 513.344444 31.578828 
L 516.923725 31.310403 
L 520.503007 31.133537 
L 524.082288 30.988577 
L 527.661569 30.99203 
L 531.24085 30.807438 
L 534.820131 30.72514 
L 538.399412 30.658502 
L 541.978693 30.658383 
L 545.557974 30.6275 
L 549.137255 30.604021 
L 552.716536 30.53536 
L 556.295817 30.517075 
L 559.875098 30.468482 
L 563.454379 30.496939 
L 567.03366 30.408244 
L 570.612941 30.325829 
L 574.192222 30.358596 
L 577.771503 30.389346 
" style="fill:none;stroke:#9467bd;stroke-linecap:square;stroke-width:1.5;"/>
   </g>
   <g id="patch_13">
    <path d="M 452.496667 189.98 
L 452.496667 29.63252 
" style="fill:none;stroke:#000000;stroke-linecap:square;stroke-linejoin:miter;stroke-width:0.8;"/>
   </g>
   <g id="patch_14">
    <path d="M 635.04 189.98 
L 635.04 29.63252 
" style="fill:none;stroke:#000000;stroke-linecap:square;stroke-linejoin:miter;stroke-width:0.8;"/>
   </g>
   <g id="patch_15">
    <path d="M 452.496667 189.98 
L 635.04 189.98 
" style="fill:none;stroke:#000000;stroke-linecap:square;stroke-linejoin:miter;stroke-width:0.8;"/>
   </g>
   <g id="patch_16">
    <path d="M 452.496667 29.63252 
L 635.04 29.63252 
" style="fill:none;stroke:#000000;stroke-linecap:square;stroke-linejoin:miter;stroke-width:0.8;"/>
   </g>
   <g id="text_10">
    <!-- c) -->
    <g transform="translate(538.128333 21.719446)scale(0.12 -0.12)">
     <use xlink:href="#DejaVuSans-99"/>
     <use x="54.980469" xlink:href="#DejaVuSans-41"/>
    </g>
   </g>
  </g>
  <g id="axes_4">
   <g id="patch_17">
    <path d="M 53.84 386.44 
L 236.383333 386.44 
L 236.383333 226.09252 
L 53.84 226.09252 
z
" style="fill:#ffffff;"/>
   </g>
   <g id="matplotlib.axis_7">
    <g id="xtick_10">
     <g id="line2d_70">
      <path clip-path="url(#p7bdd6ecde8)" d="M 53.84 386.44 
L 53.84 226.09252 
" style="fill:none;stroke:#b0b0b0;stroke-linecap:square;stroke-width:0.8;"/>
     </g>
     <g id="line2d_71">
      <g>
       <use style="stroke:#000000;stroke-width:0.8;" x="53.84" xlink:href="#m16ae64c618" y="386.44"/>
      </g>
     </g>
     <g id="text_11">
      <!-- 0 -->
      <g transform="translate(50.0225 402.558125)scale(0.12 -0.12)">
       <use xlink:href="#DejaVuSans-48"/>
      </g>
     </g>
    </g>
    <g id="xtick_11">
     <g id="line2d_72">
      <path clip-path="url(#p7bdd6ecde8)" d="M 125.425621 386.44 
L 125.425621 226.09252 
" style="fill:none;stroke:#b0b0b0;stroke-linecap:square;stroke-width:0.8;"/>
     </g>
     <g id="line2d_73">
      <g>
       <use style="stroke:#000000;stroke-width:0.8;" x="125.425621" xlink:href="#m16ae64c618" y="386.44"/>
      </g>
     </g>
     <g id="text_12">
      <!-- 20 -->
      <g transform="translate(117.790621 402.558125)scale(0.12 -0.12)">
       <use xlink:href="#DejaVuSans-50"/>
       <use x="63.623047" xlink:href="#DejaVuSans-48"/>
      </g>
     </g>
    </g>
    <g id="xtick_12">
     <g id="line2d_74">
      <path clip-path="url(#p7bdd6ecde8)" d="M 197.011242 386.44 
L 197.011242 226.09252 
" style="fill:none;stroke:#b0b0b0;stroke-linecap:square;stroke-width:0.8;"/>
     </g>
     <g id="line2d_75">
      <g>
       <use style="stroke:#000000;stroke-width:0.8;" x="197.011242" xlink:href="#m16ae64c618" y="386.44"/>
      </g>
     </g>
     <g id="text_13">
      <!-- 40 -->
      <g transform="translate(189.376242 402.558125)scale(0.12 -0.12)">
       <use xlink:href="#DejaVuSans-52"/>
       <use x="63.623047" xlink:href="#DejaVuSans-48"/>
      </g>
     </g>
    </g>
    <g id="text_14">
     <!-- epochs -->
     <defs>
      <path d="M 18.109375 8.203125 
L 18.109375 -20.796875 
L 9.078125 -20.796875 
L 9.078125 54.6875 
L 18.109375 54.6875 
L 18.109375 46.390625 
Q 20.953125 51.265625 25.265625 53.625 
Q 29.59375 56 35.59375 56 
Q 45.5625 56 51.78125 48.09375 
Q 58.015625 40.1875 58.015625 27.296875 
Q 58.015625 14.40625 51.78125 6.484375 
Q 45.5625 -1.421875 35.59375 -1.421875 
Q 29.59375 -1.421875 25.265625 0.953125 
Q 20.953125 3.328125 18.109375 8.203125 
z
M 48.6875 27.296875 
Q 48.6875 37.203125 44.609375 42.84375 
Q 40.53125 48.484375 33.40625 48.484375 
Q 26.265625 48.484375 22.1875 42.84375 
Q 18.109375 37.203125 18.109375 27.296875 
Q 18.109375 17.390625 22.1875 11.75 
Q 26.265625 6.109375 33.40625 6.109375 
Q 40.53125 6.109375 44.609375 11.75 
Q 48.6875 17.390625 48.6875 27.296875 
z
" id="DejaVuSans-112"/>
      <path d="M 54.890625 33.015625 
L 54.890625 0 
L 45.90625 0 
L 45.90625 32.71875 
Q 45.90625 40.484375 42.875 44.328125 
Q 39.84375 48.1875 33.796875 48.1875 
Q 26.515625 48.1875 22.3125 43.546875 
Q 18.109375 38.921875 18.109375 30.90625 
L 18.109375 0 
L 9.078125 0 
L 9.078125 75.984375 
L 18.109375 75.984375 
L 18.109375 46.1875 
Q 21.34375 51.125 25.703125 53.5625 
Q 30.078125 56 35.796875 56 
Q 45.21875 56 50.046875 50.171875 
Q 54.890625 44.34375 54.890625 33.015625 
z
" id="DejaVuSans-104"/>
     </defs>
     <g transform="translate(123.712292 418.171875)scale(0.12 -0.12)">
      <use xlink:href="#DejaVuSans-101"/>
      <use x="61.523438" xlink:href="#DejaVuSans-112"/>
      <use x="125" xlink:href="#DejaVuSans-111"/>
      <use x="186.181641" xlink:href="#DejaVuSans-99"/>
      <use x="241.162109" xlink:href="#DejaVuSans-104"/>
      <use x="304.541016" xlink:href="#DejaVuSans-115"/>
     </g>
    </g>
   </g>
   <g id="matplotlib.axis_8">
    <g id="ytick_19">
     <g id="line2d_76">
      <path clip-path="url(#p7bdd6ecde8)" d="M 53.84 386.44 
L 236.383333 386.44 
" style="fill:none;stroke:#b0b0b0;stroke-linecap:square;stroke-width:0.8;"/>
     </g>
     <g id="line2d_77">
      <g>
       <use style="stroke:#000000;stroke-width:0.8;" x="53.84" xlink:href="#mbce8422c83" y="386.44"/>
      </g>
     </g>
     <g id="text_15">
      <!-- 0.0 -->
      <g transform="translate(27.75625 390.999062)scale(0.12 -0.12)">
       <use xlink:href="#DejaVuSans-48"/>
       <use x="63.623047" xlink:href="#DejaVuSans-46"/>
       <use x="95.410156" xlink:href="#DejaVuSans-48"/>
      </g>
     </g>
    </g>
    <g id="ytick_20">
     <g id="line2d_78">
      <path clip-path="url(#p7bdd6ecde8)" d="M 53.84 354.370504 
L 236.383333 354.370504 
" style="fill:none;stroke:#b0b0b0;stroke-linecap:square;stroke-width:0.8;"/>
     </g>
     <g id="line2d_79">
      <g>
       <use style="stroke:#000000;stroke-width:0.8;" x="53.84" xlink:href="#mbce8422c83" y="354.370504"/>
      </g>
     </g>
     <g id="text_16">
      <!-- 0.2 -->
      <g transform="translate(27.75625 358.929566)scale(0.12 -0.12)">
       <use xlink:href="#DejaVuSans-48"/>
       <use x="63.623047" xlink:href="#DejaVuSans-46"/>
       <use x="95.410156" xlink:href="#DejaVuSans-50"/>
      </g>
     </g>
    </g>
    <g id="ytick_21">
     <g id="line2d_80">
      <path clip-path="url(#p7bdd6ecde8)" d="M 53.84 322.301008 
L 236.383333 322.301008 
" style="fill:none;stroke:#b0b0b0;stroke-linecap:square;stroke-width:0.8;"/>
     </g>
     <g id="line2d_81">
      <g>
       <use style="stroke:#000000;stroke-width:0.8;" x="53.84" xlink:href="#mbce8422c83" y="322.301008"/>
      </g>
     </g>
     <g id="text_17">
      <!-- 0.4 -->
      <g transform="translate(27.75625 326.860071)scale(0.12 -0.12)">
       <use xlink:href="#DejaVuSans-48"/>
       <use x="63.623047" xlink:href="#DejaVuSans-46"/>
       <use x="95.410156" xlink:href="#DejaVuSans-52"/>
      </g>
     </g>
    </g>
    <g id="ytick_22">
     <g id="line2d_82">
      <path clip-path="url(#p7bdd6ecde8)" d="M 53.84 290.231512 
L 236.383333 290.231512 
" style="fill:none;stroke:#b0b0b0;stroke-linecap:square;stroke-width:0.8;"/>
     </g>
     <g id="line2d_83">
      <g>
       <use style="stroke:#000000;stroke-width:0.8;" x="53.84" xlink:href="#mbce8422c83" y="290.231512"/>
      </g>
     </g>
     <g id="text_18">
      <!-- 0.6 -->
      <g transform="translate(27.75625 294.790575)scale(0.12 -0.12)">
       <use xlink:href="#DejaVuSans-48"/>
       <use x="63.623047" xlink:href="#DejaVuSans-46"/>
       <use x="95.410156" xlink:href="#DejaVuSans-54"/>
      </g>
     </g>
    </g>
    <g id="ytick_23">
     <g id="line2d_84">
      <path clip-path="url(#p7bdd6ecde8)" d="M 53.84 258.162016 
L 236.383333 258.162016 
" style="fill:none;stroke:#b0b0b0;stroke-linecap:square;stroke-width:0.8;"/>
     </g>
     <g id="line2d_85">
      <g>
       <use style="stroke:#000000;stroke-width:0.8;" x="53.84" xlink:href="#mbce8422c83" y="258.162016"/>
      </g>
     </g>
     <g id="text_19">
      <!-- 0.8 -->
      <g transform="translate(27.75625 262.721079)scale(0.12 -0.12)">
       <use xlink:href="#DejaVuSans-48"/>
       <use x="63.623047" xlink:href="#DejaVuSans-46"/>
       <use x="95.410156" xlink:href="#DejaVuSans-56"/>
      </g>
     </g>
    </g>
    <g id="ytick_24">
     <g id="line2d_86">
      <path clip-path="url(#p7bdd6ecde8)" d="M 53.84 226.09252 
L 236.383333 226.09252 
" style="fill:none;stroke:#b0b0b0;stroke-linecap:square;stroke-width:0.8;"/>
     </g>
     <g id="line2d_87">
      <g>
       <use style="stroke:#000000;stroke-width:0.8;" x="53.84" xlink:href="#mbce8422c83" y="226.09252"/>
      </g>
     </g>
     <g id="text_20">
      <!-- 1.0 -->
      <g transform="translate(27.75625 230.651583)scale(0.12 -0.12)">
       <use xlink:href="#DejaVuSans-49"/>
       <use x="63.623047" xlink:href="#DejaVuSans-46"/>
       <use x="95.410156" xlink:href="#DejaVuSans-48"/>
      </g>
     </g>
    </g>
    <g id="text_21">
     <!-- F1 score -->
     <g transform="translate(21.260625 331.694073)rotate(-90)scale(0.12 -0.12)">
      <use xlink:href="#DejaVuSans-70"/>
      <use x="57.519531" xlink:href="#DejaVuSans-49"/>
      <use x="121.142578" xlink:href="#DejaVuSans-32"/>
      <use x="152.929688" xlink:href="#DejaVuSans-115"/>
      <use x="205.029297" xlink:href="#DejaVuSans-99"/>
      <use x="260.009766" xlink:href="#DejaVuSans-111"/>
      <use x="321.191406" xlink:href="#DejaVuSans-114"/>
      <use x="362.273438" xlink:href="#DejaVuSans-101"/>
     </g>
    </g>
   </g>
   <g id="line2d_88">
    <path clip-path="url(#p7bdd6ecde8)" d="M 57.419281 252.981364 
L 60.998562 253.605689 
L 64.577843 264.436578 
L 68.157124 249.446189 
L 71.736405 242.602549 
L 75.315686 238.05117 
L 78.894967 238.12372 
L 82.474248 235.220988 
L 86.053529 234.766128 
L 89.63281 233.603635 
L 93.212092 233.44178 
L 96.791373 233.030169 
L 100.370654 231.339452 
L 103.949935 232.102009 
L 107.529216 230.955579 
L 111.108497 230.789824 
L 114.687778 229.676837 
L 118.267059 229.162327 
L 121.84634 229.200181 
L 125.425621 229.175638 
L 129.004902 229.352393 
L 132.584183 229.166482 
L 136.163464 229.071033 
L 139.742745 229.047583 
L 143.322026 229.242439 
L 146.901307 229.23924 
L 150.480588 229.85473 
L 154.059869 229.203656 
L 157.63915 229.134143 
L 161.218431 229.288554 
L 164.797712 229.206665 
L 168.376993 229.081308 
L 171.956275 229.171996 
L 175.535556 229.173036 
L 179.114837 229.024585 
L 182.694118 229.05669 
L 186.273399 229.033638 
L 189.85268 229.057686 
L 193.431961 229.002586 
L 197.011242 229.028583 
L 200.590523 229.149522 
L 204.169804 229.016464 
L 207.749085 229.132751 
L 211.328366 229.113159 
L 214.907647 229.15433 
L 218.486928 229.091834 
L 222.066209 229.09416 
L 225.64549 229.129009 
L 229.224771 229.145225 
L 232.804052 229.155084 
" style="fill:none;stroke:#1f77b4;stroke-linecap:square;stroke-width:1.5;"/>
   </g>
   <g id="line2d_89">
    <path clip-path="url(#p7bdd6ecde8)" d="M 57.419281 346.370109 
L 60.998562 274.910522 
L 64.577843 290.163352 
L 68.157124 276.638137 
L 71.736405 252.326217 
L 75.315686 254.518665 
L 78.894967 251.201097 
L 82.474248 248.412067 
L 86.053529 245.393606 
L 89.63281 250.519227 
L 93.212092 243.981716 
L 96.791373 244.49305 
L 100.370654 243.655293 
L 103.949935 247.073753 
L 107.529216 242.836657 
L 111.108497 243.149416 
L 114.687778 240.75575 
L 118.267059 240.064191 
L 121.84634 239.109074 
L 125.425621 240.686683 
L 129.004902 239.941276 
L 132.584183 240.322694 
L 136.163464 239.951234 
L 139.742745 240.418776 
L 143.322026 240.168825 
L 146.901307 240.058367 
L 150.480588 240.827825 
L 154.059869 240.202095 
L 157.63915 239.815396 
L 161.218431 241.026844 
L 164.797712 240.181106 
L 168.376993 240.212532 
L 171.956275 240.40358 
L 175.535556 240.399306 
L 179.114837 240.127582 
L 182.694118 239.864886 
L 186.273399 240.191067 
L 189.85268 240.806464 
L 193.431961 240.408714 
L 197.011242 240.269488 
L 200.590523 240.371729 
L 204.169804 240.501979 
L 207.749085 239.864886 
L 211.328366 239.978923 
L 214.907647 239.524607 
L 218.486928 240.239924 
L 222.066209 240.176471 
L 225.64549 240.11717 
L 229.224771 240.539361 
L 232.804052 240.199156 
" style="fill:none;stroke:#ff7f0e;stroke-linecap:square;stroke-width:1.5;"/>
   </g>
   <g id="line2d_90">
    <path clip-path="url(#p7bdd6ecde8)" d="M 57.419281 264.125975 
L 60.998562 278.078687 
L 64.577843 320.282735 
L 68.157124 266.28051 
L 71.736405 252.858012 
L 75.315686 245.611957 
L 78.894967 247.325966 
L 82.474248 241.85232 
L 86.053529 241.502417 
L 89.63281 239.187507 
L 93.212092 240.053053 
L 96.791373 238.21014 
L 100.370654 235.561766 
L 103.949935 233.925434 
L 107.529216 233.216216 
L 111.108497 232.850891 
L 114.687778 232.26823 
L 118.267059 232.484298 
L 121.84634 232.539072 
L 125.425621 232.551911 
L 129.004902 232.373059 
L 132.584183 232.02124 
L 136.163464 232.132026 
L 139.742745 232.021787 
L 143.322026 232.290012 
L 146.901307 232.242514 
L 150.480588 232.009297 
L 154.059869 232.106106 
L 157.63915 232.143748 
L 161.218431 232.661402 
L 164.797712 232.266073 
L 168.376993 232.381678 
L 171.956275 232.074022 
L 175.535556 232.302353 
L 179.114837 232.067555 
L 182.694118 232.196518 
L 186.273399 231.987323 
L 189.85268 232.11157 
L 193.431961 232.079965 
L 197.011242 232.056501 
L 200.590523 232.20878 
L 204.169804 232.062563 
L 207.749085 232.364396 
L 211.328366 232.215171 
L 214.907647 232.211668 
L 218.486928 232.104847 
L 222.066209 232.155202 
L 225.64549 232.340243 
L 229.224771 232.161112 
L 232.804052 232.117776 
" style="fill:none;stroke:#2ca02c;stroke-linecap:square;stroke-width:1.5;"/>
   </g>
   <g id="line2d_91">
    <path clip-path="url(#p7bdd6ecde8)" d="M 57.419281 373.863727 
L 60.998562 361.104431 
L 64.577843 377.185315 
L 68.157124 350.260831 
L 71.736405 325.256722 
L 75.315686 320.997831 
L 78.894967 310.425128 
L 82.474248 312.515291 
L 86.053529 305.485542 
L 89.63281 317.679393 
L 93.212092 300.660085 
L 96.791373 303.261247 
L 100.370654 306.609372 
L 103.949935 311.340547 
L 107.529216 310.634486 
L 111.108497 306.457301 
L 114.687778 300.523155 
L 118.267059 306.328652 
L 121.84634 304.638036 
L 125.425621 300.029265 
L 129.004902 305.200435 
L 132.584183 299.645389 
L 136.163464 301.674812 
L 139.742745 298.73613 
L 143.322026 305.242253 
L 146.901307 308.961702 
L 150.480588 303.235229 
L 154.059869 301.362319 
L 157.63915 304.336476 
L 161.218431 306.991562 
L 164.797712 301.577068 
L 168.376993 302.168106 
L 171.956275 300.905806 
L 175.535556 302.480278 
L 179.114837 302.604072 
L 182.694118 303.428744 
L 186.273399 301.999931 
L 189.85268 302.128982 
L 193.431961 304.636941 
L 197.011242 302.432113 
L 200.590523 302.965317 
L 204.169804 304.039212 
L 207.749085 303.608567 
L 211.328366 303.246212 
L 214.907647 302.62987 
L 218.486928 303.955778 
L 222.066209 302.555554 
L 225.64549 305.470209 
L 229.224771 303.694757 
L 232.804052 304.570389 
" style="fill:none;stroke:#d62728;stroke-linecap:square;stroke-width:1.5;"/>
   </g>
   <g id="line2d_92">
    <path clip-path="url(#p7bdd6ecde8)" d="M 57.419281 373.750631 
L 60.998562 382.753851 
L 64.577843 330.149511 
L 68.157124 359.22052 
L 71.736405 332.406057 
L 75.315686 382.789813 
L 78.894967 386.44 
L 82.474248 386.44 
L 86.053529 386.44 
L 89.63281 386.44 
L 93.212092 386.44 
L 96.791373 385.22983 
L 100.370654 385.812417 
L 103.949935 386.44 
L 107.529216 385.81608 
L 111.108497 362.129253 
L 114.687778 288.851143 
L 118.267059 281.69996 
L 121.84634 292.168596 
L 125.425621 288.60086 
L 129.004902 269.308848 
L 132.584183 272.815261 
L 136.163464 263.070274 
L 139.742745 265.055459 
L 143.322026 270.72853 
L 146.901307 267.597734 
L 150.480588 286.755677 
L 154.059869 267.253455 
L 157.63915 267.866125 
L 161.218431 266.773528 
L 164.797712 273.436496 
L 168.376993 274.232161 
L 171.956275 268.00152 
L 175.535556 265.441595 
L 179.114837 264.730467 
L 182.694118 269.579428 
L 186.273399 262.838818 
L 189.85268 268.055797 
L 193.431961 265.186763 
L 197.011242 269.731391 
L 200.590523 268.909631 
L 204.169804 264.863105 
L 207.749085 268.073258 
L 211.328366 269.488546 
L 214.907647 265.355174 
L 218.486928 267.915277 
L 222.066209 264.04917 
L 225.64549 265.982306 
L 229.224771 267.709423 
L 232.804052 268.894437 
" style="fill:none;stroke:#9467bd;stroke-linecap:square;stroke-width:1.5;"/>
   </g>
   <g id="patch_18">
    <path d="M 53.84 386.44 
L 53.84 226.09252 
" style="fill:none;stroke:#000000;stroke-linecap:square;stroke-linejoin:miter;stroke-width:0.8;"/>
   </g>
   <g id="patch_19">
    <path d="M 236.383333 386.44 
L 236.383333 226.09252 
" style="fill:none;stroke:#000000;stroke-linecap:square;stroke-linejoin:miter;stroke-width:0.8;"/>
   </g>
   <g id="patch_20">
    <path d="M 53.84 386.44 
L 236.383333 386.44 
" style="fill:none;stroke:#000000;stroke-linecap:square;stroke-linejoin:miter;stroke-width:0.8;"/>
   </g>
   <g id="patch_21">
    <path d="M 53.84 226.09252 
L 236.383333 226.09252 
" style="fill:none;stroke:#000000;stroke-linecap:square;stroke-linejoin:miter;stroke-width:0.8;"/>
   </g>
   <g id="text_22">
    <!-- d) -->
    <defs>
     <path d="M 45.40625 46.390625 
L 45.40625 75.984375 
L 54.390625 75.984375 
L 54.390625 0 
L 45.40625 0 
L 45.40625 8.203125 
Q 42.578125 3.328125 38.25 0.953125 
Q 33.9375 -1.421875 27.875 -1.421875 
Q 17.96875 -1.421875 11.734375 6.484375 
Q 5.515625 14.40625 5.515625 27.296875 
Q 5.515625 40.1875 11.734375 48.09375 
Q 17.96875 56 27.875 56 
Q 33.9375 56 38.25 53.625 
Q 42.578125 51.265625 45.40625 46.390625 
z
M 14.796875 27.296875 
Q 14.796875 17.390625 18.875 11.75 
Q 22.953125 6.109375 30.078125 6.109375 
Q 37.203125 6.109375 41.296875 11.75 
Q 45.40625 17.390625 45.40625 27.296875 
Q 45.40625 37.203125 41.296875 42.84375 
Q 37.203125 48.484375 30.078125 48.484375 
Q 22.953125 48.484375 18.875 42.84375 
Q 14.796875 37.203125 14.796875 27.296875 
z
" id="DejaVuSans-100"/>
    </defs>
    <g transform="translate(138.961667 218.179446)scale(0.12 -0.12)">
     <use xlink:href="#DejaVuSans-100"/>
     <use x="63.476562" xlink:href="#DejaVuSans-41"/>
    </g>
   </g>
  </g>
  <g id="axes_5">
   <g id="patch_22">
    <path d="M 253.168333 386.44 
L 435.711667 386.44 
L 435.711667 226.09252 
L 253.168333 226.09252 
z
" style="fill:#ffffff;"/>
   </g>
   <g id="matplotlib.axis_9">
    <g id="xtick_13">
     <g id="line2d_93">
      <path clip-path="url(#pd33e120042)" d="M 253.168333 386.44 
L 253.168333 226.09252 
" style="fill:none;stroke:#b0b0b0;stroke-linecap:square;stroke-width:0.8;"/>
     </g>
     <g id="line2d_94">
      <g>
       <use style="stroke:#000000;stroke-width:0.8;" x="253.168333" xlink:href="#m16ae64c618" y="386.44"/>
      </g>
     </g>
     <g id="text_23">
      <!-- 0 -->
      <g transform="translate(249.350833 402.558125)scale(0.12 -0.12)">
       <use xlink:href="#DejaVuSans-48"/>
      </g>
     </g>
    </g>
    <g id="xtick_14">
     <g id="line2d_95">
      <path clip-path="url(#pd33e120042)" d="M 324.753954 386.44 
L 324.753954 226.09252 
" style="fill:none;stroke:#b0b0b0;stroke-linecap:square;stroke-width:0.8;"/>
     </g>
     <g id="line2d_96">
      <g>
       <use style="stroke:#000000;stroke-width:0.8;" x="324.753954" xlink:href="#m16ae64c618" y="386.44"/>
      </g>
     </g>
     <g id="text_24">
      <!-- 20 -->
      <g transform="translate(317.118954 402.558125)scale(0.12 -0.12)">
       <use xlink:href="#DejaVuSans-50"/>
       <use x="63.623047" xlink:href="#DejaVuSans-48"/>
      </g>
     </g>
    </g>
    <g id="xtick_15">
     <g id="line2d_97">
      <path clip-path="url(#pd33e120042)" d="M 396.339575 386.44 
L 396.339575 226.09252 
" style="fill:none;stroke:#b0b0b0;stroke-linecap:square;stroke-width:0.8;"/>
     </g>
     <g id="line2d_98">
      <g>
       <use style="stroke:#000000;stroke-width:0.8;" x="396.339575" xlink:href="#m16ae64c618" y="386.44"/>
      </g>
     </g>
     <g id="text_25">
      <!-- 40 -->
      <g transform="translate(388.704575 402.558125)scale(0.12 -0.12)">
       <use xlink:href="#DejaVuSans-52"/>
       <use x="63.623047" xlink:href="#DejaVuSans-48"/>
      </g>
     </g>
    </g>
    <g id="text_26">
     <!-- epochs -->
     <g transform="translate(323.040625 418.171875)scale(0.12 -0.12)">
      <use xlink:href="#DejaVuSans-101"/>
      <use x="61.523438" xlink:href="#DejaVuSans-112"/>
      <use x="125" xlink:href="#DejaVuSans-111"/>
      <use x="186.181641" xlink:href="#DejaVuSans-99"/>
      <use x="241.162109" xlink:href="#DejaVuSans-104"/>
      <use x="304.541016" xlink:href="#DejaVuSans-115"/>
     </g>
    </g>
   </g>
   <g id="matplotlib.axis_10">
    <g id="ytick_25">
     <g id="line2d_99">
      <path clip-path="url(#pd33e120042)" d="M 253.168333 386.44 
L 435.711667 386.44 
" style="fill:none;stroke:#b0b0b0;stroke-linecap:square;stroke-width:0.8;"/>
     </g>
     <g id="line2d_100">
      <g>
       <use style="stroke:#000000;stroke-width:0.8;" x="253.168333" xlink:href="#mbce8422c83" y="386.44"/>
      </g>
     </g>
    </g>
    <g id="ytick_26">
     <g id="line2d_101">
      <path clip-path="url(#pd33e120042)" d="M 253.168333 354.370504 
L 435.711667 354.370504 
" style="fill:none;stroke:#b0b0b0;stroke-linecap:square;stroke-width:0.8;"/>
     </g>
     <g id="line2d_102">
      <g>
       <use style="stroke:#000000;stroke-width:0.8;" x="253.168333" xlink:href="#mbce8422c83" y="354.370504"/>
      </g>
     </g>
    </g>
    <g id="ytick_27">
     <g id="line2d_103">
      <path clip-path="url(#pd33e120042)" d="M 253.168333 322.301008 
L 435.711667 322.301008 
" style="fill:none;stroke:#b0b0b0;stroke-linecap:square;stroke-width:0.8;"/>
     </g>
     <g id="line2d_104">
      <g>
       <use style="stroke:#000000;stroke-width:0.8;" x="253.168333" xlink:href="#mbce8422c83" y="322.301008"/>
      </g>
     </g>
    </g>
    <g id="ytick_28">
     <g id="line2d_105">
      <path clip-path="url(#pd33e120042)" d="M 253.168333 290.231512 
L 435.711667 290.231512 
" style="fill:none;stroke:#b0b0b0;stroke-linecap:square;stroke-width:0.8;"/>
     </g>
     <g id="line2d_106">
      <g>
       <use style="stroke:#000000;stroke-width:0.8;" x="253.168333" xlink:href="#mbce8422c83" y="290.231512"/>
      </g>
     </g>
    </g>
    <g id="ytick_29">
     <g id="line2d_107">
      <path clip-path="url(#pd33e120042)" d="M 253.168333 258.162016 
L 435.711667 258.162016 
" style="fill:none;stroke:#b0b0b0;stroke-linecap:square;stroke-width:0.8;"/>
     </g>
     <g id="line2d_108">
      <g>
       <use style="stroke:#000000;stroke-width:0.8;" x="253.168333" xlink:href="#mbce8422c83" y="258.162016"/>
      </g>
     </g>
    </g>
    <g id="ytick_30">
     <g id="line2d_109">
      <path clip-path="url(#pd33e120042)" d="M 253.168333 226.09252 
L 435.711667 226.09252 
" style="fill:none;stroke:#b0b0b0;stroke-linecap:square;stroke-width:0.8;"/>
     </g>
     <g id="line2d_110">
      <g>
       <use style="stroke:#000000;stroke-width:0.8;" x="253.168333" xlink:href="#mbce8422c83" y="226.09252"/>
      </g>
     </g>
    </g>
   </g>
   <g id="line2d_111">
    <path clip-path="url(#pd33e120042)" d="M 256.747614 281.026655 
L 260.326895 312.500908 
L 263.906176 251.122385 
L 267.485458 249.291527 
L 271.064739 244.392812 
L 274.64402 239.896546 
L 278.223301 236.987214 
L 281.802582 234.689106 
L 285.381863 232.985633 
L 288.961144 232.579642 
L 292.540425 231.335175 
L 296.119706 231.948758 
L 299.698987 230.707345 
L 303.278268 230.990644 
L 306.857549 230.842692 
L 310.43683 230.430187 
L 314.016111 230.31129 
L 317.595392 230.028852 
L 321.174673 230.150629 
L 324.753954 230.141442 
L 328.333235 229.703593 
L 331.912516 229.752413 
L 335.491797 229.940136 
L 339.071078 229.839537 
L 342.650359 229.782489 
L 346.229641 229.585596 
L 349.808922 229.543473 
" style="fill:none;stroke:#1f77b4;stroke-linecap:square;stroke-width:1.5;"/>
   </g>
   <g id="line2d_112">
    <path clip-path="url(#pd33e120042)" d="M 256.747614 366.367647 
L 260.326895 368.415008 
L 263.906176 344.925403 
L 267.485458 317.566498 
L 271.064739 272.624918 
L 274.64402 253.953213 
L 278.223301 255.602912 
L 281.802582 252.00608 
L 285.381863 249.277705 
L 288.961144 245.257318 
L 292.540425 247.022898 
L 296.119706 243.499175 
L 299.698987 245.069108 
L 303.278268 243.578208 
L 306.857549 245.312356 
L 310.43683 242.953291 
L 314.016111 242.984087 
L 317.595392 242.879801 
L 321.174673 241.79109 
L 324.753954 241.821344 
L 328.333235 242.093355 
L 331.912516 241.89967 
L 335.491797 242.967996 
L 339.071078 241.792177 
L 342.650359 241.696702 
L 346.229641 241.641552 
L 349.808922 240.556934 
" style="fill:none;stroke:#ff7f0e;stroke-linecap:square;stroke-width:1.5;"/>
   </g>
   <g id="line2d_113">
    <path clip-path="url(#pd33e120042)" d="M 256.747614 355.595669 
L 260.326895 378.270721 
L 263.906176 302.068266 
L 267.485458 297.813512 
L 271.064739 272.16147 
L 274.64402 263.863391 
L 278.223301 245.890288 
L 281.802582 242.813107 
L 285.381863 240.290728 
L 288.961144 239.709521 
L 292.540425 238.757226 
L 296.119706 236.659186 
L 299.698987 235.516454 
L 303.278268 235.232433 
L 306.857549 235.136415 
L 310.43683 234.693028 
L 314.016111 233.996631 
L 317.595392 234.811566 
L 321.174673 234.032861 
L 324.753954 233.872413 
L 328.333235 233.731993 
L 331.912516 233.465098 
L 335.491797 233.776644 
L 339.071078 233.217993 
L 342.650359 233.969741 
L 346.229641 233.425558 
L 349.808922 233.173282 
" style="fill:none;stroke:#2ca02c;stroke-linecap:square;stroke-width:1.5;"/>
   </g>
   <g id="line2d_114">
    <path clip-path="url(#pd33e120042)" d="M 256.747614 382.411609 
L 260.326895 386.44 
L 263.906176 385.528071 
L 267.485458 376.872966 
L 271.064739 347.301422 
L 274.64402 349.111351 
L 278.223301 338.842938 
L 281.802582 327.358949 
L 285.381863 330.288578 
L 288.961144 329.051285 
L 292.540425 325.857229 
L 296.119706 315.549535 
L 299.698987 312.837878 
L 303.278268 313.063263 
L 306.857549 313.883158 
L 310.43683 307.256059 
L 314.016111 309.592245 
L 317.595392 313.700116 
L 321.174673 307.422834 
L 324.753954 307.408879 
L 328.333235 308.770317 
L 331.912516 306.634875 
L 335.491797 306.543678 
L 339.071078 304.318113 
L 342.650359 310.61895 
L 346.229641 308.92422 
L 349.808922 306.985952 
" style="fill:none;stroke:#d62728;stroke-linecap:square;stroke-width:1.5;"/>
   </g>
   <g id="line2d_115">
    <path clip-path="url(#pd33e120042)" d="M 256.747614 366.853774 
L 260.326895 336.785948 
L 263.906176 335.622344 
L 267.485458 337.170944 
L 271.064739 357.59038 
L 274.64402 343.674936 
L 278.223301 341.839447 
L 281.802582 323.066768 
L 285.381863 309.64708 
L 288.961144 313.753155 
L 292.540425 292.301772 
L 296.119706 306.021579 
L 299.698987 283.533733 
L 303.278268 292.668404 
L 306.857549 287.907039 
L 310.43683 278.345949 
L 314.016111 277.754626 
L 317.595392 277.556199 
L 321.174673 273.479555 
L 324.753954 278.19953 
L 328.333235 272.695975 
L 331.912516 268.568674 
L 335.491797 271.271859 
L 339.071078 273.283799 
L 342.650359 267.742944 
L 346.229641 267.922297 
L 349.808922 271.552529 
" style="fill:none;stroke:#9467bd;stroke-linecap:square;stroke-width:1.5;"/>
   </g>
   <g id="patch_23">
    <path d="M 253.168333 386.44 
L 253.168333 226.09252 
" style="fill:none;stroke:#000000;stroke-linecap:square;stroke-linejoin:miter;stroke-width:0.8;"/>
   </g>
   <g id="patch_24">
    <path d="M 435.711667 386.44 
L 435.711667 226.09252 
" style="fill:none;stroke:#000000;stroke-linecap:square;stroke-linejoin:miter;stroke-width:0.8;"/>
   </g>
   <g id="patch_25">
    <path d="M 253.168333 386.44 
L 435.711667 386.44 
" style="fill:none;stroke:#000000;stroke-linecap:square;stroke-linejoin:miter;stroke-width:0.8;"/>
   </g>
   <g id="patch_26">
    <path d="M 253.168333 226.09252 
L 435.711667 226.09252 
" style="fill:none;stroke:#000000;stroke-linecap:square;stroke-linejoin:miter;stroke-width:0.8;"/>
   </g>
   <g id="text_27">
    <!-- e) -->
    <g transform="translate(338.407188 218.179446)scale(0.12 -0.12)">
     <use xlink:href="#DejaVuSans-101"/>
     <use x="61.523438" xlink:href="#DejaVuSans-41"/>
    </g>
   </g>
  </g>
  <g id="axes_6">
   <g id="patch_27">
    <path d="M 452.496667 386.44 
L 635.04 386.44 
L 635.04 226.09252 
L 452.496667 226.09252 
z
" style="fill:#ffffff;"/>
   </g>
   <g id="matplotlib.axis_11">
    <g id="xtick_16">
     <g id="line2d_116">
      <path clip-path="url(#p6d2648bd84)" d="M 452.496667 386.44 
L 452.496667 226.09252 
" style="fill:none;stroke:#b0b0b0;stroke-linecap:square;stroke-width:0.8;"/>
     </g>
     <g id="line2d_117">
      <g>
       <use style="stroke:#000000;stroke-width:0.8;" x="452.496667" xlink:href="#m16ae64c618" y="386.44"/>
      </g>
     </g>
     <g id="text_28">
      <!-- 0 -->
      <g transform="translate(448.679167 402.558125)scale(0.12 -0.12)">
       <use xlink:href="#DejaVuSans-48"/>
      </g>
     </g>
    </g>
    <g id="xtick_17">
     <g id="line2d_118">
      <path clip-path="url(#p6d2648bd84)" d="M 524.082288 386.44 
L 524.082288 226.09252 
" style="fill:none;stroke:#b0b0b0;stroke-linecap:square;stroke-width:0.8;"/>
     </g>
     <g id="line2d_119">
      <g>
       <use style="stroke:#000000;stroke-width:0.8;" x="524.082288" xlink:href="#m16ae64c618" y="386.44"/>
      </g>
     </g>
     <g id="text_29">
      <!-- 20 -->
      <g transform="translate(516.447288 402.558125)scale(0.12 -0.12)">
       <use xlink:href="#DejaVuSans-50"/>
       <use x="63.623047" xlink:href="#DejaVuSans-48"/>
      </g>
     </g>
    </g>
    <g id="xtick_18">
     <g id="line2d_120">
      <path clip-path="url(#p6d2648bd84)" d="M 595.667908 386.44 
L 595.667908 226.09252 
" style="fill:none;stroke:#b0b0b0;stroke-linecap:square;stroke-width:0.8;"/>
     </g>
     <g id="line2d_121">
      <g>
       <use style="stroke:#000000;stroke-width:0.8;" x="595.667908" xlink:href="#m16ae64c618" y="386.44"/>
      </g>
     </g>
     <g id="text_30">
      <!-- 40 -->
      <g transform="translate(588.032908 402.558125)scale(0.12 -0.12)">
       <use xlink:href="#DejaVuSans-52"/>
       <use x="63.623047" xlink:href="#DejaVuSans-48"/>
      </g>
     </g>
    </g>
    <g id="text_31">
     <!-- epochs -->
     <g transform="translate(522.368958 418.171875)scale(0.12 -0.12)">
      <use xlink:href="#DejaVuSans-101"/>
      <use x="61.523438" xlink:href="#DejaVuSans-112"/>
      <use x="125" xlink:href="#DejaVuSans-111"/>
      <use x="186.181641" xlink:href="#DejaVuSans-99"/>
      <use x="241.162109" xlink:href="#DejaVuSans-104"/>
      <use x="304.541016" xlink:href="#DejaVuSans-115"/>
     </g>
    </g>
   </g>
   <g id="matplotlib.axis_12">
    <g id="ytick_31">
     <g id="line2d_122">
      <path clip-path="url(#p6d2648bd84)" d="M 452.496667 386.44 
L 635.04 386.44 
" style="fill:none;stroke:#b0b0b0;stroke-linecap:square;stroke-width:0.8;"/>
     </g>
     <g id="line2d_123">
      <g>
       <use style="stroke:#000000;stroke-width:0.8;" x="452.496667" xlink:href="#mbce8422c83" y="386.44"/>
      </g>
     </g>
    </g>
    <g id="ytick_32">
     <g id="line2d_124">
      <path clip-path="url(#p6d2648bd84)" d="M 452.496667 354.370504 
L 635.04 354.370504 
" style="fill:none;stroke:#b0b0b0;stroke-linecap:square;stroke-width:0.8;"/>
     </g>
     <g id="line2d_125">
      <g>
       <use style="stroke:#000000;stroke-width:0.8;" x="452.496667" xlink:href="#mbce8422c83" y="354.370504"/>
      </g>
     </g>
    </g>
    <g id="ytick_33">
     <g id="line2d_126">
      <path clip-path="url(#p6d2648bd84)" d="M 452.496667 322.301008 
L 635.04 322.301008 
" style="fill:none;stroke:#b0b0b0;stroke-linecap:square;stroke-width:0.8;"/>
     </g>
     <g id="line2d_127">
      <g>
       <use style="stroke:#000000;stroke-width:0.8;" x="452.496667" xlink:href="#mbce8422c83" y="322.301008"/>
      </g>
     </g>
    </g>
    <g id="ytick_34">
     <g id="line2d_128">
      <path clip-path="url(#p6d2648bd84)" d="M 452.496667 290.231512 
L 635.04 290.231512 
" style="fill:none;stroke:#b0b0b0;stroke-linecap:square;stroke-width:0.8;"/>
     </g>
     <g id="line2d_129">
      <g>
       <use style="stroke:#000000;stroke-width:0.8;" x="452.496667" xlink:href="#mbce8422c83" y="290.231512"/>
      </g>
     </g>
    </g>
    <g id="ytick_35">
     <g id="line2d_130">
      <path clip-path="url(#p6d2648bd84)" d="M 452.496667 258.162016 
L 635.04 258.162016 
" style="fill:none;stroke:#b0b0b0;stroke-linecap:square;stroke-width:0.8;"/>
     </g>
     <g id="line2d_131">
      <g>
       <use style="stroke:#000000;stroke-width:0.8;" x="452.496667" xlink:href="#mbce8422c83" y="258.162016"/>
      </g>
     </g>
    </g>
    <g id="ytick_36">
     <g id="line2d_132">
      <path clip-path="url(#p6d2648bd84)" d="M 452.496667 226.09252 
L 635.04 226.09252 
" style="fill:none;stroke:#b0b0b0;stroke-linecap:square;stroke-width:0.8;"/>
     </g>
     <g id="line2d_133">
      <g>
       <use style="stroke:#000000;stroke-width:0.8;" x="452.496667" xlink:href="#mbce8422c83" y="226.09252"/>
      </g>
     </g>
    </g>
   </g>
   <g id="line2d_134">
    <path clip-path="url(#p6d2648bd84)" d="M 456.075948 258.384408 
L 459.655229 272.072406 
L 463.23451 270.981055 
L 466.813791 250.801788 
L 470.393072 247.010333 
L 473.972353 238.286432 
L 477.551634 234.724109 
L 481.130915 233.814492 
L 484.710196 232.646886 
L 488.289477 231.661937 
L 491.868758 231.399589 
L 495.448039 232.324299 
L 499.02732 230.980291 
L 502.606601 230.750413 
L 506.185882 230.905252 
L 509.765163 230.128325 
L 513.344444 230.755185 
L 516.923725 230.479098 
L 520.503007 230.551844 
L 524.082288 230.016361 
L 527.661569 229.744785 
L 531.24085 229.811613 
L 534.820131 229.932502 
L 538.399412 229.721679 
L 541.978693 229.735102 
L 545.557974 229.74052 
L 549.137255 229.564444 
L 552.716536 229.810231 
L 556.295817 229.550889 
L 559.875098 229.571437 
L 563.454379 229.661219 
L 567.03366 229.66285 
L 570.612941 229.467091 
L 574.192222 229.466582 
L 577.771503 229.607047 
" style="fill:none;stroke:#1f77b4;stroke-linecap:square;stroke-width:1.5;"/>
   </g>
   <g id="line2d_135">
    <path clip-path="url(#p6d2648bd84)" d="M 456.075948 299.003885 
L 459.655229 282.108512 
L 463.23451 275.873359 
L 466.813791 255.163846 
L 470.393072 251.977559 
L 473.972353 249.57073 
L 477.551634 250.074287 
L 481.130915 247.217952 
L 484.710196 244.521081 
L 488.289477 245.014751 
L 491.868758 244.734671 
L 495.448039 246.147472 
L 499.02732 249.53789 
L 502.606601 242.645333 
L 506.185882 242.477703 
L 509.765163 243.458895 
L 513.344444 242.788204 
L 516.923725 243.655122 
L 520.503007 244.741828 
L 524.082288 247.440022 
L 527.661569 243.041845 
L 531.24085 244.424129 
L 534.820131 242.9679 
L 538.399412 243.186342 
L 541.978693 242.455785 
L 545.557974 242.190397 
L 549.137255 242.314444 
L 552.716536 242.149008 
L 556.295817 242.316343 
L 559.875098 242.290203 
L 563.454379 242.524319 
L 567.03366 242.373011 
L 570.612941 242.612047 
L 574.192222 241.861362 
L 577.771503 242.91044 
" style="fill:none;stroke:#ff7f0e;stroke-linecap:square;stroke-width:1.5;"/>
   </g>
   <g id="line2d_136">
    <path clip-path="url(#p6d2648bd84)" d="M 456.075948 308.00566 
L 459.655229 377.776765 
L 463.23451 365.51173 
L 466.813791 292.284031 
L 470.393072 275.681124 
L 473.972353 253.262794 
L 477.551634 241.402641 
L 481.130915 238.446448 
L 484.710196 236.196197 
L 488.289477 236.219247 
L 491.868758 236.798567 
L 495.448039 237.183998 
L 499.02732 235.547595 
L 502.606601 236.064378 
L 506.185882 236.967433 
L 509.765163 236.016686 
L 513.344444 235.644429 
L 516.923725 235.622559 
L 520.503007 235.130031 
L 524.082288 235.418174 
L 527.661569 235.062402 
L 531.24085 234.836056 
L 534.820131 235.263433 
L 538.399412 234.257355 
L 541.978693 234.883038 
L 545.557974 234.028322 
L 549.137255 235.363269 
L 552.716536 235.492401 
L 556.295817 235.926988 
L 559.875098 233.521952 
L 563.454379 236.083069 
L 567.03366 235.310456 
L 570.612941 236.96191 
L 574.192222 233.819519 
L 577.771503 234.551793 
" style="fill:none;stroke:#2ca02c;stroke-linecap:square;stroke-width:1.5;"/>
   </g>
   <g id="line2d_137">
    <path clip-path="url(#p6d2648bd84)" d="M 456.075948 367.91223 
L 459.655229 379.527687 
L 463.23451 383.307448 
L 466.813791 354.556414 
L 470.393072 339.922403 
L 473.972353 336.423355 
L 477.551634 321.357788 
L 481.130915 312.655818 
L 484.710196 305.069637 
L 488.289477 308.626551 
L 491.868758 313.814762 
L 495.448039 313.873004 
L 499.02732 315.249501 
L 502.606601 312.37318 
L 506.185882 314.694954 
L 509.765163 315.959113 
L 513.344444 308.067108 
L 516.923725 310.813427 
L 520.503007 312.518499 
L 524.082288 313.560783 
L 527.661569 312.583825 
L 531.24085 311.573929 
L 534.820131 309.97434 
L 538.399412 308.501587 
L 541.978693 312.188381 
L 545.557974 308.50043 
L 549.137255 315.278296 
L 552.716536 314.514871 
L 556.295817 320.752273 
L 559.875098 302.731546 
L 563.454379 322.249137 
L 567.03366 314.672141 
L 570.612941 325.355246 
L 574.192222 309.28031 
L 577.771503 312.867058 
" style="fill:none;stroke:#d62728;stroke-linecap:square;stroke-width:1.5;"/>
   </g>
   <g id="line2d_138">
    <path clip-path="url(#p6d2648bd84)" d="M 456.075948 355.534093 
L 459.655229 346.731872 
L 463.23451 334.974305 
L 466.813791 307.540786 
L 470.393072 342.775583 
L 473.972353 332.570268 
L 477.551634 331.795838 
L 481.130915 323.110014 
L 484.710196 323.181347 
L 488.289477 311.784911 
L 491.868758 311.342437 
L 495.448039 320.700158 
L 499.02732 288.181958 
L 502.606601 306.984234 
L 506.185882 313.084127 
L 509.765163 294.138743 
L 513.344444 295.387497 
L 516.923725 297.448505 
L 520.503007 296.571899 
L 524.082288 281.551857 
L 527.661569 284.050694 
L 531.24085 276.63184 
L 534.820131 287.903564 
L 538.399412 284.313291 
L 541.978693 286.822469 
L 545.557974 277.5867 
L 549.137255 274.077988 
L 552.716536 283.842998 
L 556.295817 281.812995 
L 559.875098 278.553289 
L 563.454379 279.320358 
L 567.03366 275.501918 
L 570.612941 275.126315 
L 574.192222 276.208375 
L 577.771503 280.204273 
" style="fill:none;stroke:#9467bd;stroke-linecap:square;stroke-width:1.5;"/>
   </g>
   <g id="patch_28">
    <path d="M 452.496667 386.44 
L 452.496667 226.09252 
" style="fill:none;stroke:#000000;stroke-linecap:square;stroke-linejoin:miter;stroke-width:0.8;"/>
   </g>
   <g id="patch_29">
    <path d="M 635.04 386.44 
L 635.04 226.09252 
" style="fill:none;stroke:#000000;stroke-linecap:square;stroke-linejoin:miter;stroke-width:0.8;"/>
   </g>
   <g id="patch_30">
    <path d="M 452.496667 386.44 
L 635.04 386.44 
" style="fill:none;stroke:#000000;stroke-linecap:square;stroke-linejoin:miter;stroke-width:0.8;"/>
   </g>
   <g id="patch_31">
    <path d="M 452.496667 226.09252 
L 635.04 226.09252 
" style="fill:none;stroke:#000000;stroke-linecap:square;stroke-linejoin:miter;stroke-width:0.8;"/>
   </g>
   <g id="text_32">
    <!-- f) -->
    <defs>
     <path d="M 37.109375 75.984375 
L 37.109375 68.5 
L 28.515625 68.5 
Q 23.6875 68.5 21.796875 66.546875 
Q 19.921875 64.59375 19.921875 59.515625 
L 19.921875 54.6875 
L 34.71875 54.6875 
L 34.71875 47.703125 
L 19.921875 47.703125 
L 19.921875 0 
L 10.890625 0 
L 10.890625 47.703125 
L 2.296875 47.703125 
L 2.296875 54.6875 
L 10.890625 54.6875 
L 10.890625 58.5 
Q 10.890625 67.625 15.140625 71.796875 
Q 19.390625 75.984375 28.609375 75.984375 
z
" id="DejaVuSans-102"/>
    </defs>
    <g transform="translate(539.315208 218.179446)scale(0.12 -0.12)">
     <use xlink:href="#DejaVuSans-102"/>
     <use x="35.205078" xlink:href="#DejaVuSans-41"/>
    </g>
   </g>
   <g id="legend_1">
    <g id="patch_32">
     <path d="M 537.041167 186.00565 
L 625.976167 186.00565 
Q 628.376167 186.00565 628.376167 183.60565 
L 628.376167 96.7369 
Q 628.376167 94.3369 625.976167 94.3369 
L 537.041167 94.3369 
Q 534.641167 94.3369 534.641167 96.7369 
L 534.641167 183.60565 
Q 534.641167 186.00565 537.041167 186.00565 
z
" style="fill:#ffffff;opacity:0.8;stroke:#cccccc;stroke-linejoin:miter;"/>
    </g>
    <g id="line2d_139">
     <path d="M 539.441167 104.055025 
L 563.441167 104.055025 
" style="fill:none;stroke:#1f77b4;stroke-linecap:square;stroke-width:1.5;"/>
    </g>
    <g id="line2d_140"/>
    <g id="text_33">
     <!-- Wake -->
     <defs>
      <path d="M 3.328125 72.90625 
L 13.28125 72.90625 
L 28.609375 11.28125 
L 43.890625 72.90625 
L 54.984375 72.90625 
L 70.3125 11.28125 
L 85.59375 72.90625 
L 95.609375 72.90625 
L 77.296875 0 
L 64.890625 0 
L 49.515625 63.28125 
L 33.984375 0 
L 21.578125 0 
z
" id="DejaVuSans-87"/>
      <path d="M 9.078125 75.984375 
L 18.109375 75.984375 
L 18.109375 31.109375 
L 44.921875 54.6875 
L 56.390625 54.6875 
L 27.390625 29.109375 
L 57.625 0 
L 45.90625 0 
L 18.109375 26.703125 
L 18.109375 0 
L 9.078125 0 
z
" id="DejaVuSans-107"/>
     </defs>
     <g transform="translate(573.041167 108.255025)scale(0.12 -0.12)">
      <use xlink:href="#DejaVuSans-87"/>
      <use x="98.783203" xlink:href="#DejaVuSans-97"/>
      <use x="160.0625" xlink:href="#DejaVuSans-107"/>
      <use x="217.925781" xlink:href="#DejaVuSans-101"/>
     </g>
    </g>
    <g id="line2d_141">
     <path d="M 539.441167 121.668775 
L 563.441167 121.668775 
" style="fill:none;stroke:#ff7f0e;stroke-linecap:square;stroke-width:1.5;"/>
    </g>
    <g id="line2d_142"/>
    <g id="text_34">
     <!-- REM -->
     <defs>
      <path d="M 44.390625 34.1875 
Q 47.5625 33.109375 50.5625 29.59375 
Q 53.5625 26.078125 56.59375 19.921875 
L 66.609375 0 
L 56 0 
L 46.6875 18.703125 
Q 43.0625 26.03125 39.671875 28.421875 
Q 36.28125 30.8125 30.421875 30.8125 
L 19.671875 30.8125 
L 19.671875 0 
L 9.8125 0 
L 9.8125 72.90625 
L 32.078125 72.90625 
Q 44.578125 72.90625 50.734375 67.671875 
Q 56.890625 62.453125 56.890625 51.90625 
Q 56.890625 45.015625 53.6875 40.46875 
Q 50.484375 35.9375 44.390625 34.1875 
z
M 19.671875 64.796875 
L 19.671875 38.921875 
L 32.078125 38.921875 
Q 39.203125 38.921875 42.84375 42.21875 
Q 46.484375 45.515625 46.484375 51.90625 
Q 46.484375 58.296875 42.84375 61.546875 
Q 39.203125 64.796875 32.078125 64.796875 
z
" id="DejaVuSans-82"/>
      <path d="M 9.8125 72.90625 
L 55.90625 72.90625 
L 55.90625 64.59375 
L 19.671875 64.59375 
L 19.671875 43.015625 
L 54.390625 43.015625 
L 54.390625 34.71875 
L 19.671875 34.71875 
L 19.671875 8.296875 
L 56.78125 8.296875 
L 56.78125 0 
L 9.8125 0 
z
" id="DejaVuSans-69"/>
      <path d="M 9.8125 72.90625 
L 24.515625 72.90625 
L 43.109375 23.296875 
L 61.8125 72.90625 
L 76.515625 72.90625 
L 76.515625 0 
L 66.890625 0 
L 66.890625 64.015625 
L 48.09375 14.015625 
L 38.1875 14.015625 
L 19.390625 64.015625 
L 19.390625 0 
L 9.8125 0 
z
" id="DejaVuSans-77"/>
     </defs>
     <g transform="translate(573.041167 125.868775)scale(0.12 -0.12)">
      <use xlink:href="#DejaVuSans-82"/>
      <use x="69.482422" xlink:href="#DejaVuSans-69"/>
      <use x="132.666016" xlink:href="#DejaVuSans-77"/>
     </g>
    </g>
    <g id="line2d_143">
     <path d="M 539.441167 139.282525 
L 563.441167 139.282525 
" style="fill:none;stroke:#2ca02c;stroke-linecap:square;stroke-width:1.5;"/>
    </g>
    <g id="line2d_144"/>
    <g id="text_35">
     <!-- NREM -->
     <defs>
      <path d="M 9.8125 72.90625 
L 23.09375 72.90625 
L 55.421875 11.921875 
L 55.421875 72.90625 
L 64.984375 72.90625 
L 64.984375 0 
L 51.703125 0 
L 19.390625 60.984375 
L 19.390625 0 
L 9.8125 0 
z
" id="DejaVuSans-78"/>
     </defs>
     <g transform="translate(573.041167 143.482525)scale(0.12 -0.12)">
      <use xlink:href="#DejaVuSans-78"/>
      <use x="74.804688" xlink:href="#DejaVuSans-82"/>
      <use x="144.287109" xlink:href="#DejaVuSans-69"/>
      <use x="207.470703" xlink:href="#DejaVuSans-77"/>
     </g>
    </g>
    <g id="line2d_145">
     <path d="M 539.441167 156.896275 
L 563.441167 156.896275 
" style="fill:none;stroke:#d62728;stroke-linecap:square;stroke-width:1.5;"/>
    </g>
    <g id="line2d_146"/>
    <g id="text_36">
     <!-- pre-REM -->
     <defs>
      <path d="M 4.890625 31.390625 
L 31.203125 31.390625 
L 31.203125 23.390625 
L 4.890625 23.390625 
z
" id="DejaVuSans-45"/>
     </defs>
     <g transform="translate(573.041167 161.096275)scale(0.12 -0.12)">
      <use xlink:href="#DejaVuSans-112"/>
      <use x="63.476562" xlink:href="#DejaVuSans-114"/>
      <use x="104.558594" xlink:href="#DejaVuSans-101"/>
      <use x="166.082031" xlink:href="#DejaVuSans-45"/>
      <use x="202.166016" xlink:href="#DejaVuSans-82"/>
      <use x="271.648438" xlink:href="#DejaVuSans-69"/>
      <use x="334.832031" xlink:href="#DejaVuSans-77"/>
     </g>
    </g>
    <g id="line2d_147">
     <path d="M 539.441167 174.510025 
L 563.441167 174.510025 
" style="fill:none;stroke:#9467bd;stroke-linecap:square;stroke-width:1.5;"/>
    </g>
    <g id="line2d_148"/>
    <g id="text_37">
     <!-- artifact -->
     <defs>
      <path d="M 18.3125 70.21875 
L 18.3125 54.6875 
L 36.8125 54.6875 
L 36.8125 47.703125 
L 18.3125 47.703125 
L 18.3125 18.015625 
Q 18.3125 11.328125 20.140625 9.421875 
Q 21.96875 7.515625 27.59375 7.515625 
L 36.8125 7.515625 
L 36.8125 0 
L 27.59375 0 
Q 17.1875 0 13.234375 3.875 
Q 9.28125 7.765625 9.28125 18.015625 
L 9.28125 47.703125 
L 2.6875 47.703125 
L 2.6875 54.6875 
L 9.28125 54.6875 
L 9.28125 70.21875 
z
" id="DejaVuSans-116"/>
      <path d="M 9.421875 54.6875 
L 18.40625 54.6875 
L 18.40625 0 
L 9.421875 0 
z
M 9.421875 75.984375 
L 18.40625 75.984375 
L 18.40625 64.59375 
L 9.421875 64.59375 
z
" id="DejaVuSans-105"/>
     </defs>
     <g transform="translate(573.041167 178.710025)scale(0.12 -0.12)">
      <use xlink:href="#DejaVuSans-97"/>
      <use x="61.279297" xlink:href="#DejaVuSans-114"/>
      <use x="102.392578" xlink:href="#DejaVuSans-116"/>
      <use x="141.601562" xlink:href="#DejaVuSans-105"/>
      <use x="169.384766" xlink:href="#DejaVuSans-102"/>
      <use x="204.589844" xlink:href="#DejaVuSans-97"/>
      <use x="265.869141" xlink:href="#DejaVuSans-99"/>
      <use x="320.849609" xlink:href="#DejaVuSans-116"/>
     </g>
    </g>
   </g>
  </g>
 </g>
 <defs>
  <clipPath id="p476d0cead1">
   <rect height="160.34748" width="182.543333" x="53.84" y="29.63252"/>
  </clipPath>
  <clipPath id="p700da3484f">
   <rect height="160.34748" width="182.543333" x="253.168333" y="29.63252"/>
  </clipPath>
  <clipPath id="p305de7ca3e">
   <rect height="160.34748" width="182.543333" x="452.496667" y="29.63252"/>
  </clipPath>
  <clipPath id="p7bdd6ecde8">
   <rect height="160.34748" width="182.543333" x="53.84" y="226.09252"/>
  </clipPath>
  <clipPath id="pd33e120042">
   <rect height="160.34748" width="182.543333" x="253.168333" y="226.09252"/>
  </clipPath>
  <clipPath id="p6d2648bd84">
   <rect height="160.34748" width="182.543333" x="452.496667" y="226.09252"/>
  </clipPath>
 </defs>
</svg>
